# Blender v3.5.0 OBJ File: 'dayScene.blend'
# www.blender.org
mtllib group1410581753.mtl
o group1410581753
v 7.020378 -0.399392 7.061284
v 8.479550 4.303980 6.937015
v 10.345709 1.524510 1.137557
v 7.747572 -2.271824 2.866810
v -4.790979 -5.010796 7.282698
v -4.121947 -7.062943 2.921842
v -7.950332 -6.911480 1.446419
v -9.392112 -3.779604 7.133395
v 5.758824 -0.012453 -6.490002
v 0.866945 -2.537713 -7.755489
v 2.705235 -6.085403 1.543307
v 7.603473 -5.061042 5.714221
v 6.881661 -3.748891 8.324654
v -1.648142 20.410740 -5.410073
v -13.313905 15.446125 -5.118649
v -12.489936 13.570309 -10.958118
v -0.624297 18.045612 -10.933084
v -4.206648 -3.746260 -6.391325
v -6.856832 -0.247364 -9.002916
v -14.130948 -1.047506 -5.054898
v -12.365172 -4.984016 -1.599841
v 4.667659 4.451072 -9.155473
v 3.047519 8.903546 -11.118400
v -2.716076 6.007991 -12.234468
v 6.069420 11.801756 5.631137
v 9.199280 16.764204 -1.519789
v 11.971334 8.031857 2.404489
v -13.646760 5.397520 4.332612
v -8.763839 4.292135 -10.896978
v -15.301284 8.411772 -8.512902
v 3.849893 19.380648 -1.845703
v 3.646597 16.429560 -8.751411
v -16.482347 11.151824 -1.759028
v -16.170685 3.491234 -6.807246
v -18.539557 5.578759 -1.495778
v -14.825244 -3.235795 2.142877
v 8.157810 13.326588 -6.548610
v 10.177287 8.959709 -12.634224
v 11.263093 5.916524 -2.010326
v 9.682625 8.719053 -4.890883
v 3.598552 -8.503776 5.448118
v -2.657483 -7.555954 8.487326
v -2.239895 -8.541906 5.672872
v 2.768157 -7.161691 8.859980
v -14.447544 0.847242 -12.147396
v -2.413842 -5.924541 2.702486
v -2.358406 -4.701798 -0.887361
v -2.280246 -5.950270 -1.308818
v -2.293711 -6.327059 -0.201137
v -2.324395 -7.185695 2.323100
v -9.218345 -5.829577 1.262813
v -9.111858 -7.087355 0.876718
v -7.960543 -5.697834 -2.854950
v -8.110207 -4.512778 -2.272904
v -6.443746 -3.929429 -4.192357
v -4.506830 -3.910518 -3.505433
v -2.869338 -6.220930 -0.581067
v -3.643588 -6.406982 0.021200
v -4.844477 -7.149181 1.786080
v -6.966415 -7.118440 1.333902
v -4.416372 -5.156851 -3.928793
v -6.409625 -5.184095 -4.601125
v -5.261103 -5.168402 -4.213722
v -6.793305 -6.044620 -1.966210
v -3.160408 -5.646457 -2.348328
v -2.618920 -5.834863 -1.756926
v -3.811198 -5.383443 -3.156989
v -5.630632 -5.994666 -1.880815
v -5.035816 -5.709293 -2.678604
v -5.472537 -6.419227 -0.377533
v -4.740454 -6.586426 0.373907
v -2.833486 -5.964868 -1.421971
v -3.549235 -5.503921 -2.855802
v -3.987805 -5.573244 -2.810125
v -4.348887 -5.810580 -2.291293
v -4.162148 -6.040356 -1.537206
v -3.608912 -6.084402 -1.319440
v 6.401270 -3.588124 2.142935
v 5.896044 -3.051746 -0.419683
v 5.674335 -2.816370 -1.544208
v 4.739029 -1.958055 -1.182389
v 5.466330 -2.712858 2.462669
v 8.364389 2.584384 -2.305627
v 9.216377 1.712423 -2.834165
v 10.762093 1.691580 1.011872
v 9.840170 2.577746 1.339266
v 5.684346 0.208547 -3.733542
v 6.983475 1.686158 -4.327497
v 6.804738 -2.067446 -0.130863
v 6.208502 -2.540330 -0.777154
v 9.383687 0.022724 1.369386
v 8.020375 -1.627850 1.722986
v 6.610290 -0.657835 -4.097944
v 7.178396 -0.015585 -4.342196
v 7.950808 0.857635 -4.674296
v 8.675510 0.590637 -1.984678
v 5.832918 -2.480671 -1.981216
v 6.074953 -1.941934 -2.555358
v 6.344506 -1.270638 -3.344879
v 7.344093 -0.541062 -2.794182
v 7.888412 -0.270331 -1.956253
v 8.010100 -0.669565 -0.442679
v 7.619095 -1.341662 0.281174
v 6.046787 -2.400534 -1.630540
v 6.248855 -1.550124 -3.050616
v 6.579112 -1.257998 -2.981107
v 6.956293 -1.134853 -2.434788
v 6.961551 -1.428366 -1.679713
v 6.626900 -1.882188 -1.486087
vt 0.072166 0.051362
vt 0.069823 0.045964
vt 0.068484 0.049590
vt -0.055861 -0.029550
vt -0.050117 -0.029863
vt -0.051890 -0.033415
vt 0.079672 -0.046710
vt 0.068789 -0.054721
vt 0.075569 -0.046615
vt -0.083295 0.052892
vt -0.088843 0.059684
vt -0.080904 0.057701
vt 0.103312 0.010576
vt 0.105973 0.007493
vt 0.103050 0.008086
vt 0.026264 0.027452
vt 0.015467 0.031805
vt 0.019165 0.035277
vt -0.112267 -0.024773
vt -0.118918 -0.019252
vt -0.115111 -0.017347
vt -0.102209 -0.063625
vt -0.105121 -0.059013
vt -0.101425 -0.056882
vt 0.114412 -0.008232
vt 0.115446 -0.014574
vt 0.109673 -0.011324
vt 0.095352 -0.052032
vt 0.079470 -0.061193
vt 0.089739 -0.048481
vt -0.101059 -0.030503
vt -0.106128 -0.028944
vt -0.099452 -0.023959
vt -0.079530 -0.055317
vt -0.069496 -0.053349
vt -0.072534 -0.063237
vt 0.070785 -0.040436
vt 0.070095 -0.046580
vt 0.065416 -0.043647
vt 0.123354 0.005719
vt 0.125638 -0.009031
vt 0.121676 -0.012483
vt -0.099831 -0.029463
vt -0.104231 -0.029488
vt -0.102608 -0.022948
vt 0.083833 -0.089234
vt 0.084102 -0.082896
vt 0.088750 -0.088618
vt -0.077365 -0.043773
vt -0.075382 -0.037559
vt -0.071615 -0.041598
vt -0.118874 -0.029797
vt -0.120849 -0.025044
vt -0.117095 -0.022756
vt 0.060970 -0.056142
vt 0.058527 -0.063051
vt 0.056481 -0.058572
vt -0.118414 -0.020543
vt -0.113387 -0.024824
vt -0.117311 -0.026516
vt -0.069502 0.091614
vt -0.067712 0.087412
vt -0.075169 0.086391
vt 0.102553 -0.059580
vt 0.102221 -0.066852
vt 0.096319 -0.061011
vt -0.085751 0.035404
vt -0.089645 0.041052
vt -0.085323 0.040499
vt -0.062371 0.063094
vt -0.068654 0.060722
vt -0.067033 0.065615
vt -0.018085 -0.101316
vt -0.012406 -0.097965
vt -0.016358 -0.105164
vt -0.015271 -0.099478
vt -0.008603 -0.100802
vt -0.014204 -0.104279
vt -0.097889 0.006705
vt -0.103405 0.012083
vt -0.095653 0.009294
vt -0.108328 -0.010477
vt -0.110322 -0.002779
vt -0.104438 -0.007751
vt 0.086479 0.053104
vt 0.080991 0.054602
vt 0.084889 0.056790
vt -0.060435 0.080958
vt -0.067764 0.084614
vt -0.060250 0.085050
vt -0.101655 0.023397
vt -0.105075 0.019181
vt -0.104769 0.024554
vt -0.090027 -0.043651
vt -0.090296 -0.047512
vt -0.092957 -0.044454
vt 0.088955 -0.044158
vt 0.095318 -0.041694
vt 0.089904 -0.050770
vt 0.015316 0.039168
vt 0.017381 0.043848
vt 0.018896 0.041853
vt -0.082716 -0.082794
vt -0.086564 -0.078677
vt -0.083155 -0.075901
vt -0.062403 -0.102169
vt -0.054316 -0.102186
vt -0.056936 -0.105753
vt -0.028369 0.089617
vt -0.024007 0.084839
vt -0.030367 0.083323
vt 0.123743 -0.016897
vt 0.122370 -0.023214
vt 0.118726 -0.020980
vt 0.008891 0.005084
vt 0.011217 -0.000528
vt 0.004476 0.000361
vt 0.016175 0.019346
vt 0.012924 0.015327
vt 0.011333 0.022228
vt -0.122012 -0.025353
vt -0.116325 -0.027622
vt -0.119958 -0.030097
vt -0.109751 -0.000223
vt -0.104892 0.004686
vt -0.103948 -0.002178
vt -0.110162 -0.037920
vt -0.114118 -0.039793
vt -0.116245 -0.034879
vt -0.039485 -0.000137
vt -0.044109 -0.002238
vt -0.041754 0.002023
vt -0.101737 -0.002745
vt -0.104618 0.002226
vt -0.100726 0.002017
vt -0.096065 0.014289
vt -0.104489 0.011169
vt -0.104386 0.015657
vt 0.125649 -0.009330
vt 0.114723 -0.025315
vt 0.116668 -0.008116
vt -0.015212 -0.110298
vt -0.009300 -0.114892
vt -0.014306 -0.118768
vt 0.122775 -0.009850
vt 0.124976 -0.014306
vt 0.115955 -0.013441
vt 0.073917 0.046071
vt -0.053271 -0.027317
vt 0.068545 -0.058685
vt -0.091254 0.055658
vt 0.106548 0.011323
vt 0.022508 0.023927
vt -0.116749 -0.025833
vt -0.097468 -0.054938
vt -0.095020 -0.058949
vt 0.122231 -0.010968
vt 0.086226 -0.066735
vt -0.073496 -0.049760
vt -0.066419 -0.057608
vt 0.073921 -0.043247
vt 0.126882 0.001463
vt -0.079254 -0.040270
vt -0.112610 -0.021753
vt -0.111467 -0.025578
vt 0.063950 -0.059996
vt 0.099261 -0.058130
vt 0.105379 -0.062786
vt -0.090653 0.035013
vt -0.064613 0.057366
vt 0.082373 0.049277
vt -0.101180 0.019017
vt -0.088239 -0.045409
vt 0.087932 -0.048584
vt 0.092365 -0.041261
vt 0.013518 0.041731
vt -0.061223 -0.098770
vt -0.108426 -0.031355
vt -0.106711 -0.035491
vt -0.042156 -0.003813
vt -0.104641 -0.003634
vt -0.096707 0.008466
vt 0.121848 -0.027210
vt -0.010581 -0.106248
vt 0.107808 0.008263
vt 0.109229 0.007884
vt 0.106592 0.006141
vt -0.097945 0.024536
vt -0.094862 0.022899
vt -0.095682 0.022166
vt 0.101085 0.005859
vt 0.098460 0.003898
vt 0.098346 0.009961
vt 0.023137 -0.066973
vt 0.024257 -0.065141
vt 0.025184 -0.065733
vt 0.055739 -0.091433
vt 0.052694 -0.090947
vt 0.053232 -0.089988
vt -0.012648 -0.076144
vt -0.012959 -0.077537
vt -0.014005 -0.076180
vt -0.073312 0.022888
vt -0.071445 0.021653
vt -0.072308 0.020960
vt -0.099796 0.005578
vt -0.101849 0.006685
vt -0.101229 0.007479
vt -0.101038 0.004437
vt -0.099320 0.001763
vt -0.102114 0.003793
vt -0.110837 -0.014510
vt -0.112624 -0.016137
vt -0.110485 -0.014188
vt -0.073073 -0.069274
vt -0.073902 -0.069603
vt -0.074689 -0.069894
vt 0.079139 -0.058612
vt 0.079460 -0.058745
vt 0.078617 -0.058451
vt -0.100075 0.011451
vt -0.099435 0.011698
vt -0.099215 0.011427
vt -0.099799 -0.029360
vt -0.099578 -0.028283
vt -0.098623 -0.028477
vt 0.077418 -0.041886
vt 0.080811 -0.042708
vt 0.077545 -0.042979
vt 0.059212 0.083145
vt 0.057849 0.087886
vt 0.060315 0.085825
vt 0.078172 -0.021388
vt 0.079866 -0.020698
vt 0.080312 -0.021704
vt -0.110203 -0.008371
vt -0.112498 -0.006311
vt -0.109797 -0.007348
vt -0.086795 -0.016604
vt -0.086396 -0.015579
vt -0.085490 -0.016027
vt 0.037238 -0.047735
vt 0.039174 -0.048859
vt 0.037002 -0.048817
vt -0.053940 0.091189
vt -0.051822 0.090213
vt -0.054202 0.090217
vt -0.052472 0.089532
vt -0.055628 0.089153
vt -0.055817 0.090393
vt -0.111026 -0.000416
vt -0.112066 0.000104
vt -0.111456 -0.000209
vt 0.110014 0.004151
vt 0.109243 0.003822
vt 0.108414 0.003491
vt -0.106072 0.011880
vt -0.106890 0.012236
vt -0.106564 0.012116
vt -0.069385 0.076848
vt -0.069454 0.077637
vt -0.068898 0.077723
vt 0.105954 0.007037
vt 0.108621 0.008801
vt -0.097248 0.025396
vt 0.095398 0.008820
vt 0.101104 0.009072
vt 0.102172 0.007737
vt 0.022160 -0.070679
vt 0.021240 -0.070076
vt 0.022194 -0.068516
vt 0.055205 -0.092394
vt -0.013101 -0.075555
vt -0.012032 -0.076945
vt -0.072353 0.023427
vt -0.100879 0.004946
vt -0.098366 0.003322
vt -0.111329 -0.014988
vt -0.099330 0.010778
vt -0.099660 0.010407
vt -0.100331 0.010483
vt -0.100672 0.010931
vt -0.100598 0.011295
vt -0.096445 -0.028919
vt -0.096701 -0.029989
vt 0.080860 -0.041602
vt 0.056437 0.081632
vt 0.054657 0.087148
vt 0.059985 0.087502
vt 0.074944 -0.023890
vt 0.076498 -0.022069
vt 0.074509 -0.022879
vt -0.112909 -0.007331
vt -0.084824 -0.016355
vt -0.085261 -0.017364
vt 0.039231 -0.047761
vt -0.051967 0.091458
vt -0.053066 0.087804
vt -0.113639 0.000828
vt -0.068381 0.076816
vt -0.068748 0.076269
vt -0.069094 0.076226
vt -0.069654 0.077323
vt -0.068362 0.077313
vt -0.098396 0.005318
vt -0.098198 0.006442
vt -0.096118 0.005661
vt -0.100765 0.007519
vt -0.100655 0.005918
vt -0.102104 0.007808
vt -0.096509 0.010160
vt -0.098174 0.009622
vt -0.097770 0.010507
vt -0.098328 0.008427
vt -0.098116 0.006369
vt -0.099136 0.008067
vt -0.099602 0.007296
vt -0.098429 0.005823
vt -0.099596 0.006325
vt -0.100903 0.011289
vt -0.101792 0.012168
vt -0.100991 0.012415
vt -0.097494 0.009383
vt -0.097927 0.010070
vt -0.097018 0.009718
vt -0.050757 0.088532
vt -0.049970 0.089360
vt -0.048892 0.087323
vt -0.058781 0.086565
vt -0.060061 0.085597
vt -0.061158 0.086416
vt -0.056900 0.085178
vt -0.056277 0.083542
vt -0.057337 0.084310
vt -0.062427 0.080724
vt -0.064040 0.079430
vt -0.064352 0.080258
vt -0.064105 0.079420
vt -0.065972 0.079172
vt -0.065294 0.079867
vt -0.074056 0.074707
vt -0.072807 0.074773
vt -0.073620 0.073990
vt -0.057153 0.084185
vt -0.056346 0.084279
vt -0.056308 0.083698
vt -0.098670 0.006103
vt -0.100272 0.006812
vt -0.095532 0.008437
vt -0.097169 0.007909
vt -0.097328 0.007666
vt -0.102242 0.011577
vt -0.098387 0.009940
vt -0.050764 0.089114
vt -0.059204 0.085689
vt -0.054322 0.083858
vt -0.062857 0.078969
vt -0.064590 0.077328
vt -0.073999 0.075448
vt -0.057340 0.084624
vt -0.097372 0.008861
vt -0.096698 0.008572
vt -0.096436 0.007782
vt -0.106559 0.003984
vt -0.106833 0.004219
vt -0.106513 0.004353
vt -0.100723 0.007829
vt -0.101230 0.007403
vt -0.101066 0.008275
vt -0.097340 0.008405
vt -0.098047 0.007365
vt -0.098009 0.008496
vt -0.096078 0.009154
vt -0.094715 0.008095
vt -0.095536 0.007763
vt -0.092252 0.014567
vt -0.091206 0.014091
vt -0.091270 0.013121
vt -0.048773 0.088267
vt -0.049392 0.088659
vt -0.047974 0.088498
vt -0.091420 0.059632
vt -0.091072 0.059727
vt -0.091188 0.059374
vt -0.062712 0.084115
vt -0.062681 0.083453
vt -0.063240 0.083402
vt -0.047726 0.090635
vt -0.048196 0.089468
vt -0.048644 0.089973
vt -0.042835 0.089628
vt -0.044448 0.090240
vt -0.042979 0.090502
vt -0.045612 0.084671
vt -0.046557 0.085325
vt -0.044812 0.085222
vt -0.097587 0.009135
vt -0.106665 0.003103
vt -0.100734 0.006698
vt -0.096785 0.007021
vt -0.095736 0.009514
vt -0.092096 0.015208
vt -0.049740 0.088682
vt -0.090790 0.060569
vt -0.061857 0.084229
vt -0.046737 0.089779
vt -0.044578 0.089761
vt -0.047026 0.084862
vn 0.8417 -0.4235 0.3350
vn -0.2474 -0.8739 0.4185
vn 0.0096 0.0234 0.9997
vn 0.6241 -0.7189 -0.3062
vn 0.9689 0.0512 0.2422
vn -0.3191 0.8484 -0.4224
vn -0.2790 -0.7011 -0.6562
vn 0.3176 -0.2834 -0.9049
vn 0.6040 0.3212 0.7294
vn -0.0584 0.1530 0.9865
vn -0.4355 -0.1807 -0.8819
vn -0.0411 0.1144 -0.9926
vn 0.3975 0.8395 -0.3705
vn -0.2855 0.7123 0.6412
vn -0.4533 -0.2194 -0.8639
vn -0.7267 0.2975 0.6193
vn -0.4120 -0.8383 0.3572
vn -0.8619 -0.4652 -0.2016
vn 0.3879 0.7215 -0.5736
vn -0.1822 -0.4514 -0.8735
vn 0.8028 -0.4489 -0.3923
vn 0.9442 0.1740 -0.2798
vn -0.9105 0.0177 -0.4130
vn -0.8953 0.3715 -0.2457
vn 0.5087 0.2212 -0.8320
vn 0.5428 0.2123 -0.8126
vn 0.0919 -0.9378 -0.3348
vn -0.1073 -0.9030 -0.4159
vn 0.9712 -0.2341 -0.0436
vn 0.7160 -0.6285 -0.3039
vn 0.5911 -0.5910 -0.5490
vn -0.7567 -0.6286 0.1797
vn -0.1063 0.3175 0.9423
vn 0.5946 -0.6403 0.4863
vn 0.3428 -0.2355 -0.9094
vn 0.7307 -0.2094 -0.6498
vn 0.6396 -0.7685 0.0170
vn 0.9392 0.3362 0.0704
vn -0.1352 0.7832 -0.6069
vn -0.3634 0.7829 -0.5049
vn -0.8983 -0.4329 -0.0755
vn -0.0330 -0.9660 -0.2566
vn -0.0833 -0.4133 -0.9068
vn 0.0203 -0.9287 0.3703
vn -0.0146 -0.8516 -0.5241
vn 0.1184 -0.9197 -0.3743
vn -0.2556 0.6400 0.7246
vn -0.7655 -0.0580 0.6408
vn 0.3100 0.7122 0.6299
vn 0.8755 -0.2609 0.4067
vn -0.1876 -0.8995 0.3945
vn -0.0163 0.0602 0.9981
vn 0.5000 -0.7716 -0.3932
vn 0.9874 0.0850 0.1332
vn -0.3765 0.8652 -0.3311
vn 0.4141 -0.3899 -0.8225
vn 0.2995 -0.3414 -0.8909
vn 0.6360 0.4752 0.6081
vn -0.1381 0.2300 0.9633
vn 0.1504 0.0804 -0.9853
vn -0.1925 -0.0837 -0.9777
vn 0.4603 0.8438 -0.2760
vn -0.2855 0.7087 0.6452
vn -0.4600 -0.8812 0.1092
vn -0.7833 -0.5697 -0.2488
vn -0.8626 -0.4549 -0.2215
vn 0.6378 0.7012 -0.3184
vn 0.9306 0.2488 -0.2685
vn 0.9272 0.1908 -0.3225
vn -0.9028 0.3197 -0.2876
vn -0.8646 0.3944 -0.3112
vn 0.8588 -0.2960 0.4182
vn 0.5758 -0.6295 -0.5216
vn -0.7850 -0.6117 0.0978
vn -0.0901 0.3634 0.9273
vn -0.1740 0.3538 0.9190
vn 0.5765 -0.7028 0.4168
vn 0.7479 -0.2215 -0.6258
vn 0.0062 -0.4622 -0.8868
vn -0.0600 -0.6259 -0.7776
vn 0.0453 -0.9407 0.3363
vn 0.0266 -0.8728 -0.4874
vn 0.0669 -0.9397 -0.3353
vn -0.2561 0.6404 0.7241
vn -0.6786 -0.0922 0.7287
vn 0.9980 0.0540 0.0338
vn -0.9552 0.0099 -0.2957
vn -0.0497 0.9410 0.3349
vn -0.2032 -0.2953 0.9336
vn 0.7867 0.2411 -0.5684
vn 0.3144 0.3156 -0.8953
vn -0.7691 0.2009 -0.6067
vn 0.1120 -0.9493 -0.2937
vn -0.0103 -0.9360 -0.3517
vn 0.5870 0.7716 -0.2450
vn -0.7501 -0.4898 0.4443
vn 0.7022 0.6104 -0.3666
vn 0.0420 -0.9402 -0.3380
vn -0.6801 -0.7329 -0.0193
vn 0.6230 0.7409 -0.2509
vn -0.7159 0.6402 0.2785
vn 0.2982 -0.0420 0.9536
vn -0.6487 -0.4473 -0.6158
vn -0.3626 -0.0335 -0.9314
vn 0.3790 0.7215 -0.5794
vn 0.6757 -0.6931 -0.2509
vn 0.7477 -0.5905 -0.3037
vn -0.9413 0.3246 -0.0923
vn 0.8244 0.2601 0.5027
vn -0.8914 -0.1466 -0.4289
vn 0.6654 -0.6809 -0.3059
vn 0.9976 0.0609 0.0328
vn 0.9982 0.0524 0.0300
vn -0.9575 0.0204 -0.2878
vn -0.0548 0.9454 0.3212
vn -0.0470 0.9448 0.3242
vn -0.0873 0.9717 0.2195
vn -0.2016 -0.2981 0.9330
vn -0.2028 -0.3030 0.9312
vn 0.7842 0.2499 -0.5680
vn 0.2981 0.3263 -0.8970
vn 0.3009 0.3028 -0.9043
vn -0.7612 0.1821 -0.6225
vn -0.0413 -0.9480 -0.3156
vn 0.0516 -0.9505 -0.3066
vn -0.0703 -0.9673 -0.2438
vn 0.0966 -0.9303 -0.3539
vn 0.0697 -0.9285 -0.3648
vn 0.1149 -0.9419 -0.3155
vn 0.1118 -0.9308 -0.3480
vn 0.1111 -0.9314 -0.3467
vn -0.6864 -0.7270 -0.0169
vn -0.6814 -0.7317 -0.0156
vn 0.6158 0.7493 -0.2434
vn -0.7113 0.6466 0.2758
vn -0.7120 0.6398 0.2894
vn -0.7036 0.6888 0.1746
vn 0.2936 -0.0399 0.9551
vn 0.2924 -0.0368 0.9556
vn -0.6538 -0.4398 -0.6157
vn -0.3793 -0.0163 -0.9251
vn -0.3816 -0.0357 -0.9236
vn 0.3894 0.7035 -0.5946
vn 0.7742 -0.5745 -0.2656
vn 0.7161 -0.6474 -0.2608
vn 0.4909 -0.7458 -0.4504
vn 0.6751 -0.6689 -0.3111
vn 0.7165 -0.6334 -0.2923
vn 0.6662 -0.6807 -0.3046
vn 0.6697 -0.6906 -0.2731
vn 0.6917 -0.6470 -0.3209
vn 0.0030 -0.9467 -0.3220
vn 0.0426 -0.9403 -0.3376
vn 0.0616 -0.9588 -0.2773
vn 0.0955 -0.9479 -0.3039
vn 0.0337 -0.9293 -0.3678
vn 0.1075 -0.9280 -0.3568
vn 0.0377 -0.9462 -0.3214
vn 0.7454 -0.6077 -0.2741
vn 0.7162 -0.6339 -0.2918
vn 0.7142 -0.6605 -0.2316
vn 0.6859 -0.6795 -0.2604
vn 0.7155 -0.6199 -0.3222
vn 0.6666 -0.6758 -0.3146
vn 0.7228 -0.6339 -0.2752
vn 0.0101 -0.9590 -0.2832
vn 0.0626 -0.9536 -0.2944
vn 0.0961 -0.9480 -0.3034
vn 0.0644 -0.9286 -0.3653
vn 0.0613 -0.9343 -0.3512
vn 0.1295 -0.9291 -0.3464
vn 0.0696 -0.9521 -0.2978
vn 0.7476 -0.6211 -0.2352
vn 0.7107 -0.6579 -0.2491
vn 0.6856 -0.6800 -0.2599
vn 0.6952 -0.6430 -0.3211
vn 0.7006 -0.6443 -0.3066
vn 0.6527 -0.6934 -0.3052
vn 0.7053 -0.6623 -0.2528
vn 0.0034 -0.9567 -0.2912
vn 0.0953 -0.8929 -0.4401
vn 0.0734 -0.9253 -0.3722
vn 0.0406 -0.9529 -0.3004
vn 0.0477 -0.9641 -0.2610
vn 0.0843 -0.9693 -0.2310
vn 0.7506 -0.6145 -0.2429
vn 0.6532 -0.6436 -0.3989
vn 0.6874 -0.6478 -0.3285
vn 0.7246 -0.6406 -0.2541
vn 0.7260 -0.6534 -0.2145
vn 0.7045 -0.6849 -0.1861
vn 0.1328 -0.9497 -0.2835
vn 0.0580 -0.8879 -0.4563
vn 0.0362 -0.9492 -0.3125
vn 0.0344 -0.9608 -0.2750
vn 0.0283 -0.9634 -0.2667
vn 0.1186 -0.9661 -0.2294
vn 0.6621 -0.7094 -0.2417
vn 0.6743 -0.6117 -0.4136
vn 0.7254 -0.6348 -0.2661
vn 0.7329 -0.6410 -0.2280
vn 0.7382 -0.6379 -0.2193
vn 0.6800 -0.7092 -0.1862
usemtl mat6
s off
f 3/1/1 1/2/1 4/3/1
f 7/4/2 5/5/2 8/6/2
f 2/7/3 5/8/3 1/9/3
f 11/10/4 9/11/4 4/12/4
f 12/13/5 1/14/5 13/15/5
f 16/16/6 14/17/6 17/18/6
f 21/19/7 19/20/7 18/21/7
f 24/22/8 23/23/8 22/24/8
f 27/25/9 25/26/9 2/27/9
f 25/28/10 8/29/10 2/30/10
f 30/31/11 16/32/11 29/33/11
f 17/34/12 24/35/12 16/36/12
f 32/37/13 14/38/13 31/39/13
f 31/40/14 15/41/14 33/42/14
f 34/43/15 30/44/15 29/45/15
f 35/46/16 28/47/16 33/48/16
f 36/49/17 7/50/17 8/51/17
f 35/52/18 34/53/18 20/54/18
f 37/55/19 31/56/19 26/57/19
f 38/58/20 22/59/20 23/60/20
f 39/61/21 3/62/21 9/63/21
f 40/64/22 26/65/22 27/66/22
f 35/67/23 30/68/23 34/69/23
f 30/70/24 15/71/24 16/72/24
f 32/73/25 23/74/25 17/75/25
f 37/76/26 23/77/26 32/78/26
f 7/79/27 18/80/27 6/81/27
f 21/82/28 18/83/28 7/84/28
f 27/85/29 3/86/29 39/87/29
f 4/88/30 9/89/30 3/90/30
f 12/91/31 11/92/31 4/93/31
f 43/94/32 5/95/32 6/96/32
f 44/97/33 1/98/33 5/99/33
f 44/100/34 12/101/34 13/102/34
f 45/103/35 29/104/35 19/105/35
f 40/106/36 9/107/36 22/108/36
f 38/109/37 40/110/37 22/111/37
f 38/112/38 37/113/38 40/114/38
f 38/115/39 23/116/39 37/117/39
f 45/118/40 34/119/40 29/120/40
f 45/121/41 20/122/41 34/123/41
f 45/124/42 19/125/42 20/126/42
f 19/127/43 29/128/43 24/129/43
f 44/130/44 43/131/44 41/132/44
f 43/133/45 11/134/45 41/135/45
f 11/136/46 18/137/46 10/138/46
f 31/139/47 28/140/47 25/141/47
f 36/142/48 28/143/48 35/144/48
f 26/145/49 31/146/49 25/147/49
f 3/1/50 2/148/50 1/2/50
f 7/4/51 6/149/51 5/5/51
f 2/7/52 8/150/52 5/8/52
f 11/10/53 10/151/53 9/11/53
f 12/13/54 4/152/54 1/14/54
f 16/16/55 15/153/55 14/17/55
f 21/19/7 20/154/7 19/20/7
f 9/155/56 10/156/56 22/24/56
f 10/156/57 24/22/57 22/24/57
f 27/25/58 26/157/58 25/26/58
f 25/28/59 28/158/59 8/29/59
f 23/159/60 24/35/60 17/34/60
f 24/35/61 29/160/61 16/36/61
f 32/37/62 17/161/62 14/38/62
f 31/40/63 14/162/63 15/41/63
f 36/49/64 21/163/64 7/50/64
f 21/164/65 36/165/65 20/54/65
f 36/165/66 35/52/66 20/54/66
f 37/55/67 32/166/67 31/56/67
f 27/66/68 39/167/68 40/64/68
f 40/64/69 37/168/69 26/65/69
f 35/67/70 33/169/70 30/68/70
f 30/70/71 33/170/71 15/71/71
f 27/85/72 2/171/72 3/86/72
f 12/91/73 41/172/73 11/92/73
f 43/94/74 42/173/74 5/95/74
f 5/99/75 42/174/75 44/97/75
f 44/97/76 13/175/76 1/98/76
f 44/100/77 41/176/77 12/101/77
f 40/106/78 39/177/78 9/107/78
f 24/129/79 10/178/79 19/127/79
f 10/178/80 18/179/80 19/127/80
f 44/130/81 42/180/81 43/131/81
f 43/133/82 6/181/82 11/134/82
f 11/136/83 6/182/83 18/137/83
f 31/139/84 33/183/84 28/140/84
f 36/142/85 8/184/85 28/143/85
usemtl mat21.002
f 49/185/86 47/186/86 46/187/86
f 54/188/87 52/189/87 51/190/87
f 54/191/88 51/192/88 47/193/88
f 59/194/89 50/195/89 46/196/89
f 61/197/90 47/198/90 48/199/90
f 63/200/91 55/201/91 56/202/91
f 55/203/92 53/204/92 54/205/92
f 64/206/93 62/207/93 63/208/93
f 64/209/94 52/210/94 53/211/94
f 66/212/95 61/213/95 48/214/95
f 65/215/96 67/216/96 61/217/96
f 73/218/97 67/219/97 65/220/97
f 65/221/98 66/222/98 72/223/98
f 81/224/99 80/225/99 79/226/99
f 85/227/100 83/228/100 86/229/100
f 81/230/101 83/231/101 87/232/101
f 91/233/102 85/234/102 86/235/102
f 81/236/103 93/237/103 80/238/103
f 88/239/104 95/240/104 94/241/104
f 84/242/105 88/243/105 83/244/105
f 95/245/106 96/246/106 94/247/106
f 85/248/107 96/249/107 84/250/107
f 80/251/108 98/252/108 97/253/108
f 93/254/109 99/255/109 98/256/109
f 98/257/110 99/258/110 105/259/110
f 98/260/111 106/261/111 107/262/111
f 46/187/112 50/263/112 49/185/112
f 49/185/113 48/264/113 47/186/113
f 54/188/114 53/265/114 52/189/114
f 46/266/115 47/193/115 51/192/115
f 47/193/116 56/267/116 54/191/116
f 56/267/117 55/268/117 54/191/117
f 46/196/118 51/269/118 59/194/118
f 51/269/119 52/270/119 60/271/119
f 59/194/119 51/269/119 60/271/119
f 61/197/120 56/272/120 47/198/120
f 56/202/121 61/273/121 63/200/121
f 63/200/122 62/274/122 55/201/122
f 55/203/123 62/275/123 53/204/123
f 64/206/124 53/276/124 62/207/124
f 64/209/125 60/277/125 52/210/125
f 66/212/126 65/278/126 61/213/126
f 72/223/127 77/279/127 65/221/127
f 77/279/128 76/280/128 65/221/128
f 76/280/129 75/281/129 65/221/129
f 75/281/130 74/282/130 65/221/130
f 74/282/131 73/283/131 65/221/131
f 78/284/132 82/285/132 79/226/132
f 82/285/133 81/224/133 79/226/133
f 85/227/134 84/286/134 83/228/134
f 81/230/135 82/287/135 86/288/135
f 86/288/136 83/231/136 81/230/136
f 83/231/137 88/289/137 87/232/137
f 86/235/138 82/290/138 92/291/138
f 82/290/139 78/292/139 92/291/139
f 92/291/102 91/233/102 86/235/102
f 81/236/140 87/293/140 93/237/140
f 93/294/141 87/295/141 94/241/141
f 87/295/142 88/239/142 94/241/142
f 84/242/143 95/296/143 88/243/143
f 95/245/144 84/297/144 96/246/144
f 85/248/145 91/298/145 96/249/145
f 80/251/146 93/299/146 98/252/146
f 109/300/147 104/301/147 98/260/147
f 104/301/148 97/302/148 98/260/148
f 98/260/149 105/303/149 106/261/149
f 107/262/150 108/304/150 98/260/150
f 108/304/151 109/300/151 98/260/151
usemtl mat5
f 58/305/152 49/306/152 50/307/152
f 69/308/153 64/309/153 63/310/153
f 70/311/154 64/312/154 68/313/154
f 71/314/155 60/315/155 70/316/155
f 58/317/156 59/318/156 71/319/156
f 69/320/157 61/321/157 67/322/157
f 57/323/158 48/324/158 49/325/158
f 79/326/159 89/327/159 78/328/159
f 96/329/160 100/330/160 94/331/160
f 96/332/161 102/333/161 101/334/161
f 91/335/162 103/336/162 102/337/162
f 92/338/163 89/339/163 103/340/163
f 93/341/164 100/342/164 99/343/164
f 80/344/165 90/345/165 79/346/165
f 58/305/166 57/347/166 49/306/166
f 69/308/167 68/348/167 64/309/167
f 70/311/168 60/349/168 64/312/168
f 71/314/169 59/350/169 60/315/169
f 58/317/170 50/351/170 59/318/170
f 69/320/171 63/352/171 61/321/171
f 57/323/172 66/353/172 48/324/172
f 79/326/173 90/354/173 89/327/173
f 96/329/174 101/355/174 100/330/174
f 96/332/175 91/356/175 102/333/175
f 91/335/176 92/357/176 103/336/176
f 92/338/177 78/358/177 89/339/177
f 93/341/178 94/359/178 100/342/178
f 80/344/179 97/360/179 90/345/179
usemtl mat23.002
f 72/361/180 57/362/180 58/363/180
f 74/364/181 67/365/181 73/366/181
f 75/367/182 69/368/182 74/369/182
f 76/370/183 68/371/183 75/372/183
f 76/373/184 71/374/184 70/375/184
f 77/376/185 58/377/185 71/378/185
f 90/379/186 104/380/186 89/381/186
f 99/382/187 106/383/187 105/384/187
f 100/385/188 107/386/188 106/387/188
f 101/388/189 108/389/189 107/390/189
f 103/391/190 108/392/190 102/393/190
f 89/394/191 109/395/191 103/396/191
f 72/361/192 66/397/192 57/362/192
f 74/364/193 69/398/193 67/365/193
f 75/367/194 68/399/194 69/368/194
f 76/370/195 70/400/195 68/371/195
f 76/373/196 77/401/196 71/374/196
f 77/376/197 72/402/197 58/377/197
f 90/379/198 97/403/198 104/380/198
f 99/382/199 100/404/199 106/383/199
f 100/385/200 101/405/200 107/386/200
f 101/388/201 102/406/201 108/389/201
f 103/391/202 109/407/202 108/392/202
f 89/394/203 104/408/203 109/395/203
