# Blender v3.5.0 OBJ File: 'dayScene.blend'
# www.blender.org
mtllib model.mtl
o Bench.028_model
v -4.537088 -43.048595 9.499669
v 3.862914 -43.048595 9.499669
v -4.537085 -43.048595 7.099672
v -5.267075 41.642986 9.187160
v -5.267075 41.643002 6.787161
v 4.090601 42.878315 6.949926
v 4.090597 42.878315 9.349924
v 3.606595 -42.724644 6.955447
v -12.841884 -42.899925 9.585327
v -5.641881 -42.899925 9.585327
v -5.761771 -42.664692 7.565018
v -12.961776 -42.664692 7.565018
v -12.786288 42.659721 9.504274
v -12.786288 42.659721 7.104277
v -6.444766 42.086735 7.069273
v -6.444769 42.086735 9.469271
v -22.266697 -42.110485 9.783067
v -13.866696 -42.110470 9.783067
v -21.992531 -42.020279 8.310456
v -22.217495 41.764740 9.409361
v -22.217495 41.764751 7.009363
v -13.570393 42.346680 7.986945
v -13.844556 42.256477 9.459558
v -14.275056 -42.931427 7.641435
v 5.948803 -42.557915 6.001883
v 5.948807 -42.557915 -1.198111
v 3.548802 -42.557915 6.001883
v 6.321756 42.115402 6.220794
v 3.921758 42.115402 6.220794
v 6.237055 42.023674 -1.410284
v 3.884043 -42.169369 -0.542493
v 4.104849 41.571888 -0.474157
v -18.213408 39.074940 12.446436
v -19.168921 39.004742 8.825684
v -20.287800 39.350883 13.971768
v 1.794856 38.284306 12.619716
v 1.794852 40.684307 12.619716
v 2.742695 40.624104 14.066196
v 2.771867 38.265747 9.265695
v -18.213408 41.474926 12.446436
v -19.168907 41.404739 8.825684
v 2.771863 40.665733 9.265695
v 6.331844 40.834717 13.882800
v 6.581405 38.253910 13.924151
v 2.442895 37.883652 14.112492
v 2.332045 40.382450 31.604101
v 5.941859 40.794636 31.637592
v 5.823158 38.071102 31.872601
v 2.209457 38.040699 31.801140
v -23.038788 41.531353 11.826696
v -19.814713 41.703529 14.006603
v -23.128860 39.337570 11.809072
v -22.789368 39.463680 31.725983
v -22.644060 41.857319 31.629528
v -19.054632 41.646614 31.807884
v -19.199951 39.252949 31.904329
v 6.237709 -42.236378 -2.329846
v 6.237713 -42.236378 -8.329840
v 3.837708 -42.236378 -8.329840
v 6.237062 42.023663 -2.610269
v 3.837061 42.023663 -2.610269
v 3.837076 42.023689 -8.610277
v 6.242720 42.044521 -8.444166
v 3.917130 -42.016174 -2.755294
v 6.912268 -41.852879 -8.805557
v 7.385320 -41.872200 -13.582152
v 4.523964 -41.862312 -9.042048
v 6.680907 42.019859 -9.562082
v 4.765677 41.991154 -14.575164
v 7.153977 42.000576 -14.338680
v 4.904659 -41.437668 -13.799195
v 4.449355 41.615337 -9.778032
v 7.684783 -41.989967 -14.120760
v 8.914146 -42.025620 -18.760513
v 5.364843 -41.986683 -14.735484
v 7.796921 42.201778 -14.751599
v 5.476989 42.205082 -15.366323
v 9.026305 42.166187 -19.391365
v 6.634708 -41.779606 -19.253555
v 6.660869 41.773548 -19.697243
v -20.187599 -40.680111 12.594419
v -21.143101 -40.750298 8.973670
v -22.261992 -40.404156 14.119752
v -0.605139 -40.637039 12.619716
v -0.605146 -38.237038 12.619716
v 0.342697 -38.297245 14.066196
v 0.371872 -40.655617 9.265695
v -20.187599 -38.280109 12.594419
v -21.143101 -38.350307 8.973670
v 0.371865 -38.255619 9.265695
v 3.931850 -38.086647 13.882812
v 4.181410 -40.667450 13.924151
v 0.042897 -41.037693 14.112492
v -0.067953 -38.538914 31.604126
v 3.541860 -38.126724 31.637592
v 3.423161 -40.850254 31.872612
v -0.190541 -40.880676 31.801153
v -25.012980 -38.223686 11.974683
v -21.788893 -38.051510 14.154600
v -25.103052 -40.417465 11.957059
v -24.763561 -40.291367 31.873966
v -24.618252 -37.897728 31.777500
v -21.028824 -38.108437 31.955856
v -21.174145 -40.502090 32.052311
v 6.297362 40.871483 -12.455136
v 8.225277 41.404415 -17.913923
v 10.623371 41.498978 -17.899717
v 8.695457 40.966034 -12.440940
v 6.392094 38.473549 -12.485964
v 8.790190 38.568108 -12.471756
v 10.718103 39.101040 -17.930544
v 8.320007 39.006477 -17.944740
v 9.264164 40.780861 -7.920714
v 6.869069 40.722916 -7.778693
v 10.560799 38.776993 -23.255075
v 10.540448 41.176899 -23.264221
v 9.320383 38.381714 -7.951713
v 6.925289 38.323765 -7.809706
v 8.517276 40.594440 0.969615
v 6.194551 40.646004 1.571560
v 8.491974 38.197010 1.077275
v 6.169249 38.248547 1.679177
v 7.028965 40.374420 8.510957
v 3.994892 38.247723 9.217186
v 4.145909 40.640194 9.102088
v 6.091823 40.352482 9.356261
v 3.789783 40.453667 10.027328
v 6.877945 37.981956 8.626100
v 6.029742 37.957859 9.504232
v 3.727691 38.059017 10.175314
v 12.860821 38.799099 -22.569923
v 12.840467 41.198997 -22.579056
v 6.571676 -38.019444 -16.049520
v 7.292050 -37.925209 -18.595728
v 9.690623 -37.859474 -18.545628
v 8.970251 -37.953697 -15.999407
v 6.637351 -40.418545 -16.045691
v 9.035926 -40.352798 -15.995568
v 9.756298 -40.258560 -18.541777
v 7.357725 -40.324295 -18.591900
v 7.993720 -38.267570 -9.900756
v 8.768427 -40.584949 -22.930080
v 8.765963 -38.185177 -22.962984
v 8.231410 -40.654381 -9.819404
v 5.843364 -40.890968 -9.783883
v 5.605678 -38.504158 -9.865236
v 7.741968 -38.371994 -2.942490
v 7.731114 -40.766914 -2.787009
v 5.466803 -40.705166 -1.993847
v 5.477668 -38.310226 -2.149330
v 6.689394 -38.602211 7.178349
v 6.764117 -41.000519 7.128082
v 4.862183 -41.109695 5.964145
v 4.787467 -38.711388 6.014414
v 3.532147 -38.434906 11.020676
v 3.499889 -40.834522 11.048770
v 1.108961 -40.799965 11.254434
v 1.141233 -38.400349 11.226325
v 11.105937 -40.575085 -22.386072
v 11.103477 -38.175312 -22.418989
v 8.910752 -42.471516 -19.101995
v 10.241776 -42.092991 -23.647356
v 6.652393 -42.443375 -19.913809
v 9.830821 41.717545 -19.241375
v 7.288463 42.190620 -19.952316
v 11.454288 41.693123 -23.758451
v 7.998134 -41.860188 -24.261923
v 8.890438 42.480827 -24.177252
vn 0.0000 -1.0000 0.0000
vn -0.1309 0.9914 0.0000
vn 0.0000 0.0017 1.0000
vn -0.0177 0.0000 -0.9998
vn -1.0000 -0.0086 -0.0000
vn 1.0000 -0.0026 0.0000
vn -0.0179 0.0035 0.9998
vn 0.0179 -0.0035 -0.9998
vn 0.0371 -0.9908 -0.1299
vn 0.9949 -0.0056 -0.1009
vn 0.0000 -0.9933 -0.1157
vn 0.0900 0.9959 0.0000
vn 0.0027 0.0026 1.0000
vn 0.0030 0.0011 1.0000
vn -0.0032 -0.0058 -1.0000
vn -0.0055 -0.0026 -1.0000
vn -0.0032 -0.0056 -1.0000
vn -1.0000 0.0006 0.0000
vn 0.9995 0.0101 -0.0312
vn 0.9991 0.0235 -0.0353
vn 0.9994 0.0101 -0.0318
vn -0.9982 0.0024 0.0595
vn 0.0000 -0.9981 -0.0611
vn -0.0773 0.9970 -0.0043
vn -0.0597 0.9980 -0.0190
vn -0.0617 0.9979 -0.0185
vn -0.0032 0.0047 1.0000
vn -0.0025 0.0064 1.0000
vn -0.0031 0.0048 1.0000
vn 0.1133 -0.0151 -0.9934
vn 0.9831 0.0004 0.1831
vn -0.0773 -0.9259 0.3697
vn -0.0858 0.0047 -0.9963
vn 0.9828 -0.0074 -0.1846
vn -0.9830 -0.0055 -0.1834
vn 0.0000 0.9999 -0.0120
vn 1.0000 -0.0014 -0.0050
vn 1.0000 -0.0039 -0.0053
vn -0.9987 0.0045 -0.0509
vn 0.0000 -0.0026 1.0000
vn -0.3029 -0.0014 -0.9530
vn -0.2421 0.9665 -0.0851
vn -0.9996 0.0027 -0.0276
vn -0.4023 0.0018 -0.9155
vn -0.2055 -0.9763 -0.0685
vn 0.0029 1.0000 -0.0002
vn 0.0046 1.0000 0.0022
vn 0.0044 1.0000 0.0018
vn 1.0000 0.0000 0.0003
vn 1.0000 0.0002 0.0003
vn -1.0000 -0.0004 0.0074
vn -1.0000 -0.0040 0.0067
vn -1.0000 -0.0005 0.0073
vn 0.0000 0.0033 1.0000
vn 0.0000 -0.0033 -1.0000
vn 0.0689 -0.0014 -0.9976
vn -0.1018 -0.9940 0.0407
vn -0.1805 -0.0019 0.9836
vn 0.0035 -1.0000 0.0044
vn -0.0035 1.0000 -0.0044
vn 0.9951 0.0036 0.0985
vn -0.9968 -0.0024 -0.0800
vn -0.0982 0.0087 0.9951
vn -0.0979 0.0090 0.9952
vn 0.0923 -0.0086 -0.9957
vn 0.0913 -0.0052 -0.9958
vn 0.0922 -0.0085 -0.9957
vn -0.1841 0.9808 0.0647
vn -0.9978 -0.0015 -0.0659
vn -0.1631 -0.9815 -0.1007
vn -0.0032 -1.0000 0.0068
vn 0.0032 1.0000 -0.0068
vn 0.9666 0.0006 0.2561
vn -0.9637 -0.0010 -0.2670
vn -0.9644 0.0028 -0.2643
vn -0.9637 -0.0009 -0.2670
vn -0.2561 0.0076 0.9666
vn 0.2106 -0.0076 -0.9775
vn -0.1449 0.9799 -0.1372
vn 0.1291 -0.0053 -0.9916
vn -0.0918 -0.9932 -0.0713
vn 0.0158 -0.9968 -0.0784
vn 0.1678 0.9843 0.0550
vn 0.9410 -0.0097 0.3383
vn -0.9556 0.0104 -0.2944
vn -0.3382 0.0053 0.9411
vn 0.2637 -0.0051 -0.9646
vn 0.2648 0.9500 0.1657
vn 0.1610 -0.0007 -0.9870
vn -0.0610 -0.9866 -0.1512
vn 0.9599 -0.0135 0.2800
vn -0.9352 0.0069 -0.3541
vn -0.2689 0.0025 0.9632
vn 0.0086 0.0006 1.0000
vn 0.0086 0.0007 1.0000
vn 0.0061 0.0039 1.0000
vn 0.0026 -0.0047 -1.0000
vn 0.0028 -0.0061 -1.0000
vn 0.9994 0.0350 0.0005
vn 0.9996 0.0088 0.0264
vn 0.9996 0.0084 0.0269
vn -0.0745 0.9968 0.0285
vn -0.0755 0.9967 0.0291
vn -0.0840 0.9959 0.0324
vn -0.0065 0.0070 1.0000
vn -0.0094 0.0042 0.9999
vn -0.0094 0.0039 0.9999
vn 0.9999 -0.0052 -0.0164
vn 0.9999 -0.0048 -0.0164
vn 0.9999 0.0009 -0.0121
vn -0.0040 1.0000 -0.0007
vn -0.0043 1.0000 -0.0018
vn -0.0073 1.0000 -0.0045
vn 1.0000 0.0003 0.0010
vn 1.0000 -0.0000 0.0013
vn 1.0000 -0.0001 0.0013
vn -0.9999 -0.0072 0.0154
vn -0.9998 0.0005 0.0216
vn -0.9998 0.0009 0.0216
vn -0.0989 0.0089 0.9951
vn -0.0989 0.0087 0.9951
vn 0.0987 -0.0024 -0.9951
vn 0.1051 -0.0089 -0.9944
vn 0.1052 -0.0090 -0.9944
vn -0.9618 0.0005 -0.2737
vn -0.9617 -0.0014 -0.2740
vn -0.0989 -0.9941 0.0454
vn -0.8364 -0.0000 0.5481
vn -0.0394 -0.9992 -0.0060
vn 0.0352 0.9993 -0.0093
vn 0.0551 0.9985 0.0037
vn 0.0370 0.9993 -0.0099
vn -0.0087 -0.0000 1.0000
vn 0.0201 -0.0000 -0.9998
vn -0.0604 0.9967 0.0549
vn -0.0324 0.9960 0.0829
vn -0.0481 0.9974 0.0542
vn 0.7741 0.0000 -0.6330
vn -0.0073 -1.0000 0.0034
vn -0.9939 0.1084 -0.0218
vn -0.9015 0.1057 0.4197
vn 0.0723 -0.9550 -0.2877
vn 0.7890 0.0665 -0.6108
vn -0.0585 0.9983 0.0010
vn 0.9944 0.0968 0.0430
vn 0.0888 -0.9960 -0.0064
vn -0.0204 0.0849 0.9962
vn -0.9986 0.0511 -0.0136
vn 0.0082 -0.9999 0.0090
vn -0.1135 0.9935 0.0110
vn 0.9989 -0.0416 0.0218
vn -0.6128 0.0000 -0.7902
vn 0.0980 0.9942 -0.0451
vn 0.6978 0.0000 0.7162
vn -0.0001 -1.0000 0.0063
vn 0.5764 -0.1279 0.8071
vn -0.5998 0.0310 -0.7996
vn -0.0133 0.9982 -0.0592
vn -0.9990 0.0409 0.0192
vn -0.0571 0.9984 0.0056
vn 0.9796 -0.1964 -0.0425
vn -0.0471 0.0431 0.9980
vn -0.0585 -0.9983 -0.0019
vn 0.9962 -0.0629 -0.0608
vn -0.9980 0.0613 0.0166
vn 0.0595 0.9981 -0.0176
vn -0.0398 -0.9975 0.0584
vn -0.0192 0.0868 0.9960
vn -0.0342 -0.9990 0.0284
vn 0.0018 -0.9999 0.0122
vn -0.0044 -0.9998 0.0179
vn 0.0011 -0.9999 0.0123
vn -0.0078 0.9998 -0.0196
vn -0.0025 0.9997 -0.0245
vn -0.0031 0.9997 -0.0243
vn -0.0013 0.0000 1.0000
vn 0.0136 0.0000 -0.9999
vn 0.6979 0.0000 0.7162
vn -0.0191 0.0868 0.9960
vn -0.0398 0.9957 0.0832
vn 0.0398 -0.9957 -0.0832
vn -0.9414 -0.0329 -0.3357
vn 0.9414 0.0329 0.3357
vn -0.0446 0.9979 0.0459
vn -0.0493 0.9979 0.0408
vn -0.0486 0.9979 0.0424
vn -0.9223 -0.0343 -0.3849
vn -0.9183 -0.0432 -0.3935
vn -0.9194 -0.0423 -0.3911
vn 0.9923 0.0456 -0.1154
vn 0.9916 0.0493 -0.1198
vn 0.9918 0.0487 -0.1185
vn 0.0303 -0.9988 -0.0397
vn 0.0311 -0.9986 -0.0427
vn 0.0304 -0.9987 -0.0402
vn -0.9926 -0.0326 0.1166
vn -0.9929 -0.0334 0.1140
vn -0.9927 -0.0327 0.1162
vn 0.0006 0.9999 0.0148
vn 0.0008 1.0000 0.0045
vn 0.0010 0.9999 0.0145
vn 0.9950 0.0324 0.0949
vn 0.9955 0.0367 0.0876
vn 0.9954 0.0367 0.0882
vn 0.0371 -0.9993 0.0033
vn 0.0480 -0.9988 -0.0117
vn 0.0480 -0.9988 -0.0102
vn -0.9971 -0.0079 -0.0755
vn -0.9967 -0.0083 -0.0813
vn -0.9971 -0.0077 -0.0757
vn 0.0313 0.9989 0.0353
vn 0.9811 -0.0017 0.1936
vn -0.0240 -0.9997 -0.0070
vn -0.9628 0.0226 -0.2693
vn -0.9602 0.0214 -0.2785
vn -0.9626 0.0230 -0.2698
vn 0.0734 0.9689 0.2365
vn 0.1263 0.9711 0.2025
vn 0.1178 0.9729 0.1991
vn 0.0973 0.9949 0.0272
vn -0.1019 -0.9935 -0.0501
vn 0.6980 -0.0215 0.7157
vn 0.6848 -0.0424 0.7275
vn 0.6950 -0.0268 0.7185
vn -0.1325 -0.9722 -0.1932
vn -0.1681 -0.9723 -0.1623
vn -0.1418 -0.9719 -0.1880
vn -0.9560 -0.0303 -0.2919
vn -0.9526 0.0378 -0.3017
vn -0.9502 0.0257 -0.3106
vn 0.2816 0.0519 0.9581
vn 0.9769 -0.0517 0.2074
vn 0.0388 -0.9958 0.0827
vn 0.9048 0.0177 0.4255
vn 0.9110 0.0177 0.4120
vn 0.9061 0.0198 0.4226
vn -0.0133 0.9985 -0.0526
vn 0.0072 0.9965 -0.0828
vn -0.0150 0.9981 -0.0597
vn 0.2855 -0.0012 -0.9584
vn -0.0029 -0.9991 0.0420
vn -0.0280 0.9992 0.0291
vn 0.0280 -0.9992 -0.0291
vn -0.9616 -0.0268 -0.2731
vn 0.9616 0.0268 0.2731
vn -0.0283 0.9985 0.0468
vn -0.9513 -0.0299 -0.3069
vn -0.9482 -0.0384 -0.3152
vn -0.9493 -0.0371 -0.3123
vn 0.9911 0.0273 0.1304
vn 0.0288 -0.9970 -0.0716
vn -0.9914 -0.0273 -0.1278
vn -0.0984 0.9951 0.0114
vn -0.0975 0.9933 0.0626
vn -0.9815 -0.1032 -0.1614
vn 0.9813 0.1033 0.1624
vn 0.0980 -0.9945 -0.0358
vn 0.9922 0.1013 0.0722
vn 0.0990 -0.9947 0.0285
vn -0.9939 -0.1005 -0.0456
vn 0.0365 0.9990 0.0265
vn 0.0186 0.9995 -0.0248
vn -0.9999 0.0035 -0.0167
vn 0.9993 -0.0022 0.0361
vn -0.0337 -0.9993 -0.0184
vn 0.9960 -0.0003 0.0896
vn 0.9947 -0.0119 0.1019
vn 0.9949 -0.0114 0.1000
vn -0.0462 -0.9975 -0.0542
vn -0.9964 -0.0165 -0.0836
vn -0.9977 -0.0228 -0.0644
vn -0.9966 -0.0152 -0.0807
vn -0.0204 0.9980 -0.0602
vn -0.0828 0.9957 0.0419
vn 0.0676 -0.9976 -0.0169
vn 0.7705 0.0036 0.6374
vn 0.7719 0.0043 0.6357
vn 0.7707 0.0037 0.6372
vn 0.0150 -0.9975 0.0690
vn -0.8202 -0.0193 -0.5718
vn -0.8174 -0.0225 -0.5756
vn -0.8179 -0.0223 -0.5749
vn 0.0858 0.0105 0.9963
vn 0.0099 0.9986 -0.0527
vn -0.0116 -0.9994 0.0326
vn 0.0270 -0.9952 0.0945
vn 0.0493 -0.9956 0.0803
vn 0.0443 -0.9953 0.0864
vn 0.9406 0.0127 0.3393
vn 0.9455 0.0154 0.3253
vn 0.9418 0.0159 0.3358
vn -0.0022 0.9979 -0.0652
vn 0.0042 0.9956 -0.0932
vn -0.0057 0.9974 -0.0723
vn 0.2267 -0.0131 -0.9739
vn 0.0369 0.9983 -0.0440
vn 0.0318 0.9985 -0.0443
vn 0.0317 0.9985 -0.0440
vn -0.0218 0.9991 -0.0359
vn -0.0229 0.9991 -0.0368
vn -0.0231 0.9991 -0.0360
vn 0.0008 -1.0000 0.0012
vn 0.0033 -1.0000 0.0003
vn 0.0035 -1.0000 0.0002
vn -0.0050 0.9999 -0.0124
vn -0.0052 0.9999 -0.0123
vn -0.0073 0.9999 -0.0116
vn -0.0317 0.9984 0.0468
vn -0.0306 0.9983 0.0495
vn -0.0237 0.9983 0.0540
vn -0.9228 -0.0209 -0.3848
vn -0.9232 -0.0204 -0.3837
vn -0.9252 -0.0165 -0.3792
vn 0.9930 0.0336 -0.1133
vn 0.9933 0.0327 -0.1109
vn 0.9939 0.0274 -0.1068
vn 0.0473 -0.9980 -0.0422
vn 0.0484 -0.9983 -0.0329
vn 0.0465 -0.9985 -0.0299
vn -0.9922 -0.0482 0.1152
vn -0.9911 -0.0487 0.1237
vn -0.9909 -0.0468 0.1263
vn -0.0274 0.9996 -0.0052
vn -0.0468 0.9986 0.0235
vn -0.0460 0.9986 0.0279
vn 0.9956 0.0083 0.0930
vn 0.9954 0.0080 0.0953
vn 0.9944 -0.0035 0.1057
vn 0.0007 -1.0000 -0.0058
vn 0.0002 -1.0000 -0.0017
vn -0.0217 -0.9996 0.0157
vn -0.9959 -0.0297 -0.0856
vn -0.9970 -0.0371 -0.0685
vn -0.9972 -0.0364 -0.0658
vn -0.9590 -0.0164 -0.2830
vn -0.9666 -0.0259 -0.2551
vn -0.9680 -0.0241 -0.2500
vn 0.1333 0.9831 0.1254
vn 0.1293 0.9839 0.1235
vn 0.1095 0.9858 0.1273
vn 0.7263 -0.0159 0.6872
vn 0.7427 0.0040 0.6697
vn 0.7463 0.0142 0.6654
vn -0.1595 -0.9630 -0.2174
vn -0.1285 -0.9556 -0.2652
vn -0.1196 -0.9553 -0.2704
vn -0.9183 0.0592 -0.3915
vn -0.9174 0.0592 -0.3935
vn -0.9178 0.0421 -0.3948
vn 0.9032 0.0414 0.4273
vn 0.9019 0.0407 0.4301
vn 0.9017 0.0404 0.4304
vn -0.0608 0.9960 -0.0660
vn -0.0623 0.9963 -0.0589
vn -0.0618 0.9964 -0.0588
vn -0.9523 -0.0167 -0.3047
vn -0.9528 -0.0158 -0.3031
vn -0.9542 -0.0116 -0.2989
vn 0.9954 0.0151 0.0947
vn 0.9954 0.0154 0.0942
vn 0.9960 0.0191 0.0875
vn -0.9965 0.0134 -0.0827
vn -0.9961 0.0132 -0.0878
vn -0.9960 0.0130 -0.0879
vn 0.7713 0.0165 0.6363
vn 0.7667 0.0172 0.6417
vn 0.7654 0.0158 0.6434
vn -0.8203 -0.0052 -0.5720
vn -0.8214 -0.0047 -0.5703
vn -0.8246 0.0022 -0.5656
vn 0.0079 -0.9957 0.0921
vn 0.0046 -0.9954 0.0953
vn -0.0089 -0.9946 0.1030
vn 0.9386 0.0375 0.3430
vn 0.9377 0.0367 0.3455
vn 0.9375 0.0362 0.3460
vn -0.0451 0.9966 -0.0690
vn -0.0451 0.9969 -0.0641
vn -0.0446 0.9970 -0.0636
usemtl mat20
s off
f 3//1 2//1 1//1
f 6//2 4//2 7//2
f 2//3 7//3 1//3
f 6//4 8//4 3//4
f 4//5 3//5 1//5
f 6//6 7//6 2//6
f 7//7 4//7 1//7
f 3//8 5//8 6//8
f 3//9 8//9 2//9
f 2//10 8//10 6//10
f 11//11 9//11 12//11
f 16//12 14//12 13//12
f 16//13 9//14 10//14
f 15//15 12//16 14//17
f 13//18 14//18 9//18
f 11//19 16//20 10//21
f 14//22 12//22 9//22
f 19//23 18//23 17//23
f 23//24 21//25 20//26
f 18//27 20//28 17//29
f 21//30 22//30 19//30
f 20//18 21//18 17//18
f 22//31 23//31 18//31
f 19//32 24//32 18//32
f 22//33 24//33 19//33
f 18//34 24//34 22//34
f 21//35 19//35 17//35
f 27//1 26//1 25//1
f 30//36 29//36 28//36
f 30//37 25//38 26//38
f 29//39 31//39 27//39
f 29//40 25//40 28//40
f 31//41 30//41 26//41
f 30//42 32//42 29//42
f 29//43 32//43 31//43
f 31//44 32//44 30//44
f 27//45 31//45 26//45
f 59//1 58//1 57//1
f 63//46 61//47 60//48
f 58//49 60//50 57//49
f 62//51 64//52 61//53
f 60//54 61//54 57//54
f 59//55 62//55 58//55
f 62//56 63//56 58//56
f 57//57 64//57 59//57
f 61//58 64//58 57//58
f 67//59 66//59 65//59
f 70//60 69//60 68//60
f 66//61 68//61 65//61
f 69//62 71//62 67//62
f 72//63 65//64 68//63
f 71//65 70//66 66//67
f 69//68 72//68 68//68
f 67//69 72//69 69//69
f 67//70 71//70 66//70
f 75//71 74//71 73//71
f 78//72 77//72 76//72
f 74//73 76//73 73//73
f 80//74 75//75 77//76
f 76//77 75//77 73//77
f 79//78 78//78 74//78
f 78//79 80//79 77//79
f 79//80 80//80 78//80
f 75//81 79//81 74//81
f 163//82 162//82 161//82
f 166//83 165//83 164//83
f 166//84 164//84 161//84
f 168//85 167//85 163//85
f 164//86 163//86 161//86
f 167//87 166//87 162//87
f 166//88 168//88 165//88
f 167//89 168//89 166//89
f 163//90 167//90 162//90
f 161//91 162//91 166//91
f 163//92 165//92 168//92
f 164//93 165//93 163//93
f 6//2 5//2 4//2
f 4//5 5//5 3//5
f 11//11 10//11 9//11
f 16//12 15//12 14//12
f 16//94 13//95 9//96
f 15//97 11//98 12//98
f 11//99 15//100 16//101
f 23//102 22//103 21//104
f 18//105 23//106 20//107
f 30//108 28//109 25//110
f 29//40 27//40 25//40
f 63//111 62//112 61//113
f 58//114 63//115 60//116
f 62//117 59//118 64//119
f 66//61 70//61 68//61
f 72//120 67//121 65//121
f 71//122 69//123 70//124
f 74//73 78//73 76//73
f 80//125 79//126 75//126
f 76//77 77//77 75//77
usemtl mat23
f 35//127 34//127 33//127
f 38//128 37//128 36//128
f 39//129 36//129 33//129
f 42//130 40//131 37//132
f 37//133 33//133 36//133
f 42//134 34//134 41//134
f 43//135 37//136 38//137
f 44//138 39//138 42//138
f 44//139 36//139 39//139
f 46//140 38//140 45//140
f 36//141 45//141 38//141
f 44//142 45//142 36//142
f 42//143 43//143 44//143
f 47//144 43//144 38//144
f 48//145 44//145 43//145
f 48//146 45//146 44//146
f 48//147 46//147 49//147
f 45//148 49//148 46//148
f 48//149 49//149 45//149
f 38//150 46//150 47//150
f 43//151 47//151 48//151
f 50//152 41//152 34//152
f 51//153 40//153 41//153
f 51//154 33//154 40//154
f 53//155 52//155 35//155
f 51//156 35//156 33//156
f 34//157 52//157 50//157
f 41//158 50//158 51//158
f 54//159 50//159 52//159
f 55//160 51//160 50//160
f 55//161 35//161 51//161
f 54//162 56//162 55//162
f 35//163 56//163 53//163
f 55//164 56//164 35//164
f 52//165 53//165 54//165
f 50//166 54//166 55//166
f 35//167 52//167 34//167
f 48//168 47//168 46//168
f 33//169 34//169 39//169
f 83//127 82//127 81//127
f 86//128 85//128 84//128
f 82//170 84//171 81//172
f 85//173 89//174 88//175
f 84//176 88//176 81//176
f 89//177 87//177 82//177
f 91//135 85//136 86//137
f 92//138 87//138 90//138
f 92//139 84//139 87//139
f 94//140 86//140 93//140
f 84//141 93//141 86//141
f 92//142 93//142 84//142
f 90//143 91//143 92//143
f 95//144 91//144 86//144
f 96//145 92//145 91//145
f 96//146 93//146 92//146
f 96//147 94//147 97//147
f 93//148 97//148 94//148
f 96//149 97//149 93//149
f 86//150 94//150 95//150
f 91//151 95//151 96//151
f 98//152 89//152 82//152
f 99//153 88//153 89//153
f 99//178 81//178 88//178
f 101//155 100//155 83//155
f 99//156 83//156 81//156
f 82//157 100//157 98//157
f 89//158 98//158 99//158
f 102//159 98//159 100//159
f 103//160 99//160 98//160
f 103//161 83//161 99//161
f 102//162 104//162 103//162
f 83//163 104//163 101//163
f 103//164 104//164 83//164
f 100//165 101//165 102//165
f 98//166 102//166 103//166
f 83//167 100//167 82//167
f 96//179 95//179 94//179
f 108//180 106//180 105//180
f 112//181 110//181 109//181
f 112//182 105//182 106//182
f 111//183 108//183 110//183
f 114//184 108//185 105//186
f 116//187 112//188 106//189
f 113//190 110//191 108//192
f 118//193 110//194 117//195
f 114//196 109//197 118//198
f 119//199 114//200 120//201
f 119//202 117//203 113//204
f 121//205 118//206 117//207
f 120//208 118//209 122//210
f 123//211 119//211 120//211
f 123//212 121//212 119//212
f 124//213 122//213 121//213
f 125//214 122//215 124//216
f 126//217 125//218 127//219
f 120//220 125//220 123//220
f 121//221 128//221 124//221
f 126//222 128//223 123//224
f 129//225 124//226 128//227
f 127//228 124//229 130//230
f 130//231 126//231 127//231
f 123//232 128//232 121//232
f 131//233 111//233 112//233
f 132//234 111//235 131//236
f 116//237 107//238 132//239
f 132//240 115//240 116//240
f 112//241 115//241 131//241
f 136//242 134//242 133//242
f 140//243 138//243 137//243
f 140//244 133//244 134//244
f 139//245 136//245 138//245
f 141//246 136//246 133//246
f 143//247 140//248 134//249
f 144//250 138//250 136//250
f 145//251 137//251 138//251
f 145//252 133//252 137//252
f 147//253 141//253 146//253
f 133//254 146//254 141//254
f 145//255 146//255 133//255
f 136//256 141//256 144//256
f 138//257 144//257 145//257
f 148//258 144//258 141//258
f 149//259 145//259 144//259
f 149//260 146//260 145//260
f 151//261 147//261 150//261
f 146//262 150//262 147//262
f 149//263 150//263 146//263
f 141//264 147//264 148//264
f 144//265 148//265 149//265
f 151//266 148//267 147//268
f 153//269 149//269 148//269
f 154//270 149//271 153//272
f 155//273 151//273 154//273
f 150//274 154//274 151//274
f 148//275 152//275 153//275
f 156//276 151//277 155//278
f 157//279 153//279 152//279
f 157//280 154//281 153//282
f 157//283 155//283 158//283
f 154//284 158//284 155//284
f 152//285 156//285 157//285
f 142//286 139//287 140//288
f 160//289 139//290 159//291
f 143//292 135//293 160//294
f 159//295 143//295 160//295
f 42//296 41//297 40//298
f 37//133 40//133 33//133
f 42//134 39//134 34//134
f 43//299 42//300 37//301
f 54//162 53//162 56//162
f 82//302 87//303 84//304
f 85//305 90//306 89//307
f 84//176 85//176 88//176
f 89//177 90//177 87//177
f 91//299 90//300 85//301
f 102//162 101//162 104//162
f 108//180 107//180 106//180
f 112//181 111//181 110//181
f 112//182 109//182 105//182
f 111//183 107//183 108//183
f 114//308 113//309 108//310
f 116//311 115//312 112//313
f 113//314 117//315 110//316
f 118//317 109//318 110//319
f 114//320 105//321 109//322
f 119//323 113//324 114//325
f 119//326 121//327 117//328
f 121//329 122//330 118//331
f 120//332 114//333 118//334
f 125//335 120//336 122//337
f 126//338 123//339 125//340
f 126//341 129//342 128//343
f 129//344 130//345 124//346
f 127//347 125//348 124//349
f 130//231 129//231 126//231
f 132//350 107//351 111//352
f 116//353 106//354 107//355
f 132//240 131//240 115//240
f 136//242 135//242 134//242
f 140//243 139//243 138//243
f 140//244 137//244 133//244
f 139//245 135//245 136//245
f 143//356 142//357 140//358
f 151//359 152//360 148//361
f 154//362 150//363 149//364
f 156//365 152//366 151//367
f 157//368 158//369 154//370
f 157//283 156//283 155//283
f 142//371 159//372 139//373
f 160//374 135//375 139//376
f 143//377 134//378 135//379
f 159//295 142//295 143//295
