# Blender v3.5.0 OBJ File: 'dayScene.blend'
# www.blender.org
mtllib Plane.006.mtl
o Debris_Papers_1.006_Plane.006
v -120.000000 1.425546 120.000000
v 120.000000 1.425546 120.000000
v -120.000000 1.425546 -120.000000
v 120.000000 1.425546 -120.000000
v 377.691711 4.276638 -69.388611
v 617.691711 4.276638 -69.388611
v 377.691711 4.276638 -253.985428
v 617.691711 4.276638 -253.985428
v -356.029694 6.414956 86.263161
v -165.175613 6.414956 231.778519
v -210.514343 6.414956 -104.590919
v -19.660248 6.414956 40.924431
v 308.577789 3.120217 -100.941620
v 391.602203 3.120217 124.240410
v 481.777283 3.120217 -164.800125
v 564.801697 3.120217 60.381897
v -266.926819 1.425546 -354.641357
v -26.926832 1.425546 -354.641357
v -266.926819 1.425546 -594.641357
v -26.926832 1.425546 -594.641357
v 62.127056 6.414956 307.490326
v 252.981140 6.414956 453.005676
v 207.642410 6.414956 116.636253
v 398.496490 6.414956 262.151581
vn 0.0000 1.0000 0.0000
usemtl White.001
s 1
f 2//1 3//1 1//1
f 6//1 7//1 5//1
f 10//1 11//1 9//1
f 14//1 15//1 13//1
f 18//1 19//1 17//1
f 22//1 23//1 21//1
f 2//1 4//1 3//1
f 6//1 8//1 7//1
f 10//1 12//1 11//1
f 14//1 16//1 15//1
f 18//1 20//1 19//1
f 22//1 24//1 23//1
