# Blender v3.5.0 OBJ File: 'dayScene.blend'
# www.blender.org
mtllib SportsCar2_FrontLeftWheel_Cylinder.017.mtl
o SportsCar2_FrontLeftWheel_Cylinder.005_SportsCar2_FrontLeftWheel_Cylinder.017
v 76.398598 108.663597 -31.758720
v 94.105202 108.663597 -31.758720
v 76.398598 113.171516 -14.935080
v 94.105202 113.171516 -14.935080
v 76.398598 125.487244 -2.619360
v 94.105202 125.487244 -2.619360
v 76.398598 142.310760 1.888560
v 94.105202 142.310760 1.888560
v 76.398598 159.134399 -2.619360
v 94.105202 159.134399 -2.619360
v 76.398598 171.450119 -14.935080
v 94.105202 171.450119 -14.935080
v 76.398598 175.958054 -31.758720
v 94.105202 175.958054 -31.758720
v 76.398598 171.450119 -48.582241
v 94.105202 171.450119 -48.582241
v 76.398598 159.134399 -60.897961
v 94.105202 159.134399 -60.897961
v 76.398598 142.310760 -65.405884
v 94.105202 142.310760 -65.405884
v 76.398598 125.487244 -60.897961
v 94.105202 125.487244 -60.898083
v 76.398598 113.171516 -48.582241
v 94.105202 113.171516 -48.582359
v 97.839241 120.247681 -19.020599
v 97.839241 116.834518 -31.758720
v 97.839241 129.572632 -9.695641
v 97.839241 142.310760 -6.282480
v 97.839241 155.048874 -9.695641
v 97.839241 164.373840 -19.020599
v 97.839241 167.786987 -31.758720
v 97.839241 164.373840 -44.496838
v 97.839241 155.048874 -53.821800
v 97.839241 142.310760 -57.234962
v 97.839241 129.572632 -53.821800
v 97.839241 120.247681 -44.496838
v 97.839241 123.048965 -20.637840
v 97.839241 120.069122 -31.758720
v 97.839241 131.190002 -12.496799
v 97.839241 142.310760 -9.517080
v 97.839241 153.431641 -12.496799
v 97.839241 161.572678 -20.637840
v 97.839241 164.552399 -31.758720
v 97.839241 161.572678 -42.879482
v 97.839241 153.431641 -51.020519
v 97.839241 142.310760 -54.000359
v 97.839241 131.190002 -51.020519
v 97.839241 123.048965 -42.879482
v 94.801086 123.048965 -20.637840
v 94.801086 120.069122 -31.758720
v 94.801086 131.190002 -12.496799
v 94.801086 142.310760 -9.517080
v 94.801086 153.431641 -12.496799
v 94.801086 161.572678 -20.637840
v 94.801086 164.552399 -31.758720
v 94.801086 161.572678 -42.879482
v 94.801086 153.431641 -51.020519
v 94.801086 142.310760 -54.000359
v 94.801086 131.190002 -51.020519
v 94.801086 123.048965 -42.879482
v 95.148720 136.913879 -28.642801
v 95.148720 136.078918 -31.758720
v 95.148720 139.194839 -26.361719
v 95.148720 142.310760 -25.526880
v 95.148720 145.426682 -26.361719
v 95.148720 147.707764 -28.642801
v 95.148720 148.542603 -31.758720
v 95.148720 147.707764 -34.874641
v 95.148720 145.426682 -37.155602
v 95.148720 142.310760 -37.990562
v 95.148720 139.194839 -37.155602
v 95.148720 136.913879 -34.874641
v 96.218880 138.945969 -29.816040
v 96.218880 138.425400 -31.758720
v 96.218880 140.368073 -28.393921
v 96.218880 142.310760 -27.873360
v 96.218880 144.253433 -28.393921
v 96.218880 145.675674 -29.816040
v 96.218880 146.196121 -31.758720
v 96.218880 145.675674 -33.701397
v 96.218880 144.253433 -35.123520
v 96.218880 142.310760 -35.644081
v 96.218880 140.368073 -35.123520
v 96.218880 138.945969 -33.701397
v 94.801086 163.083847 -30.646559
v 94.801086 160.700043 -21.749880
v 94.721039 149.961609 -30.904442
v 94.721039 149.243164 -28.223518
v 94.801086 160.700043 -41.767441
v 94.801086 163.083847 -32.870762
v 94.721039 149.243164 -35.293800
v 94.721039 149.961609 -32.612999
v 94.801086 153.569885 -49.530602
v 94.801086 160.082642 -43.017719
v 94.721039 146.806442 -38.216881
v 94.721039 148.769043 -36.254398
v 94.801086 143.422928 -52.531799
v 94.801086 152.319611 -50.147881
v 94.721039 143.165161 -39.409439
v 94.721039 145.845963 -38.691120
v 94.801086 124.538887 -43.017719
v 94.801086 131.051758 -49.530602
v 94.721039 135.852600 -36.254398
v 94.721039 137.815201 -38.216881
v 94.801086 132.302048 -50.147881
v 94.801086 141.198715 -52.531799
v 94.721039 138.775681 -38.691120
v 94.721039 141.456482 -39.409439
v 94.801086 121.537796 -32.870762
v 94.801086 123.921600 -41.767441
v 94.721039 134.660034 -32.612999
v 94.721039 135.378357 -35.293800
v 94.801086 123.921600 -21.750000
v 94.801086 121.537796 -30.646559
v 94.721039 135.378357 -28.223518
v 94.721039 134.660034 -30.904442
v 94.801086 131.051758 -13.986840
v 94.801086 124.538887 -20.499599
v 94.721039 137.815079 -25.300442
v 94.721039 135.852600 -27.263041
v 94.801086 141.198715 -10.985640
v 94.801086 132.302048 -13.369440
v 94.721039 141.456482 -24.107880
v 94.721039 138.775681 -24.826319
v 94.801086 152.319611 -13.369440
v 94.801086 143.422928 -10.985640
v 94.721039 145.845963 -24.826319
v 94.721039 143.165161 -24.108000
v 94.801086 160.082642 -20.499599
v 94.801086 153.569885 -13.986840
v 94.721039 148.769043 -27.263041
v 94.721039 146.806442 -25.300442
v 89.532120 163.083847 -30.646559
v 89.532120 160.700043 -21.749880
v 90.673317 149.961609 -30.904442
v 90.673317 149.243164 -28.223518
v 89.532120 160.700043 -41.767441
v 89.532120 163.083847 -32.870762
v 90.673317 149.243164 -35.293800
v 90.673317 149.961609 -32.612999
v 89.532120 153.569885 -49.530602
v 89.532120 160.082642 -43.017719
v 90.673317 146.806442 -38.216881
v 90.673317 148.769043 -36.254398
v 89.532120 143.422928 -52.531799
v 89.532120 152.319611 -50.147881
v 90.673317 143.165161 -39.409439
v 90.673317 145.845963 -38.691120
v 89.532120 124.538887 -43.017719
v 89.532120 131.051758 -49.530602
v 90.673317 135.852600 -36.254398
v 90.673317 137.815201 -38.216881
v 89.532120 132.302048 -50.147881
v 89.532120 141.198715 -52.531799
v 90.673317 138.775681 -38.691120
v 90.673317 141.456482 -39.409439
v 89.532120 121.537796 -32.870762
v 89.532120 123.921600 -41.767441
v 90.673317 134.660034 -32.612999
v 90.673317 135.378357 -35.293800
v 89.532120 123.921600 -21.749880
v 89.532120 121.537796 -30.646559
v 90.673317 135.378357 -28.223518
v 90.673317 134.660034 -30.904442
v 89.532120 131.051758 -13.986840
v 89.532120 124.538887 -20.499599
v 90.673317 137.815079 -25.300442
v 90.673317 135.852600 -27.263041
v 89.532120 141.198715 -10.985640
v 89.532120 132.302048 -13.369440
v 90.673317 141.456482 -24.107880
v 90.673317 138.775681 -24.826319
v 89.532120 152.319611 -13.369440
v 89.532120 143.422928 -10.985640
v 90.673317 145.845963 -24.826319
v 90.673317 143.165161 -24.108000
v 89.532120 160.082642 -20.499599
v 89.532120 153.569885 -13.986840
v 90.673317 148.769043 -27.263041
v 90.673317 146.806442 -25.300442
v 95.362679 147.016922 -28.421160
v 95.362679 145.648331 -27.052559
v 96.004799 145.797607 -29.125198
v 96.004799 144.944290 -28.271879
v 95.362679 138.973312 -27.052559
v 95.362679 137.604721 -28.421160
v 96.004799 139.677246 -28.271879
v 96.004799 138.824036 -29.125198
v 95.362679 137.604721 -35.096161
v 95.362679 138.973312 -36.464760
v 96.004799 138.824036 -34.392239
v 96.004799 139.677246 -35.245438
v 95.362679 145.648331 -36.464760
v 95.362679 147.016922 -35.096161
v 96.004799 144.944290 -35.245438
v 96.004799 145.797607 -34.392239
v 93.162483 147.016922 -28.421160
v 93.162483 145.648331 -27.052559
v 93.804604 145.797607 -29.125198
v 93.804604 144.944290 -28.271879
v 93.162483 138.973312 -27.052559
v 93.162483 137.604721 -28.421160
v 93.804604 139.677246 -28.271879
v 93.804604 138.824036 -29.125198
v 93.162483 137.604721 -35.096161
v 93.162483 138.973312 -36.464760
v 93.804604 138.824036 -34.392239
v 93.804604 139.677246 -35.245438
v 93.162483 145.648331 -36.464760
v 93.162483 147.016922 -35.096161
v 93.804604 144.944290 -35.245438
v 93.804604 145.797607 -34.392239
vn 0.0000 -0.9659 0.2588
vn 0.0000 -0.7071 0.7071
vn 0.0000 -0.2588 0.9659
vn 0.0000 0.2588 0.9659
vn 0.0000 0.7071 0.7071
vn 0.0000 0.9659 0.2588
vn 0.0000 0.9659 -0.2588
vn 0.0000 0.7071 -0.7071
vn 0.0000 0.2588 -0.9659
vn -0.0000 -0.2588 -0.9659
vn 0.9039 0.4131 0.1107
vn -0.0000 -0.7071 -0.7071
vn 0.0000 -0.9659 -0.2588
vn -1.0000 0.0000 0.0000
vn 1.0000 0.0000 0.0000
vn 0.9039 0.3024 0.3024
vn 0.9039 0.1107 0.4131
vn 0.9039 -0.4131 -0.1107
vn 0.9039 -0.4131 0.1107
vn 0.9039 -0.1107 0.4131
vn 0.9039 -0.3024 -0.3024
vn 0.9039 -0.3024 0.3024
vn 0.9039 -0.1107 -0.4131
vn 0.9039 0.1107 -0.4131
vn 0.9039 0.3024 -0.3024
vn 0.9039 0.4131 -0.1107
vn 0.9960 0.0862 0.0231
vn 0.9960 0.0862 -0.0231
vn 0.9960 0.0629 -0.0629
vn 0.9960 0.0231 -0.0862
vn 0.9960 -0.0629 -0.0629
vn 0.9960 -0.0231 -0.0862
vn 0.9960 -0.0862 -0.0231
vn 0.9960 -0.0862 0.0231
vn 0.9960 -0.0629 0.0629
vn 0.9960 -0.0231 0.0862
vn 0.9960 0.0231 0.0862
vn 0.9960 0.0629 0.0629
vn 0.9043 0.3019 0.3019
vn 0.9043 -0.3019 0.3019
vn 0.9043 -0.3019 -0.3019
vn 0.9043 0.3019 -0.3019
vn 0.8607 -0.4500 -0.2382
vn 0.9043 -0.4124 -0.1105
vn 0.9999 0.0098 0.0126
vn 0.9657 -0.0672 0.2507
vn 0.7162 0.5964 -0.3623
vn 0.9657 0.2506 -0.0672
vn 1.0000 -0.0079 -0.0059
vn 0.9706 -0.1701 -0.1701
vn 0.9657 -0.2507 0.0672
vn 0.8606 0.4500 0.2382
vn 0.9706 0.1701 0.1701
vn 0.9657 -0.2506 -0.0672
vn 0.9098 -0.3522 0.2197
vn 0.9043 0.1105 -0.4124
vn 0.9043 0.4124 0.1105
vn 0.9043 -0.1105 0.4124
vn 0.9043 -0.1105 -0.4124
vn 0.9043 0.4124 -0.1105
vn 0.9043 0.1105 0.4124
vn 0.9098 -0.3522 -0.2198
vn 0.9043 -0.4124 0.1105
vn 0.9098 0.3522 -0.2197
vn 0.8404 0.3833 0.3832
vn 0.0000 0.9659 0.2589
vn 0.9067 0.0197 0.4212
vn 0.9657 0.2507 0.0672
vn 0.9999 -0.0125 0.0098
vn 1.0000 -0.0059 0.0079
vn 0.7162 0.3623 0.5965
vn 0.9999 -0.0010 0.0102
vn 0.9706 0.1701 -0.1701
vn 0.0000 0.9998 0.0196
vn 0.9657 0.0672 -0.2506
vn 0.9068 0.4212 -0.0197
vn 0.9999 0.0103 0.0010
vn 0.8607 0.2382 -0.4500
vn 0.0000 -0.8583 -0.5131
vn 1.0000 0.0079 0.0059
vn 0.9657 -0.0672 -0.2507
vn 0.9999 0.0125 -0.0098
vn 0.9067 -0.0197 -0.4212
vn 0.7162 -0.3623 -0.5965
vn 1.0000 0.0059 -0.0079
vn 0.0000 -0.8706 -0.4919
vn 0.9706 -0.1701 0.1701
vn 0.9999 0.0010 -0.0102
vn 0.0000 0.5131 0.8583
vn 0.9999 -0.0098 -0.0126
vn 0.9067 -0.4212 0.0197
vn 0.9657 0.0672 0.2507
vn 0.7161 -0.5965 0.3624
vn 0.8606 -0.2382 0.4500
vn 0.9999 -0.0102 -0.0010
vn 0.0000 0.9998 -0.0196
vn 0.0000 -0.9998 0.0196
vn 0.0000 0.4919 -0.8706
vn 0.0000 -0.8706 0.4919
vn 0.0000 0.8706 -0.4919
vn 0.0000 -0.0196 0.9998
vn 0.0000 -0.4919 -0.8706
vn 0.0000 0.8583 0.5131
vn 0.0000 0.0196 0.9998
vn 0.0000 -0.5131 -0.8583
vn 0.0000 -0.2589 0.9659
vn 0.0000 0.8706 0.4919
vn 0.0000 -0.8583 0.5131
vn 0.0000 -0.9998 -0.0196
vn 0.0000 0.5131 -0.8583
vn 0.0000 0.9659 -0.2589
vn 0.0000 -0.5131 0.8583
vn 0.0000 -0.4919 0.8706
vn 0.0000 -0.0196 -0.9998
vn 0.0000 0.8583 -0.5131
vn 0.0000 0.0196 -0.9998
vn 0.0000 0.4919 0.8706
vn 0.9098 0.3522 0.2198
vn 0.9098 0.2197 0.3522
vn 0.9371 0.2468 0.2468
vn 0.0000 -0.5000 -0.8660
vn 0.9371 -0.2468 0.2468
vn 0.8405 -0.3832 0.3832
vn 0.9098 -0.2194 0.3524
vn 0.9099 -0.2195 0.3520
vn 0.0000 -0.8660 0.5000
vn 0.9371 -0.2468 -0.2468
vn 0.9097 -0.2197 -0.3522
vn 0.8405 -0.3832 -0.3832
vn 0.0000 0.8660 0.5000
vn 0.9371 0.2468 -0.2468
vn 0.8404 0.3832 -0.3832
vn 0.9097 0.2198 -0.3522
vn 0.0000 -0.7072 0.7071
vn 0.0000 -0.5000 0.8660
vn 0.0000 0.5000 0.8660
vn 0.0000 0.7071 -0.7072
vn 0.0000 0.8660 -0.5000
vn 0.0000 0.5000 -0.8660
vn 0.0000 -0.8660 -0.5000
vn 0.9999 0.0102 -0.0010
vn 0.7162 -0.5965 -0.3623
vn 0.9657 -0.0672 0.2506
vn 0.9999 -0.0098 0.0126
vn 0.9657 0.2507 -0.0672
vn 0.9068 0.4212 0.0197
vn 0.9657 -0.2506 0.0672
vn 0.9999 -0.0103 0.0010
vn 0.9657 -0.2507 -0.0672
vn 0.9098 -0.3522 0.2198
vn 0.9098 -0.3522 -0.2197
vn 0.9098 0.3522 -0.2198
vn 0.8404 0.3832 0.3832
vn 1.0000 -0.0059 -0.0079
vn 0.9657 0.2506 0.0672
vn 0.7161 0.3624 -0.5965
vn 0.9067 0.0197 -0.4212
vn 0.9999 -0.0125 -0.0098
vn 0.8607 -0.2382 -0.4500
vn 0.9657 0.0672 -0.2507
vn 1.0000 -0.0079 0.0059
vn 0.8606 -0.4501 0.2383
vn 0.9999 0.0010 0.0102
vn 0.9067 -0.4212 -0.0197
vn 0.7162 -0.3623 0.5964
vn 1.0000 0.0059 0.0079
vn 0.9999 0.0126 0.0098
vn 0.9067 -0.0197 0.4212
vn 0.8606 0.2382 0.4500
vn 0.7162 0.5965 0.3623
vn 1.0000 0.0078 -0.0059
vn 0.9999 0.0098 -0.0126
vn 0.9999 -0.0010 -0.0102
vn 0.8607 0.4500 -0.2382
vn 0.9098 0.3522 0.2197
vn 0.9098 0.2197 0.3523
vn 0.8404 -0.3832 0.3832
vn 0.9098 -0.2194 0.3523
vn 0.9098 -0.2198 -0.3522
vn 0.8405 0.3832 -0.3831
vn 0.9098 0.2197 -0.3522
usemtl Black.007
s off
f 2//1 3//1 1//1
f 4//2 5//2 3//2
f 6//3 7//3 5//3
f 8//4 9//4 7//4
f 10//5 11//5 9//5
f 12//6 13//6 11//6
f 14//7 15//7 13//7
f 16//8 17//8 15//8
f 18//9 19//9 17//9
f 19//10 22//10 21//10
f 14//11 30//11 31//11
f 21//12 24//12 23//12
f 23//13 2//13 1//13
f 11//14 15//14 23//14
f 31//15 42//15 43//15
f 12//16 29//16 30//16
f 8//17 29//17 10//17
f 2//18 36//18 26//18
f 2//19 25//19 4//19
f 6//20 28//20 8//20
f 24//21 35//21 36//21
f 4//22 27//22 6//22
f 22//23 34//23 35//23
f 20//24 33//24 34//24
f 18//25 32//25 33//25
f 16//26 31//26 32//26
f 45//3 58//3 46//3
f 28//15 39//15 40//15
f 34//15 47//15 35//15
f 31//15 44//15 32//15
f 28//15 41//15 29//15
f 35//15 48//15 36//15
f 25//15 38//15 37//15
f 32//15 45//15 33//15
f 30//15 41//15 42//15
f 26//15 48//15 38//15
f 27//15 37//15 39//15
f 33//15 46//15 34//15
f 42//13 55//13 43//13
f 39//9 52//9 40//9
f 46//4 59//4 47//4
f 43//1 56//1 44//1
f 40//10 53//10 41//10
f 47//5 60//5 48//5
f 38//7 49//7 37//7
f 44//2 57//2 45//2
f 41//12 54//12 42//12
f 48//6 50//6 38//6
f 37//8 51//8 39//8
f 133//27 136//27 135//27
f 138//28 139//28 137//28
f 141//29 144//29 143//29
f 145//30 148//30 147//30
f 150//31 151//31 149//31
f 154//32 155//32 153//32
f 157//33 160//33 159//33
f 162//34 163//34 161//34
f 166//35 167//35 165//35
f 169//36 172//36 171//36
f 174//37 175//37 173//37
f 178//38 179//38 177//38
f 198//39 199//39 197//39
f 202//40 203//40 201//40
f 206//41 207//41 205//41
f 209//42 212//42 211//42
f 2//1 4//1 3//1
f 4//2 6//2 5//2
f 6//3 8//3 7//3
f 8//4 10//4 9//4
f 10//5 12//5 11//5
f 12//6 14//6 13//6
f 14//7 16//7 15//7
f 16//8 18//8 17//8
f 18//9 20//9 19//9
f 19//10 20//10 22//10
f 14//11 12//11 30//11
f 21//12 22//12 24//12
f 23//13 24//13 2//13
f 23//14 1//14 3//14
f 3//14 5//14 23//14
f 5//14 7//14 23//14
f 7//14 9//14 11//14
f 11//14 13//14 15//14
f 15//14 17//14 19//14
f 19//14 21//14 15//14
f 21//14 23//14 15//14
f 7//14 11//14 23//14
f 31//15 30//15 42//15
f 12//16 10//16 29//16
f 8//17 28//17 29//17
f 2//18 24//18 36//18
f 2//19 26//19 25//19
f 6//20 27//20 28//20
f 24//21 22//21 35//21
f 4//22 25//22 27//22
f 22//23 20//23 34//23
f 20//24 18//24 33//24
f 18//25 16//25 32//25
f 16//26 14//26 31//26
f 45//3 57//3 58//3
f 28//15 27//15 39//15
f 34//15 46//15 47//15
f 31//15 43//15 44//15
f 28//15 40//15 41//15
f 35//15 47//15 48//15
f 25//15 26//15 38//15
f 32//15 44//15 45//15
f 30//15 29//15 41//15
f 26//15 36//15 48//15
f 27//15 25//15 37//15
f 33//15 45//15 46//15
f 42//13 54//13 55//13
f 39//9 51//9 52//9
f 46//4 58//4 59//4
f 43//1 55//1 56//1
f 40//10 52//10 53//10
f 47//5 59//5 60//5
f 38//7 50//7 49//7
f 44//2 56//2 57//2
f 41//12 53//12 54//12
f 48//6 60//6 50//6
f 37//8 49//8 51//8
f 133//27 134//27 136//27
f 138//28 140//28 139//28
f 141//29 142//29 144//29
f 145//30 146//30 148//30
f 150//31 152//31 151//31
f 154//32 156//32 155//32
f 157//33 158//33 160//33
f 162//34 164//34 163//34
f 166//35 168//35 167//35
f 169//36 170//36 172//36
f 174//37 176//37 175//37
f 178//38 180//38 179//38
f 198//39 200//39 199//39
f 202//40 204//40 203//40
f 206//41 208//41 207//41
f 209//42 210//42 212//42
usemtl Grey.015
f 51//43 119//43 63//43
f 72//44 74//44 62//44
f 57//45 100//45 98//45
f 54//15 85//15 55//15
f 63//46 123//46 124//46
f 59//47 107//47 71//47
f 68//48 92//48 67//48
f 52//49 128//49 126//49
f 72//50 104//50 71//50
f 61//51 116//51 62//51
f 57//52 95//52 69//52
f 65//53 131//53 132//53
f 72//54 111//54 112//54
f 77//15 75//15 83//15
f 73//55 186//55 61//55
f 69//56 82//56 70//56
f 67//57 78//57 79//57
f 63//58 76//58 64//58
f 71//59 82//59 83//59
f 67//60 80//60 68//60
f 65//61 76//61 77//61
f 84//62 189//62 191//62
f 61//63 74//63 73//63
f 80//64 194//64 68//64
f 66//65 182//65 181//65
f 87//66 136//66 88//66
f 55//67 87//67 67//67
f 66//68 87//68 88//68
f 54//69 88//69 86//69
f 107//10 156//10 108//10
f 55//70 92//70 90//70
f 56//15 90//15 89//15
f 56//71 91//71 68//71
f 127//4 176//4 128//4
f 56//72 96//72 94//72
f 68//73 95//73 96//73
f 56//15 93//15 57//15
f 97//74 147//74 99//74
f 69//75 99//75 100//75
f 57//15 97//15 58//15
f 58//76 99//76 70//76
f 86//13 133//13 85//13
f 60//15 102//15 101//15
f 59//77 104//77 102//77
f 60//78 103//78 72//78
f 117//79 167//79 119//79
f 58//80 108//80 106//80
f 71//81 108//81 70//81
f 59//15 106//15 105//15
f 106//4 153//4 105//4
f 60//82 112//82 110//82
f 60//15 109//15 50//15
f 50//83 111//83 62//83
f 126//10 173//10 125//10
f 49//15 114//15 113//15
f 49//84 115//84 61//84
f 50//85 116//85 114//85
f 98//86 148//86 146//86
f 63//87 120//87 61//87
f 49//88 120//88 118//88
f 51//15 118//15 117//15
f 118//89 168//89 166//89
f 51//90 124//90 122//90
f 51//15 121//15 52//15
f 52//91 123//91 64//91
f 99//9 148//9 100//9
f 65//92 128//92 64//92
f 53//15 126//15 125//15
f 53//93 127//93 65//93
f 119//2 168//2 120//2
f 54//15 130//15 129//15
f 54//94 131//94 66//94
f 53//95 132//95 130//95
f 126//96 176//96 174//96
f 106//97 156//97 154//97
f 86//98 136//98 134//98
f 113//7 162//7 161//7
f 125//99 175//99 127//99
f 94//2 141//2 93//2
f 105//100 155//100 107//100
f 85//101 135//101 87//101
f 115//1 164//1 116//1
f 95//8 144//8 96//8
f 113//102 163//102 115//102
f 93//103 143//103 95//103
f 122//9 169//9 121//9
f 102//5 149//5 101//5
f 114//104 164//104 162//104
f 94//105 144//105 142//105
f 123//106 172//106 124//106
f 103//12 152//12 104//12
f 122//107 172//107 170//107
f 102//108 152//108 150//108
f 130//12 177//12 129//12
f 110//6 157//6 109//6
f 121//109 171//109 123//109
f 90//1 137//1 89//1
f 101//110 151//110 103//110
f 131//5 180//5 132//5
f 111//13 160//13 112//13
f 91//111 140//111 92//111
f 129//112 179//112 131//112
f 110//113 160//113 158//113
f 90//114 140//114 138//114
f 118//8 165//8 117//8
f 130//115 180//115 178//115
f 98//3 145//3 97//3
f 109//116 159//116 111//116
f 89//117 139//117 91//117
f 182//12 197//12 181//12
f 78//118 181//118 183//118
f 77//119 182//119 65//119
f 77//120 183//120 184//120
f 194//121 212//121 210//121
f 75//122 188//122 73//122
f 63//123 186//123 185//123
f 75//124 185//125 187//124
f 190//126 208//126 206//126
f 84//127 192//127 83//127
f 83//128 190//128 71//128
f 71//129 189//129 72//129
f 193//130 211//130 195//130
f 80//131 195//131 196//131
f 68//132 193//132 69//132
f 81//133 193//133 195//133
f 186//8 201//8 185//8
f 183//5 200//5 184//5
f 190//5 205//5 189//5
f 187//134 204//134 188//134
f 194//2 209//2 193//2
f 181//135 199//135 183//135
f 191//12 208//12 192//12
f 186//136 204//136 202//136
f 195//137 212//137 196//137
f 182//138 200//138 198//138
f 189//139 207//139 191//139
f 185//140 203//140 187//140
f 51//141 117//141 119//141
f 72//44 84//44 74//44
f 57//142 69//142 100//142
f 54//15 86//15 85//15
f 63//143 64//143 123//143
f 59//144 105//144 107//144
f 68//145 91//145 92//145
f 52//146 64//146 128//146
f 72//50 103//50 104//50
f 61//147 115//147 116//147
f 57//148 93//148 95//148
f 65//53 66//53 131//53
f 72//149 62//149 111//149
f 75//15 73//15 74//15
f 74//15 84//15 75//15
f 84//15 83//15 75//15
f 83//15 82//15 81//15
f 81//15 80//15 79//15
f 79//15 78//15 77//15
f 77//15 76//15 75//15
f 83//15 81//15 79//15
f 79//15 77//15 83//15
f 73//150 188//150 186//150
f 69//56 81//56 82//56
f 67//57 66//57 78//57
f 63//58 75//58 76//58
f 71//59 70//59 82//59
f 67//60 79//60 80//60
f 65//61 64//61 76//61
f 84//151 72//151 189//151
f 61//63 62//63 74//63
f 80//152 196//152 194//152
f 66//153 65//153 182//153
f 87//66 135//66 136//66
f 55//154 85//154 87//154
f 66//155 67//155 87//155
f 54//156 66//156 88//156
f 107//10 155//10 156//10
f 55//157 67//157 92//157
f 56//15 55//15 90//15
f 56//158 89//158 91//158
f 127//4 175//4 176//4
f 56//159 68//159 96//159
f 68//73 69//73 95//73
f 56//15 94//15 93//15
f 97//74 145//74 147//74
f 69//160 70//160 99//160
f 57//15 98//15 97//15
f 58//161 97//161 99//161
f 86//13 134//13 133//13
f 60//15 59//15 102//15
f 59//162 71//162 104//162
f 60//163 101//163 103//163
f 117//79 165//79 167//79
f 58//164 70//164 108//164
f 71//81 107//81 108//81
f 59//15 58//15 106//15
f 106//4 154//4 153//4
f 60//165 72//165 112//165
f 60//15 110//15 109//15
f 50//166 109//166 111//166
f 126//10 174//10 173//10
f 49//15 50//15 114//15
f 49//167 113//167 115//167
f 50//168 62//168 116//168
f 98//86 100//86 148//86
f 63//87 119//87 120//87
f 49//169 61//169 120//169
f 51//15 49//15 118//15
f 118//89 120//89 168//89
f 51//170 63//170 124//170
f 51//15 122//15 121//15
f 52//171 121//171 123//171
f 99//9 147//9 148//9
f 65//92 127//92 128//92
f 53//15 52//15 126//15
f 53//172 125//172 127//172
f 119//2 167//2 168//2
f 54//15 53//15 130//15
f 54//173 129//173 131//173
f 53//174 65//174 132//174
f 126//96 128//96 176//96
f 106//97 108//97 156//97
f 86//98 88//98 136//98
f 113//7 114//7 162//7
f 125//99 173//99 175//99
f 94//2 142//2 141//2
f 105//100 153//100 155//100
f 85//101 133//101 135//101
f 115//1 163//1 164//1
f 95//8 143//8 144//8
f 113//102 161//102 163//102
f 93//103 141//103 143//103
f 122//9 170//9 169//9
f 102//5 150//5 149//5
f 114//104 116//104 164//104
f 94//105 96//105 144//105
f 123//106 171//106 172//106
f 103//12 151//12 152//12
f 122//107 124//107 172//107
f 102//108 104//108 152//108
f 130//12 178//12 177//12
f 110//6 158//6 157//6
f 121//109 169//109 171//109
f 90//1 138//1 137//1
f 101//110 149//110 151//110
f 131//5 179//5 180//5
f 111//13 159//13 160//13
f 91//111 139//111 140//111
f 129//112 177//112 179//112
f 110//113 112//113 160//113
f 90//114 92//114 140//114
f 118//8 166//8 165//8
f 130//115 132//115 180//115
f 98//3 146//3 145//3
f 109//116 157//116 159//116
f 89//117 137//117 139//117
f 182//12 198//12 197//12
f 78//175 66//175 181//175
f 77//176 184//176 182//176
f 77//120 78//120 183//120
f 194//121 196//121 212//121
f 75//122 187//122 188//122
f 63//177 61//177 186//177
f 75//178 63//178 185//124
f 190//126 192//126 208//126
f 84//127 191//127 192//127
f 83//179 192//179 190//179
f 71//129 190//129 189//129
f 193//130 209//130 211//130
f 80//131 81//131 195//131
f 68//180 194//180 193//180
f 81//181 69//181 193//181
f 186//8 202//8 201//8
f 183//5 199//5 200//5
f 190//5 206//5 205//5
f 187//2 203//2 204//2
f 194//2 210//2 209//2
f 181//135 197//135 199//135
f 191//12 207//12 208//12
f 186//136 188//136 204//136
f 195//8 211//8 212//8
f 182//138 184//138 200//138
f 189//139 205//139 207//139
f 185//140 201//140 203//140
