# Blender v3.5.0 OBJ File: 'dayScene.blend'
# www.blender.org
mtllib Concrete_Barrier_Cube.001.mtl
o Concrete_Barrier_Cube.003_Concrete_Barrier_Cube.001
v 905.417969 -17.337601 -26.418121
v 905.417969 8.779440 -96.816360
v 905.417969 17.337601 -26.418121
v -905.417969 -8.779440 -96.816360
v -905.417969 -17.337601 -26.418121
v -905.417969 17.337601 -26.418121
v -905.417969 -36.035282 -8.366039
v 905.417969 36.035282 -8.366039
v -905.417969 -36.035282 -0.091320
v -905.417969 36.035282 -0.091320
v 905.417969 -36.035282 -0.091320
v -519.582397 36.035282 -5.421360
v -356.569916 36.035282 -5.421360
v -547.245911 36.035282 -0.091320
v -328.906433 36.035282 -0.091320
v 356.569916 36.035282 -5.421360
v 547.245911 36.035282 -0.091320
v 519.582397 36.035282 -5.421360
v -328.906433 -36.035282 -0.091320
v 547.245911 -36.035282 -0.091320
v 328.906433 -36.035282 -0.091320
v 356.569916 -36.035282 -5.421360
v 519.582397 -36.035282 -5.421360
v -519.582397 -36.035282 -5.421360
v -356.569916 -36.035282 -5.421360
v 905.417969 -13.058519 -61.617245
v 905.417969 7.103160 -61.617245
v 836.931396 13.058519 -61.617245
v -905.417969 33.864597 -8.366039
v -905.417969 36.035282 -6.195240
v -905.417969 34.473598 -9.873720
v 905.417969 36.035282 -4.820400
v -856.116150 14.848801 -44.323200
v -905.417969 7.845360 -47.353199
v -905.417969 16.527719 -33.079800
v -547.245911 -31.994759 -0.091320
v -593.711853 -36.035282 -0.091320
v -528.131531 -36.035282 -3.774120
v 328.906433 33.712799 -0.091320
v 339.893982 36.035282 -2.208240
v 302.197937 36.035282 -0.091320
v 905.417969 -33.204720 -11.098801
v 905.417969 -32.100838 -8.366039
v 905.417969 -36.035282 -4.431480
v 884.005920 -34.544281 -9.805560
v 884.005920 -36.035282 -6.293400
v 826.464111 -36.035282 -8.366039
v -905.417969 13.733640 -56.064003
v -905.417969 10.203840 -48.787800
v -876.477966 14.628000 -47.199718
v 905.417969 14.153760 -52.608120
v 905.417969 11.441640 -57.774239
v 880.046631 13.510920 -57.895439
v 905.417969 11.654520 -73.166161
v 859.240417 12.824400 -63.542999
v 905.417969 8.574480 -63.278282
v -861.160034 36.035282 -8.366039
v -894.097900 35.181839 -9.189960
v -894.097900 36.035282 -7.179600
v 827.453552 36.035282 -0.091320
v 867.708069 34.585442 -0.091320
v 867.708069 36.035282 -1.541280
v 905.417969 32.756161 -1.541280
v 888.743408 32.756161 -0.091320
v 905.417969 29.255760 -0.091320
v -905.417969 -10.330919 -59.756042
v -867.444519 -13.058519 -61.617245
v -905.417969 -12.284281 -67.986481
v -880.095093 -12.925800 -62.709240
v -905.417969 -11.374560 -62.058720
v -905.417969 -11.369160 -59.285519
v -886.776978 -13.261440 -59.948402
v -905.417969 -13.733640 -56.063763
v 905.417969 -8.940360 -95.492645
v 890.083496 -8.779440 -96.816360
v 905.417969 -7.995840 -96.329277
v 899.445435 -7.965360 -96.816360
v 905.417969 -6.711600 -96.816360
v -905.417969 9.074280 -94.391037
v -859.266663 8.779440 -96.816360
v -890.088989 7.669320 -96.816360
v -890.088989 8.913481 -95.714279
v -900.034546 6.804480 -96.816360
v -905.417969 5.674320 -96.816360
v -905.417969 6.831840 -96.377396
vt 0.625000 0.497883
vt 0.620299 0.500000
vt 0.500000 0.500000
vt 0.375000 0.497044
vt 0.375000 0.489100
vt 0.375000 0.500000
vt 0.375000 0.007530
vt 0.375000 0.250000
vt 0.375000 0.000000
vt 0.375000 0.726483
vt 0.375000 0.500000
vt 0.375000 0.513648
vt 0.578284 0.673926
vt 0.547507 0.576074
vt 0.625000 0.576074
vt 0.168033 0.500000
vt 0.174448 0.514016
vt 0.174448 0.750000
vt 0.625000 0.673926
vt 0.547507 0.576074
vt 0.547507 0.673926
vt 0.875000 0.673926
vt 0.625000 0.576074
vt 0.625000 0.076074
vt 0.547507 0.173926
vt 0.547507 0.076074
vt 0.291721 0.750000
vt 0.204592 0.500000
vt 0.295408 0.500000
vt 0.625000 0.673926
vt 0.875000 0.576074
vt 0.875000 0.673926
vt 0.500000 0.692994
vt 0.486353 0.730051
vt 0.468007 0.750000
vt 0.868629 0.750000
vt 0.625000 0.750000
vt 0.627117 0.500000
vt 0.375000 0.998437
vt 0.375000 0.993890
vt 0.375000 1.000000
vt 0.375000 0.250000
vt 0.375000 0.250000
vt 0.369794 0.744971
vt 0.364236 0.750000
vt 0.486783 0.753503
vt 0.500000 0.759455
vt 0.449345 0.066500
vt 0.398657 0.000000
vt 0.435131 0.985559
vt 0.547507 0.168440
vt 0.375000 0.302087
vt 0.601051 0.173926
vt 0.625000 0.173926
vt 0.625000 0.076074
vt 0.295408 0.741944
vt 0.375000 0.833279
vt 0.375000 0.451906
vt 0.375000 0.325773
vt 0.375000 0.303268
vt 0.375000 0.750000
vt 0.375000 0.750000
vt 0.375000 0.497044
vt 0.480279 1.000000
vt 0.454440 0.042255
vt 0.446773 0.991523
vt 0.398657 1.000000
vt 0.541013 0.750000
vt 0.506839 0.756375
vt 0.505899 0.709010
vt 0.375000 0.755206
vt 0.375000 0.750177
vt 0.375000 0.740927
vt 0.375000 0.760764
vt 0.375000 0.738625
vt 0.375000 0.825773
vt 0.375000 0.803268
vt 0.480278 0.250000
vt 0.500000 0.255243
vt 0.522619 0.250000
vt 0.503878 0.253496
vt 0.501568 0.236785
vt 0.493391 0.226057
vt 0.491720 0.234008
vt 0.494073 0.252573
vt 0.625000 0.510766
vt 0.623271 0.512000
vt 0.625000 0.529441
vt 0.621086 0.997884
vt 0.625000 0.993628
vt 0.872884 0.734193
vt 0.621086 0.543469
vt 0.480279 0.000000
vt 0.827101 0.769036
vt 0.875000 0.705790
vt 0.623441 0.028489
vt 0.738603 0.868474
vt 0.625000 0.250000
vt 0.375000 0.500000
vt 0.375000 0.000000
vt 0.375000 0.500000
vt 0.375000 0.750000
vt 0.547507 0.670773
vt 0.125000 0.750000
vt 0.125000 0.500000
vt 0.875000 0.576074
vt 0.625000 0.173926
vt 0.204592 0.750000
vt 0.625825 0.511590
vt 0.875000 0.500000
vt 0.874257 0.721880
vt 0.375000 1.000000
vt 0.375000 0.000000
vt 0.375000 0.000000
vt 0.325552 0.750000
vt 0.325552 0.500000
vt 0.372698 0.738625
vt 0.547507 0.076074
vt 0.375000 0.424227
vt 0.375000 0.450552
vt 0.375000 0.446732
vt 0.375000 0.420408
vt 0.375000 0.329592
vt 0.375000 0.293033
vt 0.454440 0.406839
vt 0.375000 0.799448
vt 0.375000 0.998437
vt 0.375000 1.000000
vt 0.375000 0.924227
vt 0.375000 0.946732
vt 0.375000 1.000000
vt 0.375000 0.950552
vt 0.375000 0.920408
vt 0.375000 0.828075
vt 0.616387 1.000000
vt 0.616387 0.000000
vt 0.625000 0.044210
vt 0.828194 0.585771
vn 0.0000 -0.9927 -0.1207
vn 0.0000 -0.6946 -0.7194
vn -1.0000 0.0000 0.0000
vn 1.0000 0.0000 0.0000
vn 0.1892 -0.0000 0.9819
vn 0.0000 0.0000 1.0000
vn -0.1892 0.0000 0.9819
vn 0.0000 0.0000 -1.0000
vn -0.0000 0.6946 -0.7194
vn 0.0576 0.6620 -0.7473
vn -0.0891 0.8510 -0.5176
vn 0.0471 -0.5419 0.8391
vn 0.0471 0.5419 0.8391
vn -0.1343 0.9121 -0.3872
vn 0.0000 -1.0000 -0.0000
vn 0.0141 -0.9204 -0.3907
vn 0.1302 -0.9127 -0.3874
vn -0.1594 0.8882 0.4309
vn -0.1253 0.5156 0.8476
vn 0.0742 0.8830 -0.4635
vn 0.0063 0.9927 -0.1207
vn 0.0858 0.9512 0.2963
vn 0.0650 0.7470 0.6617
vn -0.0141 0.9204 -0.3907
vn 0.0614 0.7058 0.7057
vn 0.0255 0.7069 0.7068
vn 0.0801 0.3815 0.9209
vn 0.0000 1.0000 -0.0000
vn -0.0566 -0.9868 0.1514
vn -0.0451 -0.9099 0.4124
vn -0.1023 -0.8020 -0.5886
vn -0.0741 -0.4117 -0.9083
vn 0.0576 -0.6620 -0.7473
vn 0.0742 -0.3536 -0.9324
vn 0.0056 0.9929 -0.1185
vn -0.0239 0.6629 -0.7483
vn -0.0742 0.3536 -0.9324
vn -0.0576 0.6620 -0.7473
vn -1.0000 0.0001 0.0000
vn -0.0804 0.9242 0.3733
vn -0.0614 0.7058 -0.7058
vn 0.0804 -0.9242 0.3733
vn 0.0614 -0.7058 -0.7058
vn 0.0000 0.9905 -0.1377
vn -0.0000 0.9927 -0.1207
vn -0.0002 0.9927 -0.1203
vn 0.0614 0.7058 0.7058
vn -0.0741 -0.4116 -0.9083
vn 1.0000 0.0002 0.0000
vn -0.0001 0.9934 -0.1148
vn 0.0001 0.9931 -0.1170
vn 0.0055 0.9933 -0.1152
vn -1.0000 -0.0002 0.0000
usemtl Concrete
s off
f 75/1/1 74/2/1 26/3/1
f 45/4/2 47/5/2 1/6/2
f 29/7/3 9/8/3 10/9/3
f 65/10/4 11/11/4 43/12/4
f 40/13/5 21/14/5 22/15/5
f 37/16/6 36/17/6 14/18/6
f 13/19/7 19/20/7 15/21/7
f 12/22/6 25/23/6 13/19/6
f 18/24/7 20/25/7 17/26/7
f 41/27/6 19/28/6 21/29/6
f 16/30/6 23/31/6 18/32/6
f 27/33/4 52/34/4 51/35/4
f 80/36/8 2/37/8 75/38/8
f 58/39/9 57/40/9 6/41/9
f 5/42/3 7/43/3 29/7/3
f 61/44/6 60/45/6 11/11/6
f 53/46/10 27/33/10 28/47/10
f 34/48/11 35/49/11 33/50/11
f 36/51/12 37/16/12 38/52/12
f 38/53/5 24/54/5 12/55/5
f 39/56/13 40/13/13 41/57/13
f 58/39/14 29/7/14 59/58/14
f 25/59/15 24/60/15 7/43/15
f 3/61/4 8/62/4 43/12/4
f 45/4/16 46/63/16 47/5/16
f 43/12/17 46/63/17 45/4/17
f 48/64/18 49/65/18 50/66/18
f 50/66/19 34/48/19 33/50/19
f 51/35/20 52/34/20 53/46/20
f 33/50/21 35/67/21 6/41/21
f 54/68/22 55/69/22 56/70/22
f 27/33/23 55/69/23 28/47/23
f 57/40/24 58/39/24 59/58/24
f 62/71/25 61/72/25 64/73/25
f 60/74/26 61/44/26 62/71/26
f 63/75/27 64/73/27 65/10/27
f 16/76/28 18/77/28 8/62/28
f 73/78/3 5/42/3 34/48/3
f 67/79/1 26/3/1 1/6/1
f 68/80/29 69/81/29 70/82/29
f 66/83/30 69/81/30 67/79/30
f 71/84/31 72/85/31 73/78/31
f 72/85/32 66/83/32 67/79/32
f 74/2/33 77/86/33 76/87/33
f 76/87/34 77/86/34 78/88/34
f 74/2/4 78/88/4 54/68/4
f 48/64/35 50/66/35 82/89/35
f 80/90/36 81/91/36 82/92/36
f 68/80/3 70/82/3 48/93/3
f 83/94/37 84/95/37 85/96/37
f 82/92/38 81/97/38 83/94/38
f 26/3/1 67/79/1 75/1/1
f 67/79/1 69/81/1 4/98/1
f 75/1/1 67/79/1 4/98/1
f 69/81/1 68/80/1 4/98/1
f 7/43/2 5/42/2 47/5/2
f 5/42/2 1/6/2 47/5/2
f 1/6/2 42/99/2 45/4/2
f 10/9/3 30/100/3 29/7/3
f 29/7/3 7/43/3 9/8/3
f 11/11/4 44/101/4 43/12/4
f 43/12/4 8/62/4 65/10/4
f 8/62/4 32/102/4 63/75/4
f 65/10/4 8/62/4 63/75/4
f 22/15/5 16/30/5 40/13/5
f 40/13/5 39/103/5 21/14/5
f 14/18/6 10/104/6 37/16/6
f 10/104/6 9/105/6 37/16/6
f 13/19/7 25/23/7 19/20/7
f 12/22/6 24/106/6 25/23/6
f 18/24/7 23/107/7 20/25/7
f 21/29/6 39/56/6 41/27/6
f 41/27/6 15/108/6 19/28/6
f 16/30/6 22/15/6 23/31/6
f 3/61/4 1/6/4 51/35/4
f 1/6/4 26/3/4 51/35/4
f 51/35/4 26/3/4 27/33/4
f 2/37/8 78/88/8 77/109/8
f 77/109/8 75/38/8 2/37/8
f 75/38/8 4/110/8 80/36/8
f 4/110/8 84/95/8 83/111/8
f 83/111/8 81/91/8 4/110/8
f 81/91/8 80/36/8 4/110/8
f 8/62/9 3/61/9 57/40/9
f 3/61/9 6/41/9 57/40/9
f 6/41/9 31/112/9 58/39/9
f 31/113/39 6/114/39 29/7/39
f 6/114/3 5/42/3 29/7/3
f 17/115/6 20/116/6 60/45/6
f 20/116/6 11/11/6 60/45/6
f 11/11/6 65/10/6 64/117/6
f 64/117/6 61/44/6 11/11/6
f 53/46/10 52/34/10 27/33/10
f 14/118/5 36/51/5 12/55/5
f 36/51/5 38/53/5 12/55/5
f 31/112/40 29/7/40 58/39/40
f 29/7/41 30/100/41 59/58/41
f 7/43/15 47/5/15 25/59/15
f 47/5/15 46/63/15 11/11/15
f 25/59/15 47/5/15 22/119/15
f 46/63/15 44/101/15 11/11/15
f 11/11/15 20/120/15 47/5/15
f 20/120/15 23/121/15 47/5/15
f 22/119/15 21/122/15 19/123/15
f 22/119/15 19/123/15 25/59/15
f 23/121/15 22/119/15 47/5/15
f 37/124/15 9/8/15 7/43/15
f 24/60/15 38/52/15 37/124/15
f 24/60/15 37/124/15 7/43/15
f 42/99/4 1/6/4 43/12/4
f 1/6/4 3/61/4 43/12/4
f 45/4/42 42/99/42 43/12/42
f 43/12/43 44/101/43 46/63/43
f 50/66/19 49/125/19 34/48/19
f 6/41/44 3/61/44 33/50/44
f 3/61/45 51/35/45 53/46/45
f 28/47/45 3/61/45 53/46/45
f 28/47/46 33/50/46 3/61/46
f 27/33/23 56/70/23 55/69/23
f 63/75/47 32/102/47 64/73/47
f 32/102/47 62/71/47 64/73/47
f 17/126/28 60/74/28 18/77/28
f 60/74/28 62/71/28 8/62/28
f 62/71/28 32/102/28 8/62/28
f 8/62/28 57/40/28 16/76/28
f 57/40/28 59/127/28 10/128/28
f 13/129/28 57/40/28 12/130/28
f 59/127/28 30/131/28 10/128/28
f 10/128/28 14/132/28 57/40/28
f 14/132/28 12/130/28 57/40/28
f 13/129/28 15/133/28 41/57/28
f 13/129/28 41/57/28 16/76/28
f 41/57/28 40/134/28 16/76/28
f 60/74/28 8/62/28 18/77/28
f 57/40/28 13/129/28 16/76/28
f 5/42/3 6/114/3 35/49/3
f 35/49/3 34/48/3 5/42/3
f 34/48/3 66/83/3 73/78/3
f 66/83/3 71/84/3 73/78/3
f 1/6/1 5/42/1 67/79/1
f 5/42/1 73/78/1 72/85/1
f 67/79/1 5/42/1 72/85/1
f 66/83/30 70/82/30 69/81/30
f 72/85/48 71/84/48 66/83/48
f 74/2/33 75/1/33 77/86/33
f 27/33/4 26/3/4 56/70/4
f 26/3/4 74/2/4 54/68/4
f 74/2/49 76/87/49 78/88/49
f 78/88/4 2/37/4 54/68/4
f 54/68/4 56/70/4 26/3/4
f 33/50/50 28/47/50 80/90/50
f 28/47/45 55/69/45 2/37/45
f 55/69/45 54/68/45 2/37/45
f 2/37/45 80/90/45 28/47/45
f 80/90/51 82/89/51 50/66/51
f 33/50/52 80/90/52 50/66/52
f 82/89/45 79/135/45 48/64/45
f 66/83/3 34/48/3 48/93/3
f 34/48/3 49/65/3 48/93/3
f 48/93/3 79/136/3 68/80/3
f 66/83/3 48/93/3 70/82/3
f 79/136/53 85/96/53 84/137/53
f 84/137/3 4/98/3 79/136/3
f 4/98/3 68/80/3 79/136/3
f 85/138/38 79/136/38 83/94/38
f 79/136/38 82/92/38 83/94/38
