# Blender v3.5.0 OBJ File: 'dayScene.blend'
# www.blender.org
mtllib Cone_Cube.003.mtl
o Cone_Cube.001_Cone_Cube.003
v 33.296398 -26.218920 -2.755200
v 26.218920 -33.296398 -2.755200
v 0.453840 -24.262320 2.755200
v 17.477039 -16.835159 2.755200
v 26.218920 33.296398 -2.755200
v 33.296398 26.218920 -2.755200
v 24.262320 0.453840 2.755200
v 16.835159 17.477039 2.755200
v -26.218920 -33.296398 -2.755200
v -33.296398 -26.218920 -2.755200
v -24.262320 -0.453840 2.755200
v -16.835159 -17.477039 2.755200
v -33.296398 26.218920 -2.755200
v -26.218920 33.296398 -2.755200
v -0.453840 24.262320 2.755200
v -17.477039 16.835159 2.755200
v 27.338760 -36.000000 -2.755200
v 36.000000 -27.338760 -2.755200
v -27.338760 36.000000 -2.755200
v -36.000000 27.338760 -2.755200
v 36.000000 27.338760 -2.755200
v 27.338760 36.000000 -2.755200
v -36.000000 -27.338760 -2.755200
v -27.338760 -36.000000 -2.755200
v 26.218920 -33.296398 -6.907440
v 33.296398 -26.218920 -6.907440
v -26.218920 33.296398 -6.907440
v -33.296398 26.218920 -6.907440
v 33.296398 26.218920 -6.907440
v 26.218920 33.296398 -6.907440
v -33.296398 -26.218920 -6.907440
v -26.218920 -33.296398 -6.907440
v 36.000000 -27.338760 2.755200
v 27.338760 -36.000000 2.755200
v -36.000000 27.338760 2.755200
v -27.338760 36.000000 2.755200
v 27.338760 36.000000 2.755200
v 36.000000 27.338760 2.755200
v -27.338760 -36.000000 2.755200
v -36.000000 -27.338760 2.755200
v 15.404041 -14.838360 -0.463560
v 0.399960 -21.384600 -0.463560
v -15.404041 14.838360 -0.463560
v -0.399960 21.384600 -0.463560
v 14.838360 15.404041 -0.463560
v 21.384600 0.399960 -0.463560
v -14.838360 -15.404041 -0.463560
v -21.384600 -0.399960 -0.463560
v 0.000000 -26.831760 -5.873400
v 0.000000 -24.330481 -8.090520
v 23.236921 -13.415880 -5.873400
v 21.070799 -12.165240 -8.090520
v 23.236921 13.415880 -5.873400
v 21.070799 12.165240 -8.090520
v 0.000000 26.831760 -5.873400
v 0.000000 24.330481 -8.090520
v -23.236921 13.415880 -5.873400
v -21.070799 12.165240 -8.090520
v -23.236921 -13.415880 -5.873400
v -21.070799 -12.165240 -8.090520
v 23.236921 -13.415880 -8.090520
v 0.000000 -26.831760 -8.090520
v 23.236921 13.415880 -8.090520
v 0.000000 26.831760 -8.090520
v -23.236921 13.415880 -8.090520
v -23.236921 -13.415880 -8.090520
v 5.778240 -3.336120 -97.186440
v 0.000000 -6.672120 -97.186440
v 5.778240 3.336120 -97.186440
v 0.000000 6.672120 -97.186440
v -5.778240 3.336120 -97.186440
v -5.778240 -3.336120 -97.186440
v 4.305360 -2.485680 -103.762680
v 0.000000 -4.971360 -103.762680
v 4.305360 2.485680 -103.762680
v 0.000000 4.971360 -103.762680
v -4.305360 2.485680 -103.762680
v -4.305360 -2.485680 -103.762680
v 5.778240 -3.336120 -102.631805
v 0.000000 -6.672120 -102.631805
v 5.778240 3.336120 -102.631805
v 0.000000 6.672120 -102.631805
v -5.778240 3.336120 -102.631805
v -5.778240 -3.336120 -102.631805
v 4.305360 -2.485680 -105.598923
v 0.000000 -4.971360 -105.598923
v 4.305360 2.485680 -105.598923
v 0.000000 4.971360 -105.598923
v -4.305360 2.485680 -105.598923
v -4.305360 -2.485680 -105.598923
v 5.778240 -3.336120 -99.001556
v 5.778240 -3.336120 -100.816673
v 5.778240 3.336120 -100.816673
v 5.778240 3.336120 -99.001556
v -5.778240 3.336120 -99.001556
v -5.778240 3.336120 -100.816673
v -5.778240 -3.336120 -100.816673
v -5.778240 -3.336120 -99.001556
v 0.000000 6.672120 -100.816673
v 0.000000 6.672120 -99.001556
v 0.000000 -6.672120 -99.001556
v 0.000000 -6.672120 -100.816673
v 5.199840 -3.002160 -99.459961
v 5.199840 -3.002160 -100.358284
v 5.199840 3.002160 -100.358284
v 5.199840 3.002160 -99.459961
v -5.199840 3.002160 -99.459961
v -5.199840 3.002160 -100.358284
v -5.199840 -3.002160 -100.358284
v -5.199840 -3.002160 -99.459961
v 0.000000 6.004320 -100.358284
v 0.000000 6.004320 -99.459961
v 0.000000 -6.004320 -99.459961
v 0.000000 -6.004320 -100.358284
v 3.059880 -1.766640 -105.598923
v 0.000000 -3.533160 -105.598923
v 3.059880 1.766640 -105.598923
v 0.000000 3.533160 -105.598923
v -3.059880 1.766640 -105.598923
v -3.059880 -1.766640 -105.598923
v 2.262480 -1.306200 -95.153282
v 0.000000 -2.612520 -95.153282
v 2.262480 1.306200 -95.153282
v 0.000000 2.612520 -95.153282
v -2.262480 1.306200 -95.153282
v -2.262480 -1.306200 -95.153282
v 15.973320 9.222240 -37.789082
v 10.875840 6.279120 -67.487762
v 0.000000 12.558240 -67.487762
v 0.000000 18.444361 -37.789082
v 0.000000 -18.444361 -37.789082
v 0.000000 -12.558240 -67.487762
v 10.875840 -6.279120 -67.487762
v 15.973320 -9.222240 -37.789082
v -15.973320 -9.222240 -37.789082
v -10.875840 -6.279120 -67.487762
v -10.875840 6.279120 -67.487762
v -15.973320 9.222240 -37.789082
vt 0.171412 0.549298
vt 0.174298 0.546412
vt 0.171412 0.549298
vt 0.625000 0.030074
vt 0.375000 0.219926
vt 0.375000 0.030074
vt 0.625000 0.780074
vt 0.375000 0.969926
vt 0.375000 0.780074
vt 0.865613 0.716038
vt 0.865613 0.533962
vt 0.865613 0.533962
vt 0.625000 0.530074
vt 0.375000 0.719926
vt 0.375000 0.530074
vt 0.625000 0.469926
vt 0.625000 0.000000
vt 0.375000 0.000000
vt 0.625000 0.719926
vt 0.375000 0.280074
vt 0.625000 0.219926
vt 0.625000 0.280074
vt 0.375000 0.469926
vt 0.634387 0.533962
vt 0.655074 0.500000
vt 0.658962 0.509387
vt 0.844926 0.750000
vt 0.841038 0.740613
vt 0.658962 0.740613
vt 0.634387 0.716038
vt 0.841038 0.509387
vt 0.875000 0.530074
vt 0.844926 0.500000
vt 0.875000 0.719926
vt 0.655074 0.750000
vt 0.841038 0.740613
vt 0.634387 0.716038
vt 0.658962 0.509387
vt 0.658962 0.740613
vt 0.634387 0.533962
vt 0.841038 0.509387
vt 0.865613 0.716038
vt 0.328588 0.700702
vt 0.328588 0.549298
vt 0.125000 0.530074
vt 0.174298 0.546412
vt 0.174298 0.703588
vt 0.171412 0.700702
vt 0.174298 0.703588
vt 0.171412 0.700702
vt 0.325702 0.546412
vt 0.325702 0.703588
vt 0.328588 0.700702
vt 0.325702 0.546412
vt 0.328588 0.549298
vt 0.325702 0.703588
vt 0.625000 0.969926
vt 0.155074 0.500000
vt 0.344926 0.500000
vt 0.344926 0.750000
vt 0.155074 0.750000
vt 0.125000 0.719926
vt 0.109572 0.168924
vt 0.250000 0.087848
vt 0.390428 0.168924
vt 0.390428 0.331076
vt 0.250000 0.412153
vt 0.109572 0.331076
vt 1.000000 1.000000
vt 0.833333 0.500000
vt 1.000000 0.500000
vt 0.833333 1.000000
vt 0.666667 0.500000
vt 0.666667 1.000000
vt 0.500000 0.500000
vt 0.500000 1.000000
vt 0.333333 0.500000
vt 0.250000 0.032373
vt 0.438471 0.141186
vt 0.250000 0.032373
vt 0.333333 1.000000
vt 0.166667 0.500000
vt 0.166667 1.000000
vt -0.000000 0.500000
vt 0.250000 0.467627
vt 0.457846 0.370000
vt 0.250000 0.490000
vt 0.438471 0.141186
vt 0.438471 0.358814
vt 0.250000 0.032373
vt 0.457846 0.130000
vt 0.042154 0.130000
vt 0.250000 0.010000
vt 0.061529 0.358814
vt 0.061529 0.141186
vt 0.042154 0.370000
vt 0.438471 0.358814
vt 0.438471 0.141186
vt 0.438471 0.141186
vt 0.250000 0.467627
vt 0.438471 0.358814
vt 0.438471 0.358814
vt 0.061529 0.358814
vt 0.250000 0.467627
vt 0.061529 0.141186
vt 0.061529 0.141186
vt 0.438471 0.141186
vt 0.061529 0.358814
vt 0.250000 0.412153
vt 0.390428 0.331076
vt 0.390428 0.331076
vt 0.061529 0.141186
vt 0.061529 0.358814
vt 0.061529 0.358814
vt 0.250000 0.032373
vt 0.250000 0.032373
vt 0.250000 0.467627
vt 0.438471 0.358814
vt 0.250000 0.467627
vt 0.061529 0.141186
vt 0.390428 0.168924
vt 0.250000 0.087848
vt 0.109572 0.331076
vt 0.109572 0.168924
vt 0.250000 0.412153
vt 0.109572 0.168924
vt 0.390428 0.168924
vt 0.109572 0.331076
vt 0.250000 0.087848
vt 0.061529 0.141186
vt 0.250000 0.467627
vt 0.438471 0.358814
vt 0.438471 0.358814
vt 0.250000 0.032373
vt 0.438471 0.141186
vt 0.250000 0.032373
vt 0.061529 0.141186
vt 0.438471 0.141186
vt 0.438471 0.141186
vt 0.061529 0.358814
vt 0.250000 0.467627
vt 0.061529 0.358814
vt 0.250000 0.032373
vt 0.061529 0.141186
vt 0.061529 0.358814
vt 0.250000 0.467627
vt 0.438471 0.358814
vt 0.109572 0.331076
vt 0.250000 0.412153
vt 0.109572 0.168924
vt 0.390428 0.168924
vt 0.250000 0.087848
vt 0.390428 0.331076
vt 0.061529 0.358814
vt 0.438471 0.141186
vt 0.061529 0.141186
vt 0.250000 0.467627
vt 0.438471 0.358814
vt 0.250000 0.032373
vt -0.000000 1.000000
vn 0.7066 0.3083 0.6369
vn -1.0000 0.0000 0.0000
vn 0.0000 1.0000 0.0000
vn 1.0000 0.0000 0.0000
vn 0.7071 -0.7071 0.0000
vn -0.7071 0.7071 0.0000
vn 0.7071 0.7071 0.0000
vn -0.7071 -0.7071 0.0000
vn 0.0000 -1.0000 0.0000
vn 0.0000 0.0000 -1.0000
vn -0.0000 0.0000 1.0000
vn 0.3083 -0.7066 0.6369
vn 0.7176 -0.2817 0.6369
vn 0.2817 0.7176 0.6369
vn -0.7066 -0.3083 0.6369
vn -0.3083 0.7066 0.6369
vn -0.2817 -0.7176 0.6369
vn -0.7176 0.2817 0.6369
vn 0.7177 -0.2817 0.6369
vn 0.2817 0.7177 0.6369
vn -0.2817 -0.7177 0.6369
vn -0.7177 0.2817 0.6369
vn 0.5000 -0.8660 0.0000
vn 0.5000 0.8660 0.0000
vn -0.5000 0.8660 0.0000
vn 0.4928 0.8535 -0.1692
vn -0.5000 -0.8660 0.0000
vn 0.4928 -0.8535 -0.1692
vn -0.4928 -0.8535 -0.1692
vn -0.4928 0.8535 -0.1692
vn 0.9856 0.0000 -0.1692
vn -0.9856 0.0000 -0.1692
vn 0.3045 -0.5274 -0.7932
vn 0.6090 0.0000 -0.7932
vn 0.3045 0.5274 -0.7932
vn -0.3045 0.5274 -0.7932
vn -0.6090 0.0000 -0.7932
vn -0.3045 -0.5274 -0.7932
vn 0.3105 -0.5379 -0.7837
vn 0.3106 0.5379 0.7837
vn -0.3105 0.5379 -0.7837
vn 0.6211 0.0000 -0.7837
vn -0.3106 -0.5379 0.7837
vn 0.3106 0.5379 -0.7837
vn 0.6211 0.0000 0.7837
vn -0.3106 0.5379 0.7837
vn -0.6211 0.0000 -0.7837
vn 0.3106 -0.5379 0.7837
vn -0.3106 -0.5379 -0.7837
vn -0.6211 0.0000 0.7837
vn 0.9971 0.0000 -0.0761
vn -0.4986 -0.8635 -0.0761
vn -0.4985 0.8635 -0.0761
vn 0.4986 0.8635 -0.0761
vn 0.4985 -0.8635 -0.0761
vn -0.9971 0.0000 -0.0761
vn 0.3106 -0.5379 -0.7837
vn -0.3106 0.5379 -0.7837
vn -0.3105 0.5379 0.7837
vn 0.3105 -0.5379 0.7837
vn -0.4985 -0.8635 -0.0761
vn -0.4986 0.8635 -0.0761
vn 0.4985 0.8635 -0.0761
vn 0.4986 -0.8635 -0.0761
usemtl Dark_gray
s off
f 11/1/1 47/2/1 48/3/1
f 20/4/2 40/5/2 35/6/2
f 22/7/3 36/8/3 37/9/3
f 13/10/2 31/11/2 10/12/2
f 18/13/4 38/14/4 33/15/4
f 33/15/5 17/16/5 18/13/5
f 19/17/6 35/6/6 36/18/6
f 37/9/7 21/19/7 22/7/7
f 39/20/8 23/21/8 24/22/8
f 24/22/9 34/23/9 39/20/9
f 1/24/10 17/25/10 2/26/10
f 13/10/10 19/27/10 14/28/10
f 5/29/10 21/19/10 6/30/10
f 9/31/10 23/32/10 10/12/10
f 2/26/10 24/33/10 9/31/10
f 6/30/10 18/13/10 1/24/10
f 10/12/10 20/34/10 13/10/10
f 14/28/10 22/35/10 5/29/10
f 31/11/10 27/36/10 29/37/10
f 9/31/9 25/38/9 2/26/9
f 6/30/7 30/39/7 5/29/7
f 2/26/5 26/40/5 1/24/5
f 5/29/3 27/36/3 14/28/3
f 1/24/4 29/37/4 6/30/4
f 10/12/8 32/41/8 9/31/8
f 14/28/6 28/42/6 13/10/6
f 7/43/11 4/44/11 33/15/11
f 40/45/11 12/46/11 11/1/11
f 15/47/12 43/48/12 44/49/12
f 16/50/13 48/3/13 43/48/13
f 12/46/14 42/51/14 47/2/14
f 7/43/15 45/52/15 46/53/15
f 3/54/16 41/55/16 42/51/16
f 8/56/17 44/49/17 45/52/17
f 4/44/18 46/53/18 41/55/18
f 11/1/1 12/46/1 47/2/1
f 20/4/2 23/21/2 40/5/2
f 22/7/3 19/57/3 36/8/3
f 13/10/2 28/42/2 31/11/2
f 18/13/4 21/19/4 38/14/4
f 33/15/5 34/23/5 17/16/5
f 19/17/6 20/4/6 35/6/6
f 37/9/7 38/14/7 21/19/7
f 39/20/8 40/5/8 23/21/8
f 24/22/9 17/16/9 34/23/9
f 1/24/10 18/13/10 17/25/10
f 13/10/10 20/34/10 19/27/10
f 5/29/10 22/35/10 21/19/10
f 9/31/10 24/33/10 23/32/10
f 2/26/10 17/25/10 24/33/10
f 6/30/10 21/19/10 18/13/10
f 10/12/10 23/32/10 20/34/10
f 14/28/10 19/27/10 22/35/10
f 29/37/10 26/40/10 25/38/10
f 25/38/10 32/41/10 31/11/10
f 31/11/10 28/42/10 27/36/10
f 27/36/10 30/39/10 29/37/10
f 29/37/10 25/38/10 31/11/10
f 9/31/9 32/41/9 25/38/9
f 6/30/7 29/37/7 30/39/7
f 2/26/5 25/38/5 26/40/5
f 5/29/3 30/39/3 27/36/3
f 1/24/4 26/40/4 29/37/4
f 10/12/8 31/11/8 32/41/8
f 14/28/6 27/36/6 28/42/6
f 3/54/11 12/46/11 39/58/11
f 39/58/11 34/59/11 3/54/11
f 34/59/11 33/15/11 4/44/11
f 3/54/11 34/59/11 4/44/11
f 33/15/11 38/14/11 7/43/11
f 38/14/11 37/60/11 8/56/11
f 7/43/11 38/14/11 8/56/11
f 37/60/11 36/61/11 15/47/11
f 37/60/11 15/47/11 8/56/11
f 16/50/11 15/47/11 36/61/11
f 36/61/11 35/62/11 16/50/11
f 35/62/11 40/45/11 11/1/11
f 40/45/11 39/58/11 12/46/11
f 11/1/11 16/50/11 35/62/11
f 15/47/12 16/50/12 43/48/12
f 16/50/19 11/1/19 48/3/19
f 12/46/20 3/54/20 42/51/20
f 7/43/15 8/56/15 45/52/15
f 3/54/16 4/44/16 41/55/16
f 8/56/21 15/47/21 44/49/21
f 4/44/22 7/43/22 46/53/22
usemtl Black.004
f 44/49/11 43/48/11 41/55/11
f 125/63/10 124/64/10 123/65/10
f 43/48/11 48/3/11 47/2/11
f 47/2/11 42/51/11 43/48/11
f 42/51/11 41/55/11 43/48/11
f 41/55/11 46/53/11 45/52/11
f 45/52/11 44/49/11 41/55/11
f 123/65/10 121/66/10 125/63/10
f 121/66/10 122/67/10 125/63/10
f 122/67/10 126/68/10 125/63/10
usemtl Orange
f 62/69/23 51/70/23 49/71/23
f 61/72/4 53/73/4 51/70/4
f 63/74/24 55/75/24 53/73/24
f 64/76/25 57/77/25 55/75/25
f 129/78/26 69/79/26 70/80/26
f 65/81/2 59/82/2 57/77/2
f 66/83/27 49/84/27 59/82/27
f 50/85/10 61/86/10 62/87/10
f 54/88/10 61/86/10 52/89/10
f 56/90/10 63/91/10 54/88/10
f 56/90/10 65/92/10 64/93/10
f 60/94/10 65/92/10 58/95/10
f 50/85/10 66/96/10 60/94/10
f 92/97/4 81/98/4 93/99/4
f 132/100/28 67/101/28 133/102/28
f 132/100/29 72/103/29 68/104/29
f 129/78/30 71/105/30 137/106/30
f 133/102/31 69/79/31 128/107/31
f 137/106/32 72/103/32 136/108/32
f 74/109/23 85/110/23 73/111/23
f 96/112/2 84/113/2 97/114/2
f 93/99/24 82/115/24 99/116/24
f 102/117/23 79/118/23 92/97/23
f 97/114/27 80/119/27 102/117/27
f 99/116/25 83/120/25 96/112/25
f 74/109/33 79/118/33 80/119/33
f 75/121/34 79/118/34 73/111/34
f 76/122/35 81/98/35 75/121/35
f 76/122/36 83/120/36 82/115/36
f 78/123/37 83/120/37 77/124/37
f 74/109/38 84/113/38 78/123/38
f 78/123/27 86/125/27 74/109/27
f 76/122/25 89/126/25 77/124/25
f 73/111/4 87/127/4 75/121/4
f 77/124/2 90/128/2 78/123/2
f 75/121/24 88/129/24 76/122/24
f 70/80/25 95/130/25 71/105/25
f 101/131/39 103/132/39 91/133/39
f 72/103/27 101/131/27 68/104/27
f 93/99/40 111/134/40 105/135/40
f 68/104/23 91/133/23 67/101/23
f 100/136/41 107/137/41 95/130/41
f 69/79/24 100/136/24 70/80/24
f 91/133/42 106/138/42 94/139/42
f 71/105/2 98/140/2 72/103/2
f 97/114/43 114/141/43 109/142/43
f 67/101/4 94/139/4 69/79/4
f 94/139/44 112/143/44 100/136/44
f 112/143/25 108/144/25 107/137/25
f 110/145/27 114/141/27 113/146/27
f 113/146/23 104/147/23 103/132/23
f 106/138/24 111/134/24 112/143/24
f 107/137/2 109/142/2 110/145/2
f 103/132/4 105/135/4 106/138/4
f 93/99/45 104/147/45 92/97/45
f 99/116/46 108/144/46 111/134/46
f 95/130/47 110/145/47 98/140/47
f 102/117/48 104/147/48 114/141/48
f 98/140/49 113/146/49 101/131/49
f 97/114/50 108/144/50 96/112/50
f 86/125/10 120/148/10 116/149/10
f 88/129/10 119/150/10 89/126/10
f 85/110/10 117/151/10 87/127/10
f 89/126/10 120/148/10 90/128/10
f 88/129/10 117/151/10 118/152/10
f 86/125/10 115/153/10 85/110/10
f 119/150/51 126/68/51 120/148/51
f 118/152/52 123/65/52 124/64/52
f 116/149/53 121/66/53 115/153/53
f 116/149/54 126/68/54 122/67/54
f 118/152/55 125/63/55 119/150/55
f 115/153/56 123/65/56 117/151/56
f 58/95/32 135/154/32 60/94/32
f 52/89/31 127/155/31 54/88/31
f 56/90/30 138/156/30 58/95/30
f 50/85/29 135/154/29 131/157/29
f 50/85/28 134/158/28 52/89/28
f 56/90/26 127/155/26 130/159/26
f 62/69/23 61/72/23 51/70/23
f 61/72/4 63/74/4 53/73/4
f 63/74/24 64/76/24 55/75/24
f 64/76/25 65/81/25 57/77/25
f 129/78/26 128/107/26 69/79/26
f 65/81/2 66/83/2 59/82/2
f 66/83/27 62/160/27 49/84/27
f 50/85/10 52/89/10 61/86/10
f 54/88/10 63/91/10 61/86/10
f 56/90/10 64/93/10 63/91/10
f 56/90/10 58/95/10 65/92/10
f 60/94/10 66/96/10 65/92/10
f 50/85/10 62/87/10 66/96/10
f 92/97/4 79/118/4 81/98/4
f 132/100/28 68/104/28 67/101/28
f 132/100/29 136/108/29 72/103/29
f 129/78/30 70/80/30 71/105/30
f 133/102/31 67/101/31 69/79/31
f 137/106/32 71/105/32 72/103/32
f 74/109/23 86/125/23 85/110/23
f 96/112/2 83/120/2 84/113/2
f 93/99/24 81/98/24 82/115/24
f 102/117/23 80/119/23 79/118/23
f 97/114/27 84/113/27 80/119/27
f 99/116/25 82/115/25 83/120/25
f 74/109/33 73/111/33 79/118/33
f 75/121/34 81/98/34 79/118/34
f 76/122/35 82/115/35 81/98/35
f 76/122/36 77/124/36 83/120/36
f 78/123/37 84/113/37 83/120/37
f 74/109/38 80/119/38 84/113/38
f 78/123/27 90/128/27 86/125/27
f 76/122/25 88/129/25 89/126/25
f 73/111/4 85/110/4 87/127/4
f 77/124/2 89/126/2 90/128/2
f 75/121/24 87/127/24 88/129/24
f 70/80/25 100/136/25 95/130/25
f 101/131/57 113/146/57 103/132/57
f 72/103/27 98/140/27 101/131/27
f 93/99/40 99/116/40 111/134/40
f 68/104/23 101/131/23 91/133/23
f 100/136/58 112/143/58 107/137/58
f 69/79/24 94/139/24 100/136/24
f 91/133/42 103/132/42 106/138/42
f 71/105/2 95/130/2 98/140/2
f 97/114/43 102/117/43 114/141/43
f 67/101/4 91/133/4 94/139/4
f 94/139/44 106/138/44 112/143/44
f 112/143/25 111/134/25 108/144/25
f 110/145/27 109/142/27 114/141/27
f 113/146/23 114/141/23 104/147/23
f 106/138/24 105/135/24 111/134/24
f 107/137/2 108/144/2 109/142/2
f 103/132/4 104/147/4 105/135/4
f 93/99/45 105/135/45 104/147/45
f 99/116/59 96/112/59 108/144/59
f 95/130/47 107/137/47 110/145/47
f 102/117/60 92/97/60 104/147/60
f 98/140/49 110/145/49 113/146/49
f 97/114/50 109/142/50 108/144/50
f 86/125/10 90/128/10 120/148/10
f 88/129/10 118/152/10 119/150/10
f 85/110/10 115/153/10 117/151/10
f 89/126/10 119/150/10 120/148/10
f 88/129/10 87/127/10 117/151/10
f 86/125/10 116/149/10 115/153/10
f 119/150/51 125/63/51 126/68/51
f 118/152/61 117/151/61 123/65/61
f 116/149/62 122/67/62 121/66/62
f 116/149/63 120/148/63 126/68/63
f 118/152/64 124/64/64 125/63/64
f 115/153/56 121/66/56 123/65/56
f 58/95/32 138/156/32 135/154/32
f 52/89/31 134/158/31 127/155/31
f 56/90/30 130/159/30 138/156/30
f 50/85/29 60/94/29 135/154/29
f 50/85/28 131/157/28 134/158/28
f 56/90/26 54/88/26 127/155/26
usemtl White.003
f 138/156/32 136/108/32 135/154/32
f 134/158/31 128/107/31 127/155/31
f 138/156/30 129/78/30 137/106/30
f 135/154/29 132/100/29 131/157/29
f 134/158/28 132/100/28 133/102/28
f 127/155/26 129/78/26 130/159/26
f 138/156/32 137/106/32 136/108/32
f 134/158/31 133/102/31 128/107/31
f 138/156/30 130/159/30 129/78/30
f 135/154/29 136/108/29 132/100/29
f 134/158/28 131/157/28 132/100/28
f 127/155/26 128/107/26 129/78/26
