# Blender v3.5.0 OBJ File: 'dayScene.blend'
# www.blender.org
mtllib Cube.014.mtl
o CardboardBoxes_2.003_Cube.014
v -32.224930 0.000000 24.000000
v -32.224930 62.586094 24.000000
v 32.224930 0.000000 24.000000
v 32.224930 62.586094 24.000000
v -32.224930 62.586094 4.108702
v -32.224930 0.000000 4.108702
v 32.224930 62.586094 4.108702
v 32.224930 0.000000 4.108702
v -32.224930 51.778503 24.000000
v 32.224930 51.778503 24.000000
v 32.224930 51.778503 4.108702
v -32.224930 51.778503 4.108702
v 26.214899 13.584377 24.000000
v 26.214899 5.054381 24.000000
v 9.580993 51.778503 24.000000
v 9.580993 0.000000 4.108702
v 9.580993 62.586094 24.000000
v 9.580993 0.000000 24.000000
v 9.580993 5.054381 24.000000
v 9.580993 13.584377 24.000000
v 9.580993 62.586094 4.108702
v -32.224930 0.000000 -23.487553
v -32.224930 62.586094 -23.487555
v 32.224930 0.000000 -23.487553
v 32.224930 62.586094 -23.487555
v -32.224930 62.586094 -4.108702
v -32.224930 0.000000 -4.108702
v 32.224930 62.586094 -4.108702
v 32.224930 0.000000 -4.108702
v -32.224930 51.778503 -23.487553
v 32.224930 51.778503 -23.487553
v 32.224930 51.778503 -4.108702
v -32.224930 51.778503 -4.108702
v 26.214899 13.584377 -23.487553
v 26.214899 5.054380 -23.487553
v 9.580993 51.778503 -23.487553
v 9.580993 0.000000 -4.108702
v 9.580993 62.586094 -23.487555
v 9.580993 0.000000 -23.487553
v 9.580993 5.054380 -23.487553
v 9.580993 13.584377 -23.487553
v 9.580993 62.586094 -4.108702
v 18.316320 0.000000 22.291842
v 18.316320 0.000000 3.816272
v 18.316320 51.778503 22.291842
v 18.316320 5.054381 22.291842
v 18.316320 13.584377 22.291842
v 18.316320 62.586094 22.291842
v 18.316320 62.586094 3.816272
v 18.316320 0.000000 -23.487553
v 18.316320 0.000000 -3.816272
v 18.316320 51.778503 -23.487553
v 18.316320 5.054380 -23.487553
v 18.316320 13.584377 -23.487553
v 18.316320 62.586094 -23.487555
v 18.316320 62.586094 -3.816272
vn 1.0000 0.0000 0.0000
vn -1.0000 0.0000 0.0000
vn 0.0000 1.0000 0.0000
vn 0.0000 -1.0000 0.0000
vn 0.0000 0.0000 1.0000
vn -0.1794 -0.0516 0.9824
vn -0.1419 -0.1107 0.9837
vn -0.2114 0.0000 0.9774
vn 0.1919 0.0000 0.9814
vn 0.0000 -0.0000 -1.0000
vn -0.1219 0.0000 0.9925
vn -0.1338 0.0166 0.9909
vn -0.1927 0.0040 0.9812
vn -0.1219 0.0192 0.9924
vn -0.1206 -0.1434 0.9823
usemtl Cardboard
s 1
f 10//1 8//1 11//1
f 27//2 12//2 33//2
f 21//3 2//3 17//3
f 43//4 8//4 3//4
f 29//4 44//4 51//4
f 12//2 1//2 9//2
f 5//2 9//2 2//2
f 2//5 15//5 17//5
f 4//1 11//1 7//1
f 20//5 1//5 19//5
f 1//5 18//5 19//5
f 3//5 13//5 14//5
f 43//6 14//7 46//8
f 15//9 47//9 45//9
f 48//3 21//3 17//3
f 6//4 18//4 1//4
f 17//9 45//9 48//9
f 15//5 9//5 20//5
f 29//1 11//1 8//1
f 29//1 31//1 32//1
f 23//3 42//3 38//3
f 50//4 29//4 51//4
f 22//2 33//2 30//2
f 30//2 26//2 23//2
f 36//10 23//10 38//10
f 32//1 25//1 28//1
f 41//10 22//10 30//10
f 22//10 40//10 39//10
f 24//10 34//10 31//10
f 50//10 35//10 24//10
f 54//10 36//10 52//10
f 55//3 42//3 56//3
f 39//4 27//4 22//4
f 52//10 38//10 55//10
f 36//10 41//10 30//10
f 37//4 44//4 16//4
f 31//10 55//10 25//10
f 55//3 28//3 25//3
f 34//10 52//10 31//10
f 40//10 50//10 39//10
f 50//4 37//4 39//4
f 48//11 10//11 4//11
f 7//3 48//3 4//3
f 45//12 13//13 10//14
f 43//9 19//9 18//9
f 16//4 43//4 18//4
f 37//4 6//4 27//4
f 10//1 3//1 8//1
f 27//2 6//2 12//2
f 21//3 5//3 2//3
f 43//4 44//4 8//4
f 29//4 8//4 44//4
f 12//2 6//2 1//2
f 5//2 12//2 9//2
f 2//5 9//5 15//5
f 4//1 10//1 11//1
f 20//5 9//5 1//5
f 3//5 10//5 13//5
f 43//6 3//15 14//7
f 15//9 20//9 47//9
f 48//3 49//3 21//3
f 6//4 16//4 18//4
f 17//9 15//9 45//9
f 29//1 32//1 11//1
f 29//1 24//1 31//1
f 23//3 26//3 42//3
f 50//4 24//4 29//4
f 22//2 27//2 33//2
f 30//2 33//2 26//2
f 36//10 30//10 23//10
f 32//1 31//1 25//1
f 41//10 40//10 22//10
f 24//10 35//10 34//10
f 50//10 53//10 35//10
f 54//10 41//10 36//10
f 55//3 38//3 42//3
f 39//4 37//4 27//4
f 52//10 36//10 38//10
f 37//4 51//4 44//4
f 31//10 52//10 55//10
f 55//3 56//3 28//3
f 34//10 54//10 52//10
f 40//10 53//10 50//10
f 50//4 51//4 37//4
f 48//11 45//11 10//11
f 7//3 49//3 48//3
f 45//12 47//8 13//13
f 43//9 46//9 19//9
f 16//4 44//4 43//4
f 37//4 16//4 6//4
usemtl Tape
f 33//2 5//2 26//2
f 20//9 46//9 47//9
f 32//1 7//1 11//1
f 56//3 21//3 49//3
f 26//3 21//3 42//3
f 28//3 49//3 7//3
f 53//10 41//10 54//10
f 35//10 54//10 34//10
f 47//8 14//8 13//8
f 33//2 12//2 5//2
f 20//9 19//9 46//9
f 32//1 28//1 7//1
f 56//3 42//3 21//3
f 26//3 5//3 21//3
f 28//3 56//3 49//3
f 53//10 40//10 41//10
f 35//10 53//10 54//10
f 47//8 46//8 14//8
