# Blender v3.5.0 OBJ File: 'dayScene.blend'
# www.blender.org
mtllib Cube.127.mtl
o TrashContainer.009_Cube.127
v -89.157936 105.683708 48.388306
v -89.157936 152.236649 -43.055103
v -1.286085 105.683708 48.388306
v -1.286080 152.236649 -43.055103
v -87.264854 114.566078 46.317635
v -87.264854 159.043793 -40.984432
v -3.179166 114.566078 46.317635
v -3.179162 159.043793 -40.984436
v -87.264854 120.585281 33.215557
v -3.179162 120.585281 33.215553
v -87.264854 118.008858 38.467510
v -3.179162 118.008858 38.467510
v -3.179162 123.843452 34.813900
v -87.264854 123.843452 34.813904
v -3.179162 121.267021 40.065853
v -87.264854 121.267021 40.065849
v -60.362785 162.999969 -37.203133
v -30.081236 162.999969 -37.203129
v -60.362785 149.849472 -37.203133
v -30.081236 149.849472 -37.203129
v -30.081236 162.999969 -50.051392
v -60.362785 162.999969 -50.051403
v -30.081236 149.849472 -50.051392
v -60.362785 149.849472 -50.051403
v -87.264854 151.427765 -26.490955
v -3.179162 151.427765 -26.490955
v -87.264854 148.851349 -21.239002
v -3.179162 148.851349 -21.239002
v -3.179162 154.685944 -24.892607
v -87.264854 154.685944 -24.892607
v -3.179162 152.109528 -19.640656
v -87.264854 152.109528 -19.640656
v -87.264854 136.157135 3.414261
v -3.179162 136.157135 3.414258
v -87.264854 133.580704 8.666212
v -3.179162 133.580704 8.666212
v -3.179162 139.415283 5.012605
v -87.264854 139.415283 5.012609
v -3.179162 136.838882 10.264561
v -87.264854 136.838882 10.264556
v 89.157936 105.683708 48.388306
v 89.157936 152.236649 -43.055103
v 1.286085 105.683708 48.388306
v 1.286080 152.236649 -43.055103
v 87.264854 114.566078 46.317635
v 87.264854 159.043793 -40.984432
v 3.179166 114.566078 46.317635
v 3.179162 159.043793 -40.984436
v 87.264854 120.585281 33.215557
v 3.179162 120.585281 33.215553
v 87.264854 118.008858 38.467510
v 3.179162 118.008858 38.467510
v 3.179162 123.843452 34.813900
v 87.264854 123.843452 34.813904
v 3.179162 121.267021 40.065853
v 87.264854 121.267021 40.065849
v 60.362785 162.999969 -37.203133
v 30.081236 162.999969 -37.203129
v 60.362785 149.849472 -37.203133
v 30.081236 149.849472 -37.203129
v 30.081236 162.999969 -50.051392
v 60.362785 162.999969 -50.051403
v 30.081236 149.849472 -50.051392
v 60.362785 149.849472 -50.051403
v 87.264854 151.427765 -26.490955
v 3.179162 151.427765 -26.490955
v 87.264854 148.851349 -21.239002
v 3.179162 148.851349 -21.239002
v 3.179162 154.685944 -24.892607
v 87.264854 154.685944 -24.892607
v 3.179162 152.109528 -19.640656
v 87.264854 152.109528 -19.640656
v 87.264854 136.157135 3.414261
v 3.179162 136.157135 3.414258
v 87.264854 133.580704 8.666212
v 3.179162 133.580704 8.666212
v 3.179162 139.415283 5.012605
v 87.264854 139.415283 5.012609
v 3.179162 136.838882 10.264561
v 87.264854 136.838882 10.264556
v -90.169250 41.883236 31.432751
v -90.169258 41.883236 -43.665207
v -90.169250 62.489059 31.432751
v -90.169258 62.489059 -43.665207
v -99.997383 41.883236 -43.665211
v -99.997353 41.883236 31.432747
v -99.997383 62.489059 -43.665211
v -99.997353 62.489059 31.432747
v 90.169258 41.883236 31.432751
v 90.169250 41.883236 -43.665207
v 90.169258 62.489059 31.432751
v 90.169250 62.489059 -43.665207
v 99.997353 41.883236 -43.665211
v 99.997383 41.883236 31.432747
v 99.997353 62.489059 -43.665211
v 99.997383 62.489059 31.432747
v -96.539322 150.140610 -53.059883
v 96.539322 150.140610 -53.059875
v 96.539322 151.650848 -43.055111
v -96.539322 151.650848 -43.055115
v -87.548569 151.650848 -43.055115
v 87.548569 151.650848 -43.055111
v -87.548569 68.838264 -43.055115
v 87.548569 68.838264 -43.055107
v -96.539322 126.447098 -53.059883
v 96.539322 126.447098 -53.059875
v -96.539322 127.884018 -43.055115
v 96.539322 127.884018 -43.055111
v 93.144188 -3.295810 -51.698566
v -93.144188 -3.295810 -51.698578
v 93.144188 -3.295810 -42.045662
v -93.144188 -3.295810 -42.045666
v 93.144188 120.843719 -51.698566
v -93.144188 122.230110 -42.045666
v 93.144188 122.230110 -42.045662
v -93.144188 120.843719 -51.698578
v -93.144188 73.154594 -51.698570
v -93.144188 6.267342 -51.698578
v -93.144180 65.034332 -51.698570
v -93.144180 14.387581 -51.698570
v 93.144188 6.267342 -42.045662
v 93.144188 73.154602 -42.045662
v 93.144180 14.387581 -42.045658
v 93.144180 65.034355 -42.045658
v -93.144188 73.154602 -42.045666
v -93.144188 6.267342 -42.045666
v -93.144180 65.034355 -42.045662
v -93.144180 14.387581 -42.045662
v 93.144188 73.154594 -51.698559
v 93.144188 6.267342 -51.698566
v 93.144180 65.034332 -51.698559
v 93.144180 14.387581 -51.698559
v -82.349113 24.100368 49.651363
v -82.349113 57.763908 49.651363
v 82.349113 24.100368 49.651367
v 82.349113 57.763908 49.651367
v -82.349113 24.100368 46.677677
v -82.349113 57.763908 46.677677
v 82.349113 57.763908 46.677685
v 82.349113 24.100368 46.677685
v -96.539322 110.258347 39.547127
v -87.594551 103.487030 53.059822
v 87.594551 103.487030 53.059834
v 96.539322 110.258347 39.547131
v 87.548576 113.631416 32.815899
v 80.043457 106.351387 46.328609
v -80.043457 106.470245 47.106598
v -87.548576 113.631416 32.815891
v 80.043457 68.838264 46.328609
v 87.548576 68.838264 32.815899
v -87.548576 68.838264 32.815891
v -80.034569 68.838264 46.328602
v 96.539322 88.500854 39.547131
v 87.594551 82.058250 53.059834
v -87.594551 82.058250 53.059822
v -96.539322 88.500854 39.547127
v 93.144188 -3.295810 37.176376
v 84.199409 -3.295810 50.689083
v -84.199409 -3.295810 50.689068
v -93.144188 -3.295810 37.176373
v 84.199409 78.015968 50.689083
v 93.144188 84.458565 37.176376
v -93.144188 84.458565 37.176373
v -84.199409 78.015968 50.689068
v -93.144188 6.267342 37.176373
v -84.199409 6.267342 50.689068
v -84.199409 73.154602 50.689068
v -93.144188 73.154602 37.176373
v -93.144180 14.387581 35.279572
v -84.199409 14.387581 48.792267
v -93.144180 65.034355 35.279572
v -84.199409 65.034355 48.792267
v 84.199409 6.267342 50.689083
v 93.144188 6.267342 37.176376
v 93.144188 73.154602 37.176376
v 84.199409 73.154602 50.689083
v 84.199409 14.387581 48.792274
v 93.144180 14.387581 35.279579
v 84.199409 65.034355 48.792274
v 93.144180 65.034355 35.279579
vn 1.0000 0.0000 -0.0000
vn -1.0000 0.0000 0.0000
vn 0.0000 0.0000 -1.0000
vn 0.0000 1.0000 -0.0000
vn -0.0000 0.0000 1.0000
vn 0.0000 -1.0000 0.0000
vn -0.0007 0.0030 -1.0000
vn -0.0041 0.0176 -0.9998
vn -0.0048 0.0207 -0.9998
vn 0.0000 0.8940 0.4480
vn 0.0000 0.9888 -0.1493
vn 0.8088 -0.5309 -0.2531
vn -0.8088 -0.5309 -0.2531
vn 0.0000 -0.2361 -0.9717
vn 0.8607 -0.5039 0.0724
vn -0.8607 -0.5039 0.0724
vn -0.0000 -0.5059 0.8626
vn -0.0000 0.2275 0.9738
vn -0.0000 -0.2275 0.9738
vn -0.0309 0.8967 0.4415
vn -0.0247 0.8910 0.4533
vn -0.0176 0.8843 0.4666
vn -0.8742 0.0000 -0.4855
vn 0.8769 0.0076 -0.4806
vn 0.8831 0.0020 -0.4691
vn 0.8739 0.0103 -0.4860
vn -0.7138 -0.6850 0.1459
vn 0.7138 -0.6850 0.1459
vn 0.8339 0.0000 0.5520
vn -0.8339 0.0000 0.5520
vn -0.8270 -0.1279 0.5474
vn -0.8270 0.1279 0.5474
vn 0.8270 -0.1279 0.5474
vn 0.8270 0.1279 0.5474
vn 0.0024 0.9199 0.3922
vn 0.0000 0.8946 0.4470
vn -0.0383 0.9033 0.4273
vn 0.8853 0.0000 -0.4650
vn 0.0026 0.9212 0.3891
vn 0.0000 -0.8912 -0.4537
vn 0.0000 0.8910 0.4540
vn 0.0000 0.2270 0.9739
vn 0.9654 0.2325 0.1184
vn 0.9651 0.2334 0.1188
vn 0.0000 0.2910 -0.9567
vn -0.9654 0.2325 0.1184
vn -0.9651 0.2334 0.1188
vn -0.0000 -0.8978 -0.4404
vn 0.0000 0.8978 0.4404
vn -0.0000 0.4404 -0.8978
vn -0.0000 -0.4404 0.8978
vn 0.9654 0.2324 0.1184
vn -0.9654 0.2324 0.1184
usemtl Green.004
s 1
f 82//1 83//1 81//1
f 88//2 85//2 86//2
f 85//3 84//3 82//3
f 84//4 88//4 83//4
f 88//5 81//5 83//5
f 86//6 82//6 81//6
f 91//2 90//2 89//2
f 93//1 96//1 94//1
f 92//3 93//3 90//3
f 91//4 95//4 92//4
f 89//5 96//5 91//5
f 90//6 94//6 89//6
f 97//3 106//3 105//3
f 146//7 152//8 147//9
f 99//10 145//10 144//10
f 141//2 107//2 156//2
f 108//1 144//1 153//1
f 107//2 97//2 105//2
f 100//10 148//10 101//10
f 145//2 104//2 150//2
f 143//5 155//5 154//5
f 99//11 98//11 102//11
f 97//11 102//11 98//11
f 97//11 100//11 101//11
f 153//12 115//12 108//12
f 103//4 151//4 152//4
f 148//1 103//1 101//1
f 101//5 104//5 102//5
f 98//1 108//1 106//1
f 173//5 159//5 158//5
f 156//13 114//13 163//13
f 106//14 116//14 105//14
f 108//15 113//15 106//15
f 107//16 116//16 114//16
f 155//17 161//17 154//17
f 121//1 157//1 111//1
f 111//6 110//6 109//6
f 161//5 167//5 176//5
f 113//1 122//1 129//1
f 159//6 160//6 112//6
f 130//1 111//1 109//1
f 126//2 110//2 112//2
f 165//2 112//2 160//2
f 122//1 162//1 175//1
f 125//2 116//2 117//2
f 170//18 173//18 177//18
f 116//3 129//3 117//3
f 163//2 125//2 168//2
f 172//5 177//5 179//5
f 178//1 121//1 123//1
f 167//19 179//19 176//19
f 117//2 127//2 125//2
f 119//2 128//2 127//2
f 120//2 126//2 128//2
f 125//2 171//2 168//2
f 127//2 169//2 171//2
f 169//2 126//2 165//2
f 180//1 123//1 124//1
f 122//1 180//1 124//1
f 129//3 119//3 117//3
f 131//3 120//3 119//3
f 132//3 118//3 120//3
f 129//1 124//1 131//1
f 131//1 123//1 132//1
f 132//1 121//1 130//1
f 118//3 109//3 110//3
f 146//20 144//21 145//22
f 141//10 147//10 148//10
f 150//23 146//23 145//23
f 151//24 147//25 152//26
f 163//27 155//27 156//27
f 154//28 162//28 153//28
f 143//29 153//29 144//29
f 156//30 142//30 141//30
f 172//31 168//31 171//31
f 172//30 169//30 170//30
f 170//32 165//32 166//32
f 175//33 179//33 180//33
f 180//29 177//29 178//29
f 174//34 177//34 173//34
f 161//29 175//29 162//29
f 158//29 174//29 173//29
f 164//30 168//30 167//30
f 166//30 160//30 159//30
f 143//35 147//36 142//10
f 82//1 84//1 83//1
f 88//2 87//2 85//2
f 85//3 87//3 84//3
f 84//4 87//4 88//4
f 88//5 86//5 81//5
f 86//6 85//6 82//6
f 91//2 92//2 90//2
f 93//1 95//1 96//1
f 92//3 95//3 93//3
f 91//4 96//4 95//4
f 89//5 94//5 96//5
f 90//6 93//6 94//6
f 97//3 98//3 106//3
f 146//7 149//3 152//8
f 99//10 102//10 145//10
f 141//2 100//2 107//2
f 108//1 99//1 144//1
f 107//2 100//2 97//2
f 100//10 141//10 148//10
f 145//2 102//2 104//2
f 143//5 142//5 155//5
f 97//11 101//11 102//11
f 153//12 162//12 115//12
f 152//4 149//4 104//4
f 149//4 150//4 104//4
f 152//4 104//4 103//4
f 148//1 151//1 103//1
f 101//5 103//5 104//5
f 98//1 99//1 108//1
f 173//5 166//5 159//5
f 156//13 107//13 114//13
f 106//14 113//14 116//14
f 108//15 115//15 113//15
f 107//16 105//16 116//16
f 155//17 164//17 161//17
f 121//1 174//1 157//1
f 111//6 112//6 110//6
f 161//5 164//5 167//5
f 113//1 115//1 122//1
f 112//6 111//6 158//6
f 111//6 157//6 158//6
f 158//6 159//6 112//6
f 130//1 121//1 111//1
f 126//2 118//2 110//2
f 165//2 126//2 112//2
f 122//1 115//1 162//1
f 125//2 114//2 116//2
f 170//18 166//18 173//18
f 116//3 113//3 129//3
f 163//2 114//2 125//2
f 172//5 170//5 177//5
f 178//1 174//1 121//1
f 167//19 172//19 179//19
f 117//2 119//2 127//2
f 119//2 120//2 128//2
f 120//2 118//2 126//2
f 125//2 127//2 171//2
f 127//2 128//2 169//2
f 169//2 128//2 126//2
f 180//1 178//1 123//1
f 122//1 175//1 180//1
f 129//3 131//3 119//3
f 131//3 132//3 120//3
f 132//3 130//3 118//3
f 129//1 122//1 124//1
f 131//1 124//1 123//1
f 132//1 123//1 121//1
f 118//3 130//3 109//3
f 146//20 143//37 144//21
f 141//10 142//10 147//10
f 150//23 149//23 146//23
f 151//24 148//38 147//25
f 163//27 164//27 155//27
f 154//28 161//28 162//28
f 143//29 154//29 153//29
f 156//30 155//30 142//30
f 172//31 167//31 168//31
f 172//30 171//30 169//30
f 170//32 169//32 165//32
f 175//33 176//33 179//33
f 180//29 179//29 177//29
f 174//34 178//34 177//34
f 161//29 176//29 175//29
f 158//29 157//29 174//29
f 164//30 163//30 168//30
f 166//30 165//30 160//30
f 143//35 146//39 147//36
usemtl DarkGrey.002
f 4//40 1//40 2//40
f 6//41 7//41 8//41
f 3//42 5//42 1//42
f 4//43 7//44 3//44
f 2//45 8//45 4//45
f 2//46 5//47 6//46
f 10//48 11//48 9//48
f 16//49 13//49 14//49
f 16//2 9//2 11//2
f 14//50 10//50 9//50
f 10//1 15//1 12//1
f 15//51 11//51 12//51
f 19//5 18//5 17//5
f 21//3 24//3 22//3
f 17//2 24//2 19//2
f 17//4 21//4 22//4
f 20//1 21//1 18//1
f 19//6 23//6 20//6
f 26//48 27//48 25//48
f 32//49 29//49 30//49
f 27//2 30//2 25//2
f 30//50 26//50 25//50
f 29//1 28//1 26//1
f 31//51 27//51 28//51
f 34//48 35//48 33//48
f 38//49 39//49 37//49
f 35//2 38//2 33//2
f 38//50 34//50 33//50
f 37//1 36//1 34//1
f 39//51 35//51 36//51
f 41//40 44//40 42//40
f 46//41 47//41 45//41
f 45//42 43//42 41//42
f 47//47 44//46 43//47
f 48//45 42//45 44//45
f 42//43 45//44 41//44
f 51//48 50//48 49//48
f 54//49 55//49 56//49
f 49//1 56//1 51//1
f 50//50 54//50 49//50
f 50//2 55//2 53//2
f 51//51 55//51 52//51
f 58//5 59//5 57//5
f 64//3 61//3 62//3
f 64//1 57//1 59//1
f 57//4 61//4 58//4
f 61//2 60//2 58//2
f 63//6 59//6 60//6
f 67//48 66//48 65//48
f 69//49 72//49 70//49
f 65//1 72//1 67//1
f 66//50 70//50 65//50
f 68//2 69//2 66//2
f 67//51 71//51 68//51
f 75//48 74//48 73//48
f 77//49 80//49 78//49
f 75//1 78//1 80//1
f 74//50 78//50 73//50
f 76//2 77//2 74//2
f 75//51 79//51 76//51
f 4//40 3//40 1//40
f 6//41 5//41 7//41
f 3//42 7//42 5//42
f 4//43 8//52 7//44
f 2//45 6//45 8//45
f 2//46 1//47 5//47
f 10//48 12//48 11//48
f 16//49 15//49 13//49
f 16//2 14//2 9//2
f 14//50 13//50 10//50
f 10//1 13//1 15//1
f 15//51 16//51 11//51
f 19//5 20//5 18//5
f 21//3 23//3 24//3
f 17//2 22//2 24//2
f 17//4 18//4 21//4
f 20//1 23//1 21//1
f 19//6 24//6 23//6
f 26//48 28//48 27//48
f 32//49 31//49 29//49
f 27//2 32//2 30//2
f 30//50 29//50 26//50
f 29//1 31//1 28//1
f 31//51 32//51 27//51
f 34//48 36//48 35//48
f 38//49 40//49 39//49
f 35//2 40//2 38//2
f 38//50 37//50 34//50
f 37//1 39//1 36//1
f 39//51 40//51 35//51
f 41//40 43//40 44//40
f 46//41 48//41 47//41
f 45//42 47//42 43//42
f 47//47 48//53 44//46
f 48//45 46//45 42//45
f 42//43 46//43 45//44
f 51//48 52//48 50//48
f 54//49 53//49 55//49
f 49//1 54//1 56//1
f 50//50 53//50 54//50
f 50//2 52//2 55//2
f 51//51 56//51 55//51
f 58//5 60//5 59//5
f 64//3 63//3 61//3
f 64//1 62//1 57//1
f 57//4 62//4 61//4
f 61//2 63//2 60//2
f 63//6 64//6 59//6
f 67//48 68//48 66//48
f 69//49 71//49 72//49
f 65//1 70//1 72//1
f 66//50 69//50 70//50
f 68//2 71//2 69//2
f 67//51 72//51 71//51
f 75//48 76//48 74//48
f 77//49 79//49 80//49
f 75//1 73//1 78//1
f 74//50 77//50 78//50
f 76//2 79//2 77//2
f 75//51 80//51 79//51
usemtl Grey.005
f 134//5 135//5 136//5
f 139//4 134//4 136//4
f 140//1 136//1 135//1
f 138//2 133//2 134//2
f 137//6 135//6 133//6
f 134//5 133//5 135//5
f 139//4 138//4 134//4
f 140//1 139//1 136//1
f 138//2 137//2 133//2
f 137//6 140//6 135//6
