# Blender v3.5.0 OBJ File: 'dayScene.blend'
# www.blender.org
mtllib Cylinder.061.mtl
o StreetLight.047_Cylinder.061
v -6.673819 -0.263649 0.000000
v -5.779697 -0.263649 -3.336909
v -3.336910 -0.263649 -5.779697
v 0.000000 -0.263649 -6.673820
v 3.336910 -0.263649 -5.779697
v 5.779697 -0.263649 -3.336911
v 6.673820 -0.263649 -0.000001
v 5.779697 -0.263649 3.336908
v 3.336912 -0.263649 5.779696
v 0.000003 -0.263649 6.673819
v -3.336906 -0.263649 5.779699
v -5.779695 -0.263649 3.336914
v -3.032111 178.816345 33.733349
v -3.501180 177.192032 34.358757
v -1.750591 180.012711 33.274052
v -0.000003 180.450623 33.105927
v 1.750585 180.012711 33.274052
v 3.032104 178.816345 33.733349
v 3.501173 177.192032 34.358757
v 3.032104 175.628769 34.971859
v 2.244510 175.659775 35.184372
v -0.000002 175.676300 35.261108
v -2.244514 175.659775 35.184372
v -3.032110 175.628769 34.971859
v -3.032109 184.356110 60.599133
v -3.501179 182.721786 61.226547
v -1.750590 184.818085 57.172832
v -0.000001 185.255981 57.004707
v 1.750587 184.818085 57.172832
v 3.032106 184.356110 60.599133
v 3.501174 182.721786 61.226555
v 3.032106 180.984116 61.874741
v 2.244511 180.424469 59.091331
v -0.000001 180.439957 59.168285
v -2.244513 180.424469 59.091331
v -3.032109 180.984116 61.874741
v -5.816053 176.478836 39.468384
v -6.715801 178.084076 38.846832
v -5.816054 179.718353 38.219421
v -3.357901 180.914734 37.760128
v 4.305321 176.521133 39.678627
v -3.950908 37.067478 -2.346715
v 5.816047 179.718353 38.219421
v 6.715793 178.084076 38.846844
v -0.000002 181.352631 37.591999
v -4.305321 176.521133 39.678627
v 5.816047 176.478836 39.468384
v 3.357896 180.914734 37.760128
v -5.951043 179.549271 54.738541
v -5.951045 182.788773 53.489590
v 4.405247 179.591537 54.948792
v 5.951037 182.788773 53.489590
v -6.871674 181.154480 54.117001
v -3.435837 183.985153 53.030289
v -4.562844 37.067478 -0.183855
v 6.871667 181.154480 54.117004
v -0.000001 184.423035 52.862171
v -4.405247 179.591537 54.948780
v 5.951037 179.549271 54.738541
v 3.435833 183.985153 53.030289
v -3.696167 134.543945 -0.663923
v -3.511684 164.379593 11.153572
v -3.606215 145.768234 1.103493
v -3.538689 156.688797 5.428997
v -3.041280 165.516632 9.946026
v -3.198695 135.874741 -2.083864
v -3.064289 157.876404 4.167270
v -3.121907 147.026703 -0.235977
v -1.755913 166.348816 9.056988
v -1.845944 136.819992 -3.122502
v -1.769057 158.741608 3.240908
v -1.802011 147.933319 -1.217094
v -0.000000 166.652954 8.730108
v 0.000001 137.159683 -3.502668
v 0.000001 159.057144 2.901011
v 0.000001 148.261826 -1.576496
v 1.755913 166.348785 9.056976
v 1.845946 136.819992 -3.122504
v 1.769058 158.741577 3.240903
v 1.802012 147.933289 -1.217096
v 3.041279 165.516617 9.946026
v 3.198696 135.874741 -2.083865
v 3.064288 157.876389 4.167268
v 3.121907 147.026703 -0.235978
v 3.511682 164.379593 11.153569
v 3.696168 134.543961 -0.663918
v 3.538688 156.688812 5.428998
v 3.606215 145.768280 1.103498
v 3.041124 163.258179 12.357254
v 3.203302 133.211960 0.760148
v 3.064903 155.502884 6.689323
v 3.124264 144.509674 2.444488
v 1.755755 162.442383 13.238489
v 1.850294 132.265747 1.806403
v 1.769635 154.641388 7.612765
v 1.804239 143.603714 3.428331
v 0.000001 162.135513 13.561389
v 0.000002 131.925919 2.190159
v 0.000001 154.327713 7.951145
v 0.000002 143.275681 3.788986
v -1.755754 162.442383 13.238497
v -1.850290 132.265732 1.806405
v -1.769632 154.641388 7.612773
v -1.804235 143.603729 3.428336
v -3.041124 163.258224 12.357275
v -3.203299 133.211960 0.760155
v -3.064902 155.502884 6.689336
v -3.124262 144.509674 2.444494
v -0.000019 180.984116 61.874741
v -0.000041 182.721786 61.226547
v -0.000047 184.356110 60.599133
v -0.000002 172.409576 37.140697
v 2.092514 172.386047 37.070793
v -2.092518 172.386032 37.070793
v -0.000001 176.848251 58.672615
v 2.092515 176.833374 58.600967
v -2.092516 176.833359 58.600960
v 4.106927 176.031769 54.744072
v -0.000001 173.173065 41.338451
v -4.013768 173.158157 41.266804
v 4.013768 173.158157 41.266804
v 0.000000 176.046646 54.815727
v -4.106928 176.031769 54.744064
v -3.952181 37.067478 1.980152
v -2.280829 37.067478 -3.929808
v 0.000001 37.067478 -4.509260
v 2.280831 37.067478 -3.929809
v 3.950908 37.067478 -2.346716
v 4.562845 37.067478 -0.183855
v 3.952183 37.067478 1.980147
v 2.282036 37.067478 3.565349
v 0.000003 37.067478 4.145795
v -2.282031 37.067478 3.565352
v -5.205721 35.955490 -3.033463
v -3.005233 35.955482 -5.122993
v 0.000000 35.955482 -5.887815
v 3.005234 35.955482 -5.122994
v 5.205721 35.955490 -3.033465
v 6.011979 35.955490 -0.178710
v 5.207347 35.955482 2.677499
v 3.006771 35.955490 4.769722
v 0.000003 35.955490 5.535810
v -3.006765 35.955490 4.769724
v -6.011977 35.955490 -0.178711
v -5.207345 35.955482 2.677506
v -3.506347 171.362335 19.642754
v -3.036545 169.955688 20.407646
v -3.036621 172.785812 18.875677
v -1.753209 173.827713 18.311659
v -0.000002 174.208847 18.104488
v 1.753206 173.827713 18.311651
v 3.036617 172.785812 18.875677
v 3.506342 171.362335 19.642754
v 3.036541 169.955658 20.407635
v 2.004085 169.559189 20.956886
v -0.000001 169.414734 21.158081
v -2.004087 169.559189 20.956888
v -3.033210 173.363678 28.541658
v -3.502461 174.952026 28.110712
v -3.033229 176.591370 27.678417
v -1.751240 177.797058 27.361248
v -0.000003 178.238297 27.244970
v 1.751235 177.797058 27.361248
v 3.033223 176.591370 27.678417
v 3.502454 174.952026 28.110718
v 3.033204 173.363647 28.541653
v 2.184918 173.259460 28.839212
v -0.000002 173.225494 28.948097
v -2.184922 173.259460 28.839211
vn -0.9764 0.0225 -0.2149
vn -0.8568 0.4787 -0.1919
vn -1.0000 0.0013 -0.0017
vn 0.0000 0.9262 -0.3769
vn 0.4609 0.8367 -0.2959
vn 0.4869 0.8096 -0.3279
vn 0.8232 0.4612 -0.3310
vn 0.8568 0.4787 -0.1919
vn 0.9764 0.0225 -0.2149
vn 1.0000 0.0013 -0.0017
vn 0.9628 -0.2543 0.0911
vn 0.9611 -0.2571 0.1005
vn 0.1363 -0.9149 0.3799
vn 0.0397 -0.9626 0.2682
vn 0.0254 -0.9532 0.3014
vn 0.0000 -0.9180 0.3967
vn -0.0000 -0.9322 0.3619
vn -0.0254 -0.9532 0.3014
vn -0.1363 -0.9149 0.3799
vn -0.0397 -0.9625 0.2682
vn -0.2518 -0.8942 0.3702
vn 0.0000 0.0303 0.9995
vn 0.4986 0.0292 0.8663
vn 0.4849 0.0276 0.8741
vn -0.4840 0.0191 -0.8749
vn -0.8654 0.0184 -0.5007
vn -0.8558 0.0179 -0.5170
vn -0.8797 -0.3666 0.3030
vn -0.9057 -0.1273 0.4043
vn -0.8787 -0.4068 0.2496
vn 0.8648 0.0238 0.5016
vn 0.8570 0.0223 0.5148
vn 0.9998 0.0188 0.0011
vn 0.9998 0.0189 -0.0008
vn 0.8654 0.0184 -0.5007
vn 0.8558 0.0179 -0.5170
vn 0.4840 0.0191 -0.8749
vn 0.4994 0.0208 -0.8661
vn -0.4609 0.8367 -0.2959
vn 0.0000 0.9608 -0.2771
vn -0.8570 0.0223 0.5148
vn -0.9998 0.0188 0.0011
vn -0.8648 0.0238 0.5016
vn -0.0000 0.0205 -0.9998
vn 0.0000 0.0217 -0.9998
vn -0.4994 0.0208 -0.8661
vn -0.4849 0.0276 0.8741
vn -0.4986 0.0292 0.8663
vn 0.0000 0.0314 0.9995
vn -0.4869 0.8096 -0.3279
vn -0.8232 0.4612 -0.3310
vn -0.4390 0.8925 -0.1036
vn -0.2643 0.9644 0.0027
vn -0.3090 0.9424 -0.1278
vn 0.8636 0.4984 0.0760
vn 0.8753 0.3938 0.2806
vn 0.8540 0.5134 0.0842
vn 0.0000 0.9840 -0.1782
vn 0.0000 0.9999 0.0103
vn 0.8797 -0.3666 0.3030
vn 0.9057 -0.1273 0.4043
vn 0.9138 -0.0998 0.3938
vn 0.2643 0.9644 0.0027
vn 0.3090 0.9424 -0.1278
vn -0.0000 -0.9804 0.1971
vn -0.8636 0.4984 0.0760
vn -0.8753 0.3938 0.2806
vn -0.8872 0.3637 0.2841
vn 0.4390 0.8925 -0.1036
vn 0.1693 0.9831 0.0692
vn 0.3380 0.8983 -0.2807
vn 0.4613 0.8419 -0.2800
vn -0.0002 -0.9815 0.1915
vn -0.7914 0.1714 -0.5867
vn 0.0002 -0.9815 0.1915
vn 0.0007 -0.9813 0.1925
vn 0.0000 0.9765 -0.2156
vn 0.7917 -0.4431 -0.4205
vn 0.8407 -0.5157 -0.1653
vn 0.8086 -0.4087 -0.4234
vn 0.7914 0.1714 -0.5867
vn 0.7775 0.1991 -0.5965
vn -0.3380 0.8983 -0.2807
vn -0.7917 -0.4431 -0.4205
vn -0.8407 -0.5157 -0.1653
vn -0.8311 -0.5305 -0.1669
vn -0.8869 0.4512 -0.0987
vn -0.8872 0.4507 -0.0985
vn 0.8787 -0.4068 0.2496
vn 0.8869 0.4512 -0.0987
vn -0.4613 0.8419 -0.2800
vn -0.9628 -0.2543 0.0911
vn -0.9998 0.0154 -0.0124
vn -0.8469 0.2624 -0.4625
vn -0.9998 0.0105 -0.0196
vn -0.8375 0.1474 -0.5261
vn -0.9998 0.0036 -0.0212
vn -0.8208 0.0482 -0.5692
vn -0.9498 0.0215 -0.3122
vn -0.8466 0.3710 -0.3817
vn -0.4759 0.4406 -0.7612
vn -0.4621 0.2499 -0.8509
vn -0.4374 0.0855 -0.8952
vn -0.4745 0.6140 -0.6307
vn 0.0000 0.5036 -0.8639
vn 0.0000 0.2858 -0.9583
vn -0.0000 0.0983 -0.9952
vn 0.4745 0.6140 -0.6307
vn 0.0000 0.6979 -0.7162
vn 0.4759 0.4406 -0.7612
vn 0.4621 0.2499 -0.8509
vn 0.8466 0.3710 -0.3817
vn 0.8469 0.2624 -0.4625
vn 0.8375 0.1474 -0.5261
vn 0.4374 0.0855 -0.8952
vn 0.9998 0.0154 -0.0124
vn 0.9998 0.0105 -0.0196
vn 0.9998 0.0036 -0.0212
vn 0.8208 0.0482 -0.5692
vn 0.8625 -0.3459 0.3695
vn 0.8644 -0.2387 0.4425
vn 0.8518 -0.1305 0.5074
vn 0.9513 -0.0241 0.3073
vn 0.4822 -0.5898 0.6478
vn 0.4892 -0.4093 0.7701
vn 0.4676 -0.2134 0.8578
vn 0.8294 -0.0338 0.5577
vn 0.0000 -0.6639 0.7478
vn 0.0000 -0.4678 0.8838
vn 0.0000 -0.2395 0.9709
vn 0.4350 -0.0482 0.8991
vn -0.4892 -0.4093 0.7701
vn -0.4676 -0.2134 0.8578
vn -0.4350 -0.0482 0.8991
vn 0.0000 -0.0517 0.9987
vn -0.4822 -0.5898 0.6478
vn -0.8644 -0.2387 0.4425
vn -0.8518 -0.1305 0.5074
vn -0.8294 -0.0338 0.5577
vn -0.8625 -0.3459 0.3695
vn -0.9513 -0.0241 0.3073
vn -0.9998 0.0189 -0.0008
vn -0.0000 0.9860 0.1665
vn 0.0000 0.3584 0.9336
vn -0.0000 0.3540 0.9353
vn -0.0000 0.3495 0.9369
vn -0.8557 0.0075 -0.5175
vn -0.9622 0.0072 -0.2722
vn -0.4821 0.0189 0.8759
vn 0.0000 0.0206 0.9998
vn -0.8550 0.0142 0.5184
vn -0.0000 0.0092 -1.0000
vn -0.4822 0.0083 -0.8760
vn -0.9622 0.0109 0.2722
vn 0.4822 0.0083 -0.8760
vn 0.9498 0.0215 -0.3122
vn 0.8557 0.0075 -0.5175
vn 0.9622 0.0109 0.2722
vn 0.8550 0.0142 0.5184
vn 0.4821 0.0189 0.8759
vn -0.6086 0.7934 -0.0006
vn -0.5271 0.7892 -0.3150
vn -0.6088 0.7933 0.0001
vn -0.2968 0.7840 0.5452
vn 0.0000 0.7808 0.6248
vn 0.0000 0.7809 0.6247
vn -0.5225 0.7905 0.3196
vn -0.3023 0.7840 0.5422
vn -0.2975 0.7818 -0.5479
vn -0.0000 0.7782 -0.6280
vn -0.3036 0.7818 -0.5446
vn 0.2975 0.7818 -0.5479
vn -0.0000 0.7783 -0.6278
vn -0.5258 0.7904 0.3143
vn 0.5233 0.7892 -0.3214
vn 0.3036 0.7818 -0.5446
vn 0.6086 0.7934 -0.0006
vn 0.5271 0.7892 -0.3150
vn 0.5258 0.7904 0.3143
vn 0.6088 0.7933 0.0001
vn 0.5225 0.7905 0.3196
vn 0.3023 0.7840 0.5422
vn -0.5233 0.7892 -0.3214
vn 0.2968 0.7840 0.5452
vn -0.9596 -0.2401 0.1468
vn -0.9997 0.0205 -0.0132
vn -0.8401 0.4640 -0.2810
vn -0.4660 0.7568 -0.4584
vn -0.0000 0.8551 -0.5184
vn -0.5315 -0.7077 0.4655
vn -0.3295 -0.7931 0.5122
vn 0.3295 -0.7931 0.5122
vn -0.0000 -0.8268 0.5625
vn 0.5315 -0.7077 0.4655
vn 0.9596 -0.2401 0.1468
vn 0.9997 0.0205 -0.0132
vn 0.8401 0.4640 -0.2810
vn 0.4660 0.7568 -0.4584
vn -0.9611 -0.2571 0.1005
vn 0.2517 -0.8942 0.3702
vn -0.9138 -0.0998 0.3938
vn -0.1693 0.9831 0.0692
vn 0.8872 0.3637 0.2841
vn -0.8540 0.5134 0.0841
vn -0.0007 -0.9813 0.1925
vn -0.7775 0.1991 -0.5965
vn 0.8311 -0.5305 -0.1669
vn -0.8086 -0.4087 -0.4233
vn 0.8872 0.4507 -0.0985
vn 0.0000 0.3539 0.9353
vn 0.9622 0.0072 -0.2722
vn 0.9611 -0.1821 -0.2079
vn 0.9718 -0.0937 0.2165
vn 0.9752 -0.1577 -0.1550
vn 0.0000 -0.1367 0.9906
vn -0.0330 -0.1366 0.9901
vn 0.0330 -0.1366 0.9901
vn 0.8971 -0.2506 -0.3639
vn 0.8972 -0.2510 -0.3633
vn -0.9611 -0.1821 -0.2079
vn -0.8971 -0.2506 -0.3639
vn -0.9752 -0.1577 -0.1550
vn 0.0000 -0.4983 -0.8670
vn 0.0341 -0.4982 -0.8664
vn 0.0333 -0.4978 -0.8666
vn 0.0000 -0.9786 0.2060
vn 0.0000 -0.9791 0.2035
vn -0.0001 -0.9784 0.2065
vn 0.0030 -0.9837 0.1799
vn 0.0000 -0.9809 0.1947
vn 0.0001 -0.9804 0.1968
vn -0.0030 -0.9837 0.1799
vn 0.0000 -0.9839 0.1789
vn 0.0001 -0.9785 0.2065
vn 0.9535 -0.0967 0.2853
vn 0.8733 -0.1014 0.4764
vn -0.9718 -0.0937 0.2165
vn -0.9535 -0.0967 0.2853
vn -0.8733 -0.1014 0.4764
vn -0.8735 -0.1020 0.4761
vn -0.0341 -0.4982 -0.8664
vn 0.0000 -0.4987 -0.8668
vn -0.8972 -0.2510 -0.3633
vn -0.0001 -0.9804 0.1968
vn 0.8735 -0.1020 0.4761
vn -0.0333 -0.4978 -0.8666
usemtl Grey.003
s 1
f 14//1 160//2 159//3
f 162//4 17//5 163//6
f 163//6 18//7 164//8
f 164//8 19//9 165//10
f 165//10 20//11 166//12
f 167//13 20//14 21//15
f 168//16 21//15 22//17
f 168//16 23//18 169//19
f 169//19 24//20 158//21
f 142//22 9//23 141//24
f 135//25 2//26 134//27
f 49//28 26//29 53//30
f 141//24 8//31 140//32
f 140//32 7//33 139//34
f 139//34 6//35 138//36
f 137//37 6//35 5//38
f 162//4 15//39 16//40
f 145//41 1//42 12//43
f 136//44 5//38 4//45
f 136//44 3//46 135//25
f 143//47 12//43 11//48
f 142//22 11//48 10//49
f 161//50 13//51 15//39
f 50//52 27//53 54//54
f 52//55 31//56 56//57
f 57//58 27//53 28//59
f 59//60 31//61 32//62
f 57//58 29//63 60//64
f 49//65 35//65 36//65
f 50//66 26//67 25//68
f 59//65 33//65 51//65
f 52//69 29//63 30//70
f 18//7 48//71 43//72
f 20//14 41//73 21//15
f 14//1 39//74 13//51
f 24//20 46//75 37//76
f 17//5 45//77 48//71
f 19//78 47//79 20//80
f 15//39 45//77 16//40
f 19//9 43//81 44//82
f 13//51 40//83 15//39
f 14//84 37//85 38//86
f 43//72 60//64 52//69
f 41//73 59//65 51//65
f 38//87 50//66 39//88
f 46//75 49//65 37//76
f 48//71 57//58 60//64
f 47//79 56//89 59//60
f 40//83 57//58 45//77
f 44//90 52//55 56//57
f 39//91 54//54 40//83
f 37//85 53//30 38//86
f 159//3 24//92 14//1
f 62//93 67//94 64//95
f 64//95 68//96 63//97
f 63//97 66//98 61//99
f 65//100 71//101 67//94
f 67//94 72//102 68//96
f 68//96 70//103 66//98
f 69//104 75//105 71//101
f 71//101 76//106 72//102
f 72//102 74//107 70//103
f 77//108 75//105 73//109
f 79//110 76//106 75//105
f 80//111 74//107 76//106
f 81//112 79//110 77//108
f 83//113 80//111 79//110
f 84//114 78//115 80//111
f 85//116 83//113 81//112
f 87//117 84//114 83//113
f 88//118 82//119 84//114
f 89//120 87//117 85//116
f 91//121 88//118 87//117
f 92//122 86//123 88//118
f 93//124 91//121 89//120
f 95//125 92//122 91//121
f 96//126 90//127 92//122
f 97//128 95//125 93//124
f 99//129 96//126 95//125
f 100//130 94//131 96//126
f 97//128 103//132 99//129
f 99//129 104//133 100//130
f 100//130 102//134 98//135
f 101//136 107//137 103//132
f 103//132 108//138 104//133
f 104//133 106//139 102//134
f 105//140 64//95 107//137
f 107//137 63//97 108//138
f 108//138 61//141 106//139
f 144//142 2//26 1//42
f 27//53 111//143 28//59
f 25//144 110//145 111//144
f 32//146 110//145 109//146
f 33//65 109//65 34//65
f 110//145 36//146 109//146
f 109//65 35//65 34//65
f 111//143 29//63 28//59
f 110//145 30//144 111//144
f 61//99 42//147 55//148
f 98//135 133//149 132//150
f 102//134 124//151 133//149
f 70//103 126//152 125//153
f 78//115 126//152 74//107
f 106//139 55//154 124//151
f 82//119 127//155 78//115
f 86//156 128//157 82//119
f 90//127 129//158 86//123
f 94//131 130//159 90//127
f 66//98 125//153 42//147
f 98//135 131//160 94//131
f 55//161 134//162 144//163
f 133//164 142//165 132//166
f 124//167 143//168 133//164
f 125//169 136//170 135//171
f 127//172 136//170 126//173
f 55//161 145//174 124//167
f 128//175 137//176 127//172
f 129//177 138//178 128//175
f 129//177 140//179 139//180
f 130//181 141//182 140//179
f 42//183 135//171 134//162
f 131//184 142//165 141//182
f 62//93 147//185 146//186
f 69//104 148//187 149//188
f 73//109 149//188 150//189
f 101//136 147//190 105//140
f 97//128 157//191 101//136
f 97//128 155//192 156//193
f 93//124 154//194 155//192
f 85//116 154//195 89//120
f 81//112 153//196 85//116
f 77//108 152//197 81//112
f 73//109 151//198 77//108
f 146//186 65//100 62//93
f 146//186 158//199 159//3
f 149//188 160//2 161//50
f 150//189 161//50 162//4
f 157//191 158//21 147//190
f 156//193 169//19 157//191
f 156//193 167//13 168//16
f 155//192 166//200 167//13
f 153//196 166//12 154//195
f 152//197 165//10 153//196
f 151//198 164//8 152//197
f 150//189 163//6 151//198
f 159//3 148//187 146//186
f 14//1 13//51 160//2
f 162//4 16//40 17//5
f 163//6 17//5 18//7
f 164//8 18//7 19//9
f 165//10 19//9 20//11
f 167//13 166//200 20//14
f 168//16 167//13 21//15
f 168//16 22//17 23//18
f 169//19 23//18 24//20
f 142//22 10//49 9//23
f 135//25 3//46 2//26
f 49//28 36//201 26//29
f 141//24 9//23 8//31
f 140//32 8//31 7//33
f 139//34 7//33 6//35
f 137//37 138//36 6//35
f 162//4 161//50 15//39
f 145//41 144//142 1//42
f 136//44 137//37 5//38
f 136//44 4//45 3//46
f 143//47 145//41 12//43
f 142//22 143//47 11//48
f 161//50 160//2 13//51
f 50//52 25//202 27//53
f 52//55 30//203 31//56
f 57//58 54//54 27//53
f 59//60 56//89 31//61
f 57//58 28//59 29//63
f 49//65 58//65 35//65
f 50//66 53//204 26//67
f 59//65 32//65 33//65
f 52//69 60//64 29//63
f 18//7 17//5 48//71
f 20//14 47//205 41//73
f 14//1 38//206 39//74
f 24//20 23//18 46//75
f 17//5 16//40 45//77
f 19//78 44//207 47//79
f 15//39 40//83 45//77
f 19//9 18//7 43//81
f 13//51 39//91 40//83
f 14//84 24//208 37//85
f 43//72 48//71 60//64
f 41//73 47//205 59//65
f 38//87 53//204 50//66
f 46//75 58//65 49//65
f 48//71 45//77 57//58
f 47//79 44//207 56//89
f 40//83 54//54 57//58
f 44//90 43//209 52//55
f 39//91 50//52 54//54
f 37//85 49//28 53//30
f 159//3 158//199 24//92
f 62//93 65//100 67//94
f 64//95 67//94 68//96
f 63//97 68//96 66//98
f 65//100 69//104 71//101
f 67//94 71//101 72//102
f 68//96 72//102 70//103
f 69//104 73//109 75//105
f 71//101 75//105 76//106
f 72//102 76//106 74//107
f 77//108 79//110 75//105
f 79//110 80//111 76//106
f 80//111 78//115 74//107
f 81//112 83//113 79//110
f 83//113 84//114 80//111
f 84//114 82//119 78//115
f 85//116 87//117 83//113
f 87//117 88//118 84//114
f 88//118 86//156 82//119
f 89//120 91//121 87//117
f 91//121 92//122 88//118
f 92//122 90//127 86//123
f 93//124 95//125 91//121
f 95//125 96//126 92//122
f 96//126 94//131 90//127
f 97//128 99//129 95//125
f 99//129 100//130 96//126
f 100//130 98//135 94//131
f 97//128 101//136 103//132
f 99//129 103//132 104//133
f 100//130 104//133 102//134
f 101//136 105//140 107//137
f 103//132 107//137 108//138
f 104//133 108//138 106//139
f 105//140 62//93 64//95
f 107//137 64//95 63//97
f 108//138 63//97 61//141
f 144//142 134//27 2//26
f 27//53 25//202 111//143
f 25//144 26//210 110//145
f 32//146 31//210 110//145
f 33//65 32//65 109//65
f 110//145 26//210 36//146
f 109//65 36//65 35//65
f 111//143 30//70 29//63
f 110//145 31//210 30//144
f 61//99 66//98 42//147
f 98//135 102//134 133//149
f 102//134 106//139 124//151
f 70//103 74//107 126//152
f 78//115 127//155 126//152
f 106//139 61//141 55//154
f 82//119 128//157 127//155
f 86//156 129//211 128//157
f 90//127 130//159 129//158
f 94//131 131//160 130//159
f 66//98 70//103 125//153
f 98//135 132//150 131//160
f 55//161 42//183 134//162
f 133//164 143//168 142//165
f 124//167 145//174 143//168
f 125//169 126//173 136//170
f 127//172 137//176 136//170
f 55//161 144//163 145//174
f 128//175 138//178 137//176
f 129//177 139//180 138//178
f 129//177 130//181 140//179
f 130//181 131//184 141//182
f 42//183 125//169 135//171
f 131//184 132//166 142//165
f 62//93 105//140 147//185
f 69//104 65//100 148//187
f 73//109 69//104 149//188
f 101//136 157//191 147//190
f 97//128 156//193 157//191
f 97//128 93//124 155//192
f 93//124 89//120 154//194
f 85//116 153//196 154//195
f 81//112 152//197 153//196
f 77//108 151//198 152//197
f 73//109 150//189 151//198
f 146//186 148//187 65//100
f 146//186 147//185 158//199
f 149//188 148//187 160//2
f 150//189 149//188 161//50
f 157//191 169//19 158//21
f 156//193 168//16 169//19
f 156//193 155//192 167//13
f 155//192 154//194 166//200
f 153//196 165//10 166//12
f 152//197 164//8 165//10
f 151//198 163//6 164//8
f 150//189 162//4 163//6
f 159//3 160//2 148//187
usemtl Light
f 41//212 118//213 121//214
f 34//215 117//216 115//215
f 34//215 116//217 33//217
f 41//212 113//218 21//219
f 46//220 114//221 120//222
f 22//223 114//224 23//225
f 122//226 116//227 115//227
f 122//226 117//227 123//228
f 114//229 119//230 120//231
f 113//232 119//230 112//233
f 119//230 123//228 120//231
f 119//230 118//234 122//226
f 51//235 116//236 118//213
f 46//220 123//237 58//238
f 58//238 117//239 35//240
f 22//223 113//241 112//242
f 41//212 51//235 118//213
f 34//215 35//216 117//216
f 34//215 115//215 116//217
f 41//212 121//214 113//218
f 46//220 23//243 114//221
f 22//223 112//242 114//224
f 122//226 118//234 116//227
f 122//226 115//227 117//227
f 114//229 112//233 119//230
f 113//232 121//244 119//230
f 119//230 122//226 123//228
f 119//230 121//244 118//234
f 51//235 33//245 116//236
f 46//220 120//222 123//237
f 58//238 123//237 117//239
f 22//223 21//246 113//241
