# Blender v3.5.0 OBJ File: 'dayScene.blend'
# www.blender.org
mtllib Cylinder.137.mtl
o StreetLight.123_Cylinder.137
v 5901.677734 -0.492909 2999.329346
v 5900.005859 -0.492910 3005.568115
v 5895.438965 -0.492911 3010.134766
v 5889.200684 -0.492911 3011.806396
v 5882.962402 -0.492911 3010.134766
v 5878.395020 -0.492910 3005.568115
v 5876.723145 -0.492909 2999.329346
v 5878.395020 -0.492908 2993.090820
v 5882.962402 -0.492907 2988.523926
v 5889.200684 -0.492907 2986.852295
v 5895.438965 -0.492907 2988.523926
v 5900.005859 -0.492908 2993.090820
v 5894.869141 334.308563 2936.262695
v 5895.746094 331.271851 2935.093506
v 5892.473633 336.545288 2937.121582
v 5889.200684 337.363953 2937.435791
v 5885.927734 336.545288 2937.121582
v 5883.531738 334.308563 2936.262695
v 5882.655273 331.271851 2935.093506
v 5883.531738 328.349182 2933.947266
v 5885.004395 328.407166 2933.549805
v 5889.200684 328.438080 2933.406494
v 5893.396973 328.407166 2933.549805
v 5894.869141 328.349182 2933.947266
v 5894.869141 344.665527 2886.035400
v 5895.746094 341.610077 2884.862549
v 5892.473633 345.529266 2892.441162
v 5889.200684 346.347900 2892.755615
v 5885.927734 345.529266 2892.441162
v 5883.531738 344.665527 2886.035400
v 5882.655273 341.610077 2884.862305
v 5883.531738 338.361389 2883.650635
v 5885.004395 337.315094 2888.854492
v 5889.200684 337.344055 2888.710449
v 5893.396973 337.315094 2888.854492
v 5894.869141 338.361389 2883.650635
v 5900.073730 329.938446 2925.540771
v 5901.756348 332.939545 2926.702881
v 5900.073730 335.994965 2927.875732
v 5895.478516 338.231689 2928.734375
v 5881.151855 330.017548 2925.147705
v 5896.586914 69.300018 3003.716797
v 5878.327148 335.994965 2927.875732
v 5876.645020 332.939545 2926.702881
v 5889.200684 339.050323 2929.048584
v 5897.249512 330.017548 2925.147705
v 5878.327148 329.938446 2925.540771
v 5882.922852 338.231689 2928.734375
v 5900.326660 335.678833 2896.992188
v 5900.326660 341.735321 2899.327148
v 5880.964355 335.757843 2896.599121
v 5878.074707 341.735321 2899.327148
v 5902.047852 338.679901 2898.154297
v 5895.624023 343.972015 2900.186035
v 5897.730957 69.300018 2999.673096
v 5876.353516 338.679901 2898.154297
v 5889.200684 344.790649 2900.500244
v 5897.436523 335.757843 2896.599121
v 5878.074707 335.678833 2896.992188
v 5882.777344 343.972015 2900.186035
v 5896.110840 251.538513 3000.570557
v 5895.765625 307.318115 2978.477051
v 5895.942383 272.522980 2997.266357
v 5895.816406 292.939697 2989.179688
v 5894.886719 309.443909 2980.734863
v 5895.180664 254.026505 3003.225342
v 5894.929688 295.160004 2991.538574
v 5895.037109 274.875824 2999.770752
v 5892.483398 310.999725 2982.396729
v 5892.651855 255.793732 3005.167236
v 5892.507812 296.777588 2993.270508
v 5892.569824 276.570770 3001.604980
v 5889.200684 311.568329 2983.008057
v 5889.200684 256.428802 3005.877930
v 5889.200684 297.367462 2993.905762
v 5889.200684 277.184967 3002.276611
v 5885.917969 310.999695 2982.396973
v 5885.749512 255.793732 3005.167236
v 5885.893066 296.777527 2993.270508
v 5885.831543 276.570740 3001.604980
v 5883.514648 309.443909 2980.734863
v 5883.220215 254.026505 3003.225342
v 5883.471680 295.159973 2991.538574
v 5883.364258 274.875824 2999.770752
v 5882.635254 307.318115 2978.477051
v 5882.290039 251.538559 3000.570557
v 5882.584961 292.939728 2989.179688
v 5882.458496 272.523071 2997.266357
v 5883.515137 305.221588 2976.226807
v 5883.211914 249.048279 2997.908203
v 5883.470703 290.722565 2986.823242
v 5883.359375 270.170044 2994.759277
v 5885.917969 303.696411 2974.579346
v 5885.741211 247.279266 2995.952148
v 5885.892578 289.111908 2985.096924
v 5885.827148 268.476318 2992.919922
v 5889.200684 303.122681 2973.975342
v 5889.200684 246.643921 2995.234619
v 5889.200684 288.525482 2984.464111
v 5889.200684 267.863037 2992.245605
v 5892.483398 303.696411 2974.579346
v 5892.660156 247.279236 2995.952148
v 5892.508789 289.111908 2985.096924
v 5892.573730 268.476318 2992.919922
v 5894.886230 305.221649 2976.226807
v 5895.189453 249.048279 2997.908203
v 5894.930664 290.722565 2986.823242
v 5895.041504 270.170044 2994.759277
v 5889.200684 338.361389 2883.650635
v 5889.200684 341.610077 2884.862549
v 5889.200684 344.665527 2886.035400
v 5889.200684 322.330719 2929.892578
v 5885.288574 322.286743 2930.023193
v 5893.112793 322.286682 2930.023193
v 5889.200684 330.629120 2889.637207
v 5885.288574 330.601288 2889.771240
v 5893.112793 330.601257 2889.771240
v 5881.522461 329.102631 2896.981934
v 5889.200684 323.758118 2922.044434
v 5896.704590 323.730225 2922.178467
v 5881.696289 323.730225 2922.178467
v 5889.200684 329.130493 2896.847900
v 5896.878906 329.102631 2896.981934
v 5896.589355 69.300018 2995.627441
v 5893.464844 69.300018 3006.676514
v 5889.200684 69.300018 3007.759766
v 5884.936523 69.300018 3006.676514
v 5881.813965 69.300018 3003.716797
v 5880.669922 69.300018 2999.673096
v 5881.812012 69.300018 2995.627441
v 5884.934082 69.300018 2992.663574
v 5889.200684 69.300018 2991.578613
v 5893.466797 69.300018 2992.663574
v 5898.933105 67.221085 3005.000488
v 5894.819336 67.221069 3008.907227
v 5889.200684 67.221069 3010.336914
v 5883.582031 67.221069 3008.907227
v 5879.468262 67.221085 3005.000488
v 5877.960449 67.221085 2999.663574
v 5879.465332 67.221069 2994.323730
v 5883.579102 67.221085 2990.412109
v 5889.200684 67.221085 2988.979736
v 5894.821777 67.221085 2990.412109
v 5900.440430 67.221085 2999.663574
v 5898.936035 67.221069 2994.323730
v 5895.755859 320.372833 2962.605957
v 5894.877930 317.743042 2961.176025
v 5894.877930 323.034088 2964.040039
v 5892.478027 324.982025 2965.094727
v 5889.200684 325.694550 2965.481934
v 5885.922852 324.982025 2965.094727
v 5883.523438 323.034088 2964.040039
v 5882.645508 320.372833 2962.605957
v 5883.523438 317.742950 2961.176270
v 5885.453613 317.001709 2960.149170
v 5889.200684 316.731659 2959.773193
v 5892.947266 317.001709 2960.149170
v 5894.871582 324.114441 2945.968994
v 5895.748535 327.083984 2946.774658
v 5894.871582 330.148865 2947.582764
v 5892.474609 332.402954 2948.175781
v 5889.200684 333.227875 2948.393311
v 5885.926758 332.402954 2948.175781
v 5883.529785 330.148865 2947.582764
v 5882.652832 327.083984 2946.774658
v 5883.529785 324.114410 2945.968994
v 5885.116211 323.919617 2945.412598
v 5889.200684 323.856140 2945.209229
v 5893.285156 323.919617 2945.412598
vn 0.9764 0.0224 0.2149
vn 0.8568 0.4787 0.1919
vn 1.0000 0.0013 0.0017
vn 0.0000 0.9263 0.3769
vn -0.4609 0.8366 0.2960
vn -0.4868 0.8096 0.3279
vn -0.8233 0.4611 0.3310
vn -0.8567 0.4787 0.1919
vn -0.9764 0.0225 0.2149
vn -1.0000 0.0013 0.0017
vn -0.9629 -0.2541 -0.0910
vn -0.9612 -0.2570 -0.1005
vn -0.1362 -0.9150 -0.3799
vn -0.0397 -0.9625 -0.2682
vn -0.0254 -0.9532 -0.3014
vn -0.0000 -0.9180 -0.3967
vn -0.0000 -0.9322 -0.3619
vn 0.0254 -0.9532 -0.3013
vn 0.1363 -0.9149 -0.3799
vn 0.0397 -0.9626 -0.2681
vn 0.2518 -0.8941 -0.3703
vn 0.0000 0.0303 -0.9995
vn -0.4986 0.0292 -0.8663
vn -0.4850 0.0276 -0.8741
vn 0.4840 0.0191 0.8749
vn 0.8654 0.0184 0.5008
vn 0.8558 0.0179 0.5169
vn 0.8797 -0.3665 -0.3030
vn 0.9057 -0.1273 -0.4043
vn 0.8788 -0.4068 -0.2496
vn -0.8648 0.0238 -0.5016
vn -0.8570 0.0223 -0.5148
vn -0.9998 0.0188 -0.0011
vn -0.9998 0.0189 0.0008
vn -0.8654 0.0184 0.5008
vn -0.8558 0.0179 0.5170
vn -0.4840 0.0191 0.8749
vn -0.4994 0.0208 0.8661
vn 0.4609 0.8367 0.2959
vn -0.0000 0.9608 0.2772
vn 0.8570 0.0223 -0.5148
vn 0.9998 0.0188 -0.0011
vn 0.8648 0.0238 -0.5016
vn 0.0000 0.0205 0.9998
vn 0.0000 0.0217 0.9998
vn 0.4994 0.0208 0.8661
vn 0.4849 0.0276 -0.8741
vn 0.4986 0.0292 -0.8663
vn 0.0000 0.0314 -0.9995
vn 0.4869 0.8096 0.3279
vn 0.8233 0.4611 0.3310
vn 0.4389 0.8925 0.1036
vn 0.2644 0.9644 -0.0027
vn 0.3089 0.9425 0.1278
vn -0.8635 0.4985 -0.0761
vn -0.8754 0.3937 -0.2806
vn -0.8540 0.5135 -0.0842
vn 0.0000 0.9840 0.1782
vn 0.0000 0.9999 -0.0103
vn -0.8796 -0.3666 -0.3030
vn -0.9058 -0.1272 -0.4042
vn -0.9138 -0.0996 -0.3938
vn -0.2643 0.9644 -0.0027
vn -0.3089 0.9425 0.1278
vn -0.0000 -0.9804 -0.1971
vn 0.8635 0.4985 -0.0761
vn 0.8753 0.3939 -0.2806
vn 0.8871 0.3638 -0.2841
vn -0.4389 0.8925 0.1036
vn -0.1693 0.9831 -0.0692
vn -0.3380 0.8983 0.2807
vn -0.4614 0.8419 0.2800
vn 0.0002 -0.9815 -0.1915
vn 0.7914 0.1714 0.5867
vn -0.0002 -0.9815 -0.1915
vn -0.0006 -0.9813 -0.1925
vn 0.0000 0.9765 0.2156
vn -0.7917 -0.4430 0.4205
vn -0.8407 -0.5157 0.1653
vn -0.8086 -0.4086 0.4234
vn -0.7914 0.1714 0.5867
vn -0.7775 0.1991 0.5965
vn 0.3380 0.8983 0.2807
vn 0.7917 -0.4431 0.4205
vn 0.8407 -0.5157 0.1653
vn 0.8311 -0.5305 0.1669
vn 0.8869 0.4512 0.0987
vn 0.8873 0.4506 0.0985
vn -0.8787 -0.4069 -0.2496
vn -0.8869 0.4512 0.0987
vn 0.4614 0.8418 0.2800
vn 0.9629 -0.2541 -0.0911
vn 0.9998 0.0154 0.0123
vn 0.8469 0.2624 0.4625
vn 0.9998 0.0104 0.0196
vn 0.8376 0.1473 0.5261
vn 0.9998 0.0036 0.0212
vn 0.8208 0.0481 0.5692
vn 0.9498 0.0215 0.3122
vn 0.8466 0.3710 0.3817
vn 0.4760 0.4406 0.7611
vn 0.4621 0.2499 0.8509
vn 0.4374 0.0855 0.8952
vn 0.4745 0.6140 0.6308
vn 0.0000 0.5037 0.8639
vn 0.0000 0.2858 0.9583
vn -0.0000 0.0983 0.9952
vn -0.4745 0.6140 0.6307
vn 0.0001 0.6979 0.7162
vn -0.4759 0.4407 0.7611
vn -0.4621 0.2499 0.8509
vn -0.8466 0.3710 0.3817
vn -0.8469 0.2624 0.4625
vn -0.8375 0.1474 0.5262
vn -0.4374 0.0855 0.8952
vn -0.9998 0.0153 0.0123
vn -0.9998 0.0104 0.0196
vn -0.9998 0.0037 0.0212
vn -0.8208 0.0482 0.5692
vn -0.8625 -0.3459 -0.3695
vn -0.8644 -0.2388 -0.4425
vn -0.8518 -0.1305 -0.5074
vn -0.9513 -0.0241 -0.3074
vn -0.4822 -0.5898 -0.6478
vn -0.4892 -0.4093 -0.7701
vn -0.4676 -0.2134 -0.8578
vn -0.8294 -0.0338 -0.5577
vn 0.0000 -0.6639 -0.7478
vn 0.0000 -0.4677 -0.8839
vn 0.0000 -0.2396 -0.9709
vn -0.4350 -0.0482 -0.8992
vn 0.4892 -0.4093 -0.7701
vn 0.4676 -0.2134 -0.8578
vn 0.4350 -0.0482 -0.8991
vn 0.0000 -0.0517 -0.9987
vn 0.4822 -0.5898 -0.6478
vn 0.8644 -0.2388 -0.4425
vn 0.8518 -0.1305 -0.5074
vn 0.8294 -0.0338 -0.5576
vn 0.8625 -0.3458 -0.3694
vn 0.9513 -0.0241 -0.3073
vn 0.9998 0.0189 0.0008
vn 0.0000 0.9860 -0.1665
vn 0.0000 0.3584 -0.9336
vn 0.0000 0.3539 -0.9353
vn 0.0001 0.3495 -0.9369
vn 0.0000 0.3495 -0.9369
vn 0.0001 0.3584 -0.9336
vn 0.8557 0.0075 0.5175
vn 0.9622 0.0072 0.2722
vn 0.4820 0.0189 -0.8760
vn 0.0000 0.0206 -0.9998
vn 0.8550 0.0142 -0.5184
vn 0.0000 0.0092 1.0000
vn 0.4821 0.0083 0.8761
vn 0.9622 0.0109 -0.2722
vn -0.4820 0.0083 0.8761
vn -0.9498 0.0215 0.3122
vn -0.8556 0.0075 0.5175
vn -0.9621 0.0109 -0.2723
vn -0.8550 0.0142 -0.5184
vn -0.4820 0.0189 -0.8759
vn 0.6086 0.7934 0.0006
vn 0.5272 0.7892 0.3150
vn 0.6088 0.7933 -0.0000
vn 0.2968 0.7840 -0.5452
vn 0.0000 0.7808 -0.6248
vn 0.0000 0.7809 -0.6247
vn 0.5226 0.7904 -0.3196
vn 0.3023 0.7840 -0.5422
vn 0.2975 0.7818 0.5479
vn 0.0000 0.7782 0.6280
vn 0.3036 0.7818 0.5446
vn -0.2976 0.7817 0.5480
vn 0.0000 0.7783 0.6279
vn 0.5258 0.7904 -0.3143
vn -0.5233 0.7892 0.3214
vn -0.3036 0.7818 0.5446
vn -0.6086 0.7935 0.0006
vn -0.5271 0.7893 0.3150
vn -0.5258 0.7904 -0.3143
vn -0.6087 0.7934 -0.0001
vn -0.5225 0.7905 -0.3196
vn -0.3022 0.7840 -0.5422
vn 0.5233 0.7892 0.3214
vn -0.2968 0.7841 -0.5451
vn 0.9596 -0.2399 -0.1468
vn 0.9997 0.0204 0.0132
vn 0.8401 0.4640 0.2810
vn 0.4659 0.7568 0.4584
vn 0.0000 0.8551 0.5184
vn 0.5315 -0.7077 -0.4655
vn 0.3295 -0.7932 -0.5122
vn -0.3296 -0.7931 -0.5122
vn 0.0000 -0.8268 -0.5625
vn -0.5317 -0.7076 -0.4655
vn -0.9597 -0.2397 -0.1468
vn -0.9997 0.0204 0.0132
vn -0.8402 0.4639 0.2810
vn -0.4660 0.7568 0.4584
vn 0.9612 -0.2570 -0.1005
vn -0.2516 -0.8943 -0.3701
vn 0.9137 -0.0998 -0.3938
vn 0.1693 0.9831 -0.0692
vn -0.8872 0.3636 -0.2841
vn 0.8540 0.5134 -0.0842
vn 0.0006 -0.9813 -0.1924
vn 0.7775 0.1991 0.5965
vn -0.8311 -0.5305 0.1670
vn 0.8086 -0.4086 0.4233
vn -0.8873 0.4506 0.0985
vn 0.0001 0.3539 -0.9353
vn -0.9622 0.0072 0.2722
vn -0.9611 -0.1820 0.2079
vn -0.9718 -0.0937 -0.2165
vn -0.9753 -0.1576 0.1550
vn -0.0000 -0.1367 -0.9906
vn 0.0330 -0.1366 -0.9901
vn -0.0330 -0.1366 -0.9901
vn -0.0331 -0.1366 -0.9901
vn -0.8971 -0.2505 0.3639
vn -0.8972 -0.2510 0.3633
vn 0.9611 -0.1821 0.2079
vn 0.8971 -0.2506 0.3638
vn 0.9753 -0.1577 0.1550
vn -0.0000 -0.4983 0.8670
vn -0.0342 -0.4982 0.8664
vn -0.0332 -0.4978 0.8667
vn -0.0000 -0.9786 -0.2060
vn -0.0000 -0.9791 -0.2035
vn 0.0001 -0.9785 -0.2065
vn -0.0030 -0.9837 -0.1799
vn -0.0000 -0.9809 -0.1947
vn -0.0001 -0.9804 -0.1968
vn 0.0030 -0.9837 -0.1799
vn -0.0000 -0.9839 -0.1789
vn -0.0001 -0.9785 -0.2065
vn -0.9535 -0.0967 -0.2854
vn -0.8733 -0.1014 -0.4765
vn 0.9718 -0.0935 -0.2165
vn 0.9535 -0.0965 -0.2854
vn 0.8733 -0.1014 -0.4765
vn 0.8734 -0.1021 -0.4761
vn 0.0341 -0.4982 0.8664
vn -0.0000 -0.4987 0.8668
vn 0.0331 -0.1366 -0.9901
vn 0.8972 -0.2510 0.3633
vn 0.0001 -0.9804 -0.1968
vn -0.8734 -0.1019 -0.4762
vn 0.0332 -0.4978 0.8666
usemtl Grey.003
s 1
f 14//1 160//2 159//3
f 162//4 17//5 163//6
f 163//6 18//7 164//8
f 164//8 19//9 165//10
f 165//10 20//11 166//12
f 167//13 20//14 21//15
f 168//16 21//15 22//17
f 168//16 23//18 169//19
f 169//19 24//20 158//21
f 142//22 9//23 141//24
f 135//25 2//26 134//27
f 49//28 26//29 53//30
f 141//24 8//31 140//32
f 140//32 7//33 139//34
f 139//34 6//35 138//36
f 137//37 6//35 5//38
f 162//4 15//39 16//40
f 145//41 1//42 12//43
f 136//44 5//38 4//45
f 136//44 3//46 135//25
f 143//47 12//43 11//48
f 142//22 11//48 10//49
f 161//50 13//51 15//39
f 50//52 27//53 54//54
f 52//55 31//56 56//57
f 57//58 27//53 28//59
f 59//60 31//61 32//62
f 57//58 29//63 60//64
f 49//65 35//65 36//65
f 50//66 26//67 25//68
f 59//65 33//65 51//65
f 52//69 29//63 30//70
f 18//7 48//71 43//72
f 20//14 41//73 21//15
f 14//1 39//74 13//51
f 24//20 46//75 37//76
f 17//5 45//77 48//71
f 19//78 47//79 20//80
f 15//39 45//77 16//40
f 19//9 43//81 44//82
f 13//51 40//83 15//39
f 14//84 37//85 38//86
f 43//72 60//64 52//69
f 41//73 59//65 51//65
f 38//87 50//66 39//88
f 46//75 49//65 37//76
f 48//71 57//58 60//64
f 47//79 56//89 59//60
f 40//83 57//58 45//77
f 44//90 52//55 56//57
f 39//91 54//54 40//83
f 37//85 53//30 38//86
f 159//3 24//92 14//1
f 62//93 67//94 64//95
f 64//95 68//96 63//97
f 63//97 66//98 61//99
f 65//100 71//101 67//94
f 67//94 72//102 68//96
f 68//96 70//103 66//98
f 69//104 75//105 71//101
f 71//101 76//106 72//102
f 72//102 74//107 70//103
f 77//108 75//105 73//109
f 79//110 76//106 75//105
f 80//111 74//107 76//106
f 81//112 79//110 77//108
f 83//113 80//111 79//110
f 84//114 78//115 80//111
f 85//116 83//113 81//112
f 87//117 84//114 83//113
f 88//118 82//119 84//114
f 89//120 87//117 85//116
f 91//121 88//118 87//117
f 92//122 86//123 88//118
f 93//124 91//121 89//120
f 95//125 92//122 91//121
f 96//126 90//127 92//122
f 97//128 95//125 93//124
f 99//129 96//126 95//125
f 100//130 94//131 96//126
f 97//128 103//132 99//129
f 99//129 104//133 100//130
f 100//130 102//134 98//135
f 101//136 107//137 103//132
f 103//132 108//138 104//133
f 104//133 106//139 102//134
f 105//140 64//95 107//137
f 107//137 63//97 108//138
f 108//138 61//141 106//139
f 144//142 2//26 1//42
f 27//53 111//143 28//59
f 25//144 110//145 111//144
f 32//146 110//145 109//147
f 33//65 109//65 34//65
f 110//145 36//147 109//147
f 109//65 35//65 34//65
f 111//143 29//63 28//59
f 110//145 30//148 111//144
f 61//99 42//149 55//150
f 98//135 133//151 132//152
f 102//134 124//153 133//151
f 70//103 126//154 125//155
f 78//115 126//154 74//107
f 106//139 55//156 124//153
f 82//119 127//157 78//115
f 86//158 128//159 82//119
f 90//127 129//160 86//123
f 94//131 130//161 90//127
f 66//98 125//155 42//149
f 98//135 131//162 94//131
f 55//163 134//164 144//165
f 133//166 142//167 132//168
f 124//169 143//170 133//166
f 125//171 136//172 135//173
f 127//174 136//172 126//175
f 55//163 145//176 124//169
f 128//177 137//178 127//174
f 129//179 138//180 128//177
f 129//179 140//181 139//182
f 130//183 141//184 140//181
f 42//185 135//173 134//164
f 131//186 142//167 141//184
f 62//93 147//187 146//188
f 69//104 148//189 149//190
f 73//109 149//190 150//191
f 101//136 147//192 105//140
f 97//128 157//193 101//136
f 97//128 155//194 156//195
f 93//124 154//196 155//194
f 85//116 154//197 89//120
f 81//112 153//198 85//116
f 77//108 152//199 81//112
f 73//109 151//200 77//108
f 146//188 65//100 62//93
f 146//188 158//201 159//3
f 149//190 160//2 161//50
f 150//191 161//50 162//4
f 157//193 158//21 147//192
f 156//195 169//19 157//193
f 156//195 167//13 168//16
f 155//194 166//202 167//13
f 153//198 166//12 154//197
f 152//199 165//10 153//198
f 151//200 164//8 152//199
f 150//191 163//6 151//200
f 159//3 148//189 146//188
f 14//1 13//51 160//2
f 162//4 16//40 17//5
f 163//6 17//5 18//7
f 164//8 18//7 19//9
f 165//10 19//9 20//11
f 167//13 166//202 20//14
f 168//16 167//13 21//15
f 168//16 22//17 23//18
f 169//19 23//18 24//20
f 142//22 10//49 9//23
f 135//25 3//46 2//26
f 49//28 36//203 26//29
f 141//24 9//23 8//31
f 140//32 8//31 7//33
f 139//34 7//33 6//35
f 137//37 138//36 6//35
f 162//4 161//50 15//39
f 145//41 144//142 1//42
f 136//44 137//37 5//38
f 136//44 4//45 3//46
f 143//47 145//41 12//43
f 142//22 143//47 11//48
f 161//50 160//2 13//51
f 50//52 25//204 27//53
f 52//55 30//205 31//56
f 57//58 54//54 27//53
f 59//60 56//89 31//61
f 57//58 28//59 29//63
f 49//65 58//65 35//65
f 50//66 53//206 26//67
f 59//65 32//65 33//65
f 52//69 60//64 29//63
f 18//7 17//5 48//71
f 20//14 47//207 41//73
f 14//1 38//208 39//74
f 24//20 23//18 46//75
f 17//5 16//40 45//77
f 19//78 44//209 47//79
f 15//39 40//83 45//77
f 19//9 18//7 43//81
f 13//51 39//91 40//83
f 14//84 24//210 37//85
f 43//72 48//71 60//64
f 41//73 47//207 59//65
f 38//87 53//206 50//66
f 46//75 58//65 49//65
f 48//71 45//77 57//58
f 47//79 44//209 56//89
f 40//83 54//54 57//58
f 44//90 43//211 52//55
f 39//91 50//52 54//54
f 37//85 49//28 53//30
f 159//3 158//201 24//92
f 62//93 65//100 67//94
f 64//95 67//94 68//96
f 63//97 68//96 66//98
f 65//100 69//104 71//101
f 67//94 71//101 72//102
f 68//96 72//102 70//103
f 69//104 73//109 75//105
f 71//101 75//105 76//106
f 72//102 76//106 74//107
f 77//108 79//110 75//105
f 79//110 80//111 76//106
f 80//111 78//115 74//107
f 81//112 83//113 79//110
f 83//113 84//114 80//111
f 84//114 82//119 78//115
f 85//116 87//117 83//113
f 87//117 88//118 84//114
f 88//118 86//158 82//119
f 89//120 91//121 87//117
f 91//121 92//122 88//118
f 92//122 90//127 86//123
f 93//124 95//125 91//121
f 95//125 96//126 92//122
f 96//126 94//131 90//127
f 97//128 99//129 95//125
f 99//129 100//130 96//126
f 100//130 98//135 94//131
f 97//128 101//136 103//132
f 99//129 103//132 104//133
f 100//130 104//133 102//134
f 101//136 105//140 107//137
f 103//132 107//137 108//138
f 104//133 108//138 106//139
f 105//140 62//93 64//95
f 107//137 64//95 63//97
f 108//138 63//97 61//141
f 144//142 134//27 2//26
f 27//53 25//204 111//143
f 25//144 26//145 110//145
f 32//146 31//212 110//145
f 33//65 32//65 109//65
f 110//145 26//145 36//147
f 109//65 36//65 35//65
f 111//143 30//70 29//63
f 110//145 31//212 30//148
f 61//99 66//98 42//149
f 98//135 102//134 133//151
f 102//134 106//139 124//153
f 70//103 74//107 126//154
f 78//115 127//157 126//154
f 106//139 61//141 55//156
f 82//119 128//159 127//157
f 86//158 129//213 128//159
f 90//127 130//161 129//160
f 94//131 131//162 130//161
f 66//98 70//103 125//155
f 98//135 132//152 131//162
f 55//163 42//185 134//164
f 133//166 143//170 142//167
f 124//169 145//176 143//170
f 125//171 126//175 136//172
f 127//174 137//178 136//172
f 55//163 144//165 145//176
f 128//177 138//180 137//178
f 129//179 139//182 138//180
f 129//179 130//183 140//181
f 130//183 131//186 141//184
f 42//185 125//171 135//173
f 131//186 132//168 142//167
f 62//93 105//140 147//187
f 69//104 65//100 148//189
f 73//109 69//104 149//190
f 101//136 157//193 147//192
f 97//128 156//195 157//193
f 97//128 93//124 155//194
f 93//124 89//120 154//196
f 85//116 153//198 154//197
f 81//112 152//199 153//198
f 77//108 151//200 152//199
f 73//109 150//191 151//200
f 146//188 148//189 65//100
f 146//188 147//187 158//201
f 149//190 148//189 160//2
f 150//191 149//190 161//50
f 157//193 169//19 158//21
f 156//195 168//16 169//19
f 156//195 155//194 167//13
f 155//194 154//196 166//202
f 153//198 165//10 166//12
f 152//199 164//8 165//10
f 151//200 163//6 164//8
f 150//191 162//4 163//6
f 159//3 160//2 148//189
usemtl Light
f 41//214 118//215 121//216
f 34//217 117//218 115//217
f 34//217 116//219 33//220
f 41//214 113//221 21//222
f 46//223 114//224 120//225
f 22//226 114//227 23//228
f 122//229 116//230 115//230
f 122//229 117//230 123//231
f 114//232 119//233 120//234
f 113//235 119//233 112//236
f 119//233 123//231 120//234
f 119//233 118//237 122//229
f 51//238 116//239 118//215
f 46//223 123//240 58//241
f 58//241 117//242 35//243
f 22//226 113//244 112//245
f 41//214 51//238 118//215
f 34//217 35//246 117//218
f 34//217 115//217 116//219
f 41//214 121//216 113//221
f 46//223 23//247 114//224
f 22//226 112//245 114//227
f 122//229 118//237 116//230
f 122//229 115//230 117//230
f 114//232 112//236 119//233
f 113//235 121//248 119//233
f 119//233 122//229 123//231
f 119//233 121//248 118//237
f 51//238 33//249 116//239
f 46//223 120//225 123//240
f 58//241 123//240 117//242
f 22//226 21//250 113//244
