# Blender v3.5.0 OBJ File: 'dayScene.blend'
# www.blender.org
mtllib Cylinder.060.mtl
o StreetLight.046_Cylinder.060
v -2251.680664 -0.492909 -1684.120483
v -2253.352295 -0.492910 -1677.881958
v -2257.919189 -0.492911 -1673.314941
v -2264.157715 -0.492911 -1671.643311
v -2270.396240 -0.492911 -1673.314941
v -2274.963135 -0.492910 -1677.881958
v -2276.634766 -0.492909 -1684.120483
v -2274.963135 -0.492908 -1690.359009
v -2270.396240 -0.492907 -1694.925903
v -2264.157715 -0.492907 -1696.597656
v -2257.919189 -0.492907 -1694.925903
v -2253.352295 -0.492908 -1690.359131
v -2258.489014 334.308563 -1747.187012
v -2257.612061 331.271851 -1748.356201
v -2260.885010 336.545288 -1746.328369
v -2264.157715 337.363953 -1746.014038
v -2267.430420 336.545288 -1746.328369
v -2269.826416 334.308563 -1747.187012
v -2270.703369 331.271851 -1748.356201
v -2269.826416 328.349182 -1749.502441
v -2268.354004 328.407166 -1749.899780
v -2264.157715 328.438080 -1750.043335
v -2259.961426 328.407166 -1749.899780
v -2258.489014 328.349182 -1749.502441
v -2258.489014 344.665527 -1797.414307
v -2257.612061 341.610077 -1798.587402
v -2260.885010 345.529266 -1791.008545
v -2264.157715 346.347900 -1790.694336
v -2267.430420 345.529266 -1791.008545
v -2269.826416 344.665527 -1797.414307
v -2270.703613 341.610077 -1798.587402
v -2269.826416 338.361389 -1799.799194
v -2268.354004 337.315094 -1794.595459
v -2264.157715 337.344055 -1794.739258
v -2259.961426 337.315094 -1794.595459
v -2258.489014 338.361389 -1799.799194
v -2253.284180 329.938446 -1757.909058
v -2251.602051 332.939545 -1756.747070
v -2253.284180 335.994965 -1755.573975
v -2257.879883 338.231689 -1754.715332
v -2272.206787 330.017548 -1758.302124
v -2256.771240 69.300018 -1679.733154
v -2275.031250 335.994965 -1755.573975
v -2276.713379 332.939545 -1756.747070
v -2264.157715 339.050323 -1754.401001
v -2256.108643 330.017548 -1758.302124
v -2275.031250 329.938446 -1757.909058
v -2270.435547 338.231689 -1754.715332
v -2253.031738 335.678833 -1786.457642
v -2253.031738 341.735321 -1784.122559
v -2272.393555 335.757843 -1786.850586
v -2275.283691 341.735321 -1784.122559
v -2251.310791 338.679901 -1785.295654
v -2257.734131 343.972015 -1783.263916
v -2255.627197 69.300018 -1683.776611
v -2277.004883 338.679901 -1785.295654
v -2264.157715 344.790649 -1782.949585
v -2255.921875 335.757843 -1786.850586
v -2275.283691 335.678833 -1786.457642
v -2270.581299 343.972015 -1783.263916
v -2257.247559 251.538513 -1682.879150
v -2257.592529 307.318115 -1704.972778
v -2257.415771 272.522980 -1686.183472
v -2257.541992 292.939697 -1694.270264
v -2258.471924 309.443909 -1702.715088
v -2258.177490 254.026505 -1680.224487
v -2258.428711 295.160004 -1691.911377
v -2258.321045 274.875824 -1683.679321
v -2260.874756 310.999725 -1701.052979
v -2260.706543 255.793732 -1678.282715
v -2260.850342 296.777588 -1690.179565
v -2260.788818 276.570770 -1681.844971
v -2264.157715 311.568329 -1700.441895
v -2264.157715 256.428802 -1677.571899
v -2264.157715 297.367462 -1689.544067
v -2264.157715 277.184967 -1681.172974
v -2267.440674 310.999695 -1701.052979
v -2267.608887 255.793732 -1678.282715
v -2267.465088 296.777527 -1690.179565
v -2267.526611 276.570740 -1681.844971
v -2269.843506 309.443909 -1702.715088
v -2270.137939 254.026505 -1680.224487
v -2269.886719 295.159973 -1691.911377
v -2269.994385 274.875824 -1683.679321
v -2270.722900 307.318115 -1704.972778
v -2271.067871 251.538559 -1682.879272
v -2270.773438 292.939728 -1694.270264
v -2270.899658 272.523071 -1686.183472
v -2269.843262 305.221588 -1707.223145
v -2270.146484 249.048279 -1685.541626
v -2269.887695 290.722565 -1696.626587
v -2269.998779 270.170044 -1688.690552
v -2267.440186 303.696411 -1708.870605
v -2267.616943 247.279266 -1687.497559
v -2267.466309 289.111908 -1698.352905
v -2267.530762 268.476318 -1690.529907
v -2264.157715 303.122681 -1709.474243
v -2264.157715 246.643921 -1688.215088
v -2264.157715 288.525482 -1698.985474
v -2264.157715 267.863037 -1691.204102
v -2260.875244 303.696411 -1708.870605
v -2260.698486 247.279236 -1687.497559
v -2260.849121 289.111908 -1698.353027
v -2260.784668 268.476318 -1690.529907
v -2258.472168 305.221649 -1707.223145
v -2258.168945 249.048279 -1685.541626
v -2258.427734 290.722565 -1696.626587
v -2258.316650 270.170044 -1688.690552
v -2264.157715 338.361389 -1799.799194
v -2264.157715 341.610077 -1798.587402
v -2264.157715 344.665527 -1797.414307
v -2264.157715 322.330719 -1753.557373
v -2268.069824 322.286743 -1753.426636
v -2260.245605 322.286682 -1753.426636
v -2264.157715 330.629120 -1793.812622
v -2268.069824 330.601288 -1793.678589
v -2260.245605 330.601257 -1793.678589
v -2271.835693 329.102631 -1786.467896
v -2264.157715 323.758118 -1761.405273
v -2256.653809 323.730225 -1761.271362
v -2271.661865 323.730225 -1761.271362
v -2264.157715 329.130493 -1786.601929
v -2256.479736 329.102631 -1786.467896
v -2256.769043 69.300018 -1687.822510
v -2259.893555 69.300018 -1676.773438
v -2264.157715 69.300018 -1675.690063
v -2268.421875 69.300018 -1676.773438
v -2271.544189 69.300018 -1679.733154
v -2272.688232 69.300018 -1683.776611
v -2271.546387 69.300018 -1687.822510
v -2268.424072 69.300018 -1690.786011
v -2264.157715 69.300018 -1691.871338
v -2259.891357 69.300018 -1690.786011
v -2254.425293 67.221085 -1678.449219
v -2258.539062 67.221069 -1674.542603
v -2264.157715 67.221069 -1673.112793
v -2269.776123 67.221069 -1674.542603
v -2273.890137 67.221085 -1678.449219
v -2275.397461 67.221085 -1683.786255
v -2273.893311 67.221069 -1689.126221
v -2269.779053 67.221085 -1693.037720
v -2264.157715 67.221085 -1694.469971
v -2258.536377 67.221085 -1693.037842
v -2252.917969 67.221085 -1683.786255
v -2254.422119 67.221069 -1689.126221
v -2257.602295 320.372833 -1720.843750
v -2258.480713 317.743042 -1722.273804
v -2258.480469 323.034088 -1719.409668
v -2260.879883 324.982025 -1718.355225
v -2264.157715 325.694550 -1717.967773
v -2267.435547 324.982025 -1718.355225
v -2269.834961 323.034088 -1719.409668
v -2270.713135 320.372833 -1720.843750
v -2269.834717 317.742950 -1722.273804
v -2267.904541 317.001709 -1723.300659
v -2264.157715 316.731659 -1723.676880
v -2260.410889 317.001709 -1723.300659
v -2258.486816 324.114441 -1737.480835
v -2257.609619 327.083984 -1736.675171
v -2258.486816 330.148865 -1735.866943
v -2260.883545 332.402954 -1735.274048
v -2264.157715 333.227875 -1735.056641
v -2267.431885 332.402954 -1735.274048
v -2269.828613 330.148865 -1735.866943
v -2270.705811 327.083984 -1736.675171
v -2269.828613 324.114410 -1737.480835
v -2268.242676 323.919617 -1738.037109
v -2264.157715 323.856140 -1738.240723
v -2260.072754 323.919617 -1738.037109
vn 0.9764 0.0226 0.2149
vn 0.8567 0.4787 0.1919
vn 1.0000 0.0013 0.0017
vn -0.0000 0.9262 0.3769
vn -0.4609 0.8367 0.2959
vn -0.4868 0.8096 0.3279
vn -0.8232 0.4612 0.3310
vn -0.8567 0.4787 0.1919
vn -0.9764 0.0225 0.2149
vn -1.0000 0.0013 0.0017
vn -0.9628 -0.2542 -0.0911
vn -0.9612 -0.2571 -0.1005
vn -0.1363 -0.9149 -0.3799
vn -0.0397 -0.9626 -0.2681
vn -0.0254 -0.9532 -0.3014
vn 0.0000 -0.9180 -0.3967
vn -0.0000 -0.9322 -0.3619
vn 0.0254 -0.9532 -0.3014
vn 0.1363 -0.9149 -0.3799
vn 0.0397 -0.9626 -0.2682
vn 0.2518 -0.8941 -0.3703
vn -0.0000 0.0303 -0.9995
vn -0.4986 0.0292 -0.8663
vn -0.4849 0.0276 -0.8741
vn 0.4839 0.0191 0.8749
vn 0.8654 0.0184 0.5007
vn 0.8558 0.0179 0.5170
vn 0.8797 -0.3665 -0.3030
vn 0.9057 -0.1273 -0.4043
vn 0.8788 -0.4068 -0.2496
vn -0.8648 0.0238 -0.5016
vn -0.8570 0.0223 -0.5148
vn -0.9998 0.0188 -0.0011
vn -0.9998 0.0189 0.0008
vn -0.8654 0.0184 0.5007
vn -0.8558 0.0179 0.5170
vn -0.4839 0.0191 0.8749
vn -0.4995 0.0208 0.8661
vn 0.4609 0.8367 0.2959
vn 0.0000 0.9608 0.2772
vn 0.8570 0.0223 -0.5148
vn 0.9998 0.0188 -0.0011
vn 0.8648 0.0238 -0.5016
vn -0.0000 0.0205 0.9998
vn 0.0000 0.0217 0.9998
vn 0.4995 0.0208 0.8661
vn 0.4849 0.0276 -0.8741
vn 0.4986 0.0292 -0.8663
vn 0.0000 0.0314 -0.9995
vn 0.4868 0.8096 0.3279
vn 0.8232 0.4612 0.3310
vn 0.4390 0.8925 0.1036
vn 0.2643 0.9644 -0.0027
vn 0.3090 0.9425 0.1278
vn -0.8636 0.4985 -0.0760
vn -0.8753 0.3938 -0.2806
vn -0.8540 0.5134 -0.0841
vn -0.0000 0.9840 0.1782
vn 0.0000 0.9999 -0.0103
vn -0.8797 -0.3666 -0.3030
vn -0.9057 -0.1273 -0.4043
vn -0.9138 -0.0998 -0.3938
vn -0.2643 0.9644 -0.0027
vn -0.3089 0.9425 0.1278
vn 0.0000 -0.9804 -0.1971
vn 0.8636 0.4984 -0.0761
vn 0.8753 0.3938 -0.2806
vn 0.8872 0.3637 -0.2841
vn -0.4390 0.8925 0.1036
vn -0.1693 0.9831 -0.0692
vn -0.3380 0.8983 0.2807
vn -0.4613 0.8419 0.2800
vn 0.0002 -0.9815 -0.1915
vn 0.7914 0.1715 0.5867
vn -0.0002 -0.9815 -0.1915
vn -0.0007 -0.9813 -0.1924
vn 0.0000 0.9765 0.2156
vn -0.7917 -0.4431 0.4205
vn -0.8407 -0.5157 0.1652
vn -0.8086 -0.4086 0.4234
vn -0.7914 0.1715 0.5867
vn -0.7775 0.1991 0.5965
vn 0.3380 0.8983 0.2807
vn 0.7917 -0.4431 0.4205
vn 0.8407 -0.5157 0.1652
vn 0.8311 -0.5304 0.1669
vn 0.8869 0.4512 0.0987
vn 0.8872 0.4507 0.0985
vn -0.8787 -0.4068 -0.2496
vn -0.8869 0.4512 0.0987
vn 0.4613 0.8419 0.2800
vn 0.9628 -0.2542 -0.0911
vn 0.9998 0.0153 0.0124
vn 0.8469 0.2624 0.4625
vn 0.9998 0.0105 0.0196
vn 0.8375 0.1474 0.5261
vn 0.9998 0.0036 0.0212
vn 0.8208 0.0482 0.5692
vn 0.9498 0.0215 0.3121
vn 0.8466 0.3710 0.3817
vn 0.4759 0.4406 0.7612
vn 0.4621 0.2499 0.8509
vn 0.4374 0.0855 0.8952
vn 0.4745 0.6141 0.6307
vn -0.0000 0.5036 0.8639
vn -0.0000 0.2858 0.9583
vn -0.0000 0.0983 0.9952
vn -0.4745 0.6141 0.6307
vn -0.0000 0.6979 0.7162
vn -0.4759 0.4406 0.7611
vn -0.4621 0.2499 0.8509
vn -0.8466 0.3710 0.3817
vn -0.8469 0.2624 0.4625
vn -0.8375 0.1474 0.5261
vn -0.4374 0.0855 0.8952
vn -0.9998 0.0153 0.0124
vn -0.9998 0.0105 0.0196
vn -0.9998 0.0036 0.0212
vn -0.8208 0.0482 0.5692
vn -0.8625 -0.3459 -0.3695
vn -0.8644 -0.2387 -0.4424
vn -0.8517 -0.1305 -0.5074
vn -0.9513 -0.0241 -0.3073
vn -0.4822 -0.5898 -0.6478
vn -0.4892 -0.4094 -0.7701
vn -0.4676 -0.2134 -0.8578
vn -0.8294 -0.0338 -0.5577
vn 0.0000 -0.6639 -0.7478
vn 0.0000 -0.4678 -0.8838
vn -0.0000 -0.2395 -0.9709
vn -0.4350 -0.0482 -0.8992
vn 0.4892 -0.4094 -0.7701
vn 0.4676 -0.2134 -0.8578
vn 0.4350 -0.0482 -0.8992
vn -0.0000 -0.0517 -0.9987
vn 0.4822 -0.5897 -0.6478
vn 0.8644 -0.2387 -0.4424
vn 0.8518 -0.1305 -0.5074
vn 0.8294 -0.0338 -0.5577
vn 0.8625 -0.3458 -0.3695
vn 0.9513 -0.0241 -0.3073
vn 0.9998 0.0189 0.0008
vn 0.0000 0.9860 -0.1665
vn 0.0000 0.3584 -0.9336
vn 0.0000 0.3540 -0.9353
vn 0.0000 0.3495 -0.9369
vn 0.8557 0.0075 0.5175
vn 0.9622 0.0072 0.2722
vn 0.4821 0.0189 -0.8759
vn 0.0000 0.0206 -0.9998
vn 0.8550 0.0142 -0.5184
vn 0.0000 0.0092 1.0000
vn 0.4822 0.0083 0.8760
vn 0.9622 0.0109 -0.2722
vn -0.4822 0.0083 0.8760
vn -0.9498 0.0215 0.3121
vn -0.8557 0.0075 0.5175
vn -0.9622 0.0109 -0.2722
vn -0.8550 0.0142 -0.5184
vn -0.4820 0.0189 -0.8759
vn 0.6086 0.7935 0.0006
vn 0.5271 0.7892 0.3150
vn 0.6087 0.7934 -0.0001
vn 0.2968 0.7840 -0.5452
vn 0.0000 0.7808 -0.6248
vn 0.0000 0.7809 -0.6246
vn 0.5225 0.7905 -0.3196
vn 0.3022 0.7840 -0.5422
vn 0.2975 0.7819 0.5479
vn 0.0000 0.7783 0.6279
vn 0.3036 0.7819 0.5446
vn -0.2975 0.7819 0.5479
vn 0.0000 0.7783 0.6278
vn 0.5257 0.7905 -0.3143
vn -0.5233 0.7892 0.3214
vn -0.3036 0.7819 0.5446
vn -0.6086 0.7935 0.0006
vn -0.5272 0.7892 0.3150
vn -0.5257 0.7905 -0.3143
vn -0.6087 0.7934 -0.0001
vn -0.5225 0.7905 -0.3196
vn -0.3023 0.7840 -0.5422
vn 0.5233 0.7892 0.3213
vn -0.2968 0.7840 -0.5452
vn 0.9596 -0.2402 -0.1468
vn 0.9997 0.0204 0.0132
vn 0.8401 0.4640 0.2810
vn 0.4660 0.7568 0.4584
vn 0.0000 0.8551 0.5185
vn 0.5316 -0.7076 -0.4655
vn 0.3296 -0.7931 -0.5122
vn -0.3296 -0.7931 -0.5122
vn -0.0000 -0.8268 -0.5625
vn -0.5316 -0.7076 -0.4655
vn -0.9596 -0.2402 -0.1468
vn -0.9997 0.0204 0.0132
vn -0.8401 0.4640 0.2810
vn -0.4660 0.7568 0.4584
vn 0.9612 -0.2571 -0.1005
vn -0.2518 -0.8942 -0.3703
vn 0.9138 -0.0997 -0.3938
vn 0.1693 0.9831 -0.0692
vn -0.8872 0.3636 -0.2841
vn 0.8541 0.5133 -0.0842
vn 0.0007 -0.9813 -0.1925
vn 0.7775 0.1992 0.5965
vn -0.8311 -0.5305 0.1669
vn 0.8086 -0.4086 0.4234
vn -0.8872 0.4507 0.0985
vn 0.0000 0.3539 -0.9353
vn -0.9622 0.0072 0.2722
vn -0.9611 -0.1821 0.2079
vn -0.9718 -0.0937 -0.2165
vn -0.9753 -0.1577 0.1550
vn -0.0000 -0.1367 -0.9906
vn 0.0329 -0.1366 -0.9901
vn -0.0330 -0.1366 -0.9901
vn -0.0331 -0.1366 -0.9901
vn -0.8971 -0.2506 0.3639
vn -0.8972 -0.2510 0.3633
vn 0.9611 -0.1821 0.2079
vn 0.8971 -0.2506 0.3639
vn 0.9752 -0.1578 0.1550
vn -0.0000 -0.4983 0.8670
vn -0.0341 -0.4982 0.8664
vn -0.0333 -0.4978 0.8666
vn -0.0000 -0.9786 -0.2060
vn -0.0000 -0.9791 -0.2035
vn 0.0001 -0.9784 -0.2065
vn -0.0030 -0.9837 -0.1799
vn -0.0000 -0.9809 -0.1947
vn -0.0001 -0.9804 -0.1968
vn 0.0030 -0.9837 -0.1799
vn -0.0000 -0.9839 -0.1789
vn -0.0001 -0.9784 -0.2065
vn -0.9535 -0.0967 -0.2853
vn -0.8733 -0.1014 -0.4764
vn 0.9718 -0.0937 -0.2165
vn 0.9535 -0.0967 -0.2853
vn 0.8733 -0.1014 -0.4764
vn 0.8735 -0.1020 -0.4761
vn 0.0341 -0.4982 0.8664
vn -0.0000 -0.4987 0.8668
vn 0.0330 -0.1366 -0.9901
vn 0.8972 -0.2510 0.3633
vn 0.0001 -0.9804 -0.1968
vn -0.8735 -0.1020 -0.4761
vn 0.0333 -0.4979 0.8666
usemtl Grey.003
s 1
f 14//1 160//2 159//3
f 162//4 17//5 163//6
f 163//6 18//7 164//8
f 164//8 19//9 165//10
f 165//10 20//11 166//12
f 167//13 20//14 21//15
f 168//16 21//15 22//17
f 168//16 23//18 169//19
f 169//19 24//20 158//21
f 142//22 9//23 141//24
f 135//25 2//26 134//27
f 49//28 26//29 53//30
f 141//24 8//31 140//32
f 140//32 7//33 139//34
f 139//34 6//35 138//36
f 137//37 6//35 5//38
f 162//4 15//39 16//40
f 145//41 1//42 12//43
f 136//44 5//38 4//45
f 136//44 3//46 135//25
f 143//47 12//43 11//48
f 142//22 11//48 10//49
f 161//50 13//51 15//39
f 50//52 27//53 54//54
f 52//55 31//56 56//57
f 57//58 27//53 28//59
f 59//60 31//61 32//62
f 57//58 29//63 60//64
f 49//65 35//65 36//65
f 50//66 26//67 25//68
f 59//65 33//65 51//65
f 52//69 29//63 30//70
f 18//7 48//71 43//72
f 20//14 41//73 21//15
f 14//1 39//74 13//51
f 24//20 46//75 37//76
f 17//5 45//77 48//71
f 19//78 47//79 20//80
f 15//39 45//77 16//40
f 19//9 43//81 44//82
f 13//51 40//83 15//39
f 14//84 37//85 38//86
f 43//72 60//64 52//69
f 41//73 59//65 51//65
f 38//87 50//66 39//88
f 46//75 49//65 37//76
f 48//71 57//58 60//64
f 47//79 56//89 59//60
f 40//83 57//58 45//77
f 44//90 52//55 56//57
f 39//91 54//54 40//83
f 37//85 53//30 38//86
f 159//3 24//92 14//1
f 62//93 67//94 64//95
f 64//95 68//96 63//97
f 63//97 66//98 61//99
f 65//100 71//101 67//94
f 67//94 72//102 68//96
f 68//96 70//103 66//98
f 69//104 75//105 71//101
f 71//101 76//106 72//102
f 72//102 74//107 70//103
f 77//108 75//105 73//109
f 79//110 76//106 75//105
f 80//111 74//107 76//106
f 81//112 79//110 77//108
f 83//113 80//111 79//110
f 84//114 78//115 80//111
f 85//116 83//113 81//112
f 87//117 84//114 83//113
f 88//118 82//119 84//114
f 89//120 87//117 85//116
f 91//121 88//118 87//117
f 92//122 86//123 88//118
f 93//124 91//121 89//120
f 95//125 92//122 91//121
f 96//126 90//127 92//122
f 97//128 95//125 93//124
f 99//129 96//126 95//125
f 100//130 94//131 96//126
f 97//128 103//132 99//129
f 99//129 104//133 100//130
f 100//130 102//134 98//135
f 101//136 107//137 103//132
f 103//132 108//138 104//133
f 104//133 106//139 102//134
f 105//140 64//95 107//137
f 107//137 63//97 108//138
f 108//138 61//141 106//139
f 144//142 2//26 1//42
f 27//53 111//143 28//59
f 25//144 110//145 111//144
f 32//146 110//145 109//146
f 33//65 109//65 34//65
f 110//145 36//146 109//146
f 109//65 35//65 34//65
f 111//143 29//63 28//59
f 110//145 30//144 111//144
f 61//99 42//147 55//148
f 98//135 133//149 132//150
f 102//134 124//151 133//149
f 70//103 126//152 125//153
f 78//115 126//152 74//107
f 106//139 55//154 124//151
f 82//119 127//155 78//115
f 86//156 128//157 82//119
f 90//127 129//158 86//123
f 94//131 130//159 90//127
f 66//98 125//153 42//147
f 98//135 131//160 94//131
f 55//161 134//162 144//163
f 133//164 142//165 132//166
f 124//167 143//168 133//164
f 125//169 136//170 135//171
f 127//172 136//170 126//173
f 55//161 145//174 124//167
f 128//175 137//176 127//172
f 129//177 138//178 128//175
f 129//177 140//179 139//180
f 130//181 141//182 140//179
f 42//183 135//171 134//162
f 131//184 142//165 141//182
f 62//93 147//185 146//186
f 69//104 148//187 149//188
f 73//109 149//188 150//189
f 101//136 147//190 105//140
f 97//128 157//191 101//136
f 97//128 155//192 156//193
f 93//124 154//194 155//192
f 85//116 154//195 89//120
f 81//112 153//196 85//116
f 77//108 152//197 81//112
f 73//109 151//198 77//108
f 146//186 65//100 62//93
f 146//186 158//199 159//3
f 149//188 160//2 161//50
f 150//189 161//50 162//4
f 157//191 158//21 147//190
f 156//193 169//19 157//191
f 156//193 167//13 168//16
f 155//192 166//200 167//13
f 153//196 166//12 154//195
f 152//197 165//10 153//196
f 151//198 164//8 152//197
f 150//189 163//6 151//198
f 159//3 148//187 146//186
f 14//1 13//51 160//2
f 162//4 16//40 17//5
f 163//6 17//5 18//7
f 164//8 18//7 19//9
f 165//10 19//9 20//11
f 167//13 166//200 20//14
f 168//16 167//13 21//15
f 168//16 22//17 23//18
f 169//19 23//18 24//20
f 142//22 10//49 9//23
f 135//25 3//46 2//26
f 49//28 36//201 26//29
f 141//24 9//23 8//31
f 140//32 8//31 7//33
f 139//34 7//33 6//35
f 137//37 138//36 6//35
f 162//4 161//50 15//39
f 145//41 144//142 1//42
f 136//44 137//37 5//38
f 136//44 4//45 3//46
f 143//47 145//41 12//43
f 142//22 143//47 11//48
f 161//50 160//2 13//51
f 50//52 25//202 27//53
f 52//55 30//203 31//56
f 57//58 54//54 27//53
f 59//60 56//89 31//61
f 57//58 28//59 29//63
f 49//65 58//65 35//65
f 50//66 53//204 26//67
f 59//65 32//65 33//65
f 52//69 60//64 29//63
f 18//7 17//5 48//71
f 20//14 47//205 41//73
f 14//1 38//206 39//74
f 24//20 23//18 46//75
f 17//5 16//40 45//77
f 19//78 44//207 47//79
f 15//39 40//83 45//77
f 19//9 18//7 43//81
f 13//51 39//91 40//83
f 14//84 24//208 37//85
f 43//72 48//71 60//64
f 41//73 47//205 59//65
f 38//87 53//204 50//66
f 46//75 58//65 49//65
f 48//71 45//77 57//58
f 47//79 44//207 56//89
f 40//83 54//54 57//58
f 44//90 43//209 52//55
f 39//91 50//52 54//54
f 37//85 49//28 53//30
f 159//3 158//199 24//92
f 62//93 65//100 67//94
f 64//95 67//94 68//96
f 63//97 68//96 66//98
f 65//100 69//104 71//101
f 67//94 71//101 72//102
f 68//96 72//102 70//103
f 69//104 73//109 75//105
f 71//101 75//105 76//106
f 72//102 76//106 74//107
f 77//108 79//110 75//105
f 79//110 80//111 76//106
f 80//111 78//115 74//107
f 81//112 83//113 79//110
f 83//113 84//114 80//111
f 84//114 82//119 78//115
f 85//116 87//117 83//113
f 87//117 88//118 84//114
f 88//118 86//156 82//119
f 89//120 91//121 87//117
f 91//121 92//122 88//118
f 92//122 90//127 86//123
f 93//124 95//125 91//121
f 95//125 96//126 92//122
f 96//126 94//131 90//127
f 97//128 99//129 95//125
f 99//129 100//130 96//126
f 100//130 98//135 94//131
f 97//128 101//136 103//132
f 99//129 103//132 104//133
f 100//130 104//133 102//134
f 101//136 105//140 107//137
f 103//132 107//137 108//138
f 104//133 108//138 106//139
f 105//140 62//93 64//95
f 107//137 64//95 63//97
f 108//138 63//97 61//141
f 144//142 134//27 2//26
f 27//53 25//202 111//143
f 25//144 26//210 110//145
f 32//146 31//210 110//145
f 33//65 32//65 109//65
f 110//145 26//210 36//146
f 109//65 36//65 35//65
f 111//143 30//70 29//63
f 110//145 31//210 30//144
f 61//99 66//98 42//147
f 98//135 102//134 133//149
f 102//134 106//139 124//151
f 70//103 74//107 126//152
f 78//115 127//155 126//152
f 106//139 61//141 55//154
f 82//119 128//157 127//155
f 86//156 129//211 128//157
f 90//127 130//159 129//158
f 94//131 131//160 130//159
f 66//98 70//103 125//153
f 98//135 132//150 131//160
f 55//161 42//183 134//162
f 133//164 143//168 142//165
f 124//167 145//174 143//168
f 125//169 126//173 136//170
f 127//172 137//176 136//170
f 55//161 144//163 145//174
f 128//175 138//178 137//176
f 129//177 139//180 138//178
f 129//177 130//181 140//179
f 130//181 131//184 141//182
f 42//183 125//169 135//171
f 131//184 132//166 142//165
f 62//93 105//140 147//185
f 69//104 65//100 148//187
f 73//109 69//104 149//188
f 101//136 157//191 147//190
f 97//128 156//193 157//191
f 97//128 93//124 155//192
f 93//124 89//120 154//194
f 85//116 153//196 154//195
f 81//112 152//197 153//196
f 77//108 151//198 152//197
f 73//109 150//189 151//198
f 146//186 148//187 65//100
f 146//186 147//185 158//199
f 149//188 148//187 160//2
f 150//189 149//188 161//50
f 157//191 169//19 158//21
f 156//193 168//16 169//19
f 156//193 155//192 167//13
f 155//192 154//194 166//200
f 153//196 165//10 166//12
f 152//197 164//8 165//10
f 151//198 163//6 164//8
f 150//189 162//4 163//6
f 159//3 160//2 148//187
usemtl Light
f 41//212 118//213 121//214
f 34//215 117//216 115//215
f 34//215 116//217 33//218
f 41//212 113//219 21//220
f 46//221 114//222 120//223
f 22//224 114//225 23//226
f 122//227 116//228 115//228
f 122//227 117//228 123//229
f 114//230 119//231 120//232
f 113//233 119//231 112//234
f 119//231 123//229 120//232
f 119//231 118//235 122//227
f 51//236 116//237 118//213
f 46//221 123//238 58//239
f 58//239 117//240 35//241
f 22//224 113//242 112//243
f 41//212 51//236 118//213
f 34//215 35//244 117//216
f 34//215 115//215 116//217
f 41//212 121//214 113//219
f 46//221 23//245 114//222
f 22//224 112//243 114//225
f 122//227 118//235 116//228
f 122//227 115//228 117//228
f 114//230 112//234 119//231
f 113//233 121//246 119//231
f 119//231 122//227 123//229
f 119//231 121//246 118//235
f 51//236 33//247 116//237
f 46//221 120//223 123//238
f 58//239 123//238 117//240
f 22//224 21//248 113//242
