# Blender v3.5.0 OBJ File: 'dayScene.blend'
# www.blender.org
mtllib model.005.mtl
o Bench.004_model.005
v -9.074177 -122.258003 18.999338
v 7.725828 -122.258003 18.999338
v -9.074170 -122.258003 14.199344
v -10.534150 118.266075 18.374319
v -10.534150 118.266121 13.574323
v 8.181202 121.774406 13.899852
v 8.181194 121.774406 18.699848
v 7.213191 -121.337982 13.910894
v -25.683767 -121.835793 19.170654
v -11.283761 -121.835793 19.170654
v -11.523542 -121.167725 15.130035
v -25.923552 -121.167725 15.130035
v -25.572577 121.153610 19.008549
v -25.572577 121.153610 14.208554
v -12.889531 119.526321 14.138546
v -12.889539 119.526321 18.938541
v -44.533394 -119.593773 19.566133
v -27.733393 -119.593735 19.566133
v -43.985062 -119.337593 16.620913
v -44.434990 118.611862 18.818722
v -44.434990 118.611893 14.018726
v -27.140785 120.264572 15.973890
v -27.689112 120.008385 18.919117
v -28.550112 -121.925255 15.282869
v 11.897606 -120.864487 12.003766
v 11.897614 -120.864487 -2.396221
v 7.097604 -120.864487 12.003766
v 12.643512 119.607742 12.441588
v 7.843517 119.607742 12.441588
v 12.474110 119.347229 -2.820569
v 7.768085 -119.761002 -1.084986
v 8.209699 118.064156 -0.948315
v -36.426815 110.972824 24.892872
v -38.337841 110.773460 17.651367
v -40.575600 111.756500 27.943537
v 3.589711 108.727425 25.239431
v 3.589704 115.543427 25.239431
v 5.485390 115.372452 28.132393
v 5.543734 108.674713 18.531389
v -36.426815 117.788788 24.892872
v -38.337814 117.589455 17.651367
v 5.543726 115.490677 18.531389
v 12.663689 115.970589 27.765600
v 13.162809 108.641113 27.848303
v 4.885790 107.589569 28.224983
v 4.664091 114.686150 63.208202
v 11.883718 115.856758 63.275185
v 11.646317 108.121925 63.745201
v 4.418913 108.035583 63.602280
v -46.077576 117.949043 23.653393
v -39.629425 118.438019 28.013206
v -46.257721 111.718697 23.618145
v -45.578735 112.076851 63.451965
v -45.288120 118.874786 63.259056
v -38.109264 118.276375 63.615768
v -38.399902 111.478371 63.808659
v 12.475418 -119.951309 -4.659691
v 12.475426 -119.951309 -16.659679
v 7.675416 -119.951309 -16.659679
v 12.474125 119.347198 -5.220538
v 7.674123 119.347198 -5.220538
v 7.674151 119.347275 -17.220554
v 12.485440 119.406433 -16.888332
v 7.834260 -119.325935 -5.510587
v 13.824535 -118.862167 -17.611115
v 14.770639 -118.917046 -27.164305
v 9.047928 -118.888962 -18.084095
v 13.361814 119.336395 -19.124165
v 9.531355 119.254875 -29.150328
v 14.307955 119.281631 -28.677361
v 9.809319 -117.682976 -27.598391
v 8.898710 118.187553 -19.556065
v 15.369567 -119.251503 -28.241520
v 17.828293 -119.352760 -37.521027
v 10.729687 -119.242172 -29.470968
v 15.593842 119.853050 -29.503199
v 10.953978 119.862427 -30.732647
v 18.052610 119.751968 -38.782730
v 13.269417 -118.654083 -38.507111
v 13.321737 118.636879 -39.394485
v -40.375198 -115.531502 25.188839
v -42.286201 -115.730835 17.947340
v -44.523983 -114.747795 28.239504
v -1.210277 -115.409187 25.239431
v -1.210291 -108.593185 25.239431
v 0.685394 -108.764175 28.132393
v 0.743744 -115.461945 18.531389
v -40.375198 -108.715500 25.188839
v -42.286201 -108.914864 17.947340
v 0.743730 -108.645950 18.531389
v 7.863700 -108.166069 27.765623
v 8.362820 -115.495552 27.848303
v 0.085795 -116.547043 28.224983
v -0.135906 -109.450508 63.208252
v 7.083720 -108.279900 63.275185
v 6.846322 -116.014717 63.745224
v -0.381081 -116.101120 63.602306
v -50.025959 -108.555267 23.949366
v -43.577785 -108.066277 28.309200
v -50.206104 -114.785591 23.914118
v -49.527122 -114.427475 63.747932
v -49.236504 -107.629547 63.555000
v -42.057648 -108.227959 63.911713
v -42.348289 -115.025932 64.104622
v 12.594725 116.075005 -24.910273
v 16.450554 117.588539 -35.827847
v 21.246742 117.857094 -35.799435
v 17.390915 116.343529 -24.881880
v 12.784187 109.264877 -24.971928
v 17.580379 109.533424 -24.943512
v 21.436207 111.046951 -35.861088
v 16.640015 110.778397 -35.889481
v 18.528328 115.817642 -15.841429
v 13.738138 115.653069 -15.557386
v 21.121597 110.126656 -46.510151
v 21.080896 116.942383 -46.528442
v 18.640766 109.004066 -15.903425
v 13.850577 108.839485 -15.619411
v 17.034552 115.288200 1.939230
v 12.389102 115.434647 3.143119
v 16.983948 108.479507 2.154551
v 12.338498 108.625877 3.358354
v 14.057930 114.663345 17.021914
v 7.989785 108.623528 18.434372
v 8.291818 115.418152 18.204176
v 12.183645 114.601051 18.712523
v 7.579565 114.888412 20.054655
v 13.755891 107.868752 17.252199
v 12.059484 107.800316 19.008465
v 7.455381 108.087608 20.350628
v 25.721642 110.189430 -45.139847
v 25.680935 117.005150 -45.158112
v 13.143353 -107.975212 -32.099041
v 14.584100 -107.707588 -37.191456
v 19.381247 -107.520897 -37.091255
v 17.940502 -107.788498 -31.998814
v 13.274702 -114.788658 -32.091381
v 18.071852 -114.601944 -31.991137
v 19.512596 -114.334305 -37.083553
v 14.715449 -114.520988 -37.183800
v 15.987439 -108.679901 -19.801512
v 17.536854 -115.261253 -45.860161
v 17.531925 -108.445892 -45.925968
v 16.462820 -115.458443 -19.638807
v 11.686728 -116.130356 -19.567766
v 11.211355 -109.351807 -19.730473
v 15.483936 -108.976456 -5.884980
v 15.462229 -115.778038 -5.574017
v 10.933606 -115.602661 -3.987694
v 10.955336 -108.801041 -4.298659
v 13.378788 -109.630280 14.356699
v 13.528234 -116.441467 14.256164
v 9.724366 -116.751534 11.928290
v 9.574935 -109.940346 12.028829
v 7.064294 -109.155136 22.041351
v 6.999777 -115.970039 22.097540
v 2.217922 -115.871895 22.508867
v 2.282467 -109.056992 22.452650
v 22.211874 -115.233238 -44.772144
v 22.206953 -108.417885 -44.837978
v 17.821505 -120.619110 -38.203991
v 20.483551 -119.544090 -47.294712
v 13.304787 -120.539185 -39.827618
v 19.661642 118.477821 -38.482750
v 14.576925 119.821350 -39.904633
v 22.908575 118.408463 -47.516903
v 15.996267 -118.882927 -48.523846
v 17.780876 120.645546 -48.354504
vn 0.0000 -1.0000 -0.0000
vn -0.1842 0.9829 0.0000
vn 0.0000 0.0012 1.0000
vn -0.0177 0.0000 -0.9998
vn -1.0000 -0.0061 -0.0000
vn 1.0000 -0.0019 0.0000
vn -0.0179 0.0025 0.9998
vn 0.0179 -0.0025 -0.9998
vn 0.0522 -0.9818 -0.1828
vn 0.9949 -0.0040 -0.1009
vn 0.0000 -0.9866 -0.1631
vn 0.1273 0.9919 0.0000
vn 0.0027 0.0022 1.0000
vn 0.0030 0.0007 1.0000
vn -0.0032 -0.0042 -1.0000
vn -0.0056 -0.0010 -1.0000
vn -1.0000 0.0005 0.0000
vn 0.9995 0.0062 -0.0312
vn 0.9992 0.0208 -0.0353
vn 0.9995 0.0070 -0.0318
vn -0.9982 0.0017 0.0595
vn 0.0000 -0.9962 -0.0867
vn -0.1017 0.9948 -0.0043
vn -0.0842 0.9963 -0.0190
vn -0.0861 0.9961 -0.0185
vn -0.0031 0.0034 1.0000
vn -0.0025 0.0051 1.0000
vn -0.0031 0.0035 1.0000
vn 0.1133 -0.0107 -0.9935
vn -1.0000 0.0004 0.0000
vn 0.9831 0.0003 0.1831
vn -0.1025 -0.8653 0.4906
vn -0.0858 0.0033 -0.9963
vn 0.9828 -0.0052 -0.1846
vn -0.9830 -0.0039 -0.1834
vn 0.0000 0.9999 -0.0171
vn 1.0000 -0.0003 -0.0050
vn 1.0000 -0.0029 -0.0053
vn -0.9987 0.0032 -0.0509
vn 0.0000 -0.0018 1.0000
vn -0.3029 -0.0010 -0.9530
vn -0.3329 0.9357 -0.1170
vn -0.9996 0.0019 -0.0276
vn -0.4023 0.0013 -0.9155
vn -0.2850 -0.9538 -0.0950
vn 0.0029 1.0000 0.0013
vn 0.0046 1.0000 0.0037
vn 0.0044 1.0000 0.0033
vn 1.0000 0.0000 0.0003
vn 1.0000 0.0002 0.0003
vn -1.0000 -0.0002 0.0074
vn -1.0000 -0.0038 0.0067
vn -1.0000 -0.0002 0.0073
vn 0.0000 0.0023 1.0000
vn 0.0000 -0.0023 -1.0000
vn 0.0689 -0.0010 -0.9976
vn -0.1437 -0.9880 0.0575
vn -0.1805 -0.0013 0.9836
vn 0.0050 -1.0000 0.0062
vn -0.0050 1.0000 -0.0062
vn 0.9951 0.0026 0.0985
vn -0.9968 -0.0017 -0.0800
vn -0.0982 0.0061 0.9951
vn -0.0979 0.0065 0.9952
vn 0.0923 -0.0064 -0.9957
vn 0.0913 -0.0026 -0.9958
vn 0.0922 -0.0061 -0.9957
vn -0.2564 0.9623 0.0901
vn -0.9978 -0.0010 -0.0659
vn -0.2274 -0.9636 -0.1403
vn -0.0046 -0.9999 0.0097
vn 0.0046 0.9999 -0.0097
vn 0.9666 0.0004 0.2561
vn -0.9637 -0.0008 -0.2670
vn -0.9645 0.0030 -0.2642
vn -0.2561 0.0053 0.9666
vn 0.2106 -0.0054 -0.9776
vn -0.2017 0.9606 -0.1911
vn 0.1291 -0.0037 -0.9916
vn -0.1294 -0.9865 -0.1006
vn 0.0223 -0.9936 -0.1110
vn 0.2346 0.9691 0.0769
vn 0.9410 -0.0068 0.3383
vn -0.9557 0.0073 -0.2944
vn -0.3382 0.0037 0.9411
vn 0.2637 -0.0036 -0.9646
vn 0.3587 0.9061 0.2244
vn 0.1610 -0.0005 -0.9870
vn -0.0854 -0.9736 -0.2119
vn 0.9600 -0.0095 0.2800
vn -0.9352 0.0048 -0.3541
vn -0.2689 0.0017 0.9632
vn 0.0086 0.0003 1.0000
vn 0.0061 0.0036 1.0000
vn 0.0026 -0.0029 -1.0000
vn 0.0028 -0.0043 -1.0000
vn 0.9995 0.0326 0.0004
vn 0.9996 0.0065 0.0264
vn 0.9996 0.0062 0.0269
vn -0.1045 0.9934 0.0482
vn -0.1056 0.9932 0.0488
vn -0.1141 0.9921 0.0522
vn -0.0064 0.0059 1.0000
vn -0.0094 0.0029 1.0000
vn -0.0094 0.0028 1.0000
vn 0.9999 -0.0038 -0.0164
vn 0.9999 -0.0036 -0.0164
vn 0.9999 0.0022 -0.0120
vn -0.0076 1.0000 -0.0007
vn -0.0079 1.0000 -0.0018
vn -0.0109 0.9999 -0.0045
vn 1.0000 0.0003 0.0010
vn 1.0000 -0.0000 0.0013
vn -0.9999 -0.0073 0.0153
vn -0.9998 0.0006 0.0216
vn -0.9998 0.0008 0.0216
vn -0.0989 0.0063 0.9951
vn -0.0989 0.0061 0.9951
vn 0.0987 0.0003 -0.9951
vn 0.1051 -0.0062 -0.9944
vn 0.1052 -0.0063 -0.9944
vn -0.9618 0.0008 -0.2737
vn -0.9617 -0.0010 -0.2740
vn -0.1396 -0.9881 0.0640
vn -0.8364 -0.0000 0.5481
vn -0.0559 -0.9984 -0.0085
vn 0.0517 0.9986 -0.0068
vn 0.0716 0.9974 0.0062
vn 0.0535 0.9985 -0.0074
vn -0.0087 -0.0000 1.0000
vn 0.0201 -0.0000 -0.9998
vn -0.0830 0.9928 0.0868
vn -0.0549 0.9919 0.1147
vn -0.0707 0.9938 0.0862
vn 0.7741 0.0000 -0.6330
vn -0.0103 -0.9999 0.0048
vn -0.9968 0.0765 -0.0218
vn -0.9040 0.0747 0.4209
vn 0.0984 -0.9149 -0.3914
vn 0.7899 0.0469 -0.6115
vn -0.0830 0.9966 0.0014
vn 0.9967 0.0684 0.0431
vn 0.1256 -0.9920 -0.0090
vn -0.0205 0.0599 0.9980
vn -0.9993 0.0360 -0.0136
vn 0.0117 -0.9999 0.0128
vn -0.1602 0.9870 0.0156
vn 0.9993 -0.0293 0.0219
vn -0.6128 0.0000 -0.7902
vn 0.1383 0.9883 -0.0637
vn 0.6978 0.0000 0.7162
vn -0.0002 -1.0000 0.0090
vn 0.5788 -0.0904 0.8104
vn -0.5999 0.0219 -0.7998
vn -0.0188 0.9963 -0.0839
vn -0.9994 0.0288 0.0192
vn -0.0810 0.9967 0.0080
vn 0.9893 -0.1396 -0.0429
vn -0.0471 0.0303 0.9984
vn -0.0829 -0.9966 -0.0027
vn 0.9972 -0.0444 -0.0608
vn -0.9989 0.0432 0.0166
vn 0.0843 0.9961 -0.0250
vn -0.0564 -0.9950 0.0828
vn -0.0192 0.0612 0.9979
vn -0.0485 -0.9980 0.0403
vn 0.0027 -0.9998 0.0201
vn -0.0035 -0.9997 0.0258
vn 0.0020 -0.9998 0.0202
vn -0.0087 0.9996 -0.0275
vn -0.0034 0.9995 -0.0324
vn -0.0040 0.9995 -0.0322
vn -0.0013 0.0000 1.0000
vn 0.0136 0.0000 -0.9999
vn -0.0549 0.9919 0.1148
vn -0.0204 0.0599 0.9980
vn 0.6979 0.0000 0.7162
vn -0.0562 0.9915 0.1176
vn 0.0562 -0.9915 -0.1176
vn -0.9417 -0.0232 -0.3358
vn 0.9417 0.0232 0.3358
vn -0.0612 0.9963 0.0612
vn -0.0659 0.9963 0.0560
vn -0.0651 0.9962 0.0577
vn -0.9224 -0.0261 -0.3853
vn -0.9183 -0.0341 -0.3944
vn -0.9198 -0.0330 -0.3911
vn 0.9927 0.0340 -0.1158
vn 0.9920 0.0374 -0.1203
vn 0.9923 0.0366 -0.1185
vn 0.0393 -0.9975 -0.0580
vn 0.0401 -0.9973 -0.0610
vn 0.0395 -0.9975 -0.0585
vn -0.9928 -0.0252 0.1168
vn -0.9931 -0.0261 0.1143
vn -0.9929 -0.0254 0.1162
vn 0.0110 0.9998 0.0190
vn 0.0112 0.9999 0.0087
vn 0.0114 0.9998 0.0187
vn 0.9952 0.0261 0.0946
vn 0.9957 0.0301 0.0873
vn 0.9956 0.0301 0.0883
vn 0.0468 -0.9989 -0.0044
vn 0.0576 -0.9981 -0.0194
vn 0.0577 -0.9982 -0.0178
vn -0.9971 -0.0100 -0.0757
vn -0.9967 -0.0104 -0.0809
vn -0.9971 -0.0098 -0.0759
vn 0.0444 0.9978 0.0501
vn 0.9811 -0.0012 0.1936
vn -0.0341 -0.9994 -0.0100
vn -0.9629 0.0086 -0.2696
vn -0.9606 0.0074 -0.2778
vn -0.9628 0.0090 -0.2700
vn 0.1152 0.9387 0.3250
vn 0.1684 0.9415 0.2918
vn 0.1593 0.9442 0.2884
vn 0.1375 0.9898 0.0385
vn -0.1437 -0.9871 -0.0707
vn 0.6977 -0.0208 0.7161
vn 0.6838 -0.0412 0.7285
vn 0.6954 -0.0242 0.7182
vn -0.1792 -0.9518 -0.2490
vn -0.2148 -0.9519 -0.2184
vn -0.1884 -0.9513 -0.2438
vn -0.9569 -0.0351 -0.2882
vn -0.9523 0.0332 -0.3033
vn -0.9506 0.0263 -0.3094
vn 0.2818 0.0366 0.9588
vn 0.9775 -0.0364 0.2075
vn 0.0548 -0.9916 0.1170
vn 0.9045 0.0141 0.4263
vn 0.9106 0.0158 0.4130
vn 0.9062 0.0170 0.4226
vn -0.0098 0.9969 -0.0777
vn 0.0107 0.9941 -0.1078
vn -0.0116 0.9963 -0.0848
vn 0.2855 -0.0009 -0.9584
vn -0.0041 -0.9982 0.0595
vn -0.0397 0.9984 0.0412
vn 0.0397 -0.9984 -0.0412
vn -0.9618 -0.0188 -0.2731
vn 0.9618 0.0188 0.2731
vn -0.0402 0.9970 0.0664
vn -0.9513 -0.0231 -0.3073
vn -0.9482 -0.0308 -0.3163
vn -0.9495 -0.0292 -0.3123
vn 0.9913 0.0193 0.1305
vn 0.0408 -0.9940 -0.1013
vn -0.9916 -0.0193 -0.1278
vn -0.1391 0.9902 0.0161
vn -0.1375 0.9866 0.0883
vn -0.9841 -0.0729 -0.1618
vn 0.9839 0.0729 0.1629
vn 0.1384 -0.9891 -0.0506
vn 0.9948 0.0715 0.0724
vn 0.1398 -0.9894 0.0403
vn -0.9964 -0.0710 -0.0458
vn 0.0518 0.9979 0.0376
vn 0.0264 0.9990 -0.0352
vn -0.9999 0.0024 -0.0167
vn 0.9993 -0.0015 0.0361
vn -0.0478 -0.9985 -0.0261
vn 0.9960 -0.0019 0.0898
vn 0.9946 -0.0126 0.1026
vn 0.9949 -0.0120 0.0997
vn -0.0654 -0.9949 -0.0768
vn -0.9964 -0.0083 -0.0845
vn -0.9978 -0.0130 -0.0651
vn -0.9967 -0.0065 -0.0808
vn -0.0289 0.9959 -0.0854
vn -0.1171 0.9914 0.0593
vn 0.0958 -0.9951 -0.0240
vn 0.7704 0.0044 0.6375
vn 0.7718 0.0051 0.6358
vn 0.7707 0.0046 0.6372
vn 0.0213 -0.9950 0.0978
vn -0.8201 -0.0156 -0.5720
vn -0.8174 -0.0187 -0.5758
vn -0.8181 -0.0183 -0.5748
vn 0.0858 0.0074 0.9963
vn 0.0140 0.9971 -0.0747
vn -0.0165 -0.9988 0.0463
vn 0.0378 -0.9917 0.1229
vn 0.0600 -0.9923 0.1087
vn 0.0550 -0.9919 0.1148
vn 0.9404 0.0099 0.3401
vn 0.9450 0.0145 0.3267
vn 0.9419 0.0143 0.3357
vn 0.0035 0.9953 -0.0970
vn 0.0099 0.9921 -0.1249
vn -0.0000 0.9946 -0.1041
vn 0.2267 -0.0092 -0.9739
vn 0.0512 0.9971 -0.0559
vn 0.0461 0.9974 -0.0561
vn 0.0460 0.9974 -0.0559
vn -0.0340 0.9985 -0.0418
vn -0.0351 0.9985 -0.0427
vn -0.0354 0.9985 -0.0419
vn 0.0026 -1.0000 0.0040
vn 0.0051 -1.0000 0.0031
vn 0.0053 -1.0000 0.0031
vn -0.0068 0.9999 -0.0153
vn -0.0070 0.9999 -0.0152
vn -0.0091 0.9999 -0.0144
vn -0.0408 0.9971 0.0650
vn -0.0396 0.9969 0.0677
vn -0.0327 0.9968 0.0723
vn -0.9227 -0.0183 -0.3852
vn -0.9233 -0.0176 -0.3836
vn -0.9251 -0.0142 -0.3795
vn 0.9931 0.0264 -0.1140
vn 0.9935 0.0254 -0.1110
vn 0.9940 0.0209 -0.1071
vn 0.0638 -0.9963 -0.0575
vn 0.0650 -0.9967 -0.0482
vn 0.0631 -0.9970 -0.0451
vn -0.9925 -0.0368 0.1163
vn -0.9916 -0.0367 0.1237
vn -0.9913 -0.0340 0.1270
vn -0.0370 0.9993 0.0027
vn -0.0564 0.9979 0.0315
vn -0.0557 0.9978 0.0359
vn 0.9957 0.0103 0.0922
vn 0.9954 0.0099 0.0955
vn 0.9944 -0.0005 0.1054
vn -0.0097 -0.9999 -0.0100
vn -0.0102 -0.9999 -0.0059
vn -0.0321 -0.9994 0.0115
vn -0.9961 -0.0243 -0.0848
vn -0.9972 -0.0305 -0.0684
vn -0.9975 -0.0293 -0.0649
vn -0.9595 -0.0182 -0.2813
vn -0.9665 -0.0255 -0.2554
vn -0.9684 -0.0225 -0.2483
vn 0.1819 0.9650 0.1892
vn 0.1781 0.9660 0.1874
vn 0.1585 0.9687 0.1911
vn 0.7242 -0.0237 0.6892
vn 0.7428 -0.0029 0.6695
vn 0.7459 0.0045 0.6660
vn -0.1997 -0.9326 -0.3007
vn -0.1689 -0.9225 -0.3470
vn -0.1592 -0.9222 -0.3525
vn -0.9193 0.0497 -0.3905
vn -0.9182 0.0487 -0.3930
vn -0.9182 0.0292 -0.3950
vn 0.9034 0.0324 0.4276
vn 0.9022 0.0318 0.4301
vn 0.9020 0.0315 0.4306
vn -0.0770 0.9929 -0.0906
vn -0.0785 0.9934 -0.0835
vn -0.0780 0.9935 -0.0835
vn 0.9618 0.0189 0.2731
vn -0.9522 -0.0154 -0.3052
vn -0.9529 -0.0142 -0.3029
vn -0.9541 -0.0106 -0.2992
vn 0.9955 0.0065 0.0949
vn 0.9955 0.0068 0.0942
vn 0.9961 0.0103 0.0878
vn -0.9965 0.0137 -0.0828
vn -0.9961 0.0136 -0.0875
vn -0.9961 0.0133 -0.0877
vn 0.7708 0.0139 0.6369
vn 0.7668 0.0141 0.6417
vn 0.7651 0.0121 0.6438
vn -0.8199 -0.0066 -0.5725
vn -0.8214 -0.0060 -0.5703
vn -0.8245 0.0001 -0.5658
vn 0.0859 0.0074 0.9963
vn 0.0022 -0.9923 0.1241
vn -0.0011 -0.9919 0.1274
vn -0.0146 -0.9907 0.1350
vn 0.9388 0.0297 0.3432
vn 0.9380 0.0290 0.3454
vn 0.9377 0.0284 0.3462
vn -0.0559 0.9937 -0.0973
vn -0.0559 0.9942 -0.0924
vn -0.0554 0.9942 -0.0919
usemtl mat20
s off
f 3//1 2//1 1//1
f 6//2 4//2 7//2
f 2//3 7//3 1//3
f 6//4 8//4 3//4
f 4//5 3//5 1//5
f 6//6 7//6 2//6
f 7//7 4//7 1//7
f 3//8 5//8 6//8
f 3//9 8//9 2//9
f 2//10 8//10 6//10
f 11//11 9//11 12//11
f 16//12 14//12 13//12
f 16//13 9//14 10//14
f 15//15 12//16 14//15
f 13//17 14//17 9//17
f 11//18 16//19 10//20
f 14//21 12//21 9//21
f 19//22 18//22 17//22
f 23//23 21//24 20//25
f 18//26 20//27 17//28
f 21//29 22//29 19//29
f 20//30 21//30 17//30
f 22//31 23//31 18//31
f 19//32 24//32 18//32
f 22//33 24//33 19//33
f 18//34 24//34 22//34
f 21//35 19//35 17//35
f 27//1 26//1 25//1
f 30//36 29//36 28//36
f 30//37 25//38 26//38
f 29//39 31//39 27//39
f 29//40 25//40 28//40
f 31//41 30//41 26//41
f 30//42 32//42 29//42
f 29//43 32//43 31//43
f 31//44 32//44 30//44
f 27//45 31//45 26//45
f 59//1 58//1 57//1
f 63//46 61//47 60//48
f 58//49 60//50 57//49
f 62//51 64//52 61//53
f 60//54 61//54 57//54
f 59//55 62//55 58//55
f 62//56 63//56 58//56
f 57//57 64//57 59//57
f 61//58 64//58 57//58
f 67//59 66//59 65//59
f 70//60 69//60 68//60
f 66//61 68//61 65//61
f 69//62 71//62 67//62
f 72//63 65//64 68//63
f 71//65 70//66 66//67
f 69//68 72//68 68//68
f 67//69 72//69 69//69
f 67//70 71//70 66//70
f 75//71 74//71 73//71
f 78//72 77//72 76//72
f 78//73 73//73 74//73
f 80//74 75//75 77//74
f 76//76 75//76 73//76
f 79//77 78//77 74//77
f 78//78 80//78 77//78
f 79//79 80//79 78//79
f 75//80 79//80 74//80
f 163//81 162//81 161//81
f 166//82 165//82 164//82
f 166//83 164//83 161//83
f 168//84 167//84 163//84
f 164//85 163//85 161//85
f 167//86 166//86 162//86
f 166//87 168//87 165//87
f 167//88 168//88 166//88
f 163//89 167//89 162//89
f 161//90 162//90 166//90
f 163//91 165//91 168//91
f 164//92 165//92 163//92
f 6//2 5//2 4//2
f 4//5 5//5 3//5
f 11//11 10//11 9//11
f 16//12 15//12 14//12
f 16//93 13//93 9//94
f 15//95 11//96 12//96
f 11//97 15//98 16//99
f 23//100 22//101 21//102
f 18//103 23//104 20//105
f 30//106 28//107 25//108
f 29//40 27//40 25//40
f 63//109 62//110 61//111
f 58//112 63//113 60//113
f 62//114 59//115 64//116
f 66//61 70//61 68//61
f 72//117 67//118 65//118
f 71//119 69//120 70//121
f 78//73 76//73 73//73
f 80//122 79//123 75//123
f 76//76 77//76 75//76
usemtl mat23
f 35//124 34//124 33//124
f 38//125 37//125 36//125
f 39//126 36//126 33//126
f 42//127 40//128 37//129
f 37//130 33//130 36//130
f 42//131 34//131 41//131
f 43//132 37//133 38//134
f 44//135 39//135 42//135
f 44//136 36//136 39//136
f 46//137 38//137 45//137
f 36//138 45//138 38//138
f 44//139 45//139 36//139
f 42//140 43//140 44//140
f 47//141 43//141 38//141
f 48//142 44//142 43//142
f 48//143 45//143 44//143
f 48//144 46//144 49//144
f 45//145 49//145 46//145
f 48//146 49//146 45//146
f 38//147 46//147 47//147
f 43//148 47//148 48//148
f 50//149 41//149 34//149
f 51//150 40//150 41//150
f 51//151 33//151 40//151
f 53//152 52//152 35//152
f 51//153 35//153 33//153
f 34//154 52//154 50//154
f 41//155 50//155 51//155
f 54//156 50//156 52//156
f 55//157 51//157 50//157
f 55//158 35//158 51//158
f 55//159 53//159 56//159
f 35//160 56//160 53//160
f 55//161 56//161 35//161
f 52//162 53//162 54//162
f 50//163 54//163 55//163
f 35//164 52//164 34//164
f 48//165 47//165 46//165
f 33//166 34//166 39//166
f 83//124 82//124 81//124
f 86//125 85//125 84//125
f 82//167 84//168 81//169
f 85//170 89//171 88//172
f 84//173 88//173 81//173
f 89//174 87//174 82//174
f 91//132 85//175 86//134
f 92//135 87//135 90//135
f 92//136 84//136 87//136
f 94//137 86//137 93//137
f 84//138 93//138 86//138
f 92//139 93//139 84//139
f 90//140 91//140 92//140
f 95//141 91//141 86//141
f 96//142 92//142 91//142
f 96//143 93//143 92//143
f 96//176 94//176 97//176
f 93//145 97//145 94//145
f 96//146 97//146 93//146
f 86//147 94//147 95//147
f 91//148 95//148 96//148
f 98//149 89//149 82//149
f 99//150 88//150 89//150
f 99//177 81//177 88//177
f 101//152 100//152 83//152
f 99//153 83//153 81//153
f 82//154 100//154 98//154
f 89//155 98//155 99//155
f 102//156 98//156 100//156
f 103//157 99//157 98//157
f 103//158 83//158 99//158
f 103//159 101//159 104//159
f 83//160 104//160 101//160
f 103//161 104//161 83//161
f 100//162 101//162 102//162
f 98//163 102//163 103//163
f 83//164 100//164 82//164
f 96//165 95//165 94//165
f 108//178 106//178 105//178
f 112//179 110//179 109//179
f 112//180 105//180 106//180
f 111//181 108//181 110//181
f 114//182 108//183 105//184
f 116//185 112//186 106//187
f 113//188 110//189 108//190
f 118//191 110//192 117//193
f 114//194 109//195 118//196
f 119//197 114//198 120//199
f 119//200 117//201 113//202
f 121//203 118//204 117//205
f 120//206 118//207 122//208
f 123//209 119//209 120//209
f 123//210 121//210 119//210
f 124//211 122//211 121//211
f 125//212 122//213 124//214
f 126//215 125//216 127//217
f 120//218 125//218 123//218
f 121//219 128//219 124//219
f 126//220 128//221 123//222
f 129//223 124//224 128//225
f 127//226 124//227 130//228
f 130//229 126//229 127//229
f 123//230 128//230 121//230
f 131//231 111//231 112//231
f 132//232 111//233 131//234
f 116//235 107//236 132//237
f 131//238 116//238 132//238
f 112//239 115//239 131//239
f 136//240 134//240 133//240
f 140//241 138//241 137//241
f 140//242 133//242 134//242
f 139//243 136//243 138//243
f 141//244 136//244 133//244
f 143//245 140//246 134//247
f 144//248 138//248 136//248
f 145//249 137//249 138//249
f 145//250 133//250 137//250
f 147//251 141//251 146//251
f 133//252 146//252 141//252
f 145//253 146//253 133//253
f 136//254 141//254 144//254
f 138//255 144//255 145//255
f 148//256 144//256 141//256
f 149//257 145//257 144//257
f 149//258 146//258 145//258
f 151//259 147//259 150//259
f 146//260 150//260 147//260
f 149//261 150//261 146//261
f 141//262 147//262 148//262
f 144//263 148//263 149//263
f 151//264 148//265 147//266
f 153//267 149//267 148//267
f 154//268 149//269 153//270
f 155//271 151//271 154//271
f 150//272 154//272 151//272
f 148//273 152//273 153//273
f 156//274 151//275 155//276
f 157//277 153//277 152//277
f 157//278 154//279 153//280
f 157//281 155//281 158//281
f 154//282 158//282 155//282
f 152//283 156//283 157//283
f 142//284 139//285 140//286
f 160//287 139//288 159//289
f 143//290 135//291 160//292
f 159//293 143//293 160//293
f 42//294 41//295 40//296
f 37//130 40//130 33//130
f 42//131 39//131 34//131
f 43//297 42//298 37//299
f 55//159 54//159 53//159
f 82//300 87//301 84//302
f 85//303 90//304 89//305
f 84//173 85//173 88//173
f 89//174 90//174 87//174
f 91//297 90//298 85//299
f 103//159 102//159 101//159
f 108//178 107//178 106//178
f 112//179 111//179 110//179
f 112//180 109//180 105//180
f 111//181 107//181 108//181
f 114//306 113//307 108//308
f 116//309 115//310 112//311
f 113//312 117//313 110//314
f 118//315 109//316 110//317
f 114//318 105//319 109//320
f 119//321 113//322 114//323
f 119//324 121//325 117//326
f 121//327 122//328 118//329
f 120//330 114//331 118//332
f 125//333 120//334 122//335
f 126//336 123//337 125//338
f 126//339 129//340 128//341
f 129//342 130//343 124//344
f 127//345 125//346 124//347
f 130//229 129//229 126//229
f 132//348 107//349 111//350
f 116//351 106//352 107//353
f 131//238 115//238 116//238
f 136//240 135//240 134//240
f 140//241 139//241 138//241
f 140//242 137//242 133//242
f 139//354 135//354 136//354
f 143//355 142//356 140//357
f 151//358 152//359 148//360
f 154//361 150//362 149//363
f 156//364 152//365 151//366
f 157//367 158//368 154//369
f 157//370 156//370 155//370
f 142//371 159//372 139//373
f 160//374 135//375 139//376
f 143//377 134//378 135//379
f 159//293 142//293 143//293
