# Blender v3.5.0 OBJ File: 'dayScene.blend'
# www.blender.org
mtllib NormalCar1_FrontRightWheel_Cube.002.mtl
o NormalCar1_FrontRightWheel_Cube.002
v -71.216164 112.077240 -32.150642
v -90.632042 112.077240 -32.150642
v -71.216164 116.287682 -16.437120
v -90.632042 116.287682 -16.437120
v -71.216164 127.790764 -4.934040
v -90.632042 127.790764 -4.934040
v -71.216164 143.504272 -0.723600
v -90.632042 143.504272 -0.723600
v -71.216164 159.217804 -4.934040
v -90.632042 159.217804 -4.934040
v -71.216164 170.720871 -16.437120
v -90.632042 170.720871 -16.437120
v -71.216164 174.931320 -32.150642
v -90.632042 174.931320 -32.150642
v -71.216164 170.720871 -47.864159
v -90.632042 170.720871 -47.864159
v -71.216164 159.217804 -59.367237
v -90.632042 159.217804 -59.367237
v -71.216164 143.504410 -63.577682
v -90.632042 143.504272 -63.577682
v -71.216164 127.790764 -59.367237
v -90.632042 127.790764 -59.367237
v -71.216164 116.287682 -47.864159
v -90.632042 116.287682 -47.864159
v -94.119598 122.897041 -20.253000
v -94.119598 119.709122 -32.150642
v -94.119598 131.606644 -11.543400
v -94.119598 143.504272 -8.355360
v -94.119598 155.401932 -11.543400
v -94.119598 164.111526 -20.253000
v -94.119598 167.299561 -32.150642
v -94.119598 164.111526 -44.048279
v -94.119598 155.401932 -52.757877
v -94.119598 143.504272 -55.945919
v -94.119598 131.606644 -52.757877
v -94.119598 122.897041 -44.048279
v -94.119598 125.513405 -21.763559
v -94.119598 122.730247 -32.150642
v -94.119598 133.117203 -14.159760
v -94.119598 143.504272 -11.376600
v -94.119598 153.891357 -14.159760
v -94.119598 161.495163 -21.763559
v -94.119598 164.278320 -32.150642
v -94.119598 161.495163 -42.537720
v -94.119598 153.891357 -50.141518
v -94.119598 143.504272 -52.924679
v -94.119598 133.117203 -50.141518
v -94.119598 125.513405 -42.537720
v -91.282082 125.513405 -21.763559
v -91.282082 122.730247 -32.150642
v -91.282082 133.117203 -14.159760
v -91.282082 143.504272 -11.376600
v -91.282082 153.891357 -14.159760
v -91.282082 161.495163 -21.763559
v -91.282082 164.278320 -32.150642
v -91.282082 161.495163 -42.537720
v -91.282082 153.891357 -50.141518
v -91.282082 143.504272 -52.924679
v -91.282082 133.117203 -50.141518
v -91.282082 125.513405 -42.537720
v -91.606682 138.463440 -29.240280
v -91.606682 137.683685 -32.150642
v -91.606682 140.594040 -27.109800
v -91.606682 143.504272 -26.330040
v -91.606682 146.414642 -27.109800
v -91.606682 148.545120 -29.240280
v -91.606682 149.324997 -32.150642
v -91.606682 148.545120 -35.061001
v -91.606682 146.414642 -37.191483
v -91.606682 143.504272 -37.971237
v -91.606682 140.594040 -37.191483
v -91.606682 138.463440 -35.061001
v -92.606163 140.361481 -30.336121
v -92.606163 139.875351 -32.150642
v -92.606163 141.689880 -29.007839
v -92.606163 143.504272 -28.521601
v -92.606163 145.318787 -29.007839
v -92.606163 146.647079 -30.336121
v -92.606163 147.133331 -32.150642
v -92.606163 146.647079 -33.965160
v -92.606163 145.318787 -35.293438
v -92.606163 143.504272 -35.779682
v -92.606163 141.689880 -35.293438
v -92.606163 140.361481 -33.965160
v -91.282082 162.906723 -31.111919
v -91.282082 160.680130 -22.802280
v -91.207199 150.650284 -31.352760
v -91.207199 149.979248 -28.848721
v -91.282082 160.680130 -41.498997
v -91.282082 162.906723 -33.189362
v -91.207199 149.979248 -35.452560
v -91.207199 150.650284 -32.948521
v -91.282082 154.020477 -48.749878
v -91.282082 160.103516 -42.666840
v -91.207199 147.703308 -38.182678
v -91.207199 149.536316 -36.349678
v -91.282082 144.542999 -51.553082
v -91.282082 152.852646 -49.326477
v -91.207199 144.302292 -39.296520
v -91.207199 146.806198 -38.625603
v -91.282082 126.905037 -42.666840
v -91.282082 132.988205 -48.749878
v -91.207199 137.472244 -36.349678
v -91.207199 139.305359 -38.182678
v -91.282082 134.155930 -49.326477
v -91.282082 142.465683 -51.553082
v -91.207199 140.202484 -38.625603
v -91.207199 142.706390 -39.296520
v -91.282082 124.101959 -33.189362
v -91.282082 126.328438 -41.498997
v -91.207199 136.358398 -32.948521
v -91.207199 137.029327 -35.452560
v -91.282082 126.328438 -22.802280
v -91.282082 124.101959 -31.111919
v -91.207199 137.029327 -28.848721
v -91.207199 136.358398 -31.352760
v -91.282082 132.988205 -15.551399
v -91.282082 126.905037 -21.634441
v -91.207199 139.305359 -26.118601
v -91.207199 137.472244 -27.951601
v -91.282082 142.465546 -12.748321
v -91.282082 134.155930 -14.974800
v -91.207199 142.706390 -25.004759
v -91.207199 140.202362 -25.675680
v -91.282082 152.852646 -14.974800
v -91.282082 144.542999 -12.748321
v -91.207199 146.806198 -25.675680
v -91.207199 144.302292 -25.004759
v -91.282082 160.103516 -21.634441
v -91.282082 154.020477 -15.551399
v -91.207199 149.536316 -27.951601
v -91.207199 147.703308 -26.118601
v -86.360756 162.906723 -31.111919
v -86.360756 160.680130 -22.802280
v -87.426605 150.650284 -31.352760
v -87.426605 149.979248 -28.848721
v -86.360756 160.680130 -41.498997
v -86.360756 162.906723 -33.189362
v -87.426605 149.979248 -35.452560
v -87.426605 150.650284 -32.948521
v -86.360756 154.020477 -48.749878
v -86.360756 160.103516 -42.666840
v -87.426605 147.703308 -38.182678
v -87.426605 149.536316 -36.349678
v -86.360756 144.542999 -51.553082
v -86.360756 152.852646 -49.326477
v -87.426605 144.302292 -39.296520
v -87.426605 146.806198 -38.625603
v -86.360756 126.905037 -42.666840
v -86.360756 132.988205 -48.749878
v -87.426605 137.472244 -36.349678
v -87.426605 139.305359 -38.182678
v -86.360756 134.155930 -49.326477
v -86.360756 142.465683 -51.553082
v -87.426605 140.202484 -38.625603
v -87.426605 142.706390 -39.296520
v -86.360756 124.101959 -33.189362
v -86.360756 126.328438 -41.498997
v -87.426605 136.358398 -32.948521
v -87.426605 137.029327 -35.452560
v -86.360756 126.328438 -22.802280
v -86.360756 124.101959 -31.111919
v -87.426605 137.029327 -28.848721
v -87.426605 136.358398 -31.352760
v -86.360756 132.988205 -15.551399
v -86.360756 126.905037 -21.634441
v -87.426605 139.305359 -26.118601
v -87.426605 137.472244 -27.951601
v -86.360756 142.465546 -12.748321
v -86.360756 134.155930 -14.974800
v -87.426605 142.706390 -25.004759
v -87.426605 140.202362 -25.675680
v -86.360756 152.852646 -14.974800
v -86.360756 144.542999 -12.748321
v -87.426605 146.806198 -25.675680
v -87.426605 144.302292 -25.004759
v -86.360756 160.103516 -21.634441
v -86.360756 154.020477 -15.551399
v -87.426605 149.536316 -27.951601
v -87.426605 147.703308 -26.118601
v -91.806602 147.899887 -29.033400
v -91.806602 146.621521 -27.755039
v -92.406242 146.761078 -29.690880
v -92.406242 145.964035 -28.893961
v -91.806602 140.387039 -27.755039
v -91.806602 139.108688 -29.033400
v -92.406242 141.044525 -28.893961
v -92.406242 140.247604 -29.690880
v -91.806602 139.108688 -35.267879
v -91.806602 140.387039 -36.546238
v -92.406242 140.247604 -34.610397
v -92.406242 141.044525 -35.407440
v -91.806602 146.621521 -36.546238
v -91.806602 147.899887 -35.267879
v -92.406242 145.964035 -35.407318
v -92.406242 146.761078 -34.610397
v -89.751480 147.899887 -29.033400
v -89.751480 146.621521 -27.755039
v -90.351242 146.761078 -29.690880
v -90.351242 145.964035 -28.893961
v -89.751480 140.387039 -27.755039
v -89.751480 139.108688 -29.033400
v -90.351242 141.044525 -28.893961
v -90.351242 140.247604 -29.690880
v -89.751480 139.108688 -35.267879
v -89.751480 140.387039 -36.546238
v -90.351242 140.247604 -34.610397
v -90.351242 141.044525 -35.407440
v -89.751480 146.621521 -36.546238
v -89.751480 147.899887 -35.267879
v -90.351242 145.964035 -35.407318
v -90.351242 146.761078 -34.610397
vn 0.0000 -0.9659 0.2588
vn 0.0000 -0.7071 0.7071
vn 0.0000 -0.2588 0.9659
vn 0.0000 0.2588 0.9659
vn 0.0000 0.7071 0.7071
vn 0.0000 0.9659 0.2588
vn 0.0000 0.9659 -0.2588
vn 0.0000 0.7071 -0.7071
vn 0.0000 0.2588 -0.9659
vn 0.0000 -0.2588 -0.9659
vn -0.9039 0.4131 0.1107
vn 0.0000 -0.7071 -0.7071
vn 0.0000 -0.9659 -0.2588
vn 1.0000 0.0000 0.0000
vn -1.0000 0.0000 0.0000
vn -0.9039 0.3024 0.3024
vn -0.9039 0.1107 0.4131
vn -0.9039 -0.4131 -0.1107
vn -0.9039 -0.4131 0.1107
vn -0.9039 -0.1107 0.4131
vn -0.9039 -0.3024 -0.3024
vn -0.9039 -0.3024 0.3024
vn -0.9039 -0.1107 -0.4131
vn -0.9039 0.1107 -0.4131
vn -0.9039 0.3024 -0.3024
vn -0.9039 0.4131 -0.1107
vn -0.9960 0.0862 0.0231
vn -0.9960 0.0862 -0.0231
vn -0.9960 0.0629 -0.0629
vn -0.9960 0.0231 -0.0862
vn -0.9960 -0.0629 -0.0629
vn -0.9960 -0.0231 -0.0862
vn -0.9960 -0.0862 -0.0231
vn -0.9960 -0.0862 0.0231
vn -0.9960 -0.0629 0.0629
vn -0.9960 -0.0231 0.0862
vn -0.9960 0.0231 0.0862
vn -0.9960 0.0629 0.0629
vn -0.9043 0.3019 0.3019
vn -0.9043 -0.3019 0.3019
vn -0.9043 -0.3019 -0.3019
vn -0.9043 0.3019 -0.3019
vn -0.8606 -0.4501 -0.2383
vn -0.9043 -0.4124 -0.1105
vn -0.7161 -0.5965 -0.3624
vn -0.9657 -0.0672 0.2507
vn -0.7161 0.5965 -0.3623
vn -0.9657 0.2507 -0.0672
vn -0.9067 0.4212 0.0197
vn -0.9706 -0.1701 -0.1701
vn -0.9657 -0.2507 0.0672
vn -0.8606 0.4501 0.2383
vn -0.9706 0.1701 0.1701
vn -0.9657 -0.2507 -0.0672
vn -0.9098 -0.3523 0.2196
vn -0.9043 0.1105 -0.4124
vn -0.9043 0.4124 0.1105
vn -0.9043 -0.1105 0.4124
vn -0.9043 -0.1105 -0.4124
vn -0.9043 0.4124 -0.1105
vn -0.9043 0.1105 0.4124
vn -0.9098 -0.3523 -0.2196
vn -0.9043 -0.4124 0.1105
vn -0.9098 0.3523 -0.2196
vn -0.8404 0.3833 0.3833
vn -0.9067 0.0197 0.4213
vn -0.9657 0.2507 0.0672
vn -0.7161 0.3623 -0.5965
vn -0.9067 0.0197 -0.4213
vn -0.7161 0.3623 0.5965
vn -0.8606 -0.2383 -0.4501
vn -0.9706 0.1701 -0.1701
vn 0.0000 0.9998 0.0196
vn -0.9657 0.0672 -0.2507
vn -0.9067 0.4212 -0.0197
vn -0.8606 -0.4501 0.2383
vn -0.8606 0.2383 -0.4501
vn 0.0000 -0.8583 -0.5131
vn -0.9067 -0.4213 -0.0197
vn -0.9657 -0.0672 -0.2507
vn -0.7161 -0.3623 0.5965
vn -0.9067 -0.0197 -0.4213
vn -0.7161 -0.3623 -0.5965
vn -0.9067 -0.0197 0.4213
vn 0.0000 -0.8706 -0.4919
vn -0.9706 -0.1701 0.1701
vn -0.8606 0.2383 0.4501
vn 0.0000 0.5131 0.8583
vn -0.7161 0.5966 0.3624
vn -0.9067 -0.4213 0.0197
vn -0.9657 0.0672 0.2507
vn -0.7161 -0.5965 0.3624
vn -0.8606 -0.2383 0.4501
vn -0.8606 0.4501 -0.2383
vn 0.0000 0.9998 -0.0196
vn 0.0000 -0.9998 0.0196
vn 0.0000 0.4919 -0.8706
vn 0.0000 -0.8706 0.4919
vn 0.0000 0.8706 -0.4919
vn 0.0000 -0.0196 0.9998
vn 0.0000 -0.4919 -0.8706
vn 0.0000 0.8583 0.5131
vn 0.0000 0.0196 0.9998
vn 0.0000 -0.5131 -0.8583
vn 0.0000 0.8706 0.4919
vn 0.0000 -0.8583 0.5131
vn 0.0000 -0.9998 -0.0196
vn 0.0000 0.5131 -0.8583
vn 0.0000 0.9659 -0.2589
vn 0.0000 -0.5131 0.8583
vn 0.0000 -0.4919 0.8706
vn 0.0000 -0.0196 -0.9998
vn 0.0000 0.8583 -0.5131
vn 0.0000 0.0196 -0.9998
vn 0.0000 0.4919 0.8706
vn -0.9098 0.3523 0.2196
vn -0.9098 0.2196 0.3523
vn -0.9371 0.2468 0.2468
vn 0.0000 -0.5000 -0.8660
vn -0.9371 -0.2468 0.2468
vn -0.8403 -0.3833 0.3833
vn -0.9098 -0.2195 0.3523
vn 0.0000 -0.8660 0.5000
vn -0.9371 -0.2468 -0.2468
vn -0.9098 -0.2196 -0.3523
vn -0.8403 -0.3833 -0.3833
vn 0.0000 0.8661 0.5000
vn -0.9371 0.2468 -0.2468
vn -0.8404 0.3833 -0.3833
vn -0.9098 0.2196 -0.3523
vn 0.0000 -0.5000 0.8660
vn 0.0000 -0.7072 -0.7071
vn 0.0000 0.5000 0.8660
vn 0.0000 0.7071 -0.7072
vn 0.0000 0.8661 -0.5000
vn 0.0000 0.5000 -0.8660
vn 0.0000 -0.8661 -0.4999
vn -0.9999 0.0103 -0.0010
vn -0.9999 0.0099 0.0126
vn -0.9999 -0.0099 0.0126
vn -1.0000 -0.0079 -0.0060
vn -0.9999 -0.0103 0.0010
vn -0.9098 -0.3521 0.2198
vn -0.9098 -0.3521 -0.2198
vn -0.9098 0.3522 -0.2197
vn 0.0000 0.9659 0.2589
vn -1.0000 -0.0060 -0.0079
vn -0.9999 -0.0126 0.0099
vn -1.0000 -0.0060 0.0079
vn -0.9999 -0.0126 -0.0099
vn -0.9999 -0.0009 0.0103
vn -1.0000 -0.0079 0.0060
vn -0.9999 0.0103 0.0010
vn -0.9999 0.0010 0.0103
vn -1.0000 0.0079 0.0060
vn -0.9999 0.0126 -0.0099
vn -1.0000 0.0060 0.0079
vn -0.9999 0.0126 0.0099
vn -1.0000 0.0060 -0.0079
vn -0.9999 0.0009 -0.0103
vn -0.9999 -0.0099 -0.0126
vn -1.0000 0.0079 -0.0060
vn -0.9999 0.0099 -0.0126
vn -0.9999 -0.0010 -0.0103
vn -0.9999 -0.0103 -0.0010
vn -0.9098 0.3522 0.2197
vn -0.9098 0.2197 0.3522
vn -0.9371 0.2467 0.2468
vn -0.8404 -0.3832 0.3833
vn -0.9098 -0.2197 0.3522
vn -0.9372 -0.2467 -0.2467
vn -0.9098 -0.2196 -0.3522
vn -0.8404 -0.3832 -0.3832
vn -0.9371 0.2467 -0.2468
vn -0.9098 0.2197 -0.3522
vn 0.0000 0.7070 0.7072
vn 0.0000 -0.7072 -0.7070
vn 0.0000 0.5000 0.8661
vn 0.0000 -0.8660 -0.5000
usemtl Black.006
s off
f 3//1 2//1 1//1
f 5//2 4//2 3//2
f 7//3 6//3 5//3
f 9//4 8//4 7//4
f 11//5 10//5 9//5
f 13//6 12//6 11//6
f 15//7 14//7 13//7
f 17//8 16//8 15//8
f 19//9 18//9 17//9
f 21//10 20//10 19//10
f 31//11 12//11 14//11
f 23//12 22//12 21//12
f 1//13 24//13 23//13
f 23//14 19//14 11//14
f 43//15 30//15 31//15
f 12//16 29//16 10//16
f 10//17 28//17 8//17
f 26//18 24//18 2//18
f 4//19 26//19 2//19
f 28//20 6//20 8//20
f 24//21 35//21 22//21
f 27//22 4//22 6//22
f 22//23 34//23 20//23
f 34//24 18//24 20//24
f 33//25 16//25 18//25
f 16//26 31//26 14//26
f 58//3 45//3 46//3
f 40//15 27//15 28//15
f 47//15 34//15 35//15
f 32//15 43//15 31//15
f 41//15 28//15 29//15
f 48//15 35//15 36//15
f 37//15 26//15 25//15
f 33//15 44//15 32//15
f 42//15 29//15 30//15
f 26//15 48//15 36//15
f 27//15 37//15 25//15
f 34//15 45//15 33//15
f 55//13 42//13 43//13
f 52//9 39//9 40//9
f 59//4 46//4 47//4
f 56//1 43//1 44//1
f 53//10 40//10 41//10
f 60//5 47//5 48//5
f 49//7 38//7 37//7
f 57//2 44//2 45//2
f 54//12 41//12 42//12
f 50//6 48//6 38//6
f 51//8 37//8 39//8
f 133//27 136//27 134//27
f 139//28 138//28 137//28
f 143//29 142//29 141//29
f 145//30 148//30 146//30
f 151//31 150//31 149//31
f 155//32 154//32 153//32
f 157//33 160//33 158//33
f 163//34 162//34 161//34
f 165//35 168//35 166//35
f 169//36 172//36 170//36
f 175//37 174//37 173//37
f 177//38 180//38 178//38
f 199//39 198//39 197//39
f 201//40 204//40 202//40
f 205//41 208//41 206//41
f 209//42 212//42 210//42
f 3//1 4//1 2//1
f 5//2 6//2 4//2
f 7//3 8//3 6//3
f 9//4 10//4 8//4
f 11//5 12//5 10//5
f 13//6 14//6 12//6
f 15//7 16//7 14//7
f 17//8 18//8 16//8
f 19//9 20//9 18//9
f 21//10 22//10 20//10
f 31//11 30//11 12//11
f 23//12 24//12 22//12
f 1//13 2//13 24//13
f 3//14 1//14 23//14
f 23//14 21//14 19//14
f 19//14 17//14 11//14
f 17//14 15//14 11//14
f 15//14 13//14 11//14
f 11//14 9//14 7//14
f 7//14 5//14 11//14
f 5//14 3//14 11//14
f 3//14 23//14 11//14
f 43//15 42//15 30//15
f 12//16 30//16 29//16
f 10//17 29//17 28//17
f 26//18 36//18 24//18
f 4//19 25//19 26//19
f 28//20 27//20 6//20
f 24//21 36//21 35//21
f 27//22 25//22 4//22
f 22//23 35//23 34//23
f 34//24 33//24 18//24
f 33//25 32//25 16//25
f 16//26 32//26 31//26
f 58//3 57//3 45//3
f 40//15 39//15 27//15
f 47//15 46//15 34//15
f 32//15 44//15 43//15
f 41//15 40//15 28//15
f 48//15 47//15 35//15
f 37//15 38//15 26//15
f 33//15 45//15 44//15
f 42//15 41//15 29//15
f 26//15 38//15 48//15
f 27//15 39//15 37//15
f 34//15 46//15 45//15
f 55//13 54//13 42//13
f 52//9 51//9 39//9
f 59//4 58//4 46//4
f 56//1 55//1 43//1
f 53//10 52//10 40//10
f 60//5 59//5 47//5
f 49//7 50//7 38//7
f 57//2 56//2 44//2
f 54//12 53//12 41//12
f 50//6 60//6 48//6
f 51//8 49//8 37//8
f 133//27 135//27 136//27
f 139//28 140//28 138//28
f 143//29 144//29 142//29
f 145//30 147//30 148//30
f 151//31 152//31 150//31
f 155//32 156//32 154//32
f 157//33 159//33 160//33
f 163//34 164//34 162//34
f 165//35 167//35 168//35
f 169//36 171//36 172//36
f 175//37 176//37 174//37
f 177//38 179//38 180//38
f 199//39 200//39 198//39
f 201//40 203//40 204//40
f 205//41 207//41 208//41
f 209//42 211//42 212//42
usemtl Grey.014
f 119//43 51//43 63//43
f 62//44 84//44 72//44
f 57//45 100//45 69//45
f 85//15 54//15 55//15
f 63//46 123//46 64//46
f 107//47 59//47 71//47
f 92//48 68//48 67//48
f 52//49 128//49 64//49
f 104//50 72//50 71//50
f 116//51 61//51 62//51
f 95//52 57//52 69//52
f 132//53 66//53 65//53
f 72//54 111//54 62//54
f 83//15 74//15 77//15
f 186//55 73//55 61//55
f 70//56 81//56 69//56
f 79//57 66//57 67//57
f 76//58 63//58 64//58
f 71//59 82//59 70//59
f 68//60 79//60 67//60
f 77//61 64//61 65//61
f 84//62 189//62 72//62
f 73//63 62//63 61//63
f 194//64 80//64 68//64
f 181//65 65//65 66//65
f 136//6 87//6 88//6
f 87//66 55//66 67//66
f 66//67 87//67 67//67
f 54//68 88//68 66//68
f 156//10 107//10 108//10
f 55//69 92//69 67//69
f 56//15 90//15 55//15
f 91//70 56//70 68//70
f 176//4 127//4 128//4
f 56//71 96//71 68//71
f 96//72 69//72 68//72
f 93//15 56//15 57//15
f 147//73 97//73 99//73
f 69//74 99//74 70//74
f 97//15 57//15 58//15
f 99//75 58//75 70//75
f 133//13 86//13 85//13
f 101//15 59//15 60//15
f 59//76 104//76 71//76
f 103//77 60//77 72//77
f 167//78 117//78 119//78
f 58//79 108//79 70//79
f 108//80 71//80 70//80
f 59//15 106//15 58//15
f 153//4 106//4 105//4
f 60//81 112//81 72//81
f 109//15 60//15 50//15
f 111//82 50//82 62//82
f 173//10 126//10 125//10
f 49//15 114//15 50//15
f 115//83 49//83 61//83
f 50//84 116//84 62//84
f 98//85 148//85 100//85
f 61//86 119//86 63//86
f 49//87 120//87 61//87
f 51//15 118//15 49//15
f 118//88 168//88 120//88
f 51//89 124//89 63//89
f 121//15 51//15 52//15
f 123//90 52//90 64//90
f 148//9 99//9 100//9
f 128//91 65//91 64//91
f 53//15 126//15 52//15
f 127//92 53//92 65//92
f 168//2 119//2 120//2
f 54//15 130//15 53//15
f 131//93 54//93 66//93
f 53//94 132//94 65//94
f 126//95 176//95 128//95
f 106//96 156//96 108//96
f 86//97 136//97 88//97
f 161//7 114//7 113//7
f 175//98 125//98 127//98
f 141//2 94//2 93//2
f 155//99 105//99 107//99
f 135//100 85//100 87//100
f 164//1 115//1 116//1
f 144//8 95//8 96//8
f 163//101 113//101 115//101
f 143//102 93//102 95//102
f 169//9 122//9 121//9
f 149//5 102//5 101//5
f 114//103 164//103 116//103
f 94//104 144//104 96//104
f 172//3 123//3 124//3
f 152//12 103//12 104//12
f 122//105 172//105 124//105
f 102//106 152//106 104//106
f 177//12 130//12 129//12
f 157//6 110//6 109//6
f 171//107 121//107 123//107
f 137//1 90//1 89//1
f 151//108 101//108 103//108
f 180//5 131//5 132//5
f 160//13 111//13 112//13
f 140//109 91//109 92//109
f 179//110 129//110 131//110
f 110//111 160//111 112//111
f 90//112 140//112 92//112
f 165//8 118//8 117//8
f 130//113 180//113 132//113
f 145//3 98//3 97//3
f 159//114 109//114 111//114
f 139//115 89//115 91//115
f 197//12 182//12 181//12
f 78//116 181//116 66//116
f 182//117 77//117 65//117
f 184//118 78//118 77//118
f 194//119 212//119 196//119
f 73//120 187//120 75//120
f 185//121 61//121 63//121
f 75//122 185//122 63//122
f 190//123 208//123 192//123
f 83//124 191//124 84//124
f 190//125 83//125 71//125
f 72//126 190//126 71//126
f 211//127 193//127 195//127
f 80//128 195//128 81//128
f 69//129 194//129 68//129
f 81//130 193//130 69//130
f 201//8 186//8 185//8
f 200//5 183//5 184//5
f 205//5 190//5 189//5
f 204//2 187//2 188//2
f 209//2 194//2 193//2
f 199//131 181//131 183//131
f 208//132 191//132 192//132
f 186//133 204//133 188//133
f 212//134 195//134 196//134
f 182//135 200//135 184//135
f 207//136 189//136 191//136
f 203//137 185//137 187//137
f 119//138 117//138 51//138
f 62//44 74//44 84//44
f 57//139 98//139 100//139
f 85//15 86//15 54//15
f 63//46 124//46 123//46
f 107//140 105//140 59//140
f 92//48 91//48 68//48
f 52//141 126//141 128//141
f 104//50 103//50 72//50
f 116//51 115//51 61//51
f 95//142 93//142 57//142
f 132//53 131//53 66//53
f 72//54 112//54 111//54
f 74//15 73//15 75//15
f 75//15 76//15 77//15
f 77//15 78//15 81//15
f 78//15 79//15 81//15
f 79//15 80//15 81//15
f 81//15 82//15 83//15
f 83//15 84//15 74//15
f 74//15 75//15 77//15
f 81//15 83//15 77//15
f 186//143 188//143 73//143
f 70//56 82//56 81//56
f 79//57 78//57 66//57
f 76//58 75//58 63//58
f 71//59 83//59 82//59
f 68//60 80//60 79//60
f 77//61 76//61 64//61
f 84//144 191//144 189//144
f 73//63 74//63 62//63
f 194//145 196//145 80//145
f 181//65 182//65 65//65
f 136//146 135//146 87//146
f 87//147 85//147 55//147
f 66//67 88//67 87//67
f 54//148 86//148 88//148
f 156//10 155//10 107//10
f 55//149 90//149 92//149
f 56//15 89//15 90//15
f 91//150 89//150 56//150
f 176//4 175//4 127//4
f 56//151 94//151 96//151
f 96//72 95//72 69//72
f 93//15 94//15 56//15
f 147//73 145//73 97//73
f 69//74 100//74 99//74
f 97//15 98//15 57//15
f 99//152 97//152 58//152
f 133//13 134//13 86//13
f 101//15 102//15 59//15
f 59//153 102//153 104//153
f 103//154 101//154 60//154
f 167//78 165//78 117//78
f 58//155 106//155 108//155
f 108//80 107//80 71//80
f 59//15 105//15 106//15
f 153//4 154//4 106//4
f 60//156 110//156 112//156
f 109//15 110//15 60//15
f 111//157 109//157 50//157
f 173//10 174//10 126//10
f 49//15 113//15 114//15
f 115//158 113//158 49//158
f 50//159 114//159 116//159
f 98//85 146//85 148//85
f 61//86 120//86 119//86
f 49//160 118//160 120//160
f 51//15 117//15 118//15
f 118//88 166//88 168//88
f 51//161 122//161 124//161
f 121//15 122//15 51//15
f 123//162 121//162 52//162
f 148//9 147//9 99//9
f 128//91 127//91 65//91
f 53//15 125//15 126//15
f 127//163 125//163 53//163
f 168//2 167//2 119//2
f 54//15 129//15 130//15
f 131//164 129//164 54//164
f 53//165 130//165 132//165
f 126//95 174//95 176//95
f 106//96 154//96 156//96
f 86//97 134//97 136//97
f 161//7 162//7 114//7
f 175//98 173//98 125//98
f 141//2 142//2 94//2
f 155//99 153//99 105//99
f 135//100 133//100 85//100
f 164//1 163//1 115//1
f 144//8 143//8 95//8
f 163//101 161//101 113//101
f 143//102 141//102 93//102
f 169//9 170//9 122//9
f 149//5 150//5 102//5
f 114//103 162//103 164//103
f 94//104 142//104 144//104
f 172//3 171//3 123//3
f 152//12 151//12 103//12
f 122//105 170//105 172//105
f 102//106 150//106 152//106
f 177//12 178//12 130//12
f 157//6 158//6 110//6
f 171//107 169//107 121//107
f 137//1 138//1 90//1
f 151//108 149//108 101//108
f 180//5 179//5 131//5
f 160//13 159//13 111//13
f 140//7 139//7 91//7
f 179//110 177//110 129//110
f 110//111 158//111 160//111
f 90//112 138//112 140//112
f 165//8 166//8 118//8
f 130//113 178//113 180//113
f 145//3 146//3 98//3
f 159//114 157//114 109//114
f 139//115 137//115 89//115
f 197//12 198//12 182//12
f 78//166 183//166 181//166
f 182//167 184//167 77//167
f 184//168 183//168 78//168
f 194//119 210//119 212//119
f 73//120 188//120 187//120
f 185//169 186//169 61//169
f 75//170 187//170 185//170
f 190//123 206//123 208//123
f 83//171 192//171 191//171
f 190//172 192//172 83//172
f 72//173 189//173 190//173
f 211//127 209//127 193//127
f 80//174 196//174 195//174
f 69//129 193//129 194//129
f 81//175 195//175 193//175
f 201//8 202//8 186//8
f 200//176 199//176 183//176
f 205//5 206//5 190//5
f 204//2 203//2 187//2
f 209//2 210//2 194//2
f 199//131 197//131 181//131
f 208//177 207//177 191//177
f 186//178 202//178 204//178
f 212//134 211//134 195//134
f 182//135 198//135 200//135
f 207//136 205//136 189//136
f 203//179 201//179 185//179
