# Blender v3.5.0 OBJ File: 'dayScene.blend'
# www.blender.org
mtllib NormalCar1_FrontLeftWheel_Cube.007.mtl
o NormalCar1_FrontLeftWheel_Cube.002_NormalCar1_FrontLeftWheel_Cube.007
v 71.424835 112.077240 -32.150642
v 90.840843 112.077240 -32.150642
v 71.424835 116.287682 -16.437120
v 90.840843 116.287682 -16.437120
v 71.424835 127.790764 -4.934040
v 90.840843 127.790764 -4.934040
v 71.424835 143.504272 -0.723600
v 90.840843 143.504272 -0.723600
v 71.424835 159.217804 -4.934040
v 90.840843 159.217804 -4.934040
v 71.424835 170.720871 -16.437120
v 90.840843 170.720871 -16.437120
v 71.424835 174.931320 -32.150642
v 90.840843 174.931320 -32.150642
v 71.424835 170.720871 -47.864159
v 90.840843 170.720871 -47.864159
v 71.424835 159.217804 -59.367237
v 90.840843 159.217804 -59.367237
v 71.424835 143.504272 -63.577682
v 90.840843 143.504272 -63.577682
v 71.424835 127.790764 -59.367237
v 90.840843 127.790764 -59.367237
v 71.424835 116.287682 -47.864159
v 90.840843 116.287682 -47.864159
v 94.328400 122.897041 -20.253000
v 94.328400 119.709000 -32.150642
v 94.328400 131.606644 -11.543400
v 94.328400 143.504272 -8.355360
v 94.328400 155.401932 -11.543400
v 94.328400 164.111526 -20.253000
v 94.328400 167.299561 -32.150642
v 94.328400 164.111526 -44.048279
v 94.328400 155.401932 -52.757877
v 94.328400 143.504272 -55.945919
v 94.328400 131.606644 -52.757877
v 94.328400 122.897041 -44.048279
v 94.328400 125.513405 -21.763559
v 94.328400 122.730247 -32.150642
v 94.328400 133.117203 -14.159760
v 94.328400 143.504272 -11.376600
v 94.328400 153.891357 -14.159760
v 94.328400 161.495163 -21.763559
v 94.328400 164.278320 -32.150642
v 94.328400 161.495163 -42.537720
v 94.328400 153.891357 -50.141518
v 94.328400 143.504272 -52.924679
v 94.328400 133.117203 -50.141518
v 94.328400 125.513405 -42.537720
v 91.490761 125.513405 -21.763559
v 91.490761 122.730247 -32.150642
v 91.490761 133.117203 -14.159760
v 91.490761 143.504272 -11.376600
v 91.490761 153.891357 -14.159760
v 91.490761 161.495163 -21.763559
v 91.490761 164.278320 -32.150642
v 91.490761 161.495163 -42.537720
v 91.490761 153.891357 -50.141518
v 91.490761 143.504272 -52.924679
v 91.490761 133.117203 -50.141518
v 91.490761 125.513405 -42.537720
v 91.815483 138.463440 -29.240280
v 91.815483 137.683685 -32.150642
v 91.815483 140.594040 -27.109800
v 91.815483 143.504272 -26.330040
v 91.815483 146.414642 -27.109800
v 91.815483 148.545120 -29.240280
v 91.815483 149.324997 -32.150642
v 91.815483 148.545120 -35.061001
v 91.815483 146.414642 -37.191483
v 91.815483 143.504272 -37.971237
v 91.815483 140.594040 -37.191483
v 91.815483 138.463440 -35.061001
v 92.814957 140.361481 -30.336121
v 92.814957 139.875351 -32.150642
v 92.814957 141.689880 -29.007839
v 92.814957 143.504272 -28.521601
v 92.814957 145.318787 -29.007839
v 92.814957 146.647079 -30.336121
v 92.814957 147.133331 -32.150642
v 92.814957 146.647079 -33.965160
v 92.814957 145.318787 -35.293438
v 92.814957 143.504272 -35.779682
v 92.814957 141.689880 -35.293438
v 92.814957 140.361481 -33.965160
v 91.490761 162.906723 -31.111919
v 91.490761 160.680130 -22.802280
v 91.416000 150.650284 -31.352760
v 91.416000 149.979248 -28.848721
v 91.490761 160.680130 -41.498997
v 91.490761 162.906723 -33.189362
v 91.416000 149.979248 -35.452560
v 91.416000 150.650284 -32.948521
v 91.490761 154.020477 -48.749878
v 91.490761 160.103516 -42.666840
v 91.416000 147.703308 -38.182678
v 91.416000 149.536316 -36.349678
v 91.490761 144.542999 -51.553082
v 91.490761 152.852646 -49.326477
v 91.416000 144.302292 -39.296520
v 91.416000 146.806198 -38.625603
v 91.490761 126.905037 -42.666840
v 91.490761 132.988205 -48.749878
v 91.416000 137.472244 -36.349678
v 91.416000 139.305359 -38.182678
v 91.490761 134.155930 -49.326477
v 91.490761 142.465683 -51.553082
v 91.416000 140.202484 -38.625603
v 91.416000 142.706390 -39.296520
v 91.490761 124.101959 -33.189362
v 91.490761 126.328438 -41.498997
v 91.416000 136.358398 -32.948521
v 91.416000 137.029327 -35.452560
v 91.490761 126.328438 -22.802280
v 91.490761 124.101959 -31.111919
v 91.416000 137.029327 -28.848721
v 91.416000 136.358398 -31.352760
v 91.490761 132.988205 -15.551399
v 91.490761 126.905037 -21.634441
v 91.416000 139.305359 -26.118601
v 91.416000 137.472244 -27.951601
v 91.490761 142.465546 -12.748321
v 91.490761 134.155930 -14.974800
v 91.416000 142.706390 -25.004759
v 91.416000 140.202362 -25.675680
v 91.490761 152.852646 -14.974800
v 91.490761 144.542999 -12.748321
v 91.416000 146.806198 -25.675680
v 91.416000 144.302292 -25.004759
v 91.490761 160.103516 -21.634441
v 91.490761 154.020477 -15.551399
v 91.416000 149.536316 -27.951601
v 91.416000 147.703308 -26.118601
v 86.569443 162.906723 -31.111919
v 86.569443 160.680130 -22.802280
v 87.635399 150.650284 -31.352760
v 87.635399 149.979248 -28.848721
v 86.569443 160.680130 -41.498997
v 86.569443 162.906723 -33.189362
v 87.635399 149.979248 -35.452560
v 87.635399 150.650284 -32.948521
v 86.569443 154.020477 -48.749878
v 86.569443 160.103516 -42.666840
v 87.635399 147.703308 -38.182678
v 87.635399 149.536316 -36.349678
v 86.569443 144.542999 -51.553082
v 86.569443 152.852646 -49.326477
v 87.635399 144.302292 -39.296520
v 87.635399 146.806198 -38.625603
v 86.569443 126.905037 -42.666840
v 86.569443 132.988205 -48.749878
v 87.635399 137.472244 -36.349678
v 87.635399 139.305237 -38.182678
v 86.569443 134.155930 -49.326477
v 86.569443 142.465683 -51.553082
v 87.635399 140.202484 -38.625603
v 87.635399 142.706390 -39.296520
v 86.569443 124.101959 -33.189362
v 86.569443 126.328438 -41.498997
v 87.635399 136.358398 -32.948521
v 87.635399 137.029327 -35.452560
v 86.569443 126.328438 -22.802280
v 86.569443 124.101959 -31.111919
v 87.635399 137.029327 -28.848721
v 87.635399 136.358398 -31.352760
v 86.569443 132.988205 -15.551399
v 86.569443 126.905037 -21.634441
v 87.635399 139.305237 -26.118601
v 87.635399 137.472244 -27.951601
v 86.569443 142.465546 -12.748321
v 86.569443 134.155930 -14.974800
v 87.635399 142.706390 -25.004759
v 87.635399 140.202362 -25.675680
v 86.569443 152.852646 -14.974800
v 86.569443 144.542999 -12.748321
v 87.635399 146.806198 -25.675680
v 87.635399 144.302292 -25.004759
v 86.569443 160.103516 -21.634441
v 86.569443 154.020477 -15.551399
v 87.635399 149.536316 -27.951601
v 87.635399 147.703308 -26.118601
v 92.015396 147.899887 -29.033400
v 92.015396 146.621521 -27.755039
v 92.615036 146.761078 -29.690880
v 92.615036 145.964035 -28.893961
v 92.015396 140.387039 -27.755039
v 92.015396 139.108688 -29.033400
v 92.615036 141.044525 -28.893961
v 92.615036 140.247604 -29.690880
v 92.015396 139.108688 -35.267879
v 92.015396 140.387039 -36.546238
v 92.615036 140.247604 -34.610397
v 92.615036 141.044525 -35.407440
v 92.015396 146.621521 -36.546238
v 92.015396 147.899887 -35.267879
v 92.615036 145.964035 -35.407318
v 92.615036 146.761078 -34.610397
v 89.960281 147.899887 -29.033400
v 89.960281 146.621521 -27.755039
v 90.559914 146.761078 -29.690880
v 90.559914 145.964035 -28.893961
v 89.960281 140.387039 -27.755039
v 89.960281 139.108688 -29.033400
v 90.559914 141.044525 -28.893961
v 90.559914 140.247604 -29.690880
v 89.960281 139.108688 -35.267879
v 89.960281 140.387039 -36.546238
v 90.559914 140.247604 -34.610397
v 90.559914 141.044525 -35.407440
v 89.960281 146.621521 -36.546238
v 89.960281 147.899887 -35.267879
v 90.559914 145.964035 -35.407318
v 90.559914 146.761078 -34.610397
vn 0.0000 -0.9659 0.2588
vn 0.0000 -0.7071 0.7071
vn 0.0000 -0.2588 0.9659
vn 0.0000 0.2588 0.9659
vn 0.0000 0.7071 0.7071
vn 0.0000 0.9659 0.2588
vn 0.0000 0.9659 -0.2588
vn 0.0000 0.7071 -0.7071
vn 0.0000 0.2588 -0.9659
vn 0.0000 -0.2588 -0.9659
vn 0.9039 0.4131 0.1107
vn 0.0000 -0.7071 -0.7071
vn 0.0000 -0.9659 -0.2588
vn -1.0000 0.0000 0.0000
vn 1.0000 0.0000 0.0000
vn 0.9039 0.3024 0.3024
vn 0.9039 0.1107 0.4131
vn 0.9039 -0.4131 -0.1107
vn 0.9039 -0.4131 0.1107
vn 0.9039 -0.1107 0.4131
vn 0.9039 -0.3024 -0.3024
vn 0.9039 -0.3024 0.3024
vn 0.9039 -0.1107 -0.4131
vn 0.9039 0.1107 -0.4131
vn 0.9039 0.3024 -0.3024
vn 0.9039 0.4131 -0.1107
vn 0.9960 0.0862 0.0231
vn 0.9960 0.0862 -0.0231
vn 0.9960 0.0629 -0.0629
vn 0.9960 0.0231 -0.0862
vn 0.9960 -0.0629 -0.0629
vn 0.9960 -0.0231 -0.0862
vn 0.9960 -0.0862 -0.0231
vn 0.9960 -0.0862 0.0231
vn 0.9960 -0.0629 0.0629
vn 0.9960 -0.0231 0.0862
vn 0.9960 0.0231 0.0862
vn 0.9960 0.0629 0.0629
vn 0.9043 0.3019 0.3019
vn 0.9043 -0.3019 0.3019
vn 0.9043 -0.3019 -0.3018
vn 0.9043 0.3018 -0.3019
vn 0.9043 0.3018 0.3019
vn 0.9043 -0.3019 -0.3019
vn 0.9043 0.3019 -0.3019
vn 0.8606 -0.4500 -0.2383
vn 0.9043 -0.4124 -0.1105
vn 0.9999 0.0098 0.0125
vn 0.9657 -0.0672 0.2507
vn 0.7162 0.5965 -0.3624
vn 0.9657 0.2507 -0.0672
vn 1.0000 -0.0079 -0.0059
vn 0.9706 -0.1701 -0.1701
vn 0.9657 -0.2507 0.0672
vn 0.8606 0.4500 0.2383
vn 0.9706 0.1701 0.1701
vn 0.9657 -0.2507 -0.0672
vn 0.9098 -0.3523 0.2196
vn 0.9043 0.1105 -0.4124
vn 0.9043 0.4124 0.1105
vn 0.9043 -0.1105 0.4124
vn 0.9043 -0.1105 -0.4124
vn 0.9043 0.4124 -0.1105
vn 0.9043 0.1105 0.4124
vn 0.9098 -0.3522 -0.2198
vn 0.9043 -0.4124 0.1105
vn 0.9098 0.3523 -0.2196
vn 0.8404 0.3833 0.3833
vn 0.9067 0.0197 0.4213
vn 0.9657 0.2507 0.0672
vn 0.9999 -0.0125 0.0098
vn 1.0000 -0.0059 0.0079
vn 0.7162 0.3624 0.5965
vn 0.9999 -0.0009 0.0102
vn 0.9706 0.1701 -0.1701
vn 0.0000 0.9998 0.0196
vn 0.9657 0.0672 -0.2507
vn 0.9067 0.4212 -0.0197
vn 0.9999 0.0102 0.0009
vn 0.8606 0.2383 -0.4500
vn 0.0000 -0.8583 -0.5131
vn 1.0000 0.0079 0.0059
vn 0.9657 -0.0672 -0.2507
vn 0.9999 0.0125 -0.0098
vn 0.9067 -0.0197 -0.4213
vn 0.7162 -0.3624 -0.5965
vn 1.0000 0.0059 -0.0079
vn 0.0000 -0.8706 -0.4919
vn 0.9706 -0.1701 0.1701
vn 0.9999 0.0009 -0.0102
vn 0.0000 0.5131 0.8583
vn 0.9999 -0.0098 -0.0125
vn 0.9067 -0.4213 0.0197
vn 0.9657 0.0672 0.2507
vn 0.7162 -0.5965 0.3624
vn 0.8606 -0.2383 0.4500
vn 0.9999 -0.0102 -0.0010
vn 0.0000 0.9998 -0.0196
vn 0.0000 -0.9998 0.0196
vn 0.0000 0.4919 -0.8706
vn 0.0000 -0.8706 0.4919
vn 0.0000 0.8706 -0.4919
vn 0.0000 -0.0196 0.9998
vn 0.0000 -0.4919 -0.8706
vn 0.0000 0.8583 0.5131
vn 0.0000 0.0196 0.9998
vn 0.0000 -0.5131 -0.8583
vn 0.0000 0.8706 0.4919
vn 0.0000 -0.8583 0.5131
vn 0.0000 -0.9998 -0.0196
vn 0.0000 0.5131 -0.8583
vn 0.0000 0.9659 -0.2589
vn 0.0000 -0.5131 0.8583
vn 0.0000 -0.4919 0.8706
vn 0.0000 -0.0196 -0.9998
vn 0.0000 0.8583 -0.5131
vn 0.0000 0.0196 -0.9998
vn 0.0000 0.4919 0.8706
vn 0.9098 0.3522 0.2197
vn 0.9098 0.2196 0.3523
vn 0.9371 0.2468 0.2468
vn 0.0000 -0.5000 -0.8660
vn 0.9371 -0.2468 0.2468
vn 0.8403 -0.3833 0.3833
vn 0.9098 -0.2197 0.3522
vn 0.0000 -0.8660 0.5000
vn 0.9372 -0.2467 -0.2467
vn 0.9098 -0.2195 -0.3523
vn 0.8404 -0.3833 -0.3832
vn 0.0000 0.8660 0.5000
vn 0.9371 0.2468 -0.2468
vn 0.8404 0.3833 -0.3832
vn 0.9098 0.2197 -0.3522
vn 0.0000 -0.5000 0.8660
vn 0.0000 0.5000 0.8661
vn 0.0000 0.7070 -0.7072
vn 0.0000 0.8661 -0.4999
vn 0.0000 0.5000 -0.8660
vn 0.0000 -0.8661 -0.5000
vn 0.9999 0.0102 -0.0009
vn 0.7162 -0.5965 -0.3624
vn 0.9999 -0.0098 0.0125
vn 0.9068 0.4212 0.0197
vn 0.9999 -0.0102 0.0010
vn 0.9098 -0.3522 0.2198
vn 0.9098 -0.3523 -0.2196
vn 0.9098 0.3522 -0.2197
vn 0.8404 0.3832 0.3833
vn 0.0000 0.9659 0.2589
vn 1.0000 -0.0059 -0.0079
vn 0.7162 0.3624 -0.5965
vn 0.9067 0.0197 -0.4213
vn 0.9999 -0.0125 -0.0098
vn 0.8606 -0.2383 -0.4500
vn 1.0000 -0.0079 0.0059
vn 0.8606 -0.4500 0.2383
vn 0.9999 0.0009 0.0102
vn 0.9067 -0.4213 -0.0197
vn 0.7161 -0.3624 0.5965
vn 1.0000 0.0059 0.0079
vn 0.9999 0.0125 0.0098
vn 0.9067 -0.0197 0.4213
vn 0.8606 0.2383 0.4500
vn 0.7161 0.5966 0.3624
vn 1.0000 0.0079 -0.0059
vn 0.9999 0.0098 -0.0125
vn 0.9999 -0.0009 -0.0102
vn 0.8606 0.4500 -0.2383
vn 0.9098 0.3523 0.2196
vn 0.9098 0.2197 0.3522
vn 0.9371 0.2467 0.2468
vn 0.8404 -0.3833 0.3832
vn 0.9098 -0.2195 0.3523
vn 0.9371 -0.2468 -0.2468
vn 0.9098 -0.2196 -0.3522
vn 0.8403 -0.3833 -0.3833
vn 0.0000 0.8661 0.4999
vn 0.8404 0.3832 -0.3833
vn 0.9098 0.2196 -0.3523
vn 0.0000 0.7070 0.7072
vn 0.0000 -0.7072 -0.7070
vn 0.0000 0.5000 0.8660
vn 0.0000 0.8660 -0.5000
vn 0.0000 0.5000 -0.8661
vn 0.0000 -0.8660 -0.5000
usemtl Black.006
s off
f 2//1 3//1 1//1
f 4//2 5//2 3//2
f 6//3 7//3 5//3
f 8//4 9//4 7//4
f 10//5 11//5 9//5
f 12//6 13//6 11//6
f 14//7 15//7 13//7
f 16//8 17//8 15//8
f 18//9 19//9 17//9
f 20//10 21//10 19//10
f 12//11 31//11 14//11
f 22//12 23//12 21//12
f 24//13 1//13 23//13
f 3//14 7//14 15//14
f 30//15 43//15 31//15
f 10//16 30//16 12//16
f 10//17 28//17 29//17
f 24//18 26//18 2//18
f 4//19 26//19 25//19
f 6//20 28//20 8//20
f 24//21 35//21 36//21
f 4//22 27//22 6//22
f 22//23 34//23 35//23
f 18//24 34//24 20//24
f 16//25 33//25 18//25
f 16//26 31//26 32//26
f 45//3 58//3 46//3
f 27//15 40//15 28//15
f 34//15 47//15 35//15
f 32//15 43//15 44//15
f 28//15 41//15 29//15
f 35//15 48//15 36//15
f 25//15 38//15 37//15
f 33//15 44//15 45//15
f 29//15 42//15 30//15
f 36//15 38//15 26//15
f 27//15 37//15 39//15
f 33//15 46//15 34//15
f 42//13 55//13 43//13
f 39//9 52//9 40//9
f 46//4 59//4 47//4
f 43//1 56//1 44//1
f 40//10 53//10 41//10
f 47//5 60//5 48//5
f 38//7 49//7 37//7
f 44//2 57//2 45//2
f 41//12 54//12 42//12
f 48//6 50//6 38//6
f 37//8 51//8 39//8
f 133//27 136//27 135//27
f 138//28 139//28 137//28
f 142//29 143//29 141//29
f 145//30 148//30 147//30
f 150//31 151//31 149//31
f 154//32 155//32 153//32
f 157//33 160//33 159//33
f 162//34 163//34 161//34
f 166//35 167//35 165//35
f 169//36 172//36 171//36
f 174//37 175//37 173//37
f 178//38 179//38 177//38
f 198//39 199//39 197//39
f 201//40 204//40 203//40
f 205//41 208//41 207//41
f 209//42 212//42 211//42
f 2//1 4//1 3//1
f 4//2 6//2 5//2
f 6//3 8//3 7//3
f 8//4 10//4 9//4
f 10//5 12//5 11//5
f 12//6 14//6 13//6
f 14//7 16//7 15//7
f 16//8 18//8 17//8
f 18//9 20//9 19//9
f 20//10 22//10 21//10
f 12//11 30//11 31//11
f 22//12 24//12 23//12
f 24//13 2//13 1//13
f 23//14 1//14 3//14
f 3//14 5//14 7//14
f 7//14 9//14 15//14
f 9//14 11//14 15//14
f 11//14 13//14 15//14
f 15//14 17//14 19//14
f 19//14 21//14 15//14
f 21//14 23//14 15//14
f 23//14 3//14 15//14
f 30//15 42//15 43//15
f 10//16 29//16 30//16
f 10//17 8//17 28//17
f 24//18 36//18 26//18
f 4//19 2//19 26//19
f 6//20 27//20 28//20
f 24//21 22//21 35//21
f 4//22 25//22 27//22
f 22//23 20//23 34//23
f 18//24 33//24 34//24
f 16//25 32//25 33//25
f 16//26 14//26 31//26
f 45//3 57//3 58//3
f 27//15 39//15 40//15
f 34//15 46//15 47//15
f 32//15 31//15 43//15
f 28//15 40//15 41//15
f 35//15 47//15 48//15
f 25//15 26//15 38//15
f 33//15 32//15 44//15
f 29//15 41//15 42//15
f 36//15 48//15 38//15
f 27//15 25//15 37//15
f 33//15 45//15 46//15
f 42//13 54//13 55//13
f 39//9 51//9 52//9
f 46//4 58//4 59//4
f 43//1 55//1 56//1
f 40//10 52//10 53//10
f 47//5 59//5 60//5
f 38//7 50//7 49//7
f 44//2 56//2 57//2
f 41//12 53//12 54//12
f 48//6 60//6 50//6
f 37//8 49//8 51//8
f 133//27 134//27 136//27
f 138//28 140//28 139//28
f 142//29 144//29 143//29
f 145//30 146//30 148//30
f 150//31 152//31 151//31
f 154//32 156//32 155//32
f 157//33 158//33 160//33
f 162//34 164//34 163//34
f 166//35 168//35 167//35
f 169//36 170//36 172//36
f 174//37 176//37 175//37
f 178//38 180//38 179//38
f 198//43 200//43 199//43
f 201//40 202//40 204//40
f 205//44 206//44 208//44
f 209//45 210//45 212//45
usemtl Grey.014
f 51//46 119//46 63//46
f 62//47 84//47 74//47
f 57//48 100//48 98//48
f 54//15 85//15 55//15
f 63//49 123//49 124//49
f 59//50 107//50 71//50
f 68//51 92//51 67//51
f 52//52 128//52 126//52
f 72//53 104//53 71//53
f 61//54 116//54 62//54
f 57//55 95//55 69//55
f 66//56 132//56 65//56
f 72//57 111//57 112//57
f 83//15 79//15 75//15
f 73//58 186//58 61//58
f 70//59 81//59 82//59
f 66//60 79//60 67//60
f 63//61 76//61 64//61
f 71//62 82//62 83//62
f 68//63 79//63 80//63
f 64//64 77//64 65//64
f 84//65 189//65 191//65
f 62//66 73//66 61//66
f 80//67 194//67 68//67
f 66//68 182//68 181//68
f 87//6 136//6 88//6
f 55//69 87//69 67//69
f 66//70 87//70 88//70
f 54//71 88//71 86//71
f 107//10 156//10 108//10
f 55//72 92//72 90//72
f 56//15 90//15 89//15
f 56//73 91//73 68//73
f 127//4 176//4 128//4
f 56//74 96//74 94//74
f 69//75 96//75 68//75
f 56//15 93//15 57//15
f 97//76 147//76 99//76
f 69//77 99//77 100//77
f 57//15 97//15 58//15
f 58//78 99//78 70//78
f 86//13 133//13 85//13
f 59//15 101//15 60//15
f 59//79 104//79 102//79
f 60//80 103//80 72//80
f 117//81 167//81 119//81
f 58//82 108//82 106//82
f 71//83 108//83 70//83
f 59//15 106//15 105//15
f 106//4 153//4 105//4
f 60//84 112//84 110//84
f 60//15 109//15 50//15
f 50//85 111//85 62//85
f 126//10 173//10 125//10
f 49//15 114//15 113//15
f 49//86 115//86 61//86
f 50//87 116//87 114//87
f 98//88 148//88 146//88
f 61//89 119//89 120//89
f 49//90 120//90 118//90
f 51//15 118//15 117//15
f 118//91 168//91 166//91
f 51//92 124//92 122//92
f 51//15 121//15 52//15
f 52//93 123//93 64//93
f 99//9 148//9 100//9
f 65//94 128//94 64//94
f 53//15 126//15 125//15
f 53//95 127//95 65//95
f 120//2 167//2 168//2
f 53//15 129//15 54//15
f 54//96 131//96 66//96
f 53//97 132//97 130//97
f 126//98 176//98 174//98
f 106//99 156//99 154//99
f 86//100 136//100 134//100
f 114//7 161//7 113//7
f 125//101 175//101 127//101
f 94//2 141//2 93//2
f 105//102 155//102 107//102
f 85//103 135//103 87//103
f 115//1 164//1 116//1
f 95//8 144//8 96//8
f 113//104 163//104 115//104
f 93//105 143//105 95//105
f 122//9 169//9 121//9
f 102//5 149//5 101//5
f 114//106 164//106 162//106
f 94//107 144//107 142//107
f 123//3 172//3 124//3
f 103//12 152//12 104//12
f 122//108 172//108 170//108
f 102//109 152//109 150//109
f 130//12 177//12 129//12
f 110//6 157//6 109//6
f 121//110 171//110 123//110
f 90//1 137//1 89//1
f 101//111 151//111 103//111
f 131//5 180//5 132//5
f 111//13 160//13 112//13
f 91//112 140//112 92//112
f 129//113 179//113 131//113
f 110//114 160//114 158//114
f 90//115 140//115 138//115
f 118//8 165//8 117//8
f 130//116 180//116 178//116
f 98//3 145//3 97//3
f 109//117 159//117 111//117
f 89//118 139//118 91//118
f 182//12 197//12 181//12
f 78//119 181//119 183//119
f 77//120 182//120 65//120
f 78//121 184//121 77//121
f 194//122 212//122 210//122
f 73//123 187//123 188//123
f 61//124 185//124 63//124
f 75//125 185//125 187//125
f 190//126 208//126 206//126
f 83//127 191//127 192//127
f 83//128 190//128 71//128
f 72//129 190//129 189//129
f 193//130 211//130 195//130
f 80//131 195//131 196//131
f 69//132 194//132 193//132
f 81//133 193//133 195//133
f 186//8 201//8 185//8
f 183//5 200//5 184//5
f 190//5 205//5 189//5
f 187//2 204//2 188//2
f 194//2 209//2 193//2
f 181//134 199//134 183//134
f 191//12 208//12 192//12
f 186//135 204//135 202//135
f 195//136 212//136 196//136
f 182//137 200//137 198//137
f 189//138 207//138 191//138
f 185//139 203//139 187//139
f 51//140 117//140 119//140
f 62//47 72//47 84//47
f 57//141 69//141 100//141
f 54//15 86//15 85//15
f 63//49 64//49 123//49
f 59//142 105//142 107//142
f 68//51 91//51 92//51
f 52//143 64//143 128//143
f 72//53 103//53 104//53
f 61//54 115//54 116//54
f 57//144 93//144 95//144
f 66//56 131//56 132//56
f 72//57 62//57 111//57
f 75//15 73//15 74//15
f 74//15 84//15 83//15
f 83//15 82//15 81//15
f 81//15 80//15 83//15
f 80//15 79//15 83//15
f 79//15 78//15 75//15
f 78//15 77//15 75//15
f 77//15 76//15 75//15
f 75//15 74//15 83//15
f 73//145 188//145 186//145
f 70//59 69//59 81//59
f 66//60 78//60 79//60
f 63//61 75//61 76//61
f 71//62 70//62 82//62
f 68//63 67//63 79//63
f 64//64 76//64 77//64
f 84//146 72//146 189//146
f 62//66 74//66 73//66
f 80//147 196//147 194//147
f 66//148 65//148 182//148
f 87//149 135//149 136//149
f 55//150 85//150 87//150
f 66//70 67//70 87//70
f 54//151 66//151 88//151
f 107//10 155//10 156//10
f 55//152 67//152 92//152
f 56//15 55//15 90//15
f 56//153 89//153 91//153
f 127//4 175//4 176//4
f 56//154 68//154 96//154
f 69//75 95//75 96//75
f 56//15 94//15 93//15
f 97//76 145//76 147//76
f 69//77 70//77 99//77
f 57//15 98//15 97//15
f 58//155 97//155 99//155
f 86//13 134//13 133//13
f 59//15 102//15 101//15
f 59//156 71//156 104//156
f 60//157 101//157 103//157
f 117//81 165//81 167//81
f 58//158 70//158 108//158
f 71//83 107//83 108//83
f 59//15 58//15 106//15
f 106//4 154//4 153//4
f 60//159 72//159 112//159
f 60//15 110//15 109//15
f 50//160 109//160 111//160
f 126//10 174//10 173//10
f 49//15 50//15 114//15
f 49//161 113//161 115//161
f 50//162 62//162 116//162
f 98//88 100//88 148//88
f 61//89 63//89 119//89
f 49//163 61//163 120//163
f 51//15 49//15 118//15
f 118//91 120//91 168//91
f 51//164 63//164 124//164
f 51//15 122//15 121//15
f 52//165 121//165 123//165
f 99//9 147//9 148//9
f 65//94 127//94 128//94
f 53//15 52//15 126//15
f 53//166 125//166 127//166
f 120//2 119//2 167//2
f 53//15 130//15 129//15
f 54//167 129//167 131//167
f 53//168 65//168 132//168
f 126//98 128//98 176//98
f 106//99 108//99 156//99
f 86//100 88//100 136//100
f 114//7 162//7 161//7
f 125//101 173//101 175//101
f 94//2 142//2 141//2
f 105//102 153//102 155//102
f 85//103 133//103 135//103
f 115//1 163//1 164//1
f 95//8 143//8 144//8
f 113//104 161//104 163//104
f 93//105 141//105 143//105
f 122//9 170//9 169//9
f 102//5 150//5 149//5
f 114//106 116//106 164//106
f 94//107 96//107 144//107
f 123//3 171//3 172//3
f 103//12 151//12 152//12
f 122//108 124//108 172//108
f 102//109 104//109 152//109
f 130//12 178//12 177//12
f 110//6 158//6 157//6
f 121//110 169//110 171//110
f 90//1 138//1 137//1
f 101//111 149//111 151//111
f 131//5 179//5 180//5
f 111//13 159//13 160//13
f 91//7 139//7 140//7
f 129//113 177//113 179//113
f 110//114 112//114 160//114
f 90//115 92//115 140//115
f 118//8 166//8 165//8
f 130//116 132//116 180//116
f 98//3 146//3 145//3
f 109//117 157//117 159//117
f 89//118 137//118 139//118
f 182//12 198//12 197//12
f 78//169 66//169 181//169
f 77//170 184//170 182//170
f 78//171 183//171 184//171
f 194//122 196//122 212//122
f 73//123 75//123 187//123
f 61//172 186//172 185//172
f 75//173 63//173 185//173
f 190//126 192//126 208//126
f 83//174 84//174 191//174
f 83//175 192//175 190//175
f 72//176 71//176 190//176
f 193//177 209//177 211//177
f 80//131 81//131 195//131
f 69//178 68//178 194//178
f 81//179 69//179 193//179
f 186//8 202//8 201//8
f 183//180 199//180 200//180
f 190//5 206//5 205//5
f 187//2 203//2 204//2
f 194//2 210//2 209//2
f 181//134 197//134 199//134
f 191//181 207//181 208//181
f 186//182 188//182 204//182
f 195//8 211//8 212//8
f 182//183 184//183 200//183
f 189//184 205//184 207//184
f 185//185 201//185 203//185
