# Blender v3.5.0 OBJ File: 'dayScene.blend'
# www.blender.org
mtllib Plane.001.mtl
o Debris_Papers_1_Plane.001
v -13.693490 0.162672 13.693490
v 13.693490 0.162672 13.693490
v -13.693490 0.162672 -13.693490
v 13.693490 0.162672 -13.693490
v 43.099312 0.488017 -7.918102
v 70.486290 0.488017 -7.918102
v 43.099312 0.488017 -28.982891
v 70.486290 0.488017 -28.982891
v -40.627411 0.732026 9.843698
v -18.848587 0.732026 26.448807
v -24.022301 0.732026 -11.935122
v -2.243479 0.732026 4.669986
v 35.212555 0.356056 -11.518692
v 44.686672 0.356056 14.177373
v 54.976765 0.356056 -18.805740
v 64.450890 0.356056 6.890324
v -30.459667 0.162672 -40.468983
v -3.072686 0.162672 -40.468983
v -30.459667 0.162672 -67.855965
v -3.072686 0.162672 -67.855965
v 7.089468 0.732026 35.088467
v 28.868290 0.732026 51.693569
v 23.694576 0.732026 13.309644
v 45.473396 0.732026 29.914751
vn 0.0000 1.0000 0.0000
usemtl White.001
s 1
f 2//1 3//1 1//1
f 6//1 7//1 5//1
f 10//1 11//1 9//1
f 14//1 15//1 13//1
f 18//1 19//1 17//1
f 22//1 23//1 21//1
f 2//1 4//1 3//1
f 6//1 8//1 7//1
f 10//1 12//1 11//1
f 14//1 16//1 15//1
f 18//1 20//1 19//1
f 22//1 24//1 23//1
