# Blender v3.5.0 OBJ File: 'dayScene.blend'
# www.blender.org
mtllib SportsCar2_FrontRightWheel_Cylinder.004.mtl
o SportsCar2_FrontRightWheel_Cylinder.004
v -76.170944 108.663574 -31.758720
v -93.877548 108.663574 -31.758720
v -76.170944 113.171494 -14.935080
v -93.877548 113.171494 -14.935080
v -76.170944 125.487213 -2.619360
v -93.877548 125.487213 -2.619360
v -76.170944 142.310730 1.888560
v -93.877548 142.310730 1.888560
v -76.170944 159.134369 -2.619360
v -93.877548 159.134369 -2.619360
v -76.170944 171.450089 -14.935080
v -93.877548 171.450089 -14.935080
v -76.170944 175.958023 -31.758720
v -93.877548 175.958023 -31.758720
v -76.170944 171.450089 -48.582241
v -93.877548 171.450089 -48.582241
v -76.170944 159.134369 -60.897961
v -93.877548 159.134369 -60.897961
v -76.170944 142.310730 -65.405884
v -93.877548 142.310730 -65.405884
v -76.170944 125.487213 -60.897961
v -93.877548 125.487213 -60.898083
v -76.170944 113.171494 -48.582241
v -93.877548 113.171494 -48.582359
v -97.611588 120.247650 -19.020599
v -97.611588 116.834503 -31.758720
v -97.611588 129.572617 -9.695641
v -97.611588 142.310730 -6.282480
v -97.611588 155.048843 -9.695641
v -97.611588 164.373810 -19.020599
v -97.611588 167.786972 -31.758720
v -97.611588 164.373810 -44.496838
v -97.611588 155.048843 -53.821800
v -97.611588 142.310730 -57.234962
v -97.611588 129.572617 -53.821800
v -97.611588 120.247650 -44.496838
v -97.611588 123.048935 -20.637840
v -97.611588 120.069092 -31.758720
v -97.611588 131.189972 -12.496799
v -97.611588 142.310730 -9.517080
v -97.611588 153.431610 -12.496799
v -97.611588 161.572647 -20.637840
v -97.611588 164.552368 -31.758720
v -97.611588 161.572647 -42.879482
v -97.611588 153.431610 -51.020519
v -97.611588 142.310730 -54.000359
v -97.611588 131.189972 -51.020519
v -97.611588 123.048935 -42.879482
v -94.573547 123.048935 -20.637840
v -94.573547 120.069092 -31.758720
v -94.573547 131.189972 -12.496799
v -94.573547 142.310730 -9.517080
v -94.573547 153.431610 -12.496799
v -94.573547 161.572647 -20.637840
v -94.573547 164.552368 -31.758720
v -94.573547 161.572647 -42.879482
v -94.573547 153.431610 -51.020519
v -94.573547 142.310730 -54.000359
v -94.573547 131.189972 -51.020519
v -94.573547 123.048935 -42.879482
v -94.921066 136.913849 -28.642801
v -94.921066 136.078888 -31.758720
v -94.921066 139.194824 -26.361719
v -94.921066 142.310730 -25.526880
v -94.921066 145.426651 -26.361719
v -94.921066 147.707733 -28.642801
v -94.921066 148.542572 -31.758720
v -94.921066 147.707733 -34.874641
v -94.921066 145.426651 -37.155602
v -94.921066 142.310730 -37.990562
v -94.921066 139.194824 -37.155602
v -94.921066 136.913849 -34.874641
v -95.991226 138.945938 -29.816040
v -95.991226 138.425369 -31.758720
v -95.991226 140.368057 -28.393921
v -95.991226 142.310730 -27.873360
v -95.991226 144.253403 -28.393921
v -95.991226 145.675644 -29.816040
v -95.991226 146.196106 -31.758720
v -95.991226 145.675644 -33.701397
v -95.991226 144.253403 -35.123520
v -95.991226 142.310730 -35.644081
v -95.991226 140.368057 -35.123520
v -95.991226 138.945938 -33.701397
v -94.573547 163.083817 -30.646559
v -94.573547 160.700012 -21.749880
v -94.493385 149.961578 -30.904442
v -94.493385 149.243134 -28.223518
v -94.573547 160.700012 -41.767441
v -94.573547 163.083817 -32.870762
v -94.493385 149.243134 -35.293800
v -94.493385 149.961578 -32.612999
v -94.573547 153.569855 -49.530602
v -94.573547 160.082611 -43.017719
v -94.493385 146.806412 -38.216881
v -94.493385 148.769012 -36.254398
v -94.573547 143.422897 -52.531799
v -94.573547 152.319580 -50.147881
v -94.493385 143.165131 -39.409439
v -94.493385 145.845932 -38.691120
v -94.573547 124.538857 -43.017719
v -94.573547 131.051727 -49.530602
v -94.493385 135.852570 -36.254398
v -94.493385 137.815170 -38.216881
v -94.573547 132.302017 -50.147881
v -94.573547 141.198700 -52.531799
v -94.493385 138.775650 -38.691120
v -94.493385 141.456451 -39.409439
v -94.573547 121.537773 -32.870762
v -94.573547 123.921577 -41.767441
v -94.493385 134.660004 -32.612999
v -94.493385 135.378326 -35.293800
v -94.573547 123.921577 -21.750000
v -94.573547 121.537773 -30.646559
v -94.493385 135.378326 -28.223518
v -94.493385 134.660004 -30.904442
v -94.573547 131.051727 -13.986840
v -94.573547 124.538857 -20.499599
v -94.493385 137.815048 -25.300442
v -94.493385 135.852570 -27.263041
v -94.573547 141.198700 -10.985640
v -94.573547 132.302017 -13.369440
v -94.493385 141.456451 -24.107880
v -94.493385 138.775650 -24.826319
v -94.573547 152.319580 -13.369440
v -94.573547 143.422897 -10.985640
v -94.493385 145.845932 -24.826319
v -94.493385 143.165131 -24.108000
v -94.573547 160.082611 -20.499599
v -94.573547 153.569855 -13.986840
v -94.493385 148.769012 -27.263041
v -94.493385 146.806412 -25.300442
v -89.304466 163.083817 -30.646559
v -89.304466 160.700012 -21.749880
v -90.445671 149.961578 -30.904442
v -90.445671 149.243134 -28.223518
v -89.304466 160.700012 -41.767441
v -89.304466 163.083817 -32.870762
v -90.445671 149.243134 -35.293800
v -90.445671 149.961578 -32.612999
v -89.304466 153.569855 -49.530602
v -89.304466 160.082611 -43.017719
v -90.445671 146.806412 -38.216881
v -90.445671 148.769012 -36.254398
v -89.304466 143.422897 -52.531799
v -89.304466 152.319580 -50.147881
v -90.445671 143.165131 -39.409439
v -90.445671 145.845932 -38.691120
v -89.304466 124.538857 -43.017719
v -89.304466 131.051727 -49.530602
v -90.445671 135.852570 -36.254398
v -90.445671 137.815170 -38.216881
v -89.304466 132.302017 -50.147881
v -89.304466 141.198700 -52.531799
v -90.445671 138.775650 -38.691120
v -90.445671 141.456451 -39.409439
v -89.304466 121.537773 -32.870762
v -89.304466 123.921577 -41.767441
v -90.445671 134.660004 -32.612999
v -90.445671 135.378326 -35.293800
v -89.304466 123.921577 -21.749880
v -89.304466 121.537773 -30.646559
v -90.445671 135.378326 -28.223518
v -90.445671 134.660004 -30.904442
v -89.304466 131.051727 -13.986840
v -89.304466 124.538857 -20.499599
v -90.445671 137.815048 -25.300442
v -90.445671 135.852570 -27.263041
v -89.304466 141.198700 -10.985640
v -89.304466 132.302017 -13.369440
v -90.445671 141.456451 -24.107880
v -90.445671 138.775650 -24.826319
v -89.304466 152.319580 -13.369440
v -89.304466 143.422897 -10.985640
v -90.445671 145.845932 -24.826319
v -90.445671 143.165131 -24.108000
v -89.304466 160.082611 -20.499599
v -89.304466 153.569855 -13.986840
v -90.445671 148.769012 -27.263041
v -90.445671 146.806412 -25.300442
v -95.135025 147.016891 -28.421160
v -95.135025 145.648300 -27.052559
v -95.777145 145.797577 -29.125198
v -95.777145 144.944260 -28.271879
v -95.135025 138.973282 -27.052559
v -95.135025 137.604691 -28.421160
v -95.777145 139.677216 -28.271879
v -95.777145 138.824020 -29.125198
v -95.135025 137.604691 -35.096161
v -95.135025 138.973282 -36.464760
v -95.777145 138.824020 -34.392239
v -95.777145 139.677216 -35.245438
v -95.135025 145.648300 -36.464760
v -95.135025 147.016891 -35.096161
v -95.777145 144.944260 -35.245438
v -95.777145 145.797577 -34.392239
v -92.934822 147.016891 -28.421160
v -92.934822 145.648300 -27.052559
v -93.576942 145.797577 -29.125198
v -93.576942 144.944260 -28.271879
v -92.934822 138.973282 -27.052559
v -92.934822 137.604691 -28.421160
v -93.576942 139.677216 -28.271879
v -93.576942 138.824020 -29.125198
v -92.934822 137.604691 -35.096161
v -92.934822 138.973282 -36.464760
v -93.576942 138.824020 -34.392239
v -93.576942 139.677216 -35.245438
v -92.934822 145.648300 -36.464760
v -92.934822 147.016891 -35.096161
v -93.576942 144.944260 -35.245438
v -93.576942 145.797577 -34.392239
vn 0.0000 -0.9659 0.2588
vn 0.0000 -0.7071 0.7071
vn 0.0000 -0.2588 0.9659
vn 0.0000 0.2588 0.9659
vn 0.0000 0.7071 0.7071
vn 0.0000 0.9659 0.2588
vn 0.0000 0.9659 -0.2588
vn 0.0000 0.7071 -0.7071
vn 0.0000 0.2588 -0.9659
vn 0.0000 -0.2588 -0.9659
vn -0.9039 0.4131 0.1107
vn 0.0000 -0.7071 -0.7071
vn 0.0000 -0.9659 -0.2588
vn 1.0000 -0.0000 0.0000
vn -1.0000 0.0000 0.0000
vn -0.9039 0.3024 0.3024
vn -0.9039 0.1107 0.4131
vn -0.9039 -0.4131 -0.1107
vn -0.9039 -0.4131 0.1107
vn -0.9039 -0.1107 0.4131
vn -0.9039 -0.3024 -0.3024
vn -0.9039 -0.3024 0.3024
vn -0.9039 -0.1107 -0.4131
vn -0.9039 0.1107 -0.4131
vn -0.9039 0.3024 -0.3024
vn -0.9039 0.4131 -0.1107
vn -0.9960 0.0862 0.0231
vn -0.9960 0.0862 -0.0231
vn -0.9960 0.0629 -0.0629
vn -0.9960 0.0231 -0.0862
vn -0.9960 -0.0629 -0.0629
vn -0.9960 -0.0231 -0.0862
vn -0.9960 -0.0862 -0.0231
vn -0.9960 -0.0862 0.0231
vn -0.9960 -0.0629 0.0629
vn -0.9960 -0.0231 0.0862
vn -0.9960 0.0231 0.0862
vn -0.9960 0.0629 0.0629
vn -0.9043 0.3019 0.3019
vn -0.9043 -0.3019 0.3019
vn -0.9043 -0.3019 -0.3019
vn -0.9043 0.3019 -0.3019
vn -0.8606 -0.4500 -0.2382
vn -0.9043 -0.4124 -0.1105
vn -0.7162 -0.5965 -0.3623
vn -0.9657 -0.0672 0.2506
vn -0.7162 0.5965 -0.3623
vn -0.9657 0.2506 -0.0672
vn -0.9068 0.4212 0.0197
vn -0.9706 -0.1701 -0.1701
vn -0.9657 -0.2506 0.0672
vn -0.8606 0.4500 0.2383
vn -0.9706 0.1701 0.1701
vn -0.9657 -0.2506 -0.0672
vn -0.9098 -0.3522 0.2197
vn -0.9043 0.1105 -0.4124
vn -0.9043 0.4124 0.1105
vn -0.9043 -0.1105 0.4124
vn -0.9043 -0.1105 -0.4124
vn -0.9043 0.4124 -0.1105
vn -0.9043 0.1105 0.4124
vn -0.9097 -0.3522 -0.2197
vn -0.9043 -0.4124 0.1105
vn -0.9098 0.3522 -0.2197
vn -0.8404 0.3832 0.3832
vn 0.0000 0.9659 0.2589
vn -0.9067 0.0197 0.4212
vn -0.9657 0.2506 0.0672
vn -0.7161 0.3624 -0.5966
vn -0.9067 0.0197 -0.4212
vn -0.7162 0.3623 0.5965
vn -0.8606 -0.2383 -0.4500
vn -0.9706 0.1701 -0.1701
vn 0.0000 0.9998 0.0196
vn -0.9657 0.0672 -0.2507
vn -0.9068 0.4212 -0.0197
vn -0.8606 -0.4501 0.2383
vn -0.8606 0.2383 -0.4500
vn 0.0000 -0.8583 -0.5131
vn -0.9067 -0.4212 -0.0197
vn -0.9657 -0.0672 -0.2507
vn -0.7162 -0.3623 0.5964
vn -0.9067 -0.0197 -0.4213
vn -0.7162 -0.3624 -0.5965
vn -0.9067 -0.0197 0.4212
vn 0.0000 -0.8706 -0.4919
vn -0.9706 -0.1701 0.1701
vn -0.8606 0.2383 0.4500
vn 0.0000 0.5131 0.8583
vn -0.7162 0.5965 0.3623
vn -0.9067 -0.4213 0.0197
vn -0.9657 0.0672 0.2507
vn -0.7161 -0.5966 0.3624
vn -0.8606 -0.2383 0.4500
vn -0.8606 0.4500 -0.2383
vn 0.0000 0.9998 -0.0196
vn 0.0000 -0.9998 0.0196
vn 0.0000 0.4919 -0.8706
vn 0.0000 -0.8706 0.4919
vn 0.0000 0.8706 -0.4919
vn 0.0000 -0.0196 0.9998
vn 0.0000 -0.4919 -0.8706
vn 0.0000 0.8583 0.5131
vn 0.0000 0.0196 0.9998
vn 0.0000 -0.5131 -0.8583
vn 0.0000 -0.2589 0.9659
vn 0.0000 0.8706 0.4919
vn 0.0000 -0.8583 0.5131
vn 0.0000 -0.9998 -0.0196
vn 0.0000 0.5131 -0.8583
vn 0.0000 0.9659 -0.2589
vn 0.0000 -0.5131 0.8583
vn 0.0000 -0.4919 0.8706
vn 0.0000 -0.0196 -0.9998
vn 0.0000 0.8583 -0.5131
vn 0.0000 0.0196 -0.9998
vn 0.0000 0.4919 0.8706
vn -0.9098 0.3522 0.2197
vn -0.9098 0.2197 0.3522
vn -0.9371 0.2468 0.2468
vn 0.0000 -0.5000 -0.8660
vn -0.9371 -0.2468 0.2468
vn -0.8404 -0.3832 0.3832
vn -0.9098 -0.2197 0.3522
vn 0.0000 -0.8660 0.5000
vn -0.9371 -0.2468 -0.2468
vn -0.9098 -0.2198 -0.3522
vn -0.8402 -0.3835 -0.3834
vn -0.8402 -0.3834 -0.3835
vn -0.8402 -0.3834 -0.3834
vn 0.0000 0.8660 0.5000
vn -0.9371 0.2468 -0.2468
vn -0.8404 0.3832 -0.3832
vn -0.9097 0.2197 -0.3523
vn 0.0000 -0.7072 0.7071
vn 0.0000 -0.5000 0.8660
vn 0.0000 0.5000 0.8660
vn 0.0000 0.7070 -0.7072
vn 0.0000 0.8660 -0.5000
vn 0.0000 0.5000 -0.8660
vn 0.0000 -0.8660 -0.5000
vn -0.9999 0.0103 -0.0010
vn -0.9999 0.0099 0.0126
vn -0.9657 -0.0672 0.2507
vn -0.9999 -0.0099 0.0126
vn -0.9657 0.2507 -0.0672
vn -1.0000 -0.0079 -0.0060
vn -0.9657 -0.2507 0.0672
vn -0.9999 -0.0102 0.0010
vn -0.9657 -0.2507 -0.0672
vn -0.9098 -0.3522 0.2198
vn -0.9098 -0.3522 -0.2198
vn -0.9098 0.3522 -0.2198
vn -1.0000 -0.0060 -0.0079
vn -0.9657 0.2507 0.0672
vn -0.9999 -0.0126 0.0099
vn -1.0000 -0.0060 0.0079
vn -0.9999 -0.0126 -0.0099
vn -0.9999 -0.0009 0.0103
vn -0.9657 0.0672 -0.2506
vn -1.0000 -0.0079 0.0060
vn -0.9999 0.0103 0.0010
vn -0.9999 0.0009 0.0103
vn -1.0000 0.0079 0.0060
vn -0.9999 0.0126 -0.0099
vn -1.0000 0.0060 0.0079
vn -0.9999 0.0126 0.0099
vn -1.0000 0.0060 -0.0079
vn -0.9999 0.0009 -0.0103
vn -0.9999 -0.0098 -0.0126
vn -1.0000 0.0079 -0.0060
vn -0.9999 0.0099 -0.0126
vn -0.9999 -0.0009 -0.0103
vn -0.9999 -0.0103 -0.0010
vn -0.9097 0.3522 0.2198
vn -0.9098 0.2197 0.3523
vn -0.8405 -0.3832 0.3832
vn -0.9098 -0.2197 0.3523
vn -0.8404 -0.3829 -0.3835
vn -0.8405 0.3831 -0.3832
vn -0.9098 0.2198 -0.3522
usemtl Black.007
s off
f 3//1 2//1 1//1
f 5//2 4//2 3//2
f 7//3 6//3 5//3
f 9//4 8//4 7//4
f 11//5 10//5 9//5
f 13//6 12//6 11//6
f 15//7 14//7 13//7
f 17//8 16//8 15//8
f 19//9 18//9 17//9
f 19//10 22//10 20//10
f 31//11 12//11 14//11
f 21//12 24//12 22//12
f 23//13 2//13 24//13
f 23//14 19//14 11//14
f 31//15 42//15 30//15
f 12//16 29//16 10//16
f 29//17 8//17 10//17
f 2//18 36//18 24//18
f 25//19 2//19 4//19
f 28//20 6//20 8//20
f 24//21 35//21 22//21
f 27//22 4//22 6//22
f 22//23 34//23 20//23
f 20//24 33//24 18//24
f 18//25 32//25 16//25
f 16//26 31//26 14//26
f 58//3 45//3 46//3
f 28//15 39//15 27//15
f 47//15 34//15 35//15
f 44//15 31//15 32//15
f 41//15 28//15 29//15
f 48//15 35//15 36//15
f 25//15 38//15 26//15
f 45//15 32//15 33//15
f 30//15 41//15 29//15
f 26//15 48//15 36//15
f 27//15 37//15 25//15
f 46//15 33//15 34//15
f 55//13 42//13 43//13
f 52//9 39//9 40//9
f 59//4 46//4 47//4
f 56//1 43//1 44//1
f 53//10 40//10 41//10
f 60//5 47//5 48//5
f 49//7 38//7 37//7
f 57//2 44//2 45//2
f 54//12 41//12 42//12
f 50//6 48//6 38//6
f 51//8 37//8 39//8
f 133//27 136//27 134//27
f 139//28 138//28 137//28
f 141//29 144//29 142//29
f 145//30 148//30 146//30
f 151//31 150//31 149//31
f 155//32 154//32 153//32
f 157//33 160//33 158//33
f 163//34 162//34 161//34
f 167//35 166//35 165//35
f 169//36 172//36 170//36
f 175//37 174//37 173//37
f 179//38 178//38 177//38
f 199//39 198//39 197//39
f 203//40 202//40 201//40
f 205//41 208//41 206//41
f 209//42 212//42 210//42
f 3//1 4//1 2//1
f 5//2 6//2 4//2
f 7//3 8//3 6//3
f 9//4 10//4 8//4
f 11//5 12//5 10//5
f 13//6 14//6 12//6
f 15//7 16//7 14//7
f 17//8 18//8 16//8
f 19//9 20//9 18//9
f 19//10 21//10 22//10
f 31//11 30//11 12//11
f 21//12 23//12 24//12
f 23//13 1//13 2//13
f 3//14 1//14 23//14
f 23//14 21//14 19//14
f 19//14 17//14 11//14
f 17//14 15//14 11//14
f 15//14 13//14 11//14
f 11//14 9//14 3//14
f 9//14 7//14 3//14
f 7//14 5//14 3//14
f 3//14 23//14 11//14
f 31//15 43//15 42//15
f 12//16 30//16 29//16
f 29//17 28//17 8//17
f 2//18 26//18 36//18
f 25//19 26//19 2//19
f 28//20 27//20 6//20
f 24//21 36//21 35//21
f 27//22 25//22 4//22
f 22//23 35//23 34//23
f 20//24 34//24 33//24
f 18//25 33//25 32//25
f 16//26 32//26 31//26
f 58//3 57//3 45//3
f 28//15 40//15 39//15
f 47//15 46//15 34//15
f 44//15 43//15 31//15
f 41//15 40//15 28//15
f 48//15 47//15 35//15
f 25//15 37//15 38//15
f 45//15 44//15 32//15
f 30//15 42//15 41//15
f 26//15 38//15 48//15
f 27//15 39//15 37//15
f 46//15 45//15 33//15
f 55//13 54//13 42//13
f 52//9 51//9 39//9
f 59//4 58//4 46//4
f 56//1 55//1 43//1
f 53//10 52//10 40//10
f 60//5 59//5 47//5
f 49//7 50//7 38//7
f 57//2 56//2 44//2
f 54//12 53//12 41//12
f 50//6 60//6 48//6
f 51//8 49//8 37//8
f 133//27 135//27 136//27
f 139//28 140//28 138//28
f 141//29 143//29 144//29
f 145//30 147//30 148//30
f 151//31 152//31 150//31
f 155//32 156//32 154//32
f 157//33 159//33 160//33
f 163//34 164//34 162//34
f 167//35 168//35 166//35
f 169//36 171//36 172//36
f 175//37 176//37 174//37
f 179//38 180//38 178//38
f 199//39 200//39 198//39
f 203//40 204//40 202//40
f 205//41 207//41 208//41
f 209//42 211//42 212//42
usemtl Grey.015
f 119//43 51//43 63//43
f 74//44 72//44 62//44
f 57//45 100//45 69//45
f 85//15 54//15 55//15
f 63//46 123//46 64//46
f 107//47 59//47 71//47
f 92//48 68//48 67//48
f 52//49 128//49 64//49
f 71//50 103//50 72//50
f 116//51 61//51 62//51
f 95//52 57//52 69//52
f 65//53 131//53 66//53
f 72//54 111//54 62//54
f 77//15 81//15 74//15
f 186//55 73//55 61//55
f 82//56 69//56 70//56
f 67//57 78//57 66//57
f 76//58 63//58 64//58
f 71//59 82//59 70//59
f 80//60 67//60 68//60
f 65//61 76//61 64//61
f 84//62 189//62 72//62
f 61//63 74//63 62//63
f 194//64 80//64 68//64
f 181//65 65//65 66//65
f 136//66 87//66 88//66
f 87//67 55//67 67//67
f 66//68 87//68 67//68
f 54//69 88//69 66//69
f 156//10 107//10 108//10
f 55//70 92//70 67//70
f 56//15 90//15 55//15
f 91//71 56//71 68//71
f 176//4 127//4 128//4
f 56//72 96//72 68//72
f 68//73 95//73 69//73
f 93//15 56//15 57//15
f 147//74 97//74 99//74
f 69//75 99//75 70//75
f 97//15 57//15 58//15
f 99//76 58//76 70//76
f 133//13 86//13 85//13
f 60//15 102//15 59//15
f 59//77 104//77 71//77
f 103//78 60//78 72//78
f 167//79 117//79 119//79
f 58//80 108//80 70//80
f 108//81 71//81 70//81
f 59//15 106//15 58//15
f 153//4 106//4 105//4
f 60//82 112//82 72//82
f 109//15 60//15 50//15
f 111//83 50//83 62//83
f 173//10 126//10 125//10
f 49//15 114//15 50//15
f 115//84 49//84 61//84
f 50//85 116//85 62//85
f 98//86 148//86 100//86
f 120//87 63//87 61//87
f 49//88 120//88 61//88
f 51//15 118//15 49//15
f 118//89 168//89 120//89
f 51//90 124//90 63//90
f 121//15 51//15 52//15
f 123//91 52//91 64//91
f 148//9 99//9 100//9
f 128//92 65//92 64//92
f 53//15 126//15 52//15
f 127//93 53//93 65//93
f 168//2 119//2 120//2
f 54//15 130//15 53//15
f 131//94 54//94 66//94
f 53//95 132//95 65//95
f 126//96 176//96 128//96
f 106//97 156//97 108//97
f 86//98 136//98 88//98
f 113//7 162//7 114//7
f 175//99 125//99 127//99
f 141//2 94//2 93//2
f 155//100 105//100 107//100
f 135//101 85//101 87//101
f 164//1 115//1 116//1
f 144//8 95//8 96//8
f 163//102 113//102 115//102
f 143//103 93//103 95//103
f 169//9 122//9 121//9
f 149//5 102//5 101//5
f 114//104 164//104 116//104
f 94//105 144//105 96//105
f 172//106 123//106 124//106
f 152//12 103//12 104//12
f 122//107 172//107 124//107
f 102//108 152//108 104//108
f 177//12 130//12 129//12
f 157//6 110//6 109//6
f 171//109 121//109 123//109
f 137//1 90//1 89//1
f 151//110 101//110 103//110
f 180//5 131//5 132//5
f 160//13 111//13 112//13
f 140//111 91//111 92//111
f 179//112 129//112 131//112
f 110//113 160//113 112//113
f 90//114 140//114 92//114
f 165//8 118//8 117//8
f 130//115 180//115 132//115
f 145//3 98//3 97//3
f 159//116 109//116 111//116
f 139//117 89//117 91//117
f 197//12 182//12 181//12
f 78//118 181//118 66//118
f 182//119 77//119 65//119
f 77//120 183//120 78//120
f 194//121 212//121 196//121
f 188//122 75//122 73//122
f 63//123 186//123 61//123
f 75//124 185//124 63//124
f 190//125 208//125 192//125
f 192//126 84//126 83//126
f 190//127 83//127 71//127
f 189//128 71//129 72//130
f 211//131 193//131 195//131
f 80//132 195//132 81//132
f 193//133 68//133 69//133
f 81//134 193//134 69//134
f 201//8 186//8 185//8
f 200//5 183//5 184//5
f 205//5 190//5 189//5
f 204//135 187//135 188//135
f 209//2 194//2 193//2
f 199//136 181//136 183//136
f 208//12 191//12 192//12
f 186//137 204//137 188//137
f 212//138 195//138 196//138
f 182//139 200//139 184//139
f 207//140 189//140 191//140
f 203//141 185//141 187//141
f 119//142 117//142 51//142
f 74//44 84//44 72//44
f 57//143 98//143 100//143
f 85//15 86//15 54//15
f 63//144 124//144 123//144
f 107//145 105//145 59//145
f 92//146 91//146 68//146
f 52//147 126//147 128//147
f 71//50 104//50 103//50
f 116//148 115//148 61//148
f 95//149 93//149 57//149
f 65//53 132//53 131//53
f 72//150 112//150 111//150
f 74//15 73//15 77//15
f 73//15 75//15 77//15
f 75//15 76//15 77//15
f 77//15 78//15 79//15
f 79//15 80//15 81//15
f 81//15 82//15 83//15
f 83//15 84//15 81//15
f 84//15 74//15 81//15
f 77//15 79//15 81//15
f 186//151 188//151 73//151
f 82//56 81//56 69//56
f 67//57 79//57 78//57
f 76//58 75//58 63//58
f 71//59 83//59 82//59
f 80//60 79//60 67//60
f 65//61 77//61 76//61
f 84//152 191//152 189//152
f 61//63 73//63 74//63
f 194//153 196//153 80//153
f 181//65 182//65 65//65
f 136//6 135//6 87//6
f 87//154 85//154 55//154
f 66//155 88//155 87//155
f 54//156 86//156 88//156
f 156//10 155//10 107//10
f 55//157 90//157 92//157
f 56//15 89//15 90//15
f 91//158 89//158 56//158
f 176//4 175//4 127//4
f 56//159 94//159 96//159
f 68//73 96//73 95//73
f 93//15 94//15 56//15
f 147//74 145//74 97//74
f 69//160 100//160 99//160
f 97//15 98//15 57//15
f 99//161 97//161 58//161
f 133//13 134//13 86//13
f 60//15 101//15 102//15
f 59//162 102//162 104//162
f 103//163 101//163 60//163
f 167//79 165//79 117//79
f 58//164 106//164 108//164
f 108//81 107//81 71//81
f 59//15 105//15 106//15
f 153//4 154//4 106//4
f 60//165 110//165 112//165
f 109//15 110//15 60//15
f 111//166 109//166 50//166
f 173//10 174//10 126//10
f 49//15 113//15 114//15
f 115//167 113//167 49//167
f 50//168 114//168 116//168
f 98//86 146//86 148//86
f 120//87 119//87 63//87
f 49//169 118//169 120//169
f 51//15 117//15 118//15
f 118//89 166//89 168//89
f 51//170 122//170 124//170
f 121//15 122//15 51//15
f 123//171 121//171 52//171
f 148//9 147//9 99//9
f 128//92 127//92 65//92
f 53//15 125//15 126//15
f 127//172 125//172 53//172
f 168//2 167//2 119//2
f 54//15 129//15 130//15
f 131//173 129//173 54//173
f 53//174 130//174 132//174
f 126//96 174//96 176//96
f 106//97 154//97 156//97
f 86//98 134//98 136//98
f 113//7 161//7 162//7
f 175//99 173//99 125//99
f 141//2 142//2 94//2
f 155//100 153//100 105//100
f 135//101 133//101 85//101
f 164//1 163//1 115//1
f 144//8 143//8 95//8
f 163//102 161//102 113//102
f 143//103 141//103 93//103
f 169//9 170//9 122//9
f 149//5 150//5 102//5
f 114//104 162//104 164//104
f 94//105 142//105 144//105
f 172//106 171//106 123//106
f 152//12 151//12 103//12
f 122//107 170//107 172//107
f 102//108 150//108 152//108
f 177//12 178//12 130//12
f 157//6 158//6 110//6
f 171//109 169//109 121//109
f 137//1 138//1 90//1
f 151//110 149//110 101//110
f 180//5 179//5 131//5
f 160//13 159//13 111//13
f 140//111 139//111 91//111
f 179//112 177//112 129//112
f 110//113 158//113 160//113
f 90//114 138//114 140//114
f 165//8 166//8 118//8
f 130//115 178//115 180//115
f 145//3 146//3 98//3
f 159//116 157//116 109//116
f 139//117 137//117 89//117
f 197//12 198//12 182//12
f 78//175 183//175 181//175
f 182//176 184//176 77//176
f 77//120 184//120 183//120
f 194//121 210//121 212//121
f 188//122 187//122 75//122
f 63//177 185//177 186//177
f 75//178 187//178 185//178
f 190//125 206//125 208//125
f 192//126 191//126 84//126
f 190//127 192//127 83//127
f 189//179 190//129 71//128
f 211//131 209//131 193//131
f 80//132 196//132 195//132
f 193//180 194//180 68//180
f 81//181 195//181 193//181
f 201//8 202//8 186//8
f 200//5 199//5 183//5
f 205//5 206//5 190//5
f 204//135 203//135 187//135
f 209//2 210//2 194//2
f 199//136 197//136 181//136
f 208//12 207//12 191//12
f 186//137 202//137 204//137
f 212//8 211//8 195//8
f 182//139 198//139 200//139
f 207//140 205//140 189//140
f 203//141 201//141 185//141
