# Blender v3.5.0 OBJ File: 'dayScene.blend'
# www.blender.org
mtllib SportsCar2_FrontLeftWheel_Cylinder.004.mtl
o SportsCar2_FrontLeftWheel_Cylinder.004
v 76.398582 108.663574 -31.758720
v 94.105186 108.663574 -31.758720
v 76.398582 113.171494 -14.935080
v 94.105186 113.171494 -14.935080
v 76.398582 125.487213 -2.619360
v 94.105186 125.487213 -2.619360
v 76.398582 142.310730 1.888560
v 94.105186 142.310730 1.888560
v 76.398582 159.134369 -2.619360
v 94.105186 159.134369 -2.619360
v 76.398582 171.450089 -14.935080
v 94.105186 171.450089 -14.935080
v 76.398582 175.958023 -31.758720
v 94.105186 175.958023 -31.758720
v 76.398582 171.450089 -48.582241
v 94.105186 171.450089 -48.582241
v 76.398582 159.134369 -60.897961
v 94.105186 159.134369 -60.897961
v 76.398582 142.310730 -65.405884
v 94.105186 142.310730 -65.405884
v 76.398582 125.487213 -60.897961
v 94.105186 125.487213 -60.898083
v 76.398582 113.171494 -48.582241
v 94.105186 113.171494 -48.582359
v 97.839226 120.247650 -19.020599
v 97.839226 116.834503 -31.758720
v 97.839226 129.572617 -9.695641
v 97.839226 142.310730 -6.282480
v 97.839226 155.048843 -9.695641
v 97.839226 164.373810 -19.020599
v 97.839226 167.786972 -31.758720
v 97.839226 164.373810 -44.496838
v 97.839226 155.048843 -53.821800
v 97.839226 142.310730 -57.234962
v 97.839226 129.572617 -53.821800
v 97.839226 120.247650 -44.496838
v 97.839226 123.048935 -20.637840
v 97.839226 120.069092 -31.758720
v 97.839226 131.189972 -12.496799
v 97.839226 142.310730 -9.517080
v 97.839226 153.431610 -12.496799
v 97.839226 161.572647 -20.637840
v 97.839226 164.552368 -31.758720
v 97.839226 161.572647 -42.879482
v 97.839226 153.431610 -51.020519
v 97.839226 142.310730 -54.000359
v 97.839226 131.189972 -51.020519
v 97.839226 123.048935 -42.879482
v 94.801071 123.048935 -20.637840
v 94.801071 120.069092 -31.758720
v 94.801071 131.189972 -12.496799
v 94.801071 142.310730 -9.517080
v 94.801071 153.431610 -12.496799
v 94.801071 161.572647 -20.637840
v 94.801071 164.552368 -31.758720
v 94.801071 161.572647 -42.879482
v 94.801071 153.431610 -51.020519
v 94.801071 142.310730 -54.000359
v 94.801071 131.189972 -51.020519
v 94.801071 123.048935 -42.879482
v 95.148705 136.913849 -28.642801
v 95.148705 136.078888 -31.758720
v 95.148705 139.194824 -26.361719
v 95.148705 142.310730 -25.526880
v 95.148705 145.426651 -26.361719
v 95.148705 147.707733 -28.642801
v 95.148705 148.542572 -31.758720
v 95.148705 147.707733 -34.874641
v 95.148705 145.426651 -37.155602
v 95.148705 142.310730 -37.990562
v 95.148705 139.194824 -37.155602
v 95.148705 136.913849 -34.874641
v 96.218864 138.945938 -29.816040
v 96.218864 138.425369 -31.758720
v 96.218864 140.368057 -28.393921
v 96.218864 142.310730 -27.873360
v 96.218864 144.253403 -28.393921
v 96.218864 145.675644 -29.816040
v 96.218864 146.196106 -31.758720
v 96.218864 145.675644 -33.701397
v 96.218864 144.253403 -35.123520
v 96.218864 142.310730 -35.644081
v 96.218864 140.368057 -35.123520
v 96.218864 138.945938 -33.701397
v 94.801071 163.083817 -30.646559
v 94.801071 160.700012 -21.749880
v 94.721024 149.961578 -30.904442
v 94.721024 149.243134 -28.223518
v 94.801071 160.700012 -41.767441
v 94.801071 163.083817 -32.870762
v 94.721024 149.243134 -35.293800
v 94.721024 149.961578 -32.612999
v 94.801071 153.569855 -49.530602
v 94.801071 160.082611 -43.017719
v 94.721024 146.806412 -38.216881
v 94.721024 148.769012 -36.254398
v 94.801071 143.422897 -52.531799
v 94.801071 152.319580 -50.147881
v 94.721024 143.165131 -39.409439
v 94.721024 145.845932 -38.691120
v 94.801071 124.538857 -43.017719
v 94.801071 131.051727 -49.530602
v 94.721024 135.852570 -36.254398
v 94.721024 137.815170 -38.216881
v 94.801071 132.302017 -50.147881
v 94.801071 141.198700 -52.531799
v 94.721024 138.775650 -38.691120
v 94.721024 141.456451 -39.409439
v 94.801071 121.537773 -32.870762
v 94.801071 123.921577 -41.767441
v 94.721024 134.660004 -32.612999
v 94.721024 135.378326 -35.293800
v 94.801071 123.921577 -21.750000
v 94.801071 121.537773 -30.646559
v 94.721024 135.378326 -28.223518
v 94.721024 134.660004 -30.904442
v 94.801071 131.051727 -13.986840
v 94.801071 124.538857 -20.499599
v 94.721024 137.815048 -25.300442
v 94.721024 135.852570 -27.263041
v 94.801071 141.198700 -10.985640
v 94.801071 132.302017 -13.369440
v 94.721024 141.456451 -24.107880
v 94.721024 138.775650 -24.826319
v 94.801071 152.319580 -13.369440
v 94.801071 143.422897 -10.985640
v 94.721024 145.845932 -24.826319
v 94.721024 143.165131 -24.108000
v 94.801071 160.082611 -20.499599
v 94.801071 153.569855 -13.986840
v 94.721024 148.769012 -27.263041
v 94.721024 146.806412 -25.300442
v 89.532104 163.083817 -30.646559
v 89.532104 160.700012 -21.749880
v 90.673309 149.961578 -30.904442
v 90.673309 149.243134 -28.223518
v 89.532104 160.700012 -41.767441
v 89.532104 163.083817 -32.870762
v 90.673309 149.243134 -35.293800
v 90.673309 149.961578 -32.612999
v 89.532104 153.569855 -49.530602
v 89.532104 160.082611 -43.017719
v 90.673309 146.806412 -38.216881
v 90.673309 148.769012 -36.254398
v 89.532104 143.422897 -52.531799
v 89.532104 152.319580 -50.147881
v 90.673309 143.165131 -39.409439
v 90.673309 145.845932 -38.691120
v 89.532104 124.538857 -43.017719
v 89.532104 131.051727 -49.530602
v 90.673309 135.852570 -36.254398
v 90.673309 137.815170 -38.216881
v 89.532104 132.302017 -50.147881
v 89.532104 141.198700 -52.531799
v 90.673309 138.775650 -38.691120
v 90.673309 141.456451 -39.409439
v 89.532104 121.537773 -32.870762
v 89.532104 123.921577 -41.767441
v 90.673309 134.660004 -32.612999
v 90.673309 135.378326 -35.293800
v 89.532104 123.921577 -21.749880
v 89.532104 121.537773 -30.646559
v 90.673309 135.378326 -28.223518
v 90.673309 134.660004 -30.904442
v 89.532104 131.051727 -13.986840
v 89.532104 124.538857 -20.499599
v 90.673309 137.815048 -25.300442
v 90.673309 135.852570 -27.263041
v 89.532104 141.198700 -10.985640
v 89.532104 132.302017 -13.369440
v 90.673309 141.456451 -24.107880
v 90.673309 138.775650 -24.826319
v 89.532104 152.319580 -13.369440
v 89.532104 143.422897 -10.985640
v 90.673309 145.845932 -24.826319
v 90.673309 143.165131 -24.108000
v 89.532104 160.082611 -20.499599
v 89.532104 153.569855 -13.986840
v 90.673309 148.769012 -27.263041
v 90.673309 146.806412 -25.300442
v 95.362663 147.016891 -28.421160
v 95.362663 145.648300 -27.052559
v 96.004784 145.797577 -29.125198
v 96.004784 144.944260 -28.271879
v 95.362663 138.973282 -27.052559
v 95.362663 137.604691 -28.421160
v 96.004784 139.677216 -28.271879
v 96.004784 138.824020 -29.125198
v 95.362663 137.604691 -35.096161
v 95.362663 138.973282 -36.464760
v 96.004784 138.824020 -34.392239
v 96.004784 139.677216 -35.245438
v 95.362663 145.648300 -36.464760
v 95.362663 147.016891 -35.096161
v 96.004784 144.944260 -35.245438
v 96.004784 145.797577 -34.392239
v 93.162468 147.016891 -28.421160
v 93.162468 145.648300 -27.052559
v 93.804588 145.797577 -29.125198
v 93.804588 144.944260 -28.271879
v 93.162468 138.973282 -27.052559
v 93.162468 137.604691 -28.421160
v 93.804588 139.677216 -28.271879
v 93.804588 138.824020 -29.125198
v 93.162468 137.604691 -35.096161
v 93.162468 138.973282 -36.464760
v 93.804588 138.824020 -34.392239
v 93.804588 139.677216 -35.245438
v 93.162468 145.648300 -36.464760
v 93.162468 147.016891 -35.096161
v 93.804588 144.944260 -35.245438
v 93.804588 145.797577 -34.392239
vn 0.0000 -0.9659 0.2588
vn 0.0000 -0.7071 0.7071
vn 0.0000 -0.2588 0.9659
vn 0.0000 0.2588 0.9659
vn 0.0000 0.7071 0.7071
vn 0.0000 0.9659 0.2588
vn 0.0000 0.9659 -0.2588
vn 0.0000 0.7071 -0.7071
vn 0.0000 0.2588 -0.9659
vn -0.0000 -0.2588 -0.9659
vn 0.9039 0.4131 0.1107
vn -0.0000 -0.7071 -0.7071
vn 0.0000 -0.9659 -0.2588
vn -1.0000 0.0000 0.0000
vn 1.0000 0.0000 0.0000
vn 0.9039 0.3024 0.3024
vn 0.9039 0.1107 0.4131
vn 0.9039 -0.4131 -0.1107
vn 0.9039 -0.4131 0.1107
vn 0.9039 -0.1107 0.4131
vn 0.9039 -0.3024 -0.3024
vn 0.9039 -0.3024 0.3024
vn 0.9039 -0.1107 -0.4131
vn 0.9039 0.1107 -0.4131
vn 0.9039 0.3024 -0.3024
vn 0.9039 0.4131 -0.1107
vn 0.9960 0.0862 0.0231
vn 0.9960 0.0862 -0.0231
vn 0.9960 0.0629 -0.0629
vn 0.9960 0.0231 -0.0862
vn 0.9960 -0.0629 -0.0629
vn 0.9960 -0.0231 -0.0862
vn 0.9960 -0.0862 -0.0231
vn 0.9960 -0.0862 0.0231
vn 0.9960 -0.0629 0.0629
vn 0.9960 -0.0231 0.0862
vn 0.9960 0.0231 0.0862
vn 0.9960 0.0629 0.0629
vn 0.9043 0.3019 0.3019
vn 0.9043 -0.3019 0.3019
vn 0.9043 -0.3019 -0.3019
vn 0.9043 0.3019 -0.3019
vn 0.8607 -0.4500 -0.2382
vn 0.9043 -0.4124 -0.1105
vn 0.9999 0.0098 0.0126
vn 0.9657 -0.0672 0.2507
vn 0.7162 0.5964 -0.3623
vn 0.9657 0.2507 -0.0672
vn 1.0000 -0.0079 -0.0059
vn 0.9706 -0.1701 -0.1701
vn 0.9657 -0.2507 0.0672
vn 0.8606 0.4500 0.2382
vn 0.9706 0.1701 0.1701
vn 0.9657 -0.2506 -0.0672
vn 0.9098 -0.3523 0.2197
vn 0.9043 0.1105 -0.4124
vn 0.9043 0.4124 0.1105
vn 0.9043 -0.1105 0.4124
vn 0.9043 -0.1105 -0.4124
vn 0.9043 0.4124 -0.1105
vn 0.9043 0.1105 0.4124
vn 0.9097 -0.3522 -0.2198
vn 0.9043 -0.4124 0.1105
vn 0.9098 0.3522 -0.2197
vn 0.8404 0.3832 0.3832
vn 0.0000 0.9659 0.2589
vn 0.9067 0.0197 0.4212
vn 0.9657 0.2507 0.0672
vn 0.9999 -0.0126 0.0098
vn 1.0000 -0.0059 0.0079
vn 0.7162 0.3623 0.5965
vn 0.9999 -0.0010 0.0102
vn 0.9707 0.1700 -0.1701
vn 0.0000 0.9998 0.0196
vn 0.9657 0.0672 -0.2506
vn 0.9068 0.4212 -0.0197
vn 0.9999 0.0103 0.0010
vn 0.8607 0.2382 -0.4500
vn 0.0000 -0.8583 -0.5131
vn 1.0000 0.0079 0.0059
vn 0.9657 -0.0672 -0.2507
vn 0.9999 0.0126 -0.0098
vn 0.9067 -0.0197 -0.4212
vn 0.7162 -0.3623 -0.5965
vn 1.0000 0.0059 -0.0079
vn 0.0000 -0.8706 -0.4919
vn 0.9706 -0.1701 0.1701
vn 0.9999 0.0009 -0.0102
vn 0.0000 0.5131 0.8583
vn 0.9999 -0.0098 -0.0126
vn 0.9067 -0.4212 0.0197
vn 0.9657 0.0672 0.2507
vn 0.7161 -0.5965 0.3624
vn 0.8606 -0.2382 0.4500
vn 0.9999 -0.0103 -0.0010
vn 0.0000 0.9998 -0.0196
vn 0.0000 -0.9998 0.0196
vn 0.0000 0.4919 -0.8706
vn 0.0000 -0.8706 0.4919
vn 0.0000 0.8706 -0.4919
vn 0.0000 -0.0196 0.9998
vn 0.0000 -0.4919 -0.8706
vn 0.0000 0.8583 0.5131
vn 0.0000 0.0196 0.9998
vn 0.0000 -0.5131 -0.8583
vn 0.0000 -0.2589 0.9659
vn 0.0000 0.8706 0.4919
vn 0.0000 -0.8583 0.5131
vn 0.0000 -0.9998 -0.0196
vn 0.0000 0.5131 -0.8583
vn 0.0000 0.9659 -0.2589
vn 0.0000 -0.5131 0.8583
vn 0.0000 -0.4919 0.8706
vn 0.0000 -0.0196 -0.9998
vn 0.0000 0.8583 -0.5131
vn 0.0000 0.0196 -0.9998
vn 0.0000 0.4919 0.8706
vn 0.9098 0.3522 0.2198
vn 0.9098 0.2197 0.3522
vn 0.9371 0.2468 0.2468
vn 0.0000 -0.5000 -0.8660
vn 0.9371 -0.2468 0.2468
vn 0.8405 -0.3832 0.3832
vn 0.9098 -0.2194 0.3524
vn 0.9099 -0.2195 0.3520
vn 0.0000 -0.8660 0.5000
vn 0.9371 -0.2468 -0.2468
vn 0.9098 -0.2198 -0.3522
vn 0.8405 -0.3832 -0.3832
vn 0.0000 0.8660 0.5000
vn 0.9371 0.2468 -0.2468
vn 0.8404 0.3832 -0.3832
vn 0.9098 0.2197 -0.3522
vn 0.0000 -0.7072 0.7070
vn 0.0000 -0.5000 0.8660
vn 0.0000 0.5000 0.8660
vn 0.0000 0.7071 -0.7072
vn 0.0000 0.8660 -0.5000
vn 0.0000 0.5000 -0.8660
vn 0.0000 -0.8660 -0.5000
vn 0.9999 0.0103 -0.0010
vn 0.7162 -0.5965 -0.3623
vn 0.9657 -0.0672 0.2506
vn 0.9999 -0.0098 0.0126
vn 0.9068 0.4212 0.0197
vn 0.9657 -0.2506 0.0672
vn 0.9999 -0.0103 0.0010
vn 0.9657 -0.2507 -0.0672
vn 0.9098 -0.3522 0.2198
vn 0.9098 -0.3522 -0.2197
vn 0.9097 0.3522 -0.2198
vn 1.0000 -0.0059 -0.0079
vn 0.7161 0.3624 -0.5965
vn 0.9067 0.0197 -0.4212
vn 0.9999 -0.0126 -0.0098
vn 0.8607 -0.2382 -0.4500
vn 0.9706 0.1701 -0.1701
vn 0.9657 0.0672 -0.2507
vn 1.0000 -0.0079 0.0059
vn 0.8606 -0.4501 0.2383
vn 0.9999 0.0010 0.0102
vn 0.9067 -0.4212 -0.0197
vn 0.7162 -0.3623 0.5964
vn 1.0000 0.0059 0.0079
vn 0.9999 0.0126 0.0098
vn 0.9067 -0.0197 0.4212
vn 0.8606 0.2382 0.4500
vn 0.7162 0.5965 0.3623
vn 1.0000 0.0078 -0.0059
vn 0.9999 0.0098 -0.0126
vn 0.9999 -0.0009 -0.0102
vn 0.8607 0.4500 -0.2382
vn 0.9098 0.3523 0.2197
vn 0.8404 -0.3832 0.3832
vn 0.9098 -0.2194 0.3523
vn 0.9098 -0.2197 -0.3522
vn 0.8405 0.3831 -0.3832
vn 0.9097 0.2197 -0.3523
usemtl Black.007
s off
f 2//1 3//1 1//1
f 4//2 5//2 3//2
f 6//3 7//3 5//3
f 8//4 9//4 7//4
f 10//5 11//5 9//5
f 12//6 13//6 11//6
f 14//7 15//7 13//7
f 16//8 17//8 15//8
f 18//9 19//9 17//9
f 19//10 22//10 21//10
f 14//11 30//11 31//11
f 21//12 24//12 23//12
f 23//13 2//13 1//13
f 11//14 15//14 23//14
f 31//15 42//15 43//15
f 12//16 29//16 30//16
f 8//17 29//17 10//17
f 2//18 36//18 26//18
f 2//19 25//19 4//19
f 6//20 28//20 8//20
f 24//21 35//21 36//21
f 4//22 27//22 6//22
f 22//23 34//23 35//23
f 20//24 33//24 34//24
f 18//25 32//25 33//25
f 16//26 31//26 32//26
f 45//3 58//3 46//3
f 28//15 39//15 40//15
f 34//15 47//15 35//15
f 31//15 44//15 32//15
f 28//15 41//15 29//15
f 35//15 48//15 36//15
f 25//15 38//15 37//15
f 32//15 45//15 33//15
f 30//15 41//15 42//15
f 26//15 48//15 38//15
f 27//15 37//15 39//15
f 33//15 46//15 34//15
f 42//13 55//13 43//13
f 39//9 52//9 40//9
f 46//4 59//4 47//4
f 43//1 56//1 44//1
f 40//10 53//10 41//10
f 47//5 60//5 48//5
f 38//7 49//7 37//7
f 44//2 57//2 45//2
f 41//12 54//12 42//12
f 48//6 50//6 38//6
f 37//8 51//8 39//8
f 133//27 136//27 135//27
f 138//28 139//28 137//28
f 141//29 144//29 143//29
f 145//30 148//30 147//30
f 150//31 151//31 149//31
f 154//32 155//32 153//32
f 157//33 160//33 159//33
f 162//34 163//34 161//34
f 166//35 167//35 165//35
f 169//36 172//36 171//36
f 174//37 175//37 173//37
f 178//38 179//38 177//38
f 198//39 199//39 197//39
f 202//40 203//40 201//40
f 206//41 207//41 205//41
f 209//42 212//42 211//42
f 2//1 4//1 3//1
f 4//2 6//2 5//2
f 6//3 8//3 7//3
f 8//4 10//4 9//4
f 10//5 12//5 11//5
f 12//6 14//6 13//6
f 14//7 16//7 15//7
f 16//8 18//8 17//8
f 18//9 20//9 19//9
f 19//10 20//10 22//10
f 14//11 12//11 30//11
f 21//12 22//12 24//12
f 23//13 24//13 2//13
f 23//14 1//14 3//14
f 3//14 5//14 23//14
f 5//14 7//14 23//14
f 7//14 9//14 11//14
f 11//14 13//14 15//14
f 15//14 17//14 19//14
f 19//14 21//14 15//14
f 21//14 23//14 15//14
f 7//14 11//14 23//14
f 31//15 30//15 42//15
f 12//16 10//16 29//16
f 8//17 28//17 29//17
f 2//18 24//18 36//18
f 2//19 26//19 25//19
f 6//20 27//20 28//20
f 24//21 22//21 35//21
f 4//22 25//22 27//22
f 22//23 20//23 34//23
f 20//24 18//24 33//24
f 18//25 16//25 32//25
f 16//26 14//26 31//26
f 45//3 57//3 58//3
f 28//15 27//15 39//15
f 34//15 46//15 47//15
f 31//15 43//15 44//15
f 28//15 40//15 41//15
f 35//15 47//15 48//15
f 25//15 26//15 38//15
f 32//15 44//15 45//15
f 30//15 29//15 41//15
f 26//15 36//15 48//15
f 27//15 25//15 37//15
f 33//15 45//15 46//15
f 42//13 54//13 55//13
f 39//9 51//9 52//9
f 46//4 58//4 59//4
f 43//1 55//1 56//1
f 40//10 52//10 53//10
f 47//5 59//5 60//5
f 38//7 50//7 49//7
f 44//2 56//2 57//2
f 41//12 53//12 54//12
f 48//6 60//6 50//6
f 37//8 49//8 51//8
f 133//27 134//27 136//27
f 138//28 140//28 139//28
f 141//29 142//29 144//29
f 145//30 146//30 148//30
f 150//31 152//31 151//31
f 154//32 156//32 155//32
f 157//33 158//33 160//33
f 162//34 164//34 163//34
f 166//35 168//35 167//35
f 169//36 170//36 172//36
f 174//37 176//37 175//37
f 178//38 180//38 179//38
f 198//39 200//39 199//39
f 202//40 204//40 203//40
f 206//41 208//41 207//41
f 209//42 210//42 212//42
usemtl Grey.015
f 51//43 119//43 63//43
f 72//44 74//44 62//44
f 57//45 100//45 98//45
f 54//15 85//15 55//15
f 63//46 123//46 124//46
f 59//47 107//47 71//47
f 68//48 92//48 67//48
f 52//49 128//49 126//49
f 71//50 103//50 104//50
f 61//51 116//51 62//51
f 57//52 95//52 69//52
f 66//53 132//53 65//53
f 72//54 111//54 112//54
f 77//15 75//15 83//15
f 73//55 186//55 61//55
f 69//56 82//56 70//56
f 67//57 78//57 79//57
f 63//58 76//58 64//58
f 71//59 82//59 83//59
f 67//60 80//60 68//60
f 65//61 76//61 77//61
f 84//62 189//62 191//62
f 61//63 74//63 73//63
f 80//64 194//64 68//64
f 66//65 182//65 181//65
f 87//66 136//66 88//66
f 55//67 87//67 67//67
f 66//68 87//68 88//68
f 54//69 88//69 86//69
f 107//10 156//10 108//10
f 55//70 92//70 90//70
f 56//15 90//15 89//15
f 56//71 91//71 68//71
f 127//4 176//4 128//4
f 56//72 96//72 94//72
f 68//73 95//73 96//73
f 56//15 93//15 57//15
f 97//74 147//74 99//74
f 69//75 99//75 100//75
f 57//15 97//15 58//15
f 58//76 99//76 70//76
f 86//13 133//13 85//13
f 60//15 102//15 101//15
f 59//77 104//77 102//77
f 60//78 103//78 72//78
f 117//79 167//79 119//79
f 58//80 108//80 106//80
f 71//81 108//81 70//81
f 59//15 106//15 105//15
f 106//4 153//4 105//4
f 60//82 112//82 110//82
f 60//15 109//15 50//15
f 50//83 111//83 62//83
f 126//10 173//10 125//10
f 49//15 114//15 113//15
f 49//84 115//84 61//84
f 50//85 116//85 114//85
f 98//86 148//86 146//86
f 63//87 120//87 61//87
f 49//88 120//88 118//88
f 51//15 118//15 117//15
f 118//89 168//89 166//89
f 51//90 124//90 122//90
f 51//15 121//15 52//15
f 52//91 123//91 64//91
f 99//9 148//9 100//9
f 65//92 128//92 64//92
f 53//15 126//15 125//15
f 53//93 127//93 65//93
f 119//2 168//2 120//2
f 54//15 130//15 129//15
f 54//94 131//94 66//94
f 53//95 132//95 130//95
f 126//96 176//96 174//96
f 106//97 156//97 154//97
f 86//98 136//98 134//98
f 113//7 162//7 161//7
f 125//99 175//99 127//99
f 94//2 141//2 93//2
f 105//100 155//100 107//100
f 85//101 135//101 87//101
f 115//1 164//1 116//1
f 95//8 144//8 96//8
f 113//102 163//102 115//102
f 93//103 143//103 95//103
f 122//9 169//9 121//9
f 102//5 149//5 101//5
f 114//104 164//104 162//104
f 94//105 144//105 142//105
f 123//106 172//106 124//106
f 103//12 152//12 104//12
f 122//107 172//107 170//107
f 102//108 152//108 150//108
f 130//12 177//12 129//12
f 110//6 157//6 109//6
f 121//109 171//109 123//109
f 90//1 137//1 89//1
f 101//110 151//110 103//110
f 131//5 180//5 132//5
f 111//13 160//13 112//13
f 91//111 140//111 92//111
f 129//112 179//112 131//112
f 110//113 160//113 158//113
f 90//114 140//114 138//114
f 118//8 165//8 117//8
f 130//115 180//115 178//115
f 98//3 145//3 97//3
f 109//116 159//116 111//116
f 89//117 139//117 91//117
f 182//12 197//12 181//12
f 78//118 181//118 183//118
f 77//119 182//119 65//119
f 77//120 183//120 184//120
f 194//121 212//121 210//121
f 75//122 188//122 73//122
f 63//123 186//123 185//123
f 75//124 185//125 187//124
f 190//126 208//126 206//126
f 84//127 192//127 83//127
f 83//128 190//128 71//128
f 71//129 189//129 72//129
f 193//130 211//130 195//130
f 80//131 195//131 196//131
f 68//132 193//132 69//132
f 81//133 193//133 195//133
f 186//8 201//8 185//8
f 183//5 200//5 184//5
f 190//5 205//5 189//5
f 187//134 204//134 188//134
f 194//2 209//2 193//2
f 181//135 199//135 183//135
f 191//12 208//12 192//12
f 186//136 204//136 202//136
f 195//137 212//137 196//137
f 182//138 200//138 198//138
f 189//139 207//139 191//139
f 185//140 203//140 187//140
f 51//141 117//141 119//141
f 72//44 84//44 74//44
f 57//142 69//142 100//142
f 54//15 86//15 85//15
f 63//143 64//143 123//143
f 59//144 105//144 107//144
f 68//48 91//48 92//48
f 52//145 64//145 128//145
f 71//50 72//50 103//50
f 61//146 115//146 116//146
f 57//147 93//147 95//147
f 66//53 131//53 132//53
f 72//148 62//148 111//148
f 75//15 73//15 74//15
f 74//15 84//15 75//15
f 84//15 83//15 75//15
f 83//15 82//15 81//15
f 81//15 80//15 79//15
f 79//15 78//15 77//15
f 77//15 76//15 75//15
f 83//15 81//15 79//15
f 79//15 77//15 83//15
f 73//149 188//149 186//149
f 69//56 81//56 82//56
f 67//57 66//57 78//57
f 63//58 75//58 76//58
f 71//59 70//59 82//59
f 67//60 79//60 80//60
f 65//61 64//61 76//61
f 84//150 72//150 189//150
f 61//63 62//63 74//63
f 80//151 196//151 194//151
f 66//65 65//65 182//65
f 87//6 135//6 136//6
f 55//152 85//152 87//152
f 66//68 67//68 87//68
f 54//153 66//153 88//153
f 107//10 155//10 156//10
f 55//154 67//154 92//154
f 56//15 55//15 90//15
f 56//155 89//155 91//155
f 127//4 175//4 176//4
f 56//156 68//156 96//156
f 68//157 69//157 95//157
f 56//15 94//15 93//15
f 97//74 145//74 147//74
f 69//158 70//158 99//158
f 57//15 98//15 97//15
f 58//159 97//159 99//159
f 86//13 134//13 133//13
f 60//15 59//15 102//15
f 59//160 71//160 104//160
f 60//161 101//161 103//161
f 117//79 165//79 167//79
f 58//162 70//162 108//162
f 71//81 107//81 108//81
f 59//15 58//15 106//15
f 106//4 154//4 153//4
f 60//163 72//163 112//163
f 60//15 110//15 109//15
f 50//164 109//164 111//164
f 126//10 174//10 173//10
f 49//15 50//15 114//15
f 49//165 113//165 115//165
f 50//166 62//166 116//166
f 98//86 100//86 148//86
f 63//87 119//87 120//87
f 49//167 61//167 120//167
f 51//15 49//15 118//15
f 118//89 120//89 168//89
f 51//168 63//168 124//168
f 51//15 122//15 121//15
f 52//169 121//169 123//169
f 99//9 147//9 148//9
f 65//92 127//92 128//92
f 53//15 52//15 126//15
f 53//170 125//170 127//170
f 119//2 167//2 168//2
f 54//15 53//15 130//15
f 54//171 129//171 131//171
f 53//172 65//172 132//172
f 126//96 128//96 176//96
f 106//97 108//97 156//97
f 86//98 88//98 136//98
f 113//7 114//7 162//7
f 125//99 173//99 175//99
f 94//2 142//2 141//2
f 105//100 153//100 155//100
f 85//101 133//101 135//101
f 115//1 163//1 164//1
f 95//8 143//8 144//8
f 113//102 161//102 163//102
f 93//103 141//103 143//103
f 122//9 170//9 169//9
f 102//5 150//5 149//5
f 114//104 116//104 164//104
f 94//105 96//105 144//105
f 123//106 171//106 172//106
f 103//12 151//12 152//12
f 122//107 124//107 172//107
f 102//108 104//108 152//108
f 130//12 178//12 177//12
f 110//6 158//6 157//6
f 121//109 169//109 171//109
f 90//1 138//1 137//1
f 101//110 149//110 151//110
f 131//5 179//5 180//5
f 111//13 159//13 160//13
f 91//111 139//111 140//111
f 129//112 177//112 179//112
f 110//113 112//113 160//113
f 90//114 92//114 140//114
f 118//8 166//8 165//8
f 130//115 132//115 180//115
f 98//3 146//3 145//3
f 109//116 157//116 159//116
f 89//117 137//117 139//117
f 182//12 198//12 197//12
f 78//173 66//173 181//173
f 77//119 184//119 182//119
f 77//120 78//120 183//120
f 194//121 196//121 212//121
f 75//122 187//122 188//122
f 63//174 61//174 186//174
f 75//175 63//175 185//124
f 190//126 192//126 208//126
f 84//127 191//127 192//127
f 83//176 192//176 190//176
f 71//129 190//129 189//129
f 193//130 209//130 211//130
f 80//131 81//131 195//131
f 68//177 194//177 193//177
f 81//178 69//178 193//178
f 186//8 202//8 201//8
f 183//5 199//5 200//5
f 190//5 206//5 205//5
f 187//2 203//2 204//2
f 194//2 210//2 209//2
f 181//135 197//135 199//135
f 191//12 207//12 208//12
f 186//136 188//136 204//136
f 195//137 211//137 212//137
f 182//138 184//138 200//138
f 189//139 205//139 207//139
f 185//140 201//140 203//140
