# Blender v3.5.0 OBJ File: 'nightScene.blend'
# www.blender.org
mtllib ArmLeft1.mtl
o ArmLeft1.003_ArmLeft1
v 19.999996 9.999994 -90.000008
v 39.999996 9.999996 -90.000008
v 19.999996 9.999991 -120.000008
v 29.999994 9.999991 -120.000008
v 19.999996 -10.000010 -120.000008
v 29.999994 -10.000010 -120.000008
v 19.999996 -10.000008 -90.000008
v 39.999996 -10.000007 -90.000008
v 19.999998 9.999995 -70.000008
v 40.000000 9.999997 -70.000015
v 19.999998 -10.000007 -70.000008
v 40.000000 -10.000006 -70.000015
v 26.666662 9.999995 -70.000008
v 33.333336 9.999995 -70.000015
v 33.333336 -10.000006 -70.000015
v 19.999998 -0.000005 -70.000008
v 26.666662 -0.000005 -70.000015
v 30.000006 10.000000 -50.000011
v 30.000006 -10.000003 -50.000011
v 36.666664 -10.000003 -50.000011
v 36.666668 9.999999 -50.000011
v 19.999998 -0.000004 -60.000011
v 26.666664 -0.000004 -60.000011
v 26.666664 9.999998 -60.000011
v 19.999998 9.999996 -60.000011
v 33.333336 9.999998 -60.000011
v 33.333336 -10.000005 -60.000011
v 40.000000 -10.000005 -60.000015
v 40.000000 9.999998 -60.000015
v 26.666664 -10.000007 -70.000008
vt 0.807349 0.794632
vt 0.843588 0.903352
vt 0.807349 0.903352
vt 0.843589 0.975832
vt 0.807349 0.975831
vt 0.698629 0.903352
vt 0.734869 0.794632
vt 0.734869 0.903352
vt 0.952308 0.794632
vt 0.879829 0.903352
vt 0.879828 0.794633
vt 0.855669 0.722154
vt 0.662390 0.794632
vt 0.686549 0.722153
vt 0.734869 0.722153
vt 0.952308 0.625514
vt 0.879828 0.649673
vt 0.879828 0.625514
vt 0.952307 0.722153
vt 0.879828 0.722154
vt 0.771110 0.722153
vt 0.952307 0.528874
vt 0.879827 0.553034
vt 0.879827 0.528873
vt 0.771109 0.661754
vt 0.807349 0.685914
vt 0.771110 0.685913
vt 0.952307 0.589274
vt 0.879827 0.589274
vt 0.662390 0.685913
vt 0.686549 0.685914
vt 0.952308 0.685913
vt 0.879828 0.685913
vt 0.771108 0.625514
vt 0.746949 0.661753
vt 0.746949 0.625514
vt 0.807349 0.625514
vt 0.807349 0.722153
vt 0.831509 0.685913
vt 0.831509 0.722154
vt 0.855668 0.685913
vt 0.867748 0.649674
vt 0.952308 0.649673
vt 0.674469 0.649674
vt 0.698630 0.649674
vt 0.952307 0.504715
vt 0.916066 0.528874
vt 0.916066 0.504714
vt 0.952308 0.903352
vt 0.662390 0.722153
vt 0.710709 0.722153
vt 0.952308 0.553034
vt 0.807349 0.661753
vt 0.843588 0.649673
vn -0.0000 1.0000 -0.0000
vn 0.0000 0.0000 -1.0000
vn 0.0000 -1.0000 0.0000
vn 0.9487 0.0000 -0.3162
vn -1.0000 0.0000 0.0000
vn -0.0000 0.0000 1.0000
vn 1.0000 0.0000 -0.0000
vn -0.9864 0.0000 -0.1643
vn -0.9864 -0.0000 -0.1644
vn 0.9864 0.0000 0.1644
vn 0.9487 -0.0000 0.3162
vn -0.9487 0.0000 -0.3162
vn -0.6529 0.0000 0.7574
vn 0.0000 -0.9484 -0.3170
usemtl lambert1
s 1
f 1/1/1 4/2/1 3/3/1
f 3/3/2 6/4/2 5/5/2
f 6/6/3 7/7/3 5/8/3
f 8/9/4 4/10/4 2/11/4
f 1/1/5 5/8/5 7/7/5
f 14/12/1 2/11/1 1/1/1
f 8/13/3 15/14/3 11/15/3
f 19/16/6 21/17/6 18/18/6
f 12/19/7 2/11/7 10/20/7
f 16/21/5 1/1/5 7/7/5
f 30/22/6 14/23/6 13/24/6
f 23/25/6 25/26/6 22/27/6
f 14/23/5 27/28/8 26/29/9
f 15/14/3 28/30/3 27/31/3
f 10/20/7 28/32/10 12/19/7
f 14/12/1 29/33/1 10/20/1
f 17/34/3 22/35/3 16/36/3
f 13/37/7 23/25/7 17/34/7
f 9/38/1 24/39/1 13/40/1
f 16/21/5 25/26/5 9/38/5
f 26/41/1 21/42/1 29/33/1
f 29/33/10 20/43/11 28/32/10
f 27/31/3 20/44/3 19/45/3
f 26/29/9 19/16/12 18/18/12
f 11/46/6 17/47/13 16/48/6
f 1/1/1 2/11/1 4/2/1
f 3/3/2 4/2/2 6/4/2
f 6/6/3 8/13/3 7/7/3
f 8/9/4 6/49/4 4/10/4
f 1/1/5 3/3/5 5/8/5
f 1/1/1 9/38/1 13/40/1
f 14/12/1 10/20/1 2/11/1
f 1/1/1 13/40/1 14/12/1
f 11/15/3 7/7/3 8/13/3
f 8/13/3 12/50/3 15/14/3
f 15/14/3 30/51/14 11/15/3
f 19/16/6 20/43/6 21/17/6
f 12/19/7 8/9/7 2/11/7
f 7/7/5 11/15/5 16/21/5
f 16/21/5 9/38/5 1/1/5
f 13/24/6 17/47/13 30/22/6
f 30/22/6 15/52/6 14/23/6
f 23/25/6 24/53/6 25/26/6
f 14/23/5 15/52/5 27/28/8
f 15/14/3 12/50/3 28/30/3
f 10/20/7 29/33/10 28/32/10
f 14/12/1 26/41/1 29/33/1
f 17/34/3 23/25/3 22/35/3
f 13/37/7 24/53/7 23/25/7
f 9/38/1 25/26/1 24/39/1
f 16/21/5 22/27/5 25/26/5
f 26/41/1 18/54/1 21/42/1
f 29/33/10 21/17/11 20/43/11
f 27/31/3 28/30/3 20/44/3
f 26/29/9 27/28/8 19/16/12
f 11/46/6 30/22/6 17/47/13
