# Blender v3.5.0 OBJ File: 'nightScene.blend'
# www.blender.org
mtllib ArmRight1.mtl
o ArmRight1.003_ArmRight1
v -39.999996 9.999992 -89.999992
v -19.999998 9.999993 -89.999992
v -29.999998 9.999990 -120.000000
v -19.999998 9.999990 -120.000000
v -29.999998 -10.000010 -120.000000
v -19.999998 -10.000009 -120.000000
v -39.999996 -10.000008 -89.999992
v -19.999998 -10.000006 -89.999992
v -39.999996 9.999993 -69.999992
v -19.999996 9.999994 -70.000000
v -39.999996 -10.000007 -69.999992
v -19.999996 -10.000006 -70.000000
v -33.333328 9.999993 -69.999992
v -26.666660 9.999994 -70.000000
v -33.333328 -10.000007 -69.999992
v -39.999996 -10.000006 -59.999996
v -33.333328 -10.000006 -59.999996
v -33.333328 9.999993 -59.999996
v -39.999996 9.999994 -59.999996
v -36.666664 -10.000005 -49.999996
v -29.999994 -10.000005 -49.999996
v -29.999994 9.999994 -49.999996
v -36.666664 9.999995 -49.999996
v -26.666662 -0.000005 -69.999992
v -19.999998 -0.000005 -70.000000
v -26.666662 9.999994 -60.000000
v -19.999994 9.999995 -60.000000
v -26.666660 -0.000005 -60.000000
v -19.999994 -0.000004 -60.000000
v -26.666660 -10.000006 -70.000000
vt 0.182541 0.446260
vt 0.146301 0.554980
vt 0.110062 0.446260
vt 0.182541 0.554980
vt 0.146301 0.627459
vt 0.291260 0.554980
vt 0.255020 0.446260
vt 0.327500 0.446260
vt 0.037582 0.554980
vt 0.037582 0.446261
vt 0.158381 0.373781
vt 0.279180 0.373781
vt 0.327500 0.373781
vt 0.218780 0.373781
vt 0.110062 0.373781
vt 0.037582 0.373781
vt 0.037582 0.277142
vt 0.110061 0.301301
vt 0.037582 0.301301
vt 0.303340 0.373781
vt 0.327500 0.337541
vt 0.110061 0.204662
vt 0.037581 0.240902
vt 0.037581 0.204662
vt 0.134221 0.337541
vt 0.134221 0.373781
vt 0.110062 0.337541
vt 0.303340 0.337541
vt 0.315420 0.301301
vt 0.110061 0.240902
vt 0.122141 0.301301
vt 0.146302 0.301301
vt 0.037582 0.337541
vt 0.182541 0.313381
vt 0.218780 0.337541
vt 0.182541 0.337541
vt 0.037582 0.180502
vt 0.073821 0.156342
vt 0.073822 0.180502
vt 0.182541 0.373781
vt 0.218780 0.277142
vt 0.182541 0.277141
vt 0.242941 0.313381
vt 0.218780 0.313381
vt 0.182541 0.627459
vt 0.255020 0.554980
vt 0.110061 0.554980
vt 0.255020 0.373781
vt 0.110061 0.277141
vt 0.291260 0.301302
vt 0.037582 0.156342
vt 0.158381 0.337541
vt 0.242940 0.277141
vt 0.110061 0.180502
vn -0.0000 1.0000 -0.0000
vn -0.0000 0.0000 -1.0000
vn 0.0000 -1.0000 0.0000
vn 1.0000 0.0000 -0.0000
vn -0.9487 0.0000 -0.3162
vn -1.0000 0.0000 0.0000
vn 0.0000 0.0000 1.0000
vn -0.0003 -0.2966 -0.9550
vn 0.9487 0.0000 -0.3162
vn -0.9487 0.0000 0.3162
usemtl lambert1
s 1
f 2/1/1 3/2/1 1/3/1
f 4/4/2 5/5/2 3/2/2
f 5/6/3 8/7/3 7/8/3
f 8/7/4 4/4/4 2/1/4
f 1/3/5 5/9/5 7/10/5
f 14/11/1 2/1/1 1/3/1
f 8/7/3 30/12/3 11/13/3
f 25/14/4 8/7/4 2/1/4
f 9/15/6 7/10/6 11/16/6
f 21/17/7 23/18/7 20/19/7
f 15/20/8 16/21/3 11/13/3
f 13/22/4 17/23/4 15/24/4
f 9/15/1 18/25/1 13/26/1
f 11/16/6 19/27/6 9/15/6
f 17/28/3 20/29/3 16/21/3
f 18/30/9 21/17/9 17/23/9
f 18/25/1 23/31/1 22/32/1
f 16/33/10 23/18/10 19/27/10
f 26/34/7 29/35/7 27/36/7
f 30/37/7 25/38/7 24/39/7
f 14/11/1 27/36/1 10/40/1
f 24/41/6 26/34/6 14/42/6
f 24/41/3 29/43/3 28/44/3
f 10/40/4 29/35/4 25/14/4
f 30/37/7 24/39/7 13/22/7
f 2/1/1 4/4/1 3/2/1
f 4/4/2 6/45/2 5/5/2
f 5/6/3 6/46/3 8/7/3
f 8/7/4 6/46/4 4/4/4
f 1/3/5 3/47/5 5/9/5
f 1/3/1 9/15/1 13/26/1
f 14/11/1 10/40/1 2/1/1
f 1/3/1 13/26/1 14/11/1
f 11/13/3 7/8/3 8/7/3
f 8/7/3 12/48/3 30/12/3
f 30/12/3 15/20/8 11/13/3
f 2/1/4 10/40/4 25/14/4
f 25/14/4 12/48/4 8/7/4
f 9/15/6 1/3/6 7/10/6
f 21/17/7 22/49/7 23/18/7
f 15/20/8 17/28/3 16/21/3
f 13/22/4 18/30/4 17/23/4
f 9/15/1 19/27/1 18/25/1
f 11/16/6 16/33/6 19/27/6
f 17/28/3 21/50/3 20/29/3
f 18/30/9 22/49/9 21/17/9
f 18/25/1 19/27/1 23/31/1
f 16/33/10 20/19/10 23/18/10
f 26/34/7 28/44/7 29/35/7
f 30/37/7 12/51/7 25/38/7
f 14/11/1 26/52/1 27/36/1
f 24/41/6 28/44/6 26/34/6
f 24/41/3 25/53/3 29/43/3
f 10/40/4 27/36/4 29/35/4
f 13/22/7 15/24/7 30/37/7
f 24/39/7 14/54/7 13/22/7
