# Blender v3.5.0 OBJ File: 'nightScene.blend'
# www.blender.org
mtllib Body1.mtl
o Body1.003_Body1
v -20.021650 9.999995 -59.999996
v 19.978443 9.999993 -59.999996
v -20.021652 9.999990 -120.000000
v 19.978439 9.999989 -120.000000
v -19.978445 -10.000008 -120.000000
v 20.021646 -10.000009 -120.000000
v -19.978443 -10.000003 -59.999996
v 20.021650 -10.000005 -59.999996
vt 0.474081 0.377354
vt 0.615924 0.590116
vt 0.474082 0.590116
vt 0.474235 0.661036
vt 0.686844 0.590116
vt 0.828686 0.377354
vt 0.828686 0.590116
vt 0.474234 0.306433
vt 0.615923 0.377354
vt 0.686844 0.377354
vt 0.403161 0.590116
vt 0.403161 0.377354
vt 0.616077 0.661036
vt 0.616076 0.306433
vn 0.0000 1.0000 -0.0000
vn 0.0000 0.0000 -1.0000
vn -0.0000 -1.0000 0.0000
vn 0.0000 0.0000 1.0000
vn 1.0000 0.0022 -0.0000
vn -1.0000 -0.0022 0.0000
usemtl lambert1
s 1
f 1/1/1 4/2/1 3/3/1
f 4/2/2 5/4/2 3/3/2
f 6/5/3 7/6/3 5/7/3
f 7/8/4 2/9/4 1/1/4
f 8/10/5 4/2/5 2/9/5
f 1/1/6 5/11/6 7/12/6
f 1/1/1 2/9/1 4/2/1
f 4/2/2 6/13/2 5/4/2
f 6/5/3 8/10/3 7/6/3
f 7/8/4 8/14/4 2/9/4
f 8/10/5 6/5/5 4/2/5
f 1/1/6 3/3/6 5/11/6
