# Blender v3.5.0 OBJ File: 'nightScene.blend'
# www.blender.org
mtllib zombie2.mtl
o Zombie2_zombie2
v 25.999994 12.999992 -117.000008
v 51.999992 12.999994 -117.000008
v 25.999994 12.999989 -156.000000
v 38.999992 12.999989 -156.000000
v 25.999994 -13.000011 -156.000000
v 38.999992 -13.000011 -156.000000
v 25.999994 -13.000010 -117.000008
v 51.999992 -13.000009 -117.000008
v 25.999996 12.999993 -91.000008
v 52.000000 12.999996 -91.000015
v 25.999996 -13.000009 -91.000008
v 52.000000 -13.000007 -91.000015
v 34.666660 12.999993 -91.000008
v 43.333336 12.999993 -91.000015
v 43.333336 -13.000007 -91.000015
v 25.999996 -0.000006 -91.000008
v 34.666660 -0.000006 -91.000015
v 39.000008 13.000000 -65.000015
v 39.000008 -13.000003 -65.000015
v 47.666660 -13.000003 -65.000015
v 47.666668 12.999998 -65.000015
v 25.999996 -0.000005 -78.000015
v 34.666660 -0.000005 -78.000015
v 34.666660 12.999997 -78.000015
v 25.999996 12.999994 -78.000015
v 43.333336 12.999997 -78.000015
v 43.333336 -13.000006 -78.000015
v 52.000000 -13.000006 -78.000015
v 52.000000 12.999997 -78.000015
v 34.666660 -13.000009 -91.000008
v -26.000002 25.999987 -156.000000
v 25.999996 25.999987 -156.000000
v -26.000006 25.999985 -208.000000
v 25.999992 25.999985 -208.000000
v -26.000006 -26.000013 -208.000000
v 25.999992 -26.000013 -208.000000
v -26.000002 -26.000011 -156.000000
v 25.999996 -26.000011 -156.000000
v -26.028145 12.999993 -77.999992
v 25.971975 12.999990 -77.999992
v -26.028147 12.999988 -156.000000
v 25.971970 12.999985 -156.000000
v -25.971977 -13.000010 -156.000000
v 26.028139 -13.000010 -156.000000
v -25.971975 -13.000003 -77.999992
v 26.028145 -13.000006 -77.999992
v -51.999992 12.999990 -116.999985
v -25.999996 12.999990 -116.999985
v -38.999996 12.999988 -156.000000
v -25.999996 12.999988 -156.000000
v -38.999996 -13.000011 -156.000000
v -25.999996 -13.000010 -156.000000
v -51.999992 -13.000010 -116.999985
v -25.999996 -13.000007 -116.999985
v -51.999992 12.999990 -90.999985
v -25.999994 12.999992 -91.000000
v -51.999992 -13.000009 -90.999985
v -25.999994 -13.000007 -91.000000
v -43.333324 12.999990 -90.999985
v -34.666656 12.999992 -91.000000
v -43.333324 -13.000009 -90.999985
v -51.999992 -13.000007 -77.999992
v -43.333324 -13.000007 -77.999992
v -43.333324 12.999990 -77.999992
v -51.999992 12.999992 -77.999992
v -47.666660 -13.000006 -64.999992
v -38.999992 -13.000006 -64.999992
v -38.999992 12.999992 -64.999992
v -47.666660 12.999993 -64.999992
v -34.666660 -0.000006 -90.999985
v -25.999996 -0.000006 -91.000000
v -34.666660 12.999992 -78.000000
v -25.999992 12.999993 -78.000000
v -34.666656 -0.000006 -78.000000
v -25.999992 -0.000005 -78.000000
v -34.666656 -13.000007 -91.000000
v -25.999994 12.999997 -38.999996
v 0.000004 12.999997 -39.000000
v -26.000006 12.999993 -77.999985
v -0.000001 12.999993 -77.999992
v -26.000006 -13.000007 -77.999985
v 0.000000 -13.000005 -77.999992
v -25.999994 -13.000003 -38.999996
v 0.000005 -13.000001 -39.000000
v -25.999987 13.000001 0.000000
v 0.000010 13.000001 -0.000005
v -25.999987 -13.000000 0.000001
v 0.000012 -12.999998 -0.000003
v -25.999989 12.999997 -19.500000
v 0.000006 12.999998 -19.500004
v -25.999989 26.000000 -0.000003
v 0.000010 26.000002 -0.000008
v 0.000008 26.000000 -13.000002
v -25.999989 26.000000 -12.999998
v -25.999989 -13.000002 -19.499994
v 0.000008 -13.000000 -19.500000
v -0.000003 12.999997 -39.000000
v 26.000000 12.999997 -38.999996
v -0.000001 12.999993 -78.000000
v 25.999996 12.999993 -78.000000
v -0.000001 -13.000006 -78.000000
v 25.999996 -13.000006 -78.000000
v -0.000003 -13.000002 -39.000000
v 26.000000 -13.000002 -38.999996
v -0.000005 13.000000 0.000003
v 25.999996 13.000000 0.000004
v -0.000004 -13.000000 0.000005
v 25.999996 -13.000000 0.000008
v -0.000003 12.999998 -19.499996
v 25.999996 12.999998 -19.499996
v -0.000005 26.000000 0.000001
v 25.999996 26.000000 0.000004
v 25.999996 26.000000 -12.999996
v -0.000004 26.000000 -12.999998
v -0.000003 -13.000001 -19.499994
v 25.999996 -13.000001 -19.499992
vt 0.807349 0.794632
vt 0.843588 0.903352
vt 0.807349 0.903352
vt 0.843589 0.975832
vt 0.807349 0.975831
vt 0.698629 0.903352
vt 0.734869 0.794632
vt 0.734869 0.903352
vt 0.952308 0.794632
vt 0.879829 0.903352
vt 0.879828 0.794633
vt 0.855669 0.722154
vt 0.662390 0.794632
vt 0.686549 0.722153
vt 0.734869 0.722153
vt 0.952308 0.625514
vt 0.879828 0.649673
vt 0.879828 0.625514
vt 0.952307 0.722153
vt 0.879828 0.722154
vt 0.771110 0.722153
vt 0.952307 0.528874
vt 0.879827 0.553034
vt 0.879827 0.528873
vt 0.771109 0.661754
vt 0.807349 0.685914
vt 0.771110 0.685913
vt 0.952307 0.589274
vt 0.879827 0.589274
vt 0.662390 0.685913
vt 0.686549 0.685914
vt 0.952308 0.685913
vt 0.879828 0.685913
vt 0.771108 0.625514
vt 0.746949 0.661753
vt 0.746949 0.625514
vt 0.807349 0.625514
vt 0.807349 0.722153
vt 0.831509 0.685913
vt 0.831509 0.722154
vt 0.855668 0.685913
vt 0.867748 0.649674
vt 0.952308 0.649673
vt 0.674469 0.649674
vt 0.698630 0.649674
vt 0.952307 0.504715
vt 0.916066 0.528874
vt 0.916066 0.504714
vt 0.952308 0.903352
vt 0.662390 0.722153
vt 0.710709 0.722153
vt 0.952308 0.553034
vt 0.807349 0.661753
vt 0.843588 0.649673
vt 0.214239 0.709217
vt 0.355533 0.850513
vt 0.214239 0.850512
vt 0.214239 0.991807
vt 0.496827 0.850512
vt 0.638122 0.709218
vt 0.638122 0.850512
vt 0.355533 0.567923
vt 0.214239 0.567923
vt 0.496827 0.709217
vt 0.355532 0.709218
vt 0.072944 0.850513
vt 0.072944 0.709217
vt 0.355532 0.991807
vt 0.474081 0.377354
vt 0.615924 0.590116
vt 0.474082 0.590116
vt 0.474235 0.661036
vt 0.686844 0.590116
vt 0.828686 0.377354
vt 0.828686 0.590116
vt 0.474234 0.306433
vt 0.615923 0.377354
vt 0.686844 0.377354
vt 0.403161 0.590116
vt 0.403161 0.377354
vt 0.616077 0.661036
vt 0.616076 0.306433
vt 0.182541 0.446260
vt 0.146301 0.554980
vt 0.110062 0.446260
vt 0.182541 0.554980
vt 0.146301 0.627459
vt 0.291260 0.554980
vt 0.255020 0.446260
vt 0.327500 0.446260
vt 0.037582 0.554980
vt 0.037582 0.446261
vt 0.158381 0.373781
vt 0.279180 0.373781
vt 0.327500 0.373781
vt 0.218780 0.373781
vt 0.110062 0.373781
vt 0.037582 0.373781
vt 0.037582 0.277142
vt 0.110061 0.301301
vt 0.037582 0.301301
vt 0.303340 0.373781
vt 0.327500 0.337541
vt 0.110061 0.204662
vt 0.037581 0.240902
vt 0.037581 0.204662
vt 0.134221 0.337541
vt 0.134221 0.373781
vt 0.110062 0.337541
vt 0.303340 0.337541
vt 0.315420 0.301301
vt 0.110061 0.240902
vt 0.122141 0.301301
vt 0.146302 0.301301
vt 0.037582 0.337541
vt 0.182541 0.313381
vt 0.218780 0.337541
vt 0.182541 0.337541
vt 0.037582 0.180502
vt 0.073821 0.156342
vt 0.073822 0.180502
vt 0.182541 0.373781
vt 0.218780 0.277142
vt 0.182541 0.277141
vt 0.242941 0.313381
vt 0.218780 0.313381
vt 0.182541 0.627459
vt 0.255020 0.554980
vt 0.110061 0.554980
vt 0.255020 0.373781
vt 0.110061 0.277141
vt 0.291260 0.301302
vt 0.037582 0.156342
vt 0.158381 0.337541
vt 0.242940 0.277141
vt 0.110061 0.180502
vt 0.425413 0.182628
vt 0.356614 0.285828
vt 0.356614 0.182628
vt 0.425414 0.285828
vt 0.356614 0.354627
vt 0.494213 0.285828
vt 0.563013 0.182628
vt 0.563013 0.285828
vt 0.494213 0.182629
vt 0.287814 0.285828
vt 0.287814 0.182628
vt 0.356614 0.131029
vt 0.494213 0.131029
vt 0.563013 0.079429
vt 0.563013 0.131029
vt 0.494213 0.079429
vt 0.425413 0.010629
vt 0.494213 0.010629
vt 0.425413 0.131029
vt 0.425413 0.079429
vt 0.356614 0.079429
vt 0.287814 0.131029
vt 0.287814 0.079429
vt 0.391014 0.079429
vt 0.356614 0.010629
vt 0.391013 0.010629
vt 0.391014 0.113829
vt 0.322214 0.010629
vt 0.356614 0.079429
vt 0.322214 0.079429
vt 0.391014 0.113829
vt 0.425414 0.354627
vt 0.391014 0.079429
vt 0.844309 0.189898
vt 0.913108 0.293097
vt 0.844309 0.293097
vt 0.844309 0.361897
vt 0.706709 0.293097
vt 0.775509 0.189898
vt 0.775509 0.293097
vt 0.981908 0.189898
vt 0.913108 0.189898
vt 0.844309 0.138298
vt 0.706709 0.189898
vt 0.775509 0.138298
vt 0.775509 0.017898
vt 0.844309 0.086698
vt 0.775509 0.086698
vt 0.981908 0.138298
vt 0.913108 0.138298
vt 0.878708 0.086698
vt 0.913108 0.017898
vt 0.913108 0.086698
vt 0.844309 0.017898
vt 0.913108 0.086698
vt 0.878708 0.121098
vt 0.878708 0.086698
vt 0.947508 0.086698
vt 0.947508 0.017898
vt 0.878708 0.121098
vt 0.981908 0.086698
vt 0.706709 0.086698
vt 0.913108 0.361897
vt 0.981908 0.293097
vt 0.706709 0.138298
vt 0.878708 0.017898
vn -0.0000 1.0000 -0.0000
vn 0.0000 0.0000 -1.0000
vn 0.0000 -1.0000 0.0000
vn 0.9487 0.0000 -0.3162
vn -1.0000 0.0000 0.0000
vn 0.0000 -1.0000 -0.0001
vn -0.0000 0.0000 1.0000
vn 1.0000 0.0000 -0.0000
vn -0.9864 0.0000 -0.1643
vn -0.9864 -0.0000 -0.1644
vn 0.9864 -0.0000 0.1644
vn 0.9487 -0.0000 0.3162
vn -0.9487 0.0000 -0.3162
vn -0.6866 0.0000 0.7271
vn 0.0000 -0.8945 -0.4471
vn 1.0000 0.0022 -0.0000
vn -1.0000 -0.0022 0.0000
vn -0.0003 -0.4386 -0.8987
vn -0.9487 0.0000 0.3162
vn -0.0000 0.4472 -0.8944
usemtl lambert1.006
s 1
f 1/1/1 4/2/1 3/3/1
f 3/3/2 6/4/2 5/5/2
f 6/6/3 7/7/3 5/8/3
f 8/9/4 4/10/4 2/11/4
f 1/1/5 5/8/5 7/7/5
f 14/12/1 2/11/1 1/1/1
f 8/13/3 15/14/3 11/15/6
f 19/16/7 21/17/7 18/18/7
f 12/19/8 2/11/8 10/20/8
f 16/21/5 1/1/5 7/7/5
f 30/22/7 14/23/7 13/24/7
f 23/25/7 25/26/7 22/27/7
f 14/23/5 27/28/9 26/29/10
f 15/14/3 28/30/3 27/31/3
f 10/20/8 28/32/11 12/19/8
f 14/12/1 29/33/1 10/20/1
f 17/34/3 22/35/3 16/36/3
f 13/37/8 23/25/8 17/34/8
f 9/38/1 24/39/1 13/40/1
f 16/21/5 25/26/5 9/38/5
f 26/41/1 21/42/1 29/33/1
f 29/33/11 20/43/12 28/32/11
f 27/31/3 20/44/3 19/45/3
f 26/29/10 19/16/13 18/18/13
f 11/46/7 17/47/14 16/48/7
f 1/1/1 2/11/1 4/2/1
f 3/3/2 4/2/2 6/4/2
f 6/6/3 8/13/3 7/7/3
f 8/9/4 6/49/4 4/10/4
f 1/1/5 3/3/5 5/8/5
f 1/1/1 9/38/1 13/40/1
f 14/12/1 10/20/1 2/11/1
f 1/1/1 13/40/1 14/12/1
f 11/15/6 7/7/3 8/13/3
f 8/13/3 12/50/3 15/14/3
f 15/14/3 30/51/15 11/15/6
f 19/16/7 20/43/7 21/17/7
f 12/19/8 8/9/8 2/11/8
f 7/7/5 11/15/5 16/21/5
f 16/21/5 9/38/5 1/1/5
f 13/24/7 17/47/14 30/22/7
f 30/22/7 15/52/7 14/23/7
f 23/25/7 24/53/7 25/26/7
f 14/23/5 15/52/5 27/28/9
f 15/14/3 12/50/3 28/30/3
f 10/20/8 29/33/11 28/32/11
f 14/12/1 26/41/1 29/33/1
f 17/34/3 23/25/3 22/35/3
f 13/37/8 24/53/8 23/25/8
f 9/38/1 25/26/1 24/39/1
f 16/21/5 22/27/5 25/26/5
f 26/41/1 18/54/1 21/42/1
f 29/33/11 21/17/12 20/43/12
f 27/31/3 28/30/3 20/44/3
f 26/29/10 27/28/9 19/16/13
f 11/46/7 30/22/7 17/47/14
f 31/55/1 34/56/1 33/57/1
f 34/56/2 35/58/2 33/57/2
f 36/59/3 37/60/3 35/61/3
f 38/62/7 31/55/7 37/63/7
f 38/64/8 34/56/8 32/65/8
f 31/55/5 35/66/5 37/67/5
f 31/55/1 32/65/1 34/56/1
f 34/56/2 36/68/2 35/58/2
f 36/59/3 38/64/3 37/60/3
f 38/62/7 32/65/7 31/55/7
f 38/64/8 36/59/8 34/56/8
f 31/55/5 33/57/5 35/66/5
f 39/69/1 42/70/1 41/71/1
f 42/70/2 43/72/2 41/71/2
f 44/73/3 45/74/3 43/75/3
f 45/76/7 40/77/7 39/69/7
f 46/78/16 42/70/16 40/77/16
f 39/69/17 43/79/17 45/80/17
f 39/69/1 40/77/1 42/70/1
f 42/70/2 44/81/2 43/72/2
f 44/73/3 46/78/3 45/74/3
f 45/76/7 46/82/7 40/77/7
f 46/78/16 44/73/16 42/70/16
f 39/69/17 41/71/17 43/79/17
f 48/83/1 49/84/1 47/85/1
f 50/86/2 51/87/2 49/84/2
f 51/88/3 54/89/3 53/90/3
f 54/89/8 50/86/8 48/83/8
f 47/85/13 51/91/13 53/92/13
f 60/93/1 48/83/1 47/85/1
f 54/89/3 76/94/3 57/95/3
f 71/96/8 54/89/8 48/83/8
f 55/97/5 53/92/5 57/98/5
f 67/99/7 69/100/7 66/101/7
f 61/102/18 62/103/3 57/95/3
f 59/104/8 63/105/8 61/106/8
f 55/97/1 64/107/1 59/108/1
f 57/98/5 65/109/5 55/97/5
f 63/110/3 66/111/3 62/103/3
f 64/112/4 67/99/4 63/105/4
f 64/107/1 69/113/1 68/114/1
f 62/115/19 69/100/19 65/109/19
f 72/116/7 75/117/7 73/118/7
f 76/119/7 71/120/7 70/121/7
f 60/93/1 73/118/1 56/122/1
f 70/123/5 72/116/5 60/124/5
f 70/123/3 75/125/3 74/126/3
f 56/122/8 75/117/8 71/96/8
f 76/119/7 70/121/7 59/104/7
f 48/83/1 50/86/1 49/84/1
f 50/86/2 52/127/2 51/87/2
f 51/88/3 52/128/3 54/89/3
f 54/89/8 52/128/8 50/86/8
f 47/85/13 49/129/13 51/91/13
f 47/85/1 55/97/1 59/108/1
f 60/93/1 56/122/1 48/83/1
f 47/85/1 59/108/1 60/93/1
f 57/95/3 53/90/3 54/89/3
f 54/89/3 58/130/3 76/94/3
f 76/94/3 61/102/18 57/95/3
f 48/83/8 56/122/8 71/96/8
f 71/96/8 58/130/8 54/89/8
f 55/97/5 47/85/5 53/92/5
f 67/99/7 68/131/7 69/100/7
f 61/102/18 63/110/3 62/103/3
f 59/104/8 64/112/8 63/105/8
f 55/97/1 65/109/1 64/107/1
f 57/98/5 62/115/5 65/109/5
f 63/110/3 67/132/3 66/111/3
f 64/112/4 68/131/4 67/99/4
f 64/107/1 65/109/1 69/113/1
f 62/115/19 66/101/19 69/100/19
f 72/116/7 74/126/7 75/117/7
f 76/119/7 58/133/7 71/120/7
f 60/93/1 72/134/1 73/118/1
f 70/123/5 74/126/5 72/116/5
f 70/123/3 71/135/3 75/125/3
f 56/122/8 73/118/8 75/117/8
f 59/104/7 61/106/7 76/119/7
f 70/121/7 60/136/7 59/104/7
f 78/137/1 79/138/1 77/139/1
f 80/140/2 81/141/2 79/138/2
f 82/142/3 83/143/3 81/144/3
f 84/145/8 80/140/8 78/137/8
f 77/139/5 81/146/5 83/147/5
f 89/148/1 78/137/1 77/139/1
f 96/149/3 87/150/3 95/151/3
f 88/152/7 85/153/7 87/154/7
f 88/152/8 90/155/8 86/156/8
f 85/157/5 95/158/5 87/159/5
f 92/160/1 94/161/1 91/162/1
f 86/156/7 91/162/7 85/153/7
f 86/156/8 93/163/8 92/160/8
f 89/164/20 93/165/20 90/166/20
f 85/157/5 94/167/5 89/148/5
f 89/148/5 83/147/5 95/158/5
f 84/145/3 95/151/3 83/143/3
f 96/149/8 78/137/8 90/155/8
f 78/137/1 80/140/1 79/138/1
f 80/140/2 82/168/2 81/141/2
f 82/142/3 84/145/3 83/143/3
f 84/145/8 82/142/8 80/140/8
f 77/139/5 79/138/5 81/146/5
f 89/148/1 90/155/1 78/137/1
f 96/149/3 88/152/3 87/150/3
f 88/152/7 86/156/7 85/153/7
f 88/152/8 96/149/8 90/155/8
f 85/157/5 89/148/5 95/158/5
f 92/160/1 93/165/1 94/161/1
f 86/156/7 92/160/7 91/162/7
f 86/156/8 90/155/8 93/163/8
f 89/164/20 94/161/20 93/165/20
f 85/157/5 91/169/5 94/167/5
f 89/148/5 77/139/5 83/147/5
f 84/145/3 96/149/3 95/151/3
f 96/149/8 84/145/8 78/137/8
f 97/170/1 100/171/1 99/172/1
f 100/171/2 101/173/2 99/172/2
f 102/174/3 103/175/3 101/176/3
f 104/177/8 100/171/8 98/178/8
f 97/170/5 101/176/5 103/175/5
f 109/179/1 98/178/1 97/170/1
f 104/180/3 115/181/3 103/175/3
f 108/182/7 105/183/7 107/184/7
f 116/185/8 98/178/8 110/186/8
f 109/179/5 103/175/5 115/181/5
f 111/187/1 113/188/1 114/189/1
f 106/190/7 111/187/7 105/183/7
f 106/191/8 113/192/8 112/193/8
f 109/194/20 113/188/20 110/195/20
f 105/183/5 114/196/5 109/179/5
f 108/197/8 110/186/8 106/191/8
f 115/181/3 108/198/3 107/184/3
f 105/183/5 115/181/5 107/184/5
f 97/170/1 98/178/1 100/171/1
f 100/171/2 102/199/2 101/173/2
f 102/174/3 104/180/3 103/175/3
f 104/177/8 102/200/8 100/171/8
f 97/170/5 99/172/5 101/176/5
f 109/179/1 110/186/1 98/178/1
f 104/180/3 116/201/3 115/181/3
f 108/182/7 106/190/7 105/183/7
f 116/185/8 104/177/8 98/178/8
f 109/179/5 97/170/5 103/175/5
f 111/187/1 112/202/1 113/188/1
f 106/190/7 112/202/7 111/187/7
f 106/191/8 110/186/8 113/192/8
f 109/194/20 114/189/20 113/188/20
f 105/183/5 111/187/5 114/196/5
f 108/197/8 116/185/8 110/186/8
f 115/181/3 116/201/3 108/198/3
f 105/183/5 109/179/5 115/181/5
