# Blender 3.5.1
# www.blender.org
mtllib chara.mtl
o Cube
v 0.100000 0.100000 -0.100000
v 0.100000 -0.100000 -0.100000
v 0.100000 0.100000 0.100000
v 0.100000 -0.100000 0.100000
v -0.100000 0.100000 -0.100000
v -0.100000 -0.100000 -0.100000
v -0.100000 0.100000 0.100000
v -0.100000 -0.100000 0.100000
vn -0.0000 1.0000 -0.0000
vn -0.0000 -0.0000 1.0000
vn -1.0000 -0.0000 -0.0000
vn -0.0000 -1.0000 -0.0000
vn 1.0000 -0.0000 -0.0000
vn -0.0000 -0.0000 -1.0000
vt 0.625000 0.500000
vt 0.375000 0.500000
vt 0.625000 0.750000
vt 0.375000 0.750000
vt 0.875000 0.500000
vt 0.625000 0.250000
vt 0.125000 0.500000
vt 0.375000 0.250000
vt 0.875000 0.750000
vt 0.625000 1.000000
vt 0.625000 0.000000
vt 0.375000 0.000000
vt 0.375000 1.000000
vt 0.125000 0.750000
s 0
usemtl Material
f 5/5/1 3/3/1 1/1/1
f 3/3/2 8/13/2 4/4/2
f 7/11/3 6/8/3 8/12/3
f 2/2/4 8/14/4 6/7/4
f 1/1/5 4/4/5 2/2/5
f 5/6/6 2/2/6 6/8/6
f 5/5/1 7/9/1 3/3/1
f 3/3/2 7/10/2 8/13/2
f 7/11/3 5/6/3 6/8/3
f 2/2/4 4/4/4 8/14/4
f 1/1/5 3/3/5 4/4/5
f 5/6/6 1/1/6 2/2/6
o ArmLeft1
v 19.999998 90.000015 9.999988
v 39.999996 90.000015 9.999990
v 19.999998 120.000015 9.999984
v 39.999996 120.000015 9.999984
v 19.999998 120.000015 -10.000020
v 39.999996 120.000015 -10.000018
v 19.999998 90.000015 -10.000015
v 39.999996 90.000015 -10.000014
v 19.999998 60.000011 9.999991
v 39.999996 60.000011 9.999993
v 19.999998 60.000011 -10.000010
v 39.999996 60.000011 -10.000010
vn -0.0000 -0.0000 1.0000
vn -0.0000 1.0000 -0.0000
vn -0.0000 -0.0000 -1.0000
vn 1.0000 -0.0000 -0.0000
vn -1.0000 -0.0000 -0.0000
vn -0.0000 -1.0000 -0.0000
vt 0.833430 0.804498
vt 0.902824 0.804498
vt 0.833430 0.908590
vt 0.902825 0.908590
vt 0.833429 0.977986
vt 0.764034 0.908590
vt 0.902825 0.977986
vt 0.694639 0.908590
vt 0.972220 0.908590
vt 0.764034 0.804498
vt 0.694639 0.804498
vt 0.972220 0.804498
vt 0.833430 0.700405
vt 0.902825 0.700405
vt 0.764034 0.700405
vt 0.833429 0.631010
vt 0.694639 0.700405
vt 0.972220 0.700405
vt 0.902825 0.631010
s 1
usemtl lambert1
f 9/15/7 12/18/7 11/17/7
f 12/18/8 13/19/8 11/17/8
f 14/22/9 15/24/9 13/20/9
f 16/26/10 12/18/10 10/16/10
f 9/15/11 13/20/11 15/24/11
f 18/28/7 9/15/7 17/27/7
f 16/25/9 19/29/9 15/24/9
f 20/32/10 10/16/10 18/28/10
f 17/27/11 15/24/11 19/29/11
f 17/27/12 20/33/12 18/28/12
f 9/15/7 10/16/7 12/18/7
f 12/18/8 14/21/8 13/19/8
f 14/22/9 16/25/9 15/24/9
f 16/26/10 14/23/10 12/18/10
f 9/15/11 11/17/11 13/20/11
f 18/28/7 10/16/7 9/15/7
f 16/25/9 20/31/9 19/29/9
f 20/32/10 16/26/10 10/16/10
f 17/27/11 9/15/11 15/24/11
f 17/27/12 19/30/12 20/33/12
o ArmRight1
v -39.999996 90.000000 9.999986
v -19.999998 90.000000 9.999987
v -40.000000 120.000000 9.999981
v -19.999998 120.000000 9.999982
v -40.000000 120.000000 -10.000020
v -19.999998 120.000000 -10.000018
v -39.999996 90.000000 -10.000015
v -19.999998 90.000000 -10.000013
v -39.999996 59.999996 9.999990
v -19.999994 60.000000 9.999990
v -39.999996 59.999996 -10.000010
v -19.999994 60.000000 -10.000010
vn -0.0000 -0.0000 1.0000
vn -0.0000 1.0000 -0.0000
vn -0.0000 -0.0000 -1.0000
vn 1.0000 -0.0000 -0.0000
vn -1.0000 -0.0000 -0.0000
vn -0.0000 -1.0000 -0.0000
vt 0.110906 0.425123
vt 0.180302 0.425123
vt 0.110906 0.529216
vt 0.180302 0.529216
vt 0.319092 0.529216
vt 0.110906 0.598611
vt 0.041511 0.529216
vt 0.180302 0.598611
vt 0.249697 0.529216
vt 0.319092 0.425123
vt 0.041511 0.425123
vt 0.249697 0.425123
vt 0.110906 0.321030
vt 0.180302 0.321030
vt 0.041511 0.321030
vt 0.110906 0.251635
vt 0.319092 0.321030
vt 0.249697 0.321030
vt 0.180302 0.251635
s 1
usemtl lambert1
f 22/35/13 23/36/13 21/34/13
f 24/37/14 25/39/14 23/36/14
f 26/42/15 27/43/15 25/38/15
f 28/45/16 24/37/16 22/35/16
f 21/34/17 25/40/17 27/44/17
f 30/47/13 21/34/13 29/46/13
f 28/45/15 31/50/15 27/43/15
f 32/51/16 22/35/16 30/47/16
f 29/46/17 27/44/17 31/48/17
f 32/52/18 29/46/18 31/49/18
f 22/35/13 24/37/13 23/36/13
f 24/37/14 26/41/14 25/39/14
f 26/42/15 28/45/15 27/43/15
f 28/45/16 26/42/16 24/37/16
f 21/34/17 23/36/17 25/40/17
f 30/47/13 22/35/13 21/34/13
f 28/45/15 32/51/15 31/50/15
f 32/51/16 28/45/16 22/35/16
f 29/46/17 21/34/17 27/44/17
f 32/52/18 30/47/18 29/46/18
o Body1
v -20.021650 59.999996 9.999991
v 19.978445 59.999996 9.999989
v -20.021654 120.000000 9.999982
v 19.978439 120.000000 9.999980
v -19.978445 120.000000 -10.000016
v 20.021650 120.000000 -10.000018
v -19.978445 59.999996 -10.000007
v 20.021650 59.999996 -10.000010
vn -0.0000 -0.0000 1.0000
vn -0.0000 1.0000 -0.0000
vn -0.0000 -0.0000 -1.0000
vn -0.0000 -1.0000 -0.0000
vn 1.0000 -0.0000 0.0022
vn -1.0000 -0.0000 -0.0022
vt 0.465780 0.391188
vt 0.607623 0.391188
vt 0.465781 0.603950
vt 0.607623 0.603950
vt 0.820385 0.603950
vt 0.465934 0.674871
vt 0.394860 0.603950
vt 0.607776 0.674871
vt 0.678543 0.603950
vt 0.394860 0.391188
vt 0.820385 0.391188
vt 0.465934 0.320267
vt 0.607776 0.320268
vt 0.678543 0.391188
s 1
usemtl lambert1
f 33/53/19 36/56/19 35/55/19
f 36/56/20 37/58/20 35/55/20
f 38/61/21 39/63/21 37/57/21
f 39/64/22 34/54/22 33/53/22
f 40/66/23 36/56/23 34/54/23
f 33/53/24 37/59/24 39/62/24
f 33/53/19 34/54/19 36/56/19
f 36/56/20 38/60/20 37/58/20
f 38/61/21 40/66/21 39/63/21
f 39/64/22 40/65/22 34/54/22
f 40/66/23 38/61/23 36/56/23
f 33/53/24 35/55/24 37/59/24
o Head1
v -20.000004 120.000000 19.999983
v 19.999998 120.000000 19.999983
v -20.000006 160.000000 19.999975
v 19.999994 160.000000 19.999975
v -20.000006 160.000000 -20.000025
v 19.999994 160.000000 -20.000025
v -20.000004 120.000000 -20.000019
v 19.999998 120.000000 -20.000019
vn -0.0000 -0.0000 1.0000
vn -0.0000 1.0000 -0.0000
vn -0.0000 -0.0000 -1.0000
vn -0.0000 -1.0000 -0.0000
vn 1.0000 -0.0000 -0.0000
vn -1.0000 -0.0000 -0.0000
vt 0.214239 0.703683
vt 0.355532 0.703684
vt 0.214239 0.844978
vt 0.355533 0.844979
vt 0.638122 0.844978
vt 0.214239 0.986273
vt 0.072944 0.844979
vt 0.355532 0.986273
vt 0.496827 0.844978
vt 0.214239 0.562390
vt 0.072944 0.703683
vt 0.638122 0.703684
vt 0.355533 0.562389
vt 0.496827 0.703683
s 1
usemtl lambert1
f 41/67/25 44/70/25 43/69/25
f 44/70/26 45/72/26 43/69/26
f 46/75/27 47/78/27 45/71/27
f 48/79/28 41/67/28 47/76/28
f 48/80/29 44/70/29 42/68/29
f 41/67/30 45/73/30 47/77/30
f 41/67/25 42/68/25 44/70/25
f 44/70/26 46/74/26 45/72/26
f 46/75/27 48/80/27 47/78/27
f 48/79/28 42/68/28 41/67/28
f 48/80/29 46/75/29 44/70/29
f 41/67/30 43/69/30 45/73/30
o LegLeft1
v -0.000002 29.999998 9.999995
v 20.000000 29.999998 9.999995
v -0.000001 60.000000 9.999991
v 19.999998 60.000000 9.999991
v -0.000001 60.000000 -10.000010
v 19.999998 60.000000 -10.000010
v -0.000002 29.999998 -10.000005
v 20.000000 29.999998 -10.000005
v -0.000003 -0.000001 10.000000
v 19.999998 -0.000002 10.000000
v -0.000003 -0.000004 -10.000000
v 19.999998 -0.000005 -10.000000
vn -0.0000 -0.0000 1.0000
vn -0.0000 1.0000 -0.0000
vn -0.0000 -0.0000 -1.0000
vn 1.0000 -0.0000 -0.0000
vn -1.0000 -0.0000 -0.0000
vn -0.0000 -1.0000 -0.0000
vt 0.839335 0.203811
vt 0.908730 0.203811
vt 0.839335 0.307904
vt 0.908730 0.307904
vt 0.839335 0.377299
vt 0.769940 0.307904
vt 0.908730 0.377299
vt 0.700545 0.307904
vt 0.978126 0.307904
vt 0.769940 0.203811
vt 0.700545 0.203811
vt 0.978126 0.203811
vt 0.839335 0.099718
vt 0.908731 0.099718
vt 0.769940 0.099718
vt 0.839335 0.030323
vt 0.700545 0.099718
vt 0.978126 0.099718
vt 0.908730 0.030323
s 1
usemtl lambert1
f 49/81/31 52/84/31 51/83/31
f 52/84/32 53/85/32 51/83/32
f 54/88/33 55/90/33 53/86/33
f 56/92/34 52/84/34 50/82/34
f 49/81/35 53/86/35 55/90/35
f 58/94/31 49/81/31 57/93/31
f 56/91/33 59/95/33 55/90/33
f 60/98/34 50/82/34 58/94/34
f 57/93/35 55/90/35 59/95/35
f 57/93/36 60/99/36 58/94/36
f 49/81/31 50/82/31 52/84/31
f 52/84/32 54/87/32 53/85/32
f 54/88/33 56/91/33 55/90/33
f 56/92/34 54/89/34 52/84/34
f 49/81/35 51/83/35 53/86/35
f 58/94/31 50/82/31 49/81/31
f 56/91/33 60/97/33 59/95/33
f 60/98/34 56/92/34 50/82/34
f 57/93/35 49/81/35 55/90/35
f 57/93/36 59/96/36 60/99/36
o LegRight1
v -19.999996 29.999998 9.999995
v 0.000003 30.000000 9.999995
v -20.000006 59.999989 9.999991
v -0.000001 59.999996 9.999991
v -20.000006 59.999989 -10.000010
v -0.000000 59.999996 -10.000009
v -19.999996 29.999998 -10.000007
v 0.000003 30.000000 -10.000004
v -19.999990 0.000002 10.000000
v 0.000006 0.000005 10.000000
v -19.999990 -0.000003 -10.000002
v 0.000007 0.000000 -9.999999
vn -0.0000 -0.0000 1.0000
vn -0.0000 1.0000 -0.0000
vn -0.0000 -0.0000 -1.0000
vn 1.0000 -0.0000 -0.0000
vn -1.0000 -0.0000 -0.0000
vn -0.0000 -1.0000 -0.0000
vt 0.348146 0.184777
vt 0.417542 0.184777
vt 0.348146 0.288870
vt 0.417542 0.288870
vt 0.348146 0.358265
vt 0.556332 0.288870
vt 0.278751 0.288870
vt 0.417542 0.358265
vt 0.486937 0.288870
vt 0.556332 0.184777
vt 0.278751 0.184777
vt 0.486937 0.184777
vt 0.348146 0.080684
vt 0.417542 0.080684
vt 0.278751 0.080684
vt 0.556332 0.080684
vt 0.348146 0.011289
vt 0.486937 0.080684
vt 0.417542 0.011289
s 1
usemtl lambert1
f 61/100/37 64/103/37 63/102/37
f 64/103/38 65/104/38 63/102/38
f 65/105/39 68/111/39 67/109/39
f 68/111/40 64/103/40 62/101/40
f 61/100/41 65/106/41 67/110/41
f 69/112/37 62/101/37 61/100/37
f 69/112/41 67/110/41 71/114/41
f 68/111/39 71/115/39 67/109/39
f 72/117/40 62/101/40 70/113/40
f 69/112/42 72/118/42 70/113/42
f 61/100/37 62/101/37 64/103/37
f 64/103/38 66/107/38 65/104/38
f 65/105/39 66/108/39 68/111/39
f 68/111/40 66/108/40 64/103/40
f 61/100/41 63/102/41 65/106/41
f 69/112/37 70/113/37 62/101/37
f 69/112/41 61/100/41 67/110/41
f 68/111/39 72/117/39 71/115/39
f 72/117/40 68/111/40 62/101/40
f 69/112/42 71/116/42 72/118/42
