# Blender v3.5.0 OBJ File: 'dayScene.blend'
# www.blender.org
mtllib can.mtl
o can
v -18.219414 25.412542 -0.223396
v -18.219414 24.212543 -0.223396
v -13.627301 25.412544 10.863068
v -13.627301 24.212545 10.863068
v 8.545627 24.212542 -11.309860
v -2.540837 24.212542 -15.902029
v 8.545627 25.412540 -11.309860
v -2.540837 25.412540 -15.902029
v -18.219414 -11.787457 -0.223396
v -18.219414 -12.987456 -0.223396
v -13.627301 -11.787458 10.863068
v -13.627301 -12.987457 10.863068
v -13.627301 24.212542 -11.309860
v -13.627301 25.412540 -11.309860
v -2.540837 -12.987456 15.455240
v -2.540837 -11.787457 15.455240
v -2.540837 24.212545 15.455240
v 8.545627 24.212545 10.863068
v -2.540837 25.412544 15.455240
v 8.545627 25.412544 10.863068
v 13.137740 24.212543 -0.223396
v 13.137740 25.412542 -0.223396
v 13.137740 -12.987456 -0.223396
v 13.137740 -11.787457 -0.223396
v 8.545627 -12.987457 10.863068
v 8.545627 -11.787458 10.863068
v -13.627301 -11.787457 -11.309860
v -13.627301 -12.987455 -11.309860
v 8.545627 -12.987455 -11.309860
v 8.545627 -11.787457 -11.309860
v 15.459174 25.412542 -0.223396
v 15.459174 20.612541 -0.223396
v 10.187110 25.412544 12.504494
v 10.187110 20.612541 12.504494
v -15.268785 20.612539 -12.951286
v -2.540837 20.612539 -18.223349
v -15.268785 25.412540 -12.951286
v -2.540837 25.412540 -18.223349
v -2.540837 20.612541 17.776560
v -15.268785 20.612541 12.504494
v -2.540837 25.412544 17.776560
v -15.268785 25.412544 12.504494
v 10.187110 25.412540 -12.951286
v 10.187110 20.612539 -12.951286
v -2.540837 -12.987456 -18.223349
v 10.187110 -12.987455 -12.951286
v -2.540837 -8.187461 -18.223351
v 10.187110 -8.187460 -12.951285
v -15.268785 -12.987455 -12.951286
v -15.268785 -8.187460 -12.951285
v -20.540848 -12.987456 -0.223396
v -20.540848 -8.187454 -0.223396
v -20.540848 20.612541 -0.223396
v -20.540848 25.412542 -0.223396
v -2.540837 -12.987456 17.776560
v -15.268785 -12.987457 12.504494
v -2.540837 -8.187454 17.776558
v -15.268785 -8.187454 12.504495
v 10.187110 -12.987457 12.504494
v 10.187110 -8.187454 12.504495
v 15.459174 -8.187454 -0.223396
v 15.459174 -12.987456 -0.223396
v -2.540837 -11.787457 -15.902029
v -2.540837 -12.987456 -15.902029
v 6.907920 24.212543 -0.223396
v 4.140453 24.212543 6.457893
v 4.140453 24.212543 -6.904686
v -2.540837 24.212543 -9.672096
v -2.540837 24.212543 9.225304
v -9.222127 24.212543 -6.904686
v -9.222127 24.212543 6.457893
v -11.989594 24.212543 -0.223396
v 9.472140 24.212543 -0.223396
v 5.953598 24.212543 -8.717888
v 5.953598 24.212543 8.271095
v -2.540837 24.212542 -12.236374
v -11.035272 24.212543 -8.717888
v -2.540837 24.212545 11.789581
v -11.035272 24.212543 8.271095
v -14.553815 24.212543 -0.223396
vt -1.968483 12.598420
vt 1.968483 12.204720
vt 1.968483 12.598420
vt -1.968483 12.204720
vt 1.968483 12.598420
vt -1.968483 12.204720
vt 1.968483 12.204720
vt -1.968483 12.598420
vt -1.968483 0.393701
vt 1.968483 0.000000
vt 1.968483 0.393701
vt -1.968483 0.000000
vt 1.968483 12.598420
vt -1.968483 12.204720
vt 1.968483 12.204720
vt -1.968483 12.598420
vt 1.968483 0.393701
vt -1.968483 0.000000
vt 1.968483 0.000000
vt -1.968483 0.393701
vt 1.968483 12.598420
vt -1.968483 12.204720
vt 1.968483 12.204720
vt -1.968483 12.598420
vt 1.968483 12.204720
vt -1.968483 12.598420
vt -1.968483 12.204720
vt 1.968483 12.598420
vt 1.968483 0.000000
vt -1.968483 0.393701
vt -1.968483 0.000000
vt 1.968483 0.393701
vt -1.968483 0.393701
vt 1.968483 0.000000
vt 1.968483 0.393701
vt -1.968483 0.000000
vt 1.968483 0.393701
vt -1.968483 0.000000
vt 1.968483 0.000000
vt -1.968483 0.393701
vt -1.968483 12.598420
vt 1.968483 12.204720
vt 1.968483 12.598420
vt -1.968483 12.204720
vt 1.968483 12.598420
vt -1.968483 12.204720
vt 1.968483 12.204720
vt -1.968483 12.598420
vt 1.968483 0.000000
vt -1.968483 0.393701
vt -1.968483 0.000000
vt 1.968483 0.393701
vt 1.968483 12.204720
vt -1.968483 12.598420
vt -1.968483 12.204720
vt 1.968483 12.598420
vt -2.259942 12.598420
vt 2.259942 11.023620
vt 2.259942 12.598420
vt -2.259942 11.023620
vt 2.259942 12.598420
vt -2.259942 11.023620
vt 2.259942 11.023620
vt -2.259942 12.598420
vt 2.259942 12.598420
vt -2.259942 11.023620
vt 2.259942 11.023620
vt -2.259942 12.598420
vt 2.259942 12.598420
vt -2.259942 11.023620
vt 2.259942 11.023620
vt -2.259942 12.598420
vt -2.259942 12.598420
vt 2.259942 11.023620
vt 2.259942 12.598420
vt -2.259942 11.023620
vt 2.259942 1.574803
vt -2.259942 0.000000
vt 2.259942 0.000000
vt -2.259942 1.574803
vt 2.259942 1.574803
vt -2.259942 0.000000
vt 2.259942 0.000000
vt -2.259942 1.574803
vt 2.259942 0.000000
vt -2.259942 1.574803
vt -2.259942 0.000000
vt 2.259942 1.574803
vt 2.259942 11.023620
vt -2.259942 12.598420
vt -2.259942 11.023620
vt 2.259942 12.598420
vt 2.259942 12.598420
vt -2.259942 11.023620
vt 2.259942 11.023620
vt -2.259942 12.598420
vt 2.259942 1.574803
vt -2.259942 0.000000
vt 2.259942 0.000000
vt -2.259942 1.574803
vt 2.259942 1.574803
vt -2.259942 0.000000
vt 2.259942 0.000000
vt -2.259942 1.574803
vt -2.259942 1.574803
vt 2.259942 0.000000
vt 2.259942 1.574803
vt -2.259942 0.000000
vt 2.259942 0.000000
vt -2.259942 1.574803
vt -2.259942 0.000000
vt 2.259942 1.574803
vt 2.259942 11.023620
vt -2.259942 12.598420
vt -2.259942 11.023620
vt 2.259942 12.598420
vt -2.259942 1.574803
vt 2.259942 0.000000
vt 2.259942 1.574803
vt -2.259942 0.000000
vt 3.637282 3.637282
vt 3.637282 -3.637282
vt 5.143893 0.000000
vt -0.000000 -5.143893
vt 0.000000 5.143893
vt -3.637282 3.637282
vt -3.637282 -3.637282
vt -5.143893 0.000000
vt 1.968483 0.393701
vt -1.968483 0.000000
vt 1.968483 0.000000
vt -1.968483 0.393701
vt 1.968483 0.393701
vt -1.968483 0.000000
vt 1.968483 0.000000
vt -1.968483 0.393701
vt -2.192017 -2.192017
vt -2.192017 2.192017
vt -3.099980 0.000000
vt -0.000000 -3.099980
vt 0.000000 3.099980
vt 2.192017 -2.192017
vt 2.192017 2.192017
vt 3.099980 0.000000
vt -3.637282 -3.637282
vt -3.941262 0.000000
vt -5.143893 0.000000
vt -3.637282 3.637282
vt -2.786893 -2.786893
vt -2.786893 2.786893
vt 0.000000 -5.143893
vt 0.000000 -3.941262
vt 2.786893 -2.786893
vt 3.637282 -3.637282
vt -0.000000 5.143893
vt -0.000000 3.941262
vt 2.786893 2.786893
vt 3.637282 3.637282
vt 3.941262 0.000000
vt 5.143893 0.000000
vt 4.175828 4.175828
vt 5.143893 0.000000
vt 5.905512 0.000000
vt 4.175828 -4.175828
vt 3.637282 3.637282
vt 3.637282 -3.637282
vt 0.000000 -5.905512
vt -0.000000 -5.143893
vt 0.000000 5.905512
vt 0.000000 5.143893
vt -3.637282 3.637282
vt -4.175828 4.175828
vt -4.175828 -4.175828
vt -3.637282 -3.637282
vt -5.143893 0.000000
vt -5.905512 0.000000
vt -4.175828 -4.175828
vt -5.143893 0.000000
vt -5.905512 0.000000
vt -4.175828 4.175828
vt -3.637282 -3.637282
vt -3.637282 3.637282
vt 0.000000 -5.905512
vt 0.000000 -5.143893
vt 0.000000 5.905512
vt -0.000000 5.143893
vt 3.637282 3.637282
vt 4.175828 4.175828
vt 4.175828 -4.175828
vt 3.637282 -3.637282
vt 5.143893 0.000000
vt 5.905512 0.000000
vn 0.7071 -0.0000 -0.7071
vn 1.0000 -0.0000 0.0000
vn -0.7071 0.0000 0.7071
vn 0.0000 0.0000 1.0000
vn 0.9239 0.0000 -0.3827
vn 0.7071 0.0000 0.7071
vn 0.3827 0.0000 -0.9239
vn 0.0000 0.0000 -1.0000
vn -0.7071 0.0000 -0.7071
vn -1.0000 0.0000 -0.0000
vn -0.9239 0.0000 -0.3827
vn 0.9239 0.0000 0.3827
vn -0.3827 0.0000 -0.9239
vn -0.9239 0.0000 0.3827
vn 0.0000 -1.0000 -0.0000
vn 0.3827 0.0000 0.9239
vn -0.3827 0.0000 0.9239
vn 0.0000 1.0000 0.0000
usemtl greyLight
s off
f 3/1/1 2/2/2 1/3/2
f 2/2/2 3/1/1 4/4/1
f 7/5/3 6/6/4 5/7/3
f 6/6/4 7/5/3 8/8/4
f 11/9/5 10/10/5 9/11/5
f 10/10/5 11/9/5 12/12/5
f 8/13/4 13/14/6 6/15/4
f 13/14/6 8/13/4 14/16/6
f 11/17/7 15/18/7 12/19/7
f 15/18/7 11/17/7 16/20/7
f 19/21/8 18/22/9 17/23/8
f 18/22/9 19/21/8 20/24/9
f 21/25/10 7/26/3 5/27/3
f 7/26/3 21/25/10 22/28/10
f 25/29/11 24/30/11 23/31/11
f 24/30/11 25/29/11 26/32/11
f 9/33/12 28/34/12 27/35/12
f 28/34/12 9/33/12 10/36/12
f 16/37/13 25/38/13 15/39/13
f 25/38/13 16/37/13 26/40/13
f 1/41/2 13/42/6 14/43/6
f 13/42/6 1/41/2 2/44/2
f 3/45/1 17/46/8 4/47/1
f 17/46/8 3/45/1 19/48/8
f 23/49/14 30/50/14 29/51/14
f 30/50/14 23/49/14 24/52/14
f 18/53/9 22/54/10 21/55/10
f 22/54/10 18/53/9 20/56/9
f 33/57/6 32/58/2 31/59/2
f 32/58/2 33/57/6 34/60/6
f 37/61/9 36/62/8 35/63/9
f 36/62/8 37/61/9 38/64/8
f 41/65/4 40/66/3 39/67/4
f 40/66/3 41/65/4 42/68/3
f 33/69/6 39/70/4 34/71/6
f 39/70/4 33/69/6 41/72/4
f 31/73/2 44/74/1 43/75/1
f 44/74/1 31/73/2 32/76/2
f 47/77/8 46/78/1 45/79/8
f 46/78/1 47/77/8 48/80/1
f 50/81/9 45/82/8 49/83/9
f 45/82/8 50/81/9 47/84/8
f 51/85/10 50/86/9 49/87/9
f 50/86/9 51/85/10 52/88/10
f 53/89/10 37/90/9 35/91/9
f 37/90/9 53/89/10 54/92/10
f 38/93/8 44/94/1 36/95/8
f 44/94/1 38/93/8 43/96/1
f 57/97/4 56/98/3 55/99/4
f 56/98/3 57/97/4 58/100/3
f 60/101/6 55/102/4 59/103/6
f 55/102/4 60/101/6 57/104/4
f 60/105/6 62/106/2 61/107/2
f 62/106/2 60/105/6 59/108/6
f 56/109/3 52/110/10 51/111/10
f 52/110/10 56/109/3 58/112/3
f 40/113/3 54/114/10 53/115/10
f 54/114/10 40/113/3 42/116/3
f 61/117/2 46/118/1 48/119/1
f 46/118/1 61/117/2 62/120/2
f 26/121/15 30/122/15 24/123/15
f 30/122/15 26/121/15 63/124/15
f 63/124/15 26/121/15 16/125/15
f 63/124/15 16/125/15 11/126/15
f 63/124/15 11/126/15 27/127/15
f 27/127/15 11/126/15 9/128/15
f 63/129/16 28/130/16 64/131/16
f 28/130/16 63/129/16 27/132/16
f 30/133/17 64/134/17 29/135/17
f 64/134/17 30/133/17 63/136/17
f 67/137/18 66/138/18 65/139/18
f 66/138/18 67/137/18 68/140/18
f 66/138/18 68/140/18 69/141/18
f 69/141/18 68/140/18 70/142/18
f 69/141/18 70/142/18 71/143/18
f 71/143/18 70/142/18 72/144/18
f 5/145/18 73/146/18 21/147/18
f 73/146/18 18/148/18 21/147/18
f 73/146/18 5/145/18 74/149/18
f 18/148/18 73/146/18 75/150/18
f 74/149/18 5/145/18 6/151/18
f 74/149/18 6/151/18 76/152/18
f 76/152/18 6/151/18 77/153/18
f 77/153/18 6/151/18 13/154/18
f 18/148/18 75/150/18 17/155/18
f 17/155/18 75/150/18 78/156/18
f 17/155/18 78/156/18 79/157/18
f 17/155/18 79/157/18 4/158/18
f 77/153/18 13/154/18 80/159/18
f 4/158/18 79/157/18 80/159/18
f 80/159/18 13/154/18 2/160/18
f 4/158/18 80/159/18 2/160/18
f 59/161/15 23/162/15 62/163/15
f 23/162/15 46/164/15 62/163/15
f 23/162/15 59/161/15 25/165/15
f 46/164/15 23/162/15 29/166/15
f 46/164/15 29/166/15 45/167/15
f 45/167/15 29/166/15 64/168/15
f 25/165/15 59/161/15 55/169/15
f 25/165/15 55/169/15 15/170/15
f 15/170/15 55/169/15 12/171/15
f 12/171/15 55/169/15 56/172/15
f 45/167/15 64/168/15 49/173/15
f 49/173/15 64/168/15 28/174/15
f 12/171/15 56/172/15 10/175/15
f 49/173/15 28/174/15 10/175/15
f 10/175/15 56/172/15 51/176/15
f 49/173/15 10/175/15 51/176/15
f 43/177/18 22/178/18 31/179/18
f 22/178/18 33/180/18 31/179/18
f 22/178/18 43/177/18 7/181/18
f 33/180/18 22/178/18 20/182/18
f 7/181/18 43/177/18 38/183/18
f 7/181/18 38/183/18 8/184/18
f 33/180/18 20/182/18 41/185/18
f 41/185/18 20/182/18 19/186/18
f 41/185/18 19/186/18 3/187/18
f 41/185/18 3/187/18 42/188/18
f 8/184/18 38/183/18 37/189/18
f 8/184/18 37/189/18 14/190/18
f 42/188/18 3/187/18 1/191/18
f 14/190/18 37/189/18 1/191/18
f 42/188/18 1/191/18 54/192/18
f 1/191/18 37/189/18 54/192/18
usemtl red.002
f 36/95/8 48/80/1 47/77/8
f 48/80/1 36/95/8 44/94/1
f 58/112/3 53/115/10 52/110/10
f 53/115/10 58/112/3 40/113/3
f 52/88/10 35/91/9 50/86/9
f 35/91/9 52/88/10 53/89/10
f 34/71/6 57/104/4 60/101/6
f 57/104/4 34/71/6 39/70/4
f 35/63/9 47/84/8 50/81/9
f 47/84/8 35/63/9 36/62/8
f 34/60/6 61/107/2 32/58/2
f 61/107/2 34/60/6 60/105/6
f 39/67/4 58/100/3 57/97/4
f 58/100/3 39/67/4 40/66/3
f 32/76/2 48/119/1 44/74/1
f 48/119/1 32/76/2 61/117/2
usemtl greyDark
f 74/149/18 65/139/18 73/146/18
f 65/139/18 75/150/18 73/146/18
f 65/139/18 74/149/18 67/137/18
f 75/150/18 65/139/18 66/138/18
f 75/150/18 66/138/18 78/156/18
f 78/156/18 66/138/18 69/141/18
f 67/137/18 74/149/18 76/152/18
f 67/137/18 76/152/18 68/140/18
f 68/140/18 76/152/18 70/142/18
f 70/142/18 76/152/18 77/153/18
f 78/156/18 69/141/18 79/157/18
f 79/157/18 69/141/18 71/143/18
f 70/142/18 77/153/18 72/144/18
f 79/157/18 71/143/18 72/144/18
f 72/144/18 77/153/18 80/159/18
f 79/157/18 72/144/18 80/159/18
